<?xml version="1.0" encoding="utf-8" ?>
<svg xmlns="http://www.w3.org/2000/svg" xmlns:cc="http://creativecommons.org/ns" xmlns:dc="http://purl.org/dc/elements/1.1/" xmlns:ev="http://www.w3.org/2001/xml-events" xmlns:inkscape="http://www.inkscape.org/namespaces/inkscape" xmlns:rdf="http://www.w3.org/1999/02/22-rdf-syntax-ns" xmlns:sodipodi="http://sodipodi.sourceforge.net/DTD/sodipodi-0.dtd" xmlns:xlink="http://www.w3.org/1999/xlink" baseProfile="tiny" height="20.0000108cm" version="1.2" viewBox="0 0 1133.85888 755.9059199999999" width="30.0000162cm">
  <metadata>
    <rdf:RDF>
      <cc:Work>
        <dc:format>image/svg+xml</dc:format>
        <dc:source>vpype read ek.svg linemerge --tolerance 0.3mm linesimplify --tolerance 0.05mm linesort write ek-draw.svg
</dc:source>
        <dc:date>2025-12-21T15:33:48.850970</dc:date>
      </cc:Work>
    </rdf:RDF>
  </metadata>
  <defs/>
  <g fill="none" id="layer1" inkscape:groupmode="layer" inkscape:label="1" stroke="#0000ff" style="display:inline">
    <polyline points="486.6771,755.9059 458.9105,742.602 456.9451,742.6776 454.9042,743.2823 433.8144,752.2776"/>
    <line x1="436.1577" x2="428.6742" y1="749.6319" y2="732.7752"/>
    <line x1="424.7435" x2="435.3733" y1="732.624" y2="755.9059"/>
    <polyline points="432.1441,755.9059 426.5577,742.602 424.6679,742.2996"/>
    <polyline points="430.3372,736.7815 437.0648,734.287 441.6002,734.5894"/>
    <polyline points="443.1876,733.8335 441.4491,724.687 442.5829,716.2209 440.164,706.3185"/>
    <polyline points="439.6349,707.7547 438.879,707.5279 436.3089,698.9862 435.4774,698.6083"/>
    <polyline points="436.4601,696.5673 415.6727,674.4193 410.986,671.0933 410.9105,669.5815 406.5262,664.2901 387.0238,643.8807 380.3719,643.0492 379.6915,643.7295 372.0569,691.8051 365.4049,720.076 384.8317,730.6587 388.838,733.2287 414.6144,675.3263 415.6727,674.4193"/>
    <polyline points="418.5451,672.3783 420.2081,669.6571 433.2853,639.7232 435.7798,640.7814"/>
    <polyline points="435.4774,642.1421 435.7798,640.7814 451.6538,603.9688 441.6758,601.4743 438.6522,603.5909 435.0994,611.9814 433.4365,622.1862 435.0239,627.6287 439.9372,631.0303"/>
    <polyline points="433.2853,639.7232 448.479,604.8003 471.5341,555.4397 478.7908,535.9373 498.3688,510.1609 498.142,509.1026 501.468,506.457 503.0554,506.5326 517.1152,488.2396 516.5105,487.0302 480.5294,459.5908 479.0932,459.8932 465.1089,477.8837 465.2601,478.7152 501.468,506.457"/>
    <polyline points="502.5263,509.783 501.09,511.1436 481.1341,537.2979 476.6743,547.9562 458.7593,587.0365 451.6538,603.9688 474.8601,608.6554 584.2397,662.3248"/>
    <line x1="582.5767" x2="620.0165" y1="666.3311" y2="755.9059"/>
    <polyline points="640.9546,755.9059 678.8035,738.6713 679.9374,740.561 686.2907,755.9059"/>
    <polyline points="716.2061,755.9059 697.3232,710.4004 696.1894,708.813 685.1531,680.3909 660.813,622.5641 654.3878,618.7846 616.4413,589.9846 541.531,553.9279"/>
    <polyline points="536.1641,554.3058 523.9184,571.6916 521.953,571.5405 505.3231,563.0743"/>
    <polyline points="504.4916,561.4113 498.5955,555.8176 501.2412,549.6948 535.7861,504.0381 536.2397,502.4507 519.9121,489.4491 517.1152,488.2396"/>
    <polyline points="519.9121,489.4491 503.0554,511.6727 501.6948,512.2774 487.1058,531.553 482.4192,538.3562 479.2444,545.7641 497.2349,557.2538 498.5955,555.8176"/>
    <polyline points="497.2349,557.2538 496.2522,560.1263 494.816,562.9231"/>
    <polyline points="494.6648,564.9641 494.816,562.9231 479.5467,553.2475 476.6743,551.8869 475.7672,553.172 464.0506,579.931 455.131,600.5673 455.131,601.4743 476.4475,605.9342 494.6648,564.9641 500.3341,571.0869"/>
    <polyline points="502.6018,568.8948 505.3231,563.0743 504.1137,562.3184 508.8759,551.8869 542.1357,507.9688 543.4964,506.7593 546.52,503.131 546.8979,501.3924 586.3562,449.6884 589.909,450.142 601.0208,467.6034 621.4303,496.1011 630.0476,510.9168 657.0334,550.1483 672.8319,585.1468 678.0476,597.9972 678.2744,598.9799 677.5185,600.6428 685.8334,602.9862 686.0602,602.3814 664.8193,551.0554 638.8917,512.2019 601.3232,458.1546 591.6476,442.6585"/>
    <polyline points="593.235,440.542 629.4429,393.2979 629.972,393.449 631.3326,393.1467 635.0366,388.9136 634.8854,386.1167 635.7169,384.5293 664.5169,346.8096 668.8256,344.2396"/>
    <polyline points="665.6508,339.7797 668.9767,339.7041 672.4539,339.0994"/>
    <line x1="676.4602" x2="681.298" y1="340.5356" y2="343.1813"/>
    <polyline points="682.1295,337.4364 681.298,343.1813 692.8634,360.7939 713.802,390.8034 768.9075,473.1215 805.4933,526.942 832.2524,508.4979 859.1627,490.5074 968.8446,415.0679 1081.2478,338.8726"/>
    <polyline points="1095.4589,246.5009 1088.5045,251.4899 1043.0746,282.3309 1032.4163,289.2852 1001.8777,310.5262 955.6919,341.5939 904.9706,376.8947 875.2635,396.775 767.3201,470.7026 739.8807,489.1467 685.6067,526.5641 660.057,543.6475 626.4192,567.0806 582.5767,666.3311 565.8712,702.8413 544.2523,751.2193 499.6538,729.4492 510.7656,705.1846 520.8192,681.298 549.6948,616.668 559.8995,592.7814 571.2381,568.0633 572.2964,566.8538 585.5247,535.9373 629.8964,505.3231 685.4555,467.7546 766.8666,411.8931 793.928,393.9026 847.9753,356.712"/>
    <polyline points="791.1311,279.8364 797.7075,276.2836 828.2461,258.5198 850.8477,244.8379"/>
    <polyline points="795.213,215.0552 822.5012,254.8915 851.3012,297.9781 877.6068,336.3025 983.0556,492.1703 1008.2273,529.9656"/>
    <polyline points="1034.5328,512.2019 930.747,358.9797 877.6824,279.9876 849.2603,238.7907 800.8823,166.6773 797.9343,162.9733 790.9044,157.5308 780.6996,141.7324 684.5263,0.0"/>
    <polyline points="652.0224,0.0 539.5656,76.5733 520.29,90.4063 485.4428,113.8394 459.5152,130.2426 471.3073,57.8268 473.7262,45.2788 476.3719,36.5103 470.9294,34.6961 426.6333,26.9858 405.0144,23.5843 340.5356,12.4724 265.323,0.0"/>
    <line x1="294.3498" x2="335.471" y1="8.0126" y2="14.4378"/>
    <line x1="337.4364" x2="319.1435" y1="8.9953" y2="5.8205"/>
    <polyline points="317.7633,0.0 301.7576,99.4772 269.2537,294.4254 255.1938,382.1104"/>
    <polyline points="282.4065,383.7734 362.8348,397.4553 363.2128,396.9262 366.2364,377.8018"/>
    <line x1="370.8474" x2="395.2632" y1="366.3876" y2="370.3183"/>
    <line x1="384.3782" x2="380.3719" y1="368.5797" y2="392.7687"/>
    <polyline points="388.9892,407.9624 367.975,404.4097 368.8821,399.1939 368.5797,397.9845 363.2128,396.9262 362.2301,398.1356 361.4742,403.049 367.975,404.4097 368.2774,405.5435 354.2175,486.8034 394.8097,493.7577 395.8679,493.153"/>
    <polyline points="394.8097,493.7577 395.6412,494.6648 391.9372,516.1326"/>
    <polyline points="391.3325,523.7672 390.5766,529.89 396.5482,530.7971 398.3624,524.5987 399.3451,524.0696 398.2868,528.3026 388.1577,589.0019 396.0191,590.7405"/>
    <polyline points="388.1577,589.0019 381.8837,628.5358 382.3372,629.4429 424.9703,674.7216 438.8034,689.9153"/>
    <polyline points="440.0884,687.572 461.1026,641.0838 473.4995,612.5862 472.8192,611.3011 452.4853,607.2192 454.2239,604.498 455.131,601.4743"/>
    <polyline points="472.8192,611.3011 474.8601,608.6554 476.4475,605.9342"/>
    <line x1="483.4774" x2="542.7405" y1="609.6381" y2="637.9846"/>
    <polyline points="549.6948,616.668 606.7657,644.8633 608.1263,646.8287 609.6381,650.3815 631.7862,704.6555"/>
    <polyline points="604.0444,717.4303 734.5138,657.9405 742.0728,654.9169 765.5059,640.7059 898.9233,550.0727 953.1974,512.5798 969.9029,501.468 983.0556,492.1703 1060.2336,439.7861"/>
    <polyline points="1065.7518,448.7813 1060.2336,439.7861 954.6336,283.9939 902.0225,205.7576 871.8619,161.8395 844.1201,120.3402 823.106,89.8016 807.1563,65.6126 762.8593,0.0"/>
    <polyline points="778.617,0.0 661.2665,80.5796 606.3121,117.7701 470.627,210.671 449.5373,224.8064 444.1703,222.9922 459.5152,130.2426 462.9168,139.6914 615.6098,364.649"/>
    <line x1="616.668" x2="625.5121" y1="371.1498" y2="384.5293"/>
    <line x1="624.983" x2="629.4429" y1="385.6632" y2="393.2979"/>
    <polyline points="635.7169,384.5293 631.1059,379.7671 628.2334,377.8018 621.9594,366.69 616.2901,358.7529 614.098,356.3341 611.8303,353.1592 579.4775,305.7639 579.4019,304.8569 629.3673,271.0679 665.8775,325.2663"/>
    <polyline points="670.413,321.9403 650.3815,292.1576 634.6586,267.8175 682.1295,234.6332 696.4917,255.5718 698.9106,259.5781 709.4177,274.3938 709.0398,274.8474 713.6508,281.8773 713.9531,281.4238 727.9374,301.8332"/>
    <line x1="733.3799" x2="718.1106" y1="298.8852" y2="276.1324"/>
    <polyline points="713.3484,269.4049 696.3405,244.46 684.3972,225.4867"/>
    <polyline points="679.635,228.586 630.9547,261.7702 629.1405,262.2994 626.1169,265.3986 625.8901,266.0033 572.8255,301.4553 546.9735,319.597 543.2696,321.638 525.3546,334.4128 519.1562,337.8899 486.8034,287.471 494.7404,281.8017"/>
    <polyline points="488.2396,280.1387 483.2507,282.86 458.5325,247.1812 447.2695,230.2489"/>
    <line x1="447.5719" x2="464.4286" y1="228.586" y2="217.0962"/>
    <polyline points="470.627,210.671 547.1247,323.8301 601.7767,285.5813 610.0917,280.3655 629.5185,266.986 479.0932,45.052 476.3719,36.5103 480.3782,31.0677 485.7451,25.7764 509.2538,9.4488 522.2236,0.0"/>
    <polyline points="523.8474,0.0 491.5656,23.2819 483.8554,29.3291 481.3609,32.0504 477.7325,37.4173 476.3719,40.2142 474.2554,47.0173 445.0018,224.2773 408.2648,449.6128 399.7231,498.2176 377.8774,638.8917 367.0679,700.5736 364.8758,711.0807 354.1441,755.9059 353.1762,755.9059 361.6254,720.5295 366.0852,700.1957 376.7435,638.8161 398.8916,498.0664"/>
    <polyline points="395.3388,499.6538 395.0364,499.6538 394.2049,505.1719 394.3561,505.5499 392.4664,505.3231 392.0128,506.3058 390.8034,506.079 391.0301,504.7184 401.764,506.3814 402.7467,501.0144 402.2175,500.9389 404.4853,501.3168 404.0317,504.416 405.9215,504.6428 406.375,502.0727 405.9971,499.427 404.9388,497.6885 403.8049,497.4617 409.0963,462.3121 417.4112,413.5561 418.3939,413.027 477.2034,456.9451 479.0932,459.8932"/>
    <polyline points="480.5294,459.5908 481.9656,457.4743 484.3845,455.2065 486.879,450.8979 494.2113,442.9609 496.0255,441.5246 505.0207,432.8317 508.7247,430.4128 509.9341,430.4128 540.246,453.468 519.2318,480.7562 518.4003,480.8318 484.3845,455.2065 480.0003,452.1829 474.331,447.6475 485.8963,435.4774 485.8963,433.8144 488.3152,431.6979 501.468,420.5861 511.3704,412.8002 521.4239,405.5435 530.3436,399.7231 519.005,383.2443 518.0979,383.1687 469.342,416.5798 469.2664,417.7136 488.3152,431.6979"/>
    <polyline points="492.4727,436.6113 465.4113,417.1845 439.6349,397.2286"/>
    <line x1="441.0711" x2="477.9593" y1="399.5719" y2="427.7672"/>
    <polyline points="469.2664,417.7136 464.2018,413.5561 465.9404,413.3294 515.8302,379.238 515.679,378.3309 502.5263,358.9797 501.3924,358.375 501.9215,357.4679 501.3924,358.375 479.0176,373.4931 443.5656,398.0601 426.1042,409.1719 425.8018,410.6081 474.331,447.6475"/>
    <polyline points="490.6585,438.501 504.794,449.764 503.3578,451.3514 509.2538,455.7357"/>
    <polyline points="509.9341,430.4128 512.0507,428.901 513.8648,426.5577"/>
    <polyline points="506.3814,424.5168 543.9499,453.6947 521.2727,483.4774 518.9294,488.8444 502.5263,509.783 462.7656,478.564 479.6223,455.7357 480.1514,450.9735 492.4727,436.6113 506.3814,424.5168 523.4648,411.0616 534.4255,404.4853 549.6948,396.0947 559.2948,391.1813 615.6098,364.649 630.1232,386.3435 660.813,345.2978 656.8822,345.2222 653.8586,346.0537 650.6082,340.6868 610.0917,280.3655"/>
    <line x1="601.7767" x2="485.4428" y1="285.5813" y2="113.8394"/>
    <polyline points="467.5278,100.7623 466.9231,105.2221 461.027,104.2394 460.2711,108.019"/>
    <polyline points="461.7829,126.3119 463.3703,126.0851 462.3121,132.5859 445.3042,130.3182 446.1357,123.8174"/>
    <polyline points="453.6947,131.3764 453.8459,130.0158 455.5845,130.2426"/>
    <polyline points="459.5152,130.2426 456.7184,127.0678 453.468,125.0268 218.8348,85.4174"/>
    <polyline points="203.2631,181.3418 216.6426,183.6095 233.2726,186.8599 442.1294,222.0852 444.1703,222.9922 445.7577,233.2726 519.6097,342.9545 557.7074,398.7404 572.0696,420.5861 587.2633,442.4317 661.1153,551.4334 681.4492,600.794 683.339,608.8066 674.9484,603.0617 626.4192,567.0806 564.9641,520.5168 541.7578,502.5263 630.1232,386.3435 685.4555,467.7546 710.7783,505.6255 712.7437,507.742 764.2965,584.0129 810.1044,652.6492 853.0398,688.5547 873.9028,706.8476 895.5217,724.1579 928.2525,751.5973"/>
    <polyline points="868.6145,755.9059 826.3564,720.3028 784.1012,686.2114 780.2461,683.7169 723.2508,640.5547 683.339,608.8066 690.7468,621.2791 710.098,669.2035 746.5556,755.9059"/>
    <polyline points="755.0283,755.9059 822.728,725.065 826.3564,720.3028 878.0603,658.5452 895.6729,636.8507"/>
    <line x1="878.0603" x2="833.9154" y1="658.5452" y2="623.0177"/>
    <polyline points="829.6067,628.3846 816.454,609.5625 816.7563,602.6082 684.624,407.4333 667.6161,382.7908"/>
    <polyline points="688.1012,365.7829 674.8728,374.9293 670.413,380.523 670.4886,381.9593 686.4382,405.09 687.4964,405.3168 705.109,393.449 705.4114,392.0128"/>
    <polyline points="706.772,393.1467 705.4114,392.0128 687.2697,364.5734 675.5531,345.2222"/>
    <polyline points="669.9594,334.4884 670.413,336.227 671.2445,337.8144 672.4539,339.0994 674.3437,340.1577 676.4602,340.5356 678.6523,340.1577 680.6177,339.0994 682.1295,337.4364 682.961,335.471 683.1122,333.2789 682.5075,331.1624 681.2224,329.3482 679.1059,327.912 678.5012,322.2427"/>
    <polyline points="673.9657,321.1844 672.3027,322.9986 670.413,321.9403 665.8775,325.2663 668.5232,329.4994 658.8476,342.4254 648.9452,357.0144 646.4507,356.712"/>
    <line x1="636.0192" x2="593.235" y1="354.7466" y2="291.7797"/>
    <polyline points="579.4775,305.7639 570.6334,311.2065 523.1625,343.7104 537.6759,364.4978 543.8743,360.4915"/>
    <line x1="539.4145" x2="554.0034" y1="366.5388" y2="387.553"/>
    <polyline points="561.0334,397.3042 555.8932,399.7231 553.7767,400.4034 531.2507,413.027 521.3483,419.679 514.016,425.7262 513.8648,426.5577 514.6208,427.3892 542.6649,448.9325 543.2696,448.9325 544.7814,448.0254 566.5515,418.9231 567.005,419.4522"/>
    <polyline points="569.8019,423.1561 565.1153,428.2963 523.4648,483.7042 523.3137,484.4601 540.246,497.4617 541.6066,496.7814 548.5609,499.2003"/>
    <polyline points="541.6066,496.7814 558.4633,473.5751 581.8964,443.49"/>
    <polyline points="582.9546,441.5246 566.5515,418.9231 567.005,417.638 555.5909,401.1593 555.8932,399.7231 554.3058,399.2695 548.5609,391.1057 548.7877,389.6695 554.0034,387.553 606.9925,362.2301 613.8712,358.0726 615.5342,357.9215 648.7941,341.7451 652.12,339.8553 662.098,335.6222 663.761,337.2852 668.8256,344.2396 671.698,343.786 673.8901,344.0128 675.5531,345.2222 685.6067,341.7451 687.7988,340.6112 686.287,338.3435 686.8917,336.1514 688.8571,334.0348 684.8508,325.9466 684.4728,324.6616"/>
    <polyline points="684.0193,323.2254 682.583,322.7718 675.0996,321.7892 673.9657,321.1844 711.2319,271.975 714.709,268.0442 750.7658,219.7419 751.0681,218.7592 755.0744,213.7702 757.3421,211.5025 792.265,164.6363 798.6902,154.8095 807.1563,143.0174 807.0808,141.8835"/>
    <line x1="801.2603" x2="780.6996" y1="127.6725" y2="141.7324"/>
    <polyline points="785.8398,155.9434 807.0808,141.8835 833.7642,99.4772 835.8808,97.5875 879.6477,29.8583 892.4981,15.0425 892.4225,13.8331 890.5328,12.1701 889.5501,12.3213 805.9469,69.7701"/>
    <line x1="802.5453" x2="897.2301" y1="64.4788" y2="0.0"/>
    <polyline points="903.9501,0.0 807.1563,65.6126 754.0162,102.5764 700.3468,138.6331 673.0586,157.9087 631.3326,185.9529 567.1562,230.0222 537.7515,249.8269 482.5703,287.9246 440.3908,316.3466"/>
    <polygon points="444.775,316.5734 481.2853,291.4017 515.3011,340.9892 515.6034,342.2742 517.4932,344.3907 518.2491,345.6758 519.6853,346.0537 523.1625,343.7104 523.1625,342.3498 521.1215,338.4947 519.1562,337.8899 515.3011,340.9892 496.857,353.0837 494.3625,354.8978 493.2286,356.712 477.4302,366.4632 444.6995,317.6317"/>
    <polyline points="448.2522,331.4647 473.2727,368.4285 473.3483,369.5624 439.4081,393.449 421.8711,404.9388"/>
    <polyline points="420.5861,405.2412 418.3939,413.027 417.4112,413.5561 410.6837,412.4223"/>
    <polyline points="413.6317,408.6427 423.3073,408.7939 439.6349,397.2286 499.3515,356.5608 502.6774,357.7703 534.4255,404.4853"/>
    <polyline points="530.3436,399.7231 547.7294,390.4254 548.7121,390.501 547.7294,390.4254 547.7294,389.5183 535.1814,371.4522 532.2334,367.7482 517.4176,377.3482 503.9625,357.5435 503.9625,356.1829 518.7026,346.8096 519.005,345.9025 518.7026,346.8096 532.4601,366.5388 532.2334,367.7482"/>
    <line x1="517.4176" x2="515.679" y1="377.3482" y2="378.3309"/>
    <line x1="496.857" x2="463.5971" y1="353.0837" y2="303.5718"/>
    <polyline points="460.1955,303.0427 495.8743,355.2002 499.3515,356.5608 519.6097,342.9545 547.1247,323.8301"/>
    <polyline points="574.035,309.1655 589.3798,331.0868 609.4114,360.6427"/>
    <line x1="627.4775" x2="653.8586" y1="358.9041" y2="346.0537"/>
    <polyline points="660.813,345.2978 669.9594,334.4884 670.2618,331.9939 671.4712,329.7262 673.4366,328.1388 675.1752,327.534 676.2334,324.6616 678.5012,322.2427 734.287,249.449 797.9343,162.9733 810.5579,143.6977 837.0146,102.1985 883.654,31.2945 910.2555,0.0"/>
    <polyline points="957.6572,43.0866 840.7942,122.6835 827.1878,131.3764 802.0162,150.1229 737.4618,193.0584 682.961,229.9466 629.5185,266.986 671.2445,327.1561 673.4366,328.1388"/>
    <polyline points="675.1752,327.534 677.2161,327.3829 679.1059,327.912"/>
    <polyline points="681.2224,329.3482 686.5138,329.3482 688.0256,328.6679 711.3831,316.9514 733.8335,305.2348 764.8256,287.6222 786.9737,275.4521 822.5012,254.8915 849.2603,238.7907 875.2635,222.5387 834.9737,162.5198"/>
    <polyline points="843.6666,124.8001 814.3374,144.3024 802.6209,162.4442 802.0918,164.6363 799.6729,168.945 798.0855,169.8521 761.5752,218.5324 760.4414,222.0096 756.2839,226.6206 754.2429,227.83 733.9091,255.345 713.9531,281.4238 684.0193,323.2254 684.4728,324.6616 686.8917,323.8301 758.6272,285.2033 784.7815,269.934 791.5091,265.7009 776.6177,244.3844 776.1642,242.8726 773.4429,239.7734 756.2839,213.8458 739.3516,189.2033 738.9736,188.0694 705.3358,138.482 704.5043,139.0111 755.3012,104.4662"/>
    <polyline points="752.7311,106.2804 785.8398,155.1875 785.8398,156.3969 738.9736,188.0694 732.4728,193.0584 678.9547,229.0395 682.1295,234.6332 788.8634,161.8395 790.1485,161.915 792.265,164.6363"/>
    <polyline points="791.2823,171.9686 785.9154,168.7182 781.3799,163.8804"/>
    <polyline points="785.4618,168.2647 777.4492,175.5214 783.6477,182.3245"/>
    <polyline points="765.0524,174.9166 762.5579,170.4568 761.3484,161.2347 762.3311,156.8505 734.8917,115.2757"/>
    <polyline points="727.4839,120.2646 688.2523,61.8331 648.0381,2.7213"/>
    <polyline points="606.5556,0.0 873.3737,393.9026 951.1564,509.6318 978.9738,550.2239"/>
    <polyline points="951.232,569.4239 885.1658,472.5924 734.287,249.449"/>
    <line x1="738.2177" x2="761.5752" y1="249.6001" y2="283.5403"/>
    <polyline points="755.6791,286.7907 735.4965,256.0253 733.9091,255.345"/>
    <polyline points="734.8917,278.249 731.4902,284.7498 723.8555,290.5702"/>
    <polyline points="710.0224,281.197 697.7012,271.5214 689.5374,263.3576"/>
    <polyline points="681.7515,268.649 689.613,278.0222 704.3531,288.6049"/>
    <line x1="711.3831" x2="716.4476" y1="316.9514" y2="324.208"/>
    <polyline points="734.8917,310.9041 735.0429,312.2647 762.1043,352.5545 762.4823,353.764 721.2098,382.3372 718.035,385.2097 716.1453,385.5876 712.0634,388.3845 707.2256,391.8616 706.772,393.1467 707.6035,395.0364 709.4177,397.6821 720.3783,390.1986 720.4539,388.9136"/>
    <polyline points="740.6366,377.0459 763.0114,409.9278 743.4335,423.005 687.7988,340.6112"/>
    <polyline points="688.8571,334.0348 714.5579,321.4112 734.8917,310.9041 767.0177,293.4427 791.1311,279.8364 788.1075,274.7718 756.3595,227.9812 754.5453,226.6206 751.0681,220.6489 750.161,218.0789 734.0602,195.4017 698.7594,142.3371 704.5043,139.0111"/>
    <polyline points="726.35,121.0205 754.6209,163.3513 762.5579,170.4568"/>
    <line x1="747.591" x2="693.3169" y1="208.4033" y2="245.1403"/>
    <line x1="696.4917" x2="648.0381" y1="255.5718" y2="288.4537"/>
    <line x1="646.8287" x2="700.2712" y1="292.1576" y2="255.9497"/>
    <polyline points="656.2019,248.6175 619.4649,194.041 539.5656,76.5733 499.805,16.1008"/>
    <line x1="481.4365" x2="482.8727" y1="22.9039" y2="35.3008"/>
    <polyline points="479.4711,40.063 477.8837,47.3197 476.7499,47.4709 471.5341,39.0047 471.3073,37.2662 471.9121,31.8236 472.3656,30.1606 472.9703,29.9339 481.4365,22.9039 514.4226,0.0"/>
    <polyline points="520.4394,0.0 508.8759,8.4661 490.1294,21.3165 484.0822,25.852 481.7388,27.9685 479.5467,30.3118 475.9184,35.5276 473.0459,41.9528 472.1388,45.2032 441.5246,234.2552 412.8002,407.6601 406.375,448.7813 387.0994,567.2318"/>
    <line x1="388.9892" x2="384.1514" y1="567.6853" y2="585.5247"/>
    <polyline points="386.1923,585.8271 387.0994,567.2318 365.1026,700.2712 360.1892,722.5705 352.1518,755.9059"/>
    <polyline points="356.2882,755.9059 363.2128,726.0476 363.9687,724.9894 358.0726,721.5878 359.7356,715.5405 365.4049,720.076 364.9514,722.4193 363.9687,724.9894 381.6569,734.5894 376.7816,755.9059"/>
    <polyline points="378.3851,755.9059 383.3199,736.1012 384.0758,734.7406 386.2679,733.0776 387.0994,732.0949 415.2947,669.2035"/>
    <polyline points="423.005,676.9138 430.6396,672.6807 436.7624,678.35 447.5719,652.4224 440.2396,649.3232 430.6396,672.6807"/>
    <polyline points="432.605,674.5704 428.0695,678.1232 426.1042,680.1641"/>
    <line x1="438.501" x2="441.827" y1="681.9783" y2="683.7169"/>
    <polyline points="445.2286,695.6602 443.0365,692.1075 441.1467,688.2523 440.0884,687.572 438.8034,689.9153 436.9892,695.4334 413.027,749.5563 412.8002,750.9925"/>
    <line x1="414.0097" x2="388.838" y1="747.4398" y2="733.2287"/>
    <line x1="399.2695" x2="394.8097" y1="741.6949" y2="751.0681"/>
    <polyline points="414.5847,755.9059 424.7435,732.624 438.9546,701.3295"/>
    <polyline points="441.0711,696.5673 434.9483,689.3862 415.2947,669.2035 404.7876,657.7893 389.2915,641.8397 383.2443,639.95 377.8774,638.8917 372.3593,638.287 352.0254,634.8098 327.534,631.3326"/>
    <polyline points="353.4616,638.4381 371.2254,641.3862 371.8301,640.5547 372.8128,636.3216 380.1451,592.2523 379.0112,591.7232 338.2679,585.298"/>
    <polyline points="339.4773,579.2507 358.8285,582.1987 361.4742,583.0302 380.8254,586.1295"/>
    <line x1="384.4538" x2="200.3907" y1="590.3625" y2="558.9168"/>
    <line x1="258.1419" x2="300.775" y1="516.7373" y2="523.7672"/>
    <line x1="298.1293" x2="341.3671" y1="540.3971" y2="546.9735"/>
    <line x1="320.0506" x2="297.071" y1="543.7231" y2="683.8681"/>
    <line x1="276.5104" x2="336.7561" y1="672.076" y2="303.345"/>
    <line x1="338.1167" x2="343.7104" y1="299.6411" y2="264.2647"/>
    <polyline points="337.8144,261.3923 298.4317,292.9891 305.3104,248.7686 335.2443,252.6238"/>
    <polyline points="339.175,246.5765 322.0915,218.7592 313.701,204.019 305.3104,248.7686"/>
    <polyline points="311.5088,282.2553 314.5325,276.1324 319.0679,264.5671 320.5041,259.7293 322.8474,246.6521 323.2254,242.797 323.301,233.3482 322.0915,218.7592 328.2144,222.1607 334.564,225.1844 340.5356,227.6789 349.0774,230.1734"/>
    <line x1="346.734" x2="352.1766" y1="244.9891" y2="210.671"/>
    <line x1="352.4789" x2="386.2819" y1="206.967" y2="-0.0"/>
    <polyline points="364.4764,0.0 362.2301,13.6063 361.701,19.1244 335.849,175.9749"/>
    <line x1="314.6836" x2="400.4034" y1="172.271" y2="187.1623"/>
    <line x1="378.9356" x2="408.8324" y1="183.4584" y2="0.0"/>
    <polyline points="431.0848,0.0 395.9435,214.2993 375.6097,336.0002 364.8758,403.8805 316.1199,701.1027 304.1711,755.9059"/>
    <polygon points="311.2065,749.4051 324.6616,751.5973 326.7781,743.4335 312.9451,741.2413"/>
    <line x1="308.6364" x2="332.3718" y1="734.8161" y2="739.276"/>
    <line x1="331.1624" x2="326.7781" y1="744.265" y2="743.4335"/>
    <polyline points="328.3141,755.9059 338.1167,715.8429 352.0254,634.8098 359.2065,588.6239 360.4915,582.6523 373.7199,499.5782 375.6097,490.4318 420.0569,218.3812 450.9735,31.2189"/>
    <line x1="472.1388" x2="430.1105" y1="31.0677" y2="24.2646"/>
    <line x1="429.3546" x2="471.3073" y1="30.3118" y2="37.2662"/>
    <polyline points="476.3719,36.5103 477.7325,22.7528 481.584,0.0"/>
    <polyline points="469.643,0.0 468.0569,10.9606 479.4711,12.7748"/>
    <polyline points="482.1168,44.0693 479.4711,40.063 479.0932,38.8536 479.6979,37.7197 500.7121,22.0725 526.7152,3.4016"/>
    <polyline points="527.0189,-0.0 566.6271,58.1292 606.3121,117.7701 684.9264,232.7434 700.2712,255.9497 793.928,393.9026 897.5627,547.3515 898.9233,550.0727 900.4351,551.8113 1000.895,635.4145"/>
    <polyline points="962.495,643.7295 919.2572,608.4287 874.1296,570.6334 872.1643,568.2145 870.728,565.4176 794.0036,452.4097 740.3343,372.6616"/>
    <polyline points="692.8634,360.7939 674.8728,372.8884 646.5263,410.5325"/>
    <polyline points="660.7374,431.6223 658.2429,434.1168 658.1673,459.364"/>
    <polyline points="659.2256,463.7483 655.0681,461.7829 637.1531,447.7987 634.0539,449.9152"/>
    <polyline points="632.3909,447.5719 685.6067,526.5641 692.0319,535.7105 714.0287,588.9263"/>
    <line x1="704.202" x2="764.2965" y1="625.2854" y2="584.0129"/>
    <line x1="777.0713" x2="723.2508" y1="603.3641" y2="640.5547"/>
    <line x1="734.5138" x2="753.7894" y1="657.9405" y2="704.6555"/>
    <line x1="738.7469" x2="808.2902" y1="736.9327" y2="705.487"/>
    <polygon points="822.0477,721.2854 827.1878,725.8209 829.4556,722.9484 832.1012,718.7909 825.9784,713.9531 820.6115,720.076"/>
    <line x1="798.9926" x2="765.5059" y1="666.4067" y2="640.7059"/>
    <line x1="821.3674" x2="864.6052" y1="638.5893" y2="674.5704"/>
    <polygon points="853.4178,610.2428 887.7359,638.5137 887.8871,640.1011 862.8666,670.1862 847.1438,657.487 824.6178,638.5137 824.1642,637.3799 835.3516,624.1515 837.317,622.2618 852.2083,611.4523"/>
    <polyline points="842.7595,591.4208 842.6083,592.9326 850.4698,606.9169 838.3753,615.383 830.0603,623.0177 828.9264,623.0177 818.7217,608.8822 818.6461,607.3704 840.4918,592.1011 840.7186,590.8917"/>
    <polyline points="838.98,587.2633 838.1485,586.4318 801.1847,532.8381 801.2603,531.7798 801.1847,532.8381 782.2114,545.6129 782.1359,547.0491 817.9658,599.6602 818.7973,599.8113 838.1485,586.4318"/>
    <polyline points="848.9579,578.8728 813.2792,526.0349 813.128,524.5987"/>
    <polyline points="811.843,524.5987 813.128,524.5987 831.7233,512.353 867.8556,565.342 867.7044,566.3247 859.7674,571.9184"/>
    <polyline points="856.5926,570.0287 830.2871,532.0822 829.0776,531.7042 815.2445,541.3042"/>
    <polyline points="809.802,520.668 809.4996,519.3074 784.5548,483.4774 774.9547,469.0396 773.5185,468.5105"/>
    <polyline points="774.9547,469.0396 775.0303,468.1325 792.8697,455.8113 793.7768,455.6601 827.9438,505.7011 828.3217,506.6081 827.8682,507.3641 809.4996,519.3074"/>
    <polyline points="797.4052,526.6397 797.1784,528.2271 778.5831,540.7751 776.6177,539.3389 756.5862,508.8759 743.5847,489.7514 763.0114,475.6916 768.8319,484.7625 797.4052,526.6397 798.6146,527.32 798.2367,528.1515 800.7311,531.553 802.1674,532.0822 811.5406,525.657 811.843,524.5987 811.3138,522.9357 809.802,520.668 808.139,520.3656 798.8414,526.7152 798.2367,528.1515"/>
    <polyline points="773.065,479.2444 753.0335,492.3971 752.1264,492.3215 751.3705,491.7924 746.6083,484.6113"/>
    <polyline points="759.1563,470.8538 758.9295,471.7609 740.4098,484.2333 739.6539,483.931 716.2209,449.6884 735.6476,436.1577 735.5721,435.0994 735.6476,436.1577 759.1563,470.8538 760.4414,471.2318 760.5925,470.3247 765.128,467.4522 769.6634,464.0506 771.6288,464.5042 773.2918,466.5451 773.6697,469.8711 764.5232,476.0695 763.0114,475.6916 760.2146,472.29 760.5925,470.3247"/>
    <polyline points="747.8933,428.7498 766.2618,416.0506 767.4713,416.6553 789.6949,449.8396 789.7705,450.5955 772.2335,463.1436 771.024,463.2947 770.8729,464.353 771.024,463.2947 747.8933,428.7498 746.6839,428.7498"/>
    <polyline points="733.2287,430.1861 733.2287,432.0758 734.4382,434.0412 735.5721,435.0994 736.9327,435.4774 746.6839,430.0349 746.6083,427.6916 743.4335,423.005 733.2287,430.1861 732.0949,430.2616 709.4177,397.6821 690.3689,410.7593 690.5201,411.6664 711.9878,443.49 712.8949,444.0191 731.9437,431.3955 732.0949,430.2616"/>
    <polyline points="708.5106,447.5719 686.0602,414.2364 690.5201,411.6664"/>
    <polyline points="686.9673,405.2412 682.6586,409.0963 669.5815,389.4427 667.9185,387.6286 666.709,387.4774 665.2728,388.5356 662.7783,391.4081 650.0791,408.416 647.4334,405.4679 673.7389,372.2081 676.5358,369.8648 686.287,362.986"/>
    <line x1="682.961" x2="686.5138" y1="335.471" y2="329.3482"/>
    <polyline points="638.3625,375.1561 627.4775,358.9041 615.6098,364.649 575.1688,419.301 572.0696,420.5861 568.4413,421.2664 543.9499,453.6947"/>
    <polyline points="519.2318,480.7562 521.2727,483.4774 523.3137,484.4601"/>
    <line x1="535.7861" x2="542.1357" y1="504.0381" y2="507.9688"/>
    <line x1="589.909" x2="610.6208" y1="487.9373" y2="518.7026"/>
    <polygon points="622.5641,566.4759 625.5121,562.2428 626.7972,561.9405 632.5421,565.7956 632.3909,567.2318 627.8555,571.5405 622.3373,568.668 622.1106,567.3074"/>
    <polyline points="634.2807,631.1814 659.8303,692.1075 669.3547,715.9941"/>
    <polyline points="596.9389,701.0272 593.7641,703.5972 581.594,716.4476 576.6806,723.8555 566.5515,737.3106 562.2428,742.2996 556.7247,747.0618 560.9888,755.9059"/>
    <polyline points="582.8791,755.9059 613.6444,740.939 669.3547,715.9941 678.8035,738.6713 753.7894,704.6555 780.9264,691.5783 786.5957,681.4492 836.4099,620.2208 858.2556,605.0271 805.4933,526.942 750.8414,564.2082 714.0287,588.9263 691.5027,605.1783 658.0161,620.8255 634.2807,631.1814 633.2224,629.2917 559.8995,592.7814 524.9767,575.6979 504.0381,565.8712 499.805,562.9987 496.2522,560.1263 476.6743,547.9562"/>
    <polyline points="472.9703,555.6664 440.0128,549.9216 441.5246,540.6239 431.6979,529.89 428.4475,527.32 424.5168,524.9011 416.8065,522.8601 415.975,528.983"/>
    <polyline points="416.8065,522.8601 409.1719,521.3483 408.2648,523.994 399.6475,522.5578 399.3451,524.0696"/>
    <line x1="399.6475" x2="403.8049" y1="522.5578" y2="497.4617"/>
    <polyline points="404.2585,494.5137 395.8679,493.153 397.0774,491.7168 401.4616,463.1436 407.2065,428.8254 408.1136,427.9183 410.6837,413.1782 410.6837,412.4223 409.7766,410.9105 410.7593,405.1656 368.5797,397.9845 369.3356,396.5482 382.8663,313.8521 404.7876,317.7073 424.5924,320.6553"/>
    <polyline points="425.4239,314.4569 406.6018,311.2821 402.8979,310.9041 384.1514,307.5025"/>
    <line x1="388.9892" x2="398.9671" y1="303.4206" y2="304.7813"/>
    <polyline points="400.1766,298.0537 398.9671,304.7813 399.3451,308.1073 398.6648,313.701"/>
    <polyline points="409.2475,315.5907 410.3057,309.3923 412.9514,304.7813 413.7829,298.9608 422.4758,300.2458"/>
    <polyline points="430.7152,325.4931 425.4994,320.9577 424.5924,320.6553 425.4239,314.4569 433.6632,316.1954 433.3609,314.7592 445.5309,240.6049 446.2113,239.3954 477.5814,285.8836 477.4302,286.7907 433.6632,316.1954 432.7561,323.5277 430.7152,325.4931 428.3719,337.5876 428.6742,339.8553 419.4522,397.0774 419.0742,404.1073 420.5861,405.2412 421.8711,404.9388 425.8018,410.6081"/>
    <polyline points="419.0742,404.1073 416.8065,405.4679 412.1955,404.6364 410.7593,405.1656"/>
    <line x1="443.5656" x2="464.2018" y1="398.0601" y2="413.5561"/>
    <line x1="465.4113" x2="592.2523" y1="417.1845" y2="330.4821"/>
    <polygon points="628.687,379.6915 631.1814,377.575 646.6019,357.8459 646.4507,356.712 645.3925,356.2585 621.1279,368.4285 614.2492,372.4348 610.1673,375.4585 585.2224,407.8868 576.0003,420.8128 575.4712,420.0569 586.2806,435.4018 586.9609,436.0065 587.868,435.4774 624.983,385.6632 625.9657,383.6223"/>
    <polyline points="573.3546,416.1262 575.6224,414.69 603.2885,378.0286 602.9862,377.0459 588.3972,383.6223 561.0334,397.3042 574.035,417.1845 575.4712,420.0569"/>
    <polygon points="588.6995,448.3278 590.8917,444.775 591.6476,442.6585 593.235,440.542 587.868,435.4774 586.2806,436.4601 583.1814,440.2396 583.1814,441.1467 581.8964,443.49 585.298,448.7058 586.3562,449.6884"/>
    <polyline points="654.8413,483.4018 659.3767,480.0758 658.8476,476.5987 659.5279,470.5514 663.4586,465.4113"/>
    <polyline points="665.046,464.9577 679.8618,465.638 682.6586,463.6727"/>
    <polygon points="667.7673,461.1026 667.6161,459.4396 667.0114,457.9278 665.8775,456.7184 664.4413,455.9625 662.8539,455.7357 661.1909,456.038 659.8303,456.7939 658.8476,457.9278 658.1673,459.364 658.0917,460.9514 658.3941,462.4632 659.2256,463.7483 660.435,464.731 661.8712,465.3357 663.4586,465.4113 665.046,464.9577 666.3311,463.9751 667.3137,462.69"/>
    <line x1="702.161" x2="709.2665" y1="456.1136" y2="465.8648"/>
    <polyline points="560.6554,597.0901 501.5436,568.3657 483.4018,608.731 483.4774,610.4696 481.9656,614.6271 480.7562,615.5342 465.4113,650.0035 463.5215,656.0507 462.1609,657.2602 445.2286,695.6602 441.6002,706.9232"/>
    <polyline points="444.0947,699.213 456.5672,705.6382 470.4003,711.9878"/>
    <polyline points="467.9814,718.4886 464.353,718.035 457.8522,719.698 450.5955,728.6933 446.5892,732.2461 441.6002,734.5894 455.5089,741.7705"/>
    <polyline points="454.9042,743.2823 466.6207,718.3374 469.5688,715.8429 438.9546,701.3295 460.7247,652.2712 478.7152,610.4696 499.805,562.9987 505.3231,551.7357 508.5735,546.6712 541.7578,502.5263 520.0633,486.5011 479.6223,455.7357 423.1561,411.6664 413.6317,408.6427 174.3119,368.5797"/>
    <polyline points="134.9292,454.4506 163.3513,458.9105 187.9182,463.4459 240.3781,471.6853 398.8916,498.0664 444.1703,222.9922"/>
    <polyline points="441.3735,218.3056 439.4837,223.9749 419.679,220.8001"/>
    <polyline points="391.2569,216.8694 398.816,217.8521 400.3278,210.5954 393.2223,209.1592 391.2569,216.8694 375.6852,309.3923 375.6097,312.4915 382.8663,313.8521 384.1514,307.5025 298.4317,292.9891"/>
    <polyline points="311.7356,298.9608 309.6191,311.8868 309.9214,314.0033 311.1309,315.6663 334.186,319.8238"/>
    <line x1="332.6742" x2="375.6097" y1="329.2726" y2="336.0002"/>
    <line x1="354.6711" x2="350.5892" y1="332.6742" y2="356.4096"/>
    <polyline points="316.3466,370.3939 318.6143,355.6537 305.1592,353.6128"/>
    <polyline points="303.9498,361.2474 308.334,333.6569 288.7561,330.4821"/>
    <line x1="305.008" x2="307.5781" y1="333.1277" y2="318.312"/>
    <line x1="376.29" x2="350.6648" y1="305.9907" y2="262.2238"/>
    <polyline points="354.1419,257.4616 354.5955,254.1356 353.8396,250.8096 352.5545,248.693 352.101,248.0127 349.4553,245.8962 346.2805,244.8379 343.1813,244.8379 340.2333,245.8206 339.175,246.5765 337.7388,247.7104 335.9246,250.2805 335.0175,253.2285 335.1687,256.3277 336.1514,259.2757 337.8144,261.3923 340.6868,263.4332 343.7104,264.2647 347.0364,264.0379 350.1356,262.7529 352.6301,260.4852 354.2175,257.008 383.849,260.7875"/>
    <polyline points="352.5545,248.693 391.2569,216.8694 352.1766,210.671 313.701,204.019 313.7765,196.3844 308.0317,195.4017 306.7466,196.3844 305.3104,202.4316 313.701,204.019"/>
    <polyline points="449.4617,218.3056 451.2758,219.0615 492.8507,190.6395 492.3215,188.3718 462.0097,143.4709 460.4979,144.6804 451.6538,200.6174 449.4617,218.3056 447.2695,229.493 447.2695,231.9875 446.2113,239.3954"/>
    <line x1="460.6491" x2="494.3625" y1="305.6128" y2="354.8978"/>
    <polyline points="477.4302,366.4632 474.1798,368.6553 473.2727,368.8821"/>
    <polyline points="477.8081,371.3766 440.3908,316.3466 433.2853,319.4458 428.4475,318.6899 404.4853,314.7592 379.9183,309.997 336.7561,303.345 290.9482,295.2569 269.7072,291.9309 0.0,246.317"/>
    <line x1="281.8017" x2="318.0852" y1="389.9719" y2="396.0191"/>
    <polyline points="324.4348,397.153 318.0852,396.0191 304.8569,477.2034 303.9498,478.4129"/>
    <polyline points="304.4033,479.7735 303.9498,478.4129 288.0002,475.3136"/>
    <line x1="286.186" x2="300.8506" y1="479.3199" y2="389.7451"/>
    <polyline points="317.1781,423.912 338.4947,427.616 329.4238,486.5011"/>
    <polyline points="331.4647,483.0239 340.2333,426.1042 320.2773,422.7026"/>
    <polyline points="319.6726,425.4239 336.8317,428.5987 328.4411,481.89 327.3829,482.4192"/>
    <polyline points="310.7529,480.3026 309.3167,487.8617 308.1828,488.9955 303.9498,488.3152 303.1183,486.6522 304.4033,479.7735 305.6884,478.7152 309.5435,479.3955 310.7529,480.3026 310.2238,479.3199 311.0553,478.4129 324.4348,397.153 361.4742,403.049 361.6254,404.6364 348.5482,485.7451 327.3829,482.4192 310.2238,479.3199"/>
    <line x1="308.1828" x2="347.2632" y1="488.9955" y2="495.4207"/>
    <polyline points="353.0081,495.2696 349.7577,495.5719 347.2632,495.4207 346.6585,493.9845 347.9435,486.5011 348.5482,485.7451 354.2175,486.8034 353.0081,495.2696 372.3593,498.2932 375.6852,500.3341 391.9372,502.9042 402.5199,504.9452"/>
    <polyline points="394.2049,506.6837 392.0128,506.3058 391.1813,510.4633 384.3782,509.2538 385.1341,505.0963 386.8726,505.2475 388.2333,505.0207 388.6868,502.3751"/>
    <polyline points="388.2333,505.0207 389.8963,505.7011 391.0301,504.7184"/>
    <polygon points="384.0758,500.6365 383.6978,502.5263 386.3435,502.9798 386.8726,505.2475 387.8553,507.5908 389.5183,507.8176 390.1986,503.6601 393.7514,504.2648 394.0538,502.3751"/>
    <polyline points="394.7341,525.5058 399.8742,525.5814 412.8002,528.1515 421.0396,530.3436 426.1042,533.216 430.1861,538.4318 432.9073,544.479 434.3435,551.6601 433.1341,559.2948 420.4349,556.9515"/>
    <line x1="405.9971" x2="393.9782" y1="556.8003" y2="554.7594"/>
    <polyline points="386.2679,555.6664 380.6742,586.8098 380.1451,592.2523"/>
    <line x1="377.1215" x2="356.3341" y1="610.1673" y2="606.7657"/>
    <polyline points="378.4821,627.8555 381.6569,633.6003 385.2852,637.5311 388.9136,632.4665 390.6522,631.257 393.6002,632.0129 408.7939,648.6429 410.0034,650.9106 409.6254,653.0271 404.7876,657.7893"/>
    <line x1="389.2915" x2="385.2852" y1="641.8397" y2="637.5311"/>
    <line x1="380.3719" x2="382.3372" y1="643.0492" y2="629.4429"/>
    <polyline points="371.2254,641.3862 371.9813,643.2759 368.0506,667.9185 359.7356,715.5405 340.0065,704.4287"/>
    <polyline points="351.0427,714.7846 338.1167,715.8429 313.7765,711.761"/>
    <line x1="316.1199" x2="317.6317" y1="714.6335" y2="708.8886"/>
    <polygon points="319.2947,700.1957 337.2096,710.6272 336.9829,711.8366 317.6317,708.8886 319.2947,700.1957 314.6836,697.2476 313.6254,695.3579 314.3813,690.898 315.3639,690.5956 319.2947,693.0145 319.6726,694.224"/>
    <polyline points="311.5088,732.7752 316.1199,714.6335 336.1514,718.035 336.4537,718.7909 339.175,718.6398 358.0726,721.5878"/>
    <polyline points="365.3293,703.8996 369.7892,704.6555 383.7734,712.0634"/>
    <polyline points="416.5798,751.5973 351.0427,714.7846 339.4018,707.6791 276.5104,672.076 256.5545,661.6445 140.5229,641.8397 0.0,618.2947"/>
    <polyline points="219.0004,755.9059 228.7371,697.6256 241.5875,617.3484 249.5245,570.2554 253.7576,542.5137 294.5009,295.9372 309.997,199.7859 326.0222,103.6347 342.5339,0.0"/>
    <polygon points="338.6459,8.2394 344.3907,9.2221 343.4081,16.252 337.2852,15.1181 335.471,14.4378 337.4364,8.9953"/>
    <polygon points="472.8192,60.3969 474.9357,60.8504 461.7829,138.2552 459.8176,138.0284"/>
    <polyline points="473.953,60.6237 474.2554,59.4142 479.4711,60.3213 481.89,59.0363 478.8664,53.5181 482.9483,50.6457"/>
    <polyline points="566.3877,0.0 633.6759,99.2504 709.4933,212.0316"/>
    <polyline points="709.6445,208.3277 709.4933,207.4206 694.0728,184.1387"/>
    <polyline points="701.7075,195.6285 706.6964,192.0757 707.6035,192.5292 708.9642,192.5292 709.7957,191.5466 710.098,190.2615"/>
    <polyline points="706.6964,192.0757 706.3185,190.7907 706.9988,189.0521 708.813,187.8426 717.0524,203.3387"/>
    <line x1="658.5452" x2="631.635" y1="194.041" y2="212.1072"/>
    <line x1="631.3326" x2="621.8082" y1="185.9529" y2="172.0442"/>
    <line x1="653.2539" x2="667.0114" y1="158.4379" y2="148.7623"/>
    <line x1="640.4791" x2="627.1751" y1="123.7418" y2="103.6347"/>
    <line x1="605.6318" x2="586.4318" y1="74.4567" y2="87.7607"/>
    <polyline points="586.5074,44.5984 572.8255,24.2646 579.4019,19.2"/>
    <line x1="722.9432" x2="780.0949" y1="0.0" y2="84.4347"/>
    <polyline points="819.0241,90.3308 830.1359,107.1875 833.5375,113.3859 839.3579,120.7182 827.0367,128.2016 825.5249,127.3701 833.613,115.0489 834.5957,114.7465 835.5028,113.2347"/>
    <polyline points="835.3516,99.326 833.0839,97.7386 808.7437,61.3796 792.1894,37.4929 792.7185,35.9055 845.4282,0.0"/>
    <line x1="840.5346" x2="787.5028" y1="0.0" y2="36.4347"/>
    <line x1="789.2414" x2="792.7185" y1="32.3528" y2="35.9055"/>
    <line x1="823.106" x2="769.9658" y1="89.8016" y2="125.9339"/>
    <polyline points="772.4603,244.7623 795.213,215.0552 815.2445,187.9182 841.7012,153.5245 858.4068,141.808 861.5816,138.9355 971.7171,63.6473"/>
    <polyline points="1041.2604,168.567 1003.7675,193.6631 979.5785,210.5198 767.6981,355.1246 740.3343,372.6616 686.0602,409.6254 658.0161,429.8837 606.3877,465.3357 604.6491,468.0569 589.909,487.9373 564.9641,520.5168 541.531,553.9279 524.9767,575.6979"/>
    <line x1="465.1845" x2="519.1562" y1="650.7594" y2="676.8382"/>
    <polyline points="511.9751,702.161 495.7231,694.7531 489.9026,707.5279"/>
    <line x1="507.742" x2="535.8617" y1="711.5342" y2="724.8382"/>
    <line x1="538.7341" x2="529.2097" y1="718.8665" y2="738.5957"/>
    <line x1="529.0586" x2="500.5137" y1="743.887" y2="755.9059"/>
    <polyline points="499.6538,729.4492 469.5688,715.8429 471.8365,712.6681 492.0948,667.3137"/>
    <line x1="460.7247" x2="565.8712" y1="652.2712" y2="702.8413"/>
    <line x1="576.6806" x2="593.4617" y1="723.8555" y2="750.6146"/>
    <line x1="555.3641" x2="510.7656" y1="726.728" y2="705.1846"/>
    <line x1="461.405" x2="466.3476" y1="743.8114" y2="755.9059"/>
    <polyline points="435.7042,748.5736 452.7121,742.1484 464.353,718.035 440.164,706.3185 418.5931,755.9059"/>
    <polyline points="429.4302,648.4917 426.1042,637.5311 427.7672,627.4775"/>
    <polygon points="394.6585,535.6349 396.5482,535.9373 402.2175,500.9389 403.6538,496.1011 406.753,476.1451 404.8632,475.7672"/>
    <polyline points="405.7703,526.5641 415.7483,466.9231 414.9924,464.0506 413.5561,463.1436 404.9388,461.5562"/>
    <polygon points="399.4207,474.9357 401.386,475.2381 396.775,504.794 390.8034,537.6759 389.0648,537.3735"/>
    <polyline points="360.7183,428.8254 355.2002,427.8428 347.49,419.9057"/>
    <line x1="303.9498" x2="266.1545" y1="488.3152" y2="481.8144"/>
    <line x1="457.1719" x2="465.1845" y1="385.3608" y2="397.0018"/>
    <polyline points="625.8901,266.0033 629.3673,271.0679 631.635,270.0852 634.6586,267.8175 630.9547,261.7702"/>
    <polygon points="453.3168,143.9245 455.4333,144.3024 457.3987,132.5859 466.4695,77.6315 464.4286,77.2536"/>
  </g>
</svg>
