<?xml version="1.0" encoding="utf-8" ?>
<svg xmlns="http://www.w3.org/2000/svg" xmlns:cc="http://creativecommons.org/ns" xmlns:dc="http://purl.org/dc/elements/1.1/" xmlns:ev="http://www.w3.org/2001/xml-events" xmlns:inkscape="http://www.inkscape.org/namespaces/inkscape" xmlns:rdf="http://www.w3.org/1999/02/22-rdf-syntax-ns" xmlns:sodipodi="http://sodipodi.sourceforge.net/DTD/sodipodi-0.dtd" xmlns:xlink="http://www.w3.org/1999/xlink" baseProfile="tiny" height="20.0000108cm" version="1.2" viewBox="0 0 1133.85888 755.9059199999999" width="30.0000162cm">
  <metadata>
    <rdf:RDF>
      <cc:Work>
        <dc:format>image/svg+xml</dc:format>
        <dc:source>vpype read lic.svg linemerge --tolerance 0.3mm linesimplify --tolerance 0.05mm linesort write lic-draw.svg
</dc:source>
        <dc:date>2025-12-21T15:34:14.872098</dc:date>
      </cc:Work>
    </rdf:RDF>
  </metadata>
  <defs/>
  <g fill="none" id="layer1" inkscape:groupmode="layer" inkscape:label="1" stroke="#0000ff" style="display:inline">
    <polyline points="313.701,224.8064 316.8002,229.7198 323.9057,239.5466 315.6663,247.1812 293.1403,275.6789 269.4049,257.7639 278.0222,246.123 291.4017,229.0395 289.8143,226.2426 288.8317,222.5387 288.9072,218.3812 289.512,214.0726 290.9482,209.5371 294.123,205.0773 297.3734,202.1292 299.8679,191.093 301.9844,176.7308 303.4962,172.4977 309.2411,158.1355 312.9451,151.3324 317.5561,145.0583 324.6616,136.441"/>
    <polyline points="329.9529,130.8473 333.2033,130.3938 339.2506,130.9985 340.9892,131.452 342.8033,132.7371"/>
    <line x1="345.449" x2="396.9262" y1="139.6158" y2="126.6898"/>
    <polyline points="376.0632,87.4583 412.1199,90.4063 434.7215,118.0725 442.205,123.2883"/>
    <polyline points="477.4302,72.189 468.964,66.6709 441.1467,57.2221 436.838,55.1811 427.9939,44.8252 422.1735,38.9292 412.8758,28.8756 411.8931,27.4394 407.1309,23.8866 406.9797,22.6016 405.6947,21.5433"/>
    <line x1="422.1735" x2="430.1105" y1="38.9292" y2="33.1843"/>
    <polyline points="436.838,55.1811 432.9829,59.7166 429.7325,64.1008 413.2538,88.3654 406.6018,100.7623 398.8916,120.189 391.2569,145.5119 384.3782,166.2237 381.6569,172.3465"/>
    <polyline points="387.3262,178.9229 388.9136,179.3009 390.7278,179.1497 393.0711,177.6379 405.2412,161.915 422.7026,140.4473 431.1687,129.0331 498.2932,33.789 503.3578,27.2126 506.2302,24.0378 512.2774,18.5197 518.4759,14.1354 524.5987,22.0725 536.8444,7.2567 541.9717,0.0"/>
    <polyline points="545.2756,0.0 537.8271,9.2221 527.32,20.7874 519.7609,30.9921 489.6759,66.3685 484.2333,67.8048 482.4947,69.6189 475.3892,80.4284 464.4286,95.9245 460.0443,100.2331 443.9435,124.8757 422.627,154.6584 411.1372,169.6253 407.0553,173.8584 400.1766,182.3245 397.7577,182.3245 397.0774,183.534 397.6065,185.4237 391.2569,189.5056 376.29,207.4962 371.7545,210.9733 369.0333,214.0726 366.1608,218.23 363.9687,222.5387 358.2238,228.0568 328.4411,253.5308 320.0506,260.1828 316.5734,262.2994 315.2128,267.1372 313.9277,270.4631 302.9671,283.9939 298.8096,289.8899 296.2395,292.9135 292.46,295.5592 279.4584,307.3513 273.4112,315.1372 268.271,319.5214 255.8742,328.4411 247.786,336.3781 241.9655,344.5419 230.0978,358.4506 226.545,358.375 224.5796,357.997 220.7245,355.2002 220.1198,356.0317 222.0852,357.4679 215.282,366.69 210.671,363.2884"/>
    <polyline points="206.1355,359.8868 212.8631,350.5892 214.7529,351.9498 215.4332,350.9671 211.0489,347.49 210.5198,343.5592 214.1481,338.1923 217.6253,332.2207 220.6489,322.2427 227.4521,304.0254 247.0301,272.4285 252.7749,262.5261 269.6316,242.419 273.26,237.0521 276.2836,229.0395 276.8883,229.2663 298.4317,166.904 305.6884,151.7103 317.3293,135.8363 319.597,137.8772 341.5183,115.8804 340.6112,115.2001 388.4601,44.3717 418.9868,0.0"/>
    <polyline points="420.9246,0.0 380.2963,57.5244 341.5939,115.0489 341.9718,116.3339 331.1624,128.0505 329.9529,130.8473 324.6616,136.441 332.1451,141.1276 334.1104,146.041 335.471,147.5528 349.7577,158.5135 359.66,165.6946 382.2616,180.8127 385.6632,182.7781 387.3262,178.9229 366.69,166.1481 349.7577,154.1292 338.4947,144.8316 337.512,142.4883 337.8899,139.3891 338.9482,137.0457 347.2632,127.7481 350.2868,123.8174 359.7356,109.2284 366.0096,98.7213 384.3026,64.9323 394.2805,48.9071 428.8916,0.0"/>
    <polyline points="433.1146,0.0 426.4065,9.6 423.3829,10.7339 422.4758,12.2457 422.3246,14.7402 421.342,16.9323 400.1766,46.715 388.7624,64.3276 370.3183,98.2678 361.0963,113.915 351.0427,129.0331 347.6411,133.6442 345.449,139.6158 344.164,141.2032 342.2742,141.9591 342.1986,143.8489 381.6569,172.3465 387.7041,176.0505 388.838,176.3529 390.0475,176.2773 391.6349,175.3702 393.1467,173.7828 403.7294,157.9843 414.3876,144.756 434.7215,118.0725 470.0979,67.3512 496.7814,29.7827 504.7184,20.4851 508.8759,16.5543 516.2082,11.641"/>
    <polyline points="514.3184,12.926 512.9578,10.2803 513.0333,9.1465 514.2428,6.652"/>
    <polyline points="510.8496,0.0 524.8255,10.1291 518.4759,14.1354 516.2082,11.641 516.8885,10.8095 517.1908,9.8268 516.8129,8.8441 515.9814,7.937 504.9473,0.0"/>
    <polyline points="504.7184,20.4851 489.6759,18.1417 481.5121,17.537 471.6853,18.2173 465.4113,19.7291 461.6317,21.3165 453.2412,26.3811 449.6128,29.7071 456.6428,34.6205"/>
    <line x1="461.6317" x2="463.1436" y1="25.7008" y2="20.7118"/>
    <polyline points="465.4113,19.7291 458.1546,18.1417 452.6365,15.874"/>
    <polyline points="455.2399,0.0 454.9042,3.5528 451.5782,21.9213 449.6128,29.7071 441.2979,45.7323 436.838,55.1811 429.6569,60.0189 424.4412,61.9087 419.9057,62.5134 399.1183,63.7229 390.3498,64.63 388.7624,64.3276 382.9419,61.3796 381.2789,59.641 380.2963,57.5244"/>
    <polygon points="442.205,60.3969 445.5309,60.7748 450.8223,62.0599 456.4916,63.9496 455.8869,65.3859 466.3184,71.2819 460.7247,79.5969 457.0963,81.1087 453.6947,89.5749 432.9073,118.904 429.8081,119.4331 429.2034,119.8867 428.0695,125.7072 418.7719,138.0284 404.712,155.4898 394.3561,170.8347 387.9309,166.2993 386.4191,168.2647 387.4774,169.0206 386.1923,170.5324 385.512,170.4568 383.849,172.6489 370.6207,163.3513 343.4837,143.2442 345.6002,140.9765 347.112,136.5166 348.2459,134.2489 351.4963,130.3938 360.1136,117.5434 370.2427,100.6111 378.6333,85.1906 380.901,84.8126 382.1104,83.3764 383.6223,76.1197 388.6868,66.7465 394.1293,65.6882 399.5719,65.0835 427.238,63.4961 427.6916,64.0252 427.3892,64.7811 423.6097,70.0725 426.4065,71.9622 430.2616,66.5197 433.2853,63.5717 435.0239,62.2866 436.838,61.3796 439.4081,60.6992"/>
    <line x1="442.8853" x2="457.8522" y1="57.8268" y2="47.0173"/>
    <line x1="477.279" x2="480.7562" y1="56.0882" y2="58.5827"/>
    <line x1="483.1751" x2="493.3798" y1="34.6961" y2="34.5449"/>
    <polyline points="489.2979,25.7764 483.4018,19.8047 483.4018,17.7638"/>
    <line x1="485.8963" x2="485.8207" y1="22.2992" y2="25.7764"/>
    <line x1="489.6759" x2="489.6759" y1="18.1417" y2="14.8913"/>
    <polyline points="524.8255,10.1291 529.3609,9.6 531.8554,8.6173 534.2743,5.9717 538.5664,0.0"/>
    <polyline points="524.5987,22.0725 506.079,42.8599 488.8444,63.7985 487.257,64.4788 483.4018,64.5544 481.7388,65.6126 442.205,123.2883 421.2664,152.315 415.0679,160.3276 395.9435,182.8536 394.2049,183.8363 392.0884,184.1387 388.838,183.9119 385.6632,182.7781 379.8427,189.808 377.4238,191.9245 370.3183,200.9198 363.2884,207.4962 354.4443,218.1544 345.6002,224.5041 334.4128,231.2316 329.9529,235.2379 323.9057,239.5466"/>
    <polyline points="318.7655,244.3088 327.8364,247.408 329.4238,247.6348 334.0348,246.7277 336.5293,245.8206 338.1167,244.9891 350.2868,234.1797 356.7876,228.8883 363.7419,217.7765 373.7199,205.2285 379.0868,196.5355 380.5986,191.6222 379.3892,190.2615"/>
    <polyline points="377.4238,191.9245 376.4411,185.9529 375.3829,183.0804 373.9467,181.1906 369.7136,178.167 366.9167,177.1088 364.0443,176.5796 361.1718,176.504 357.1655,176.882 355.1246,177.7135 353.2348,179.3009 348.4726,187.4647 345.6758,196.0064 345.7514,198.8788 345.1466,201.4489 343.1813,204.6993 340.2333,207.7229 336.3781,209.9907 332.523,211.7292 326.1734,213.7702"/>
    <polyline points="304.3277,214.5261 303.723,211.8048 297.3734,202.1292"/>
    <line x1="297.8269" x2="293.9718" y1="200.2395" y2="196.6111"/>
    <polyline points="300.3214,188.145 297.449,186.2552 291.6285,203.4899 290.8726,203.4143 286.5639,214.2237 286.7151,215.8867 280.8946,232.0631 277.5687,236.6741 280.9702,242.419"/>
    <polygon points="291.7041,230.7781 300.397,232.5167 306.0663,232.1387 311.3576,227.6789 312.6427,227.1497 314.608,227.9812 321.8647,239.0175 314.0789,246.5009 293.9718,272.2773 293.1403,271.597 292.3088,272.6553 272.5797,257.3104 273.3356,256.3277 272.5041,255.6474"/>
    <polyline points="291.4017,229.0395 295.4836,230.5513 300.1702,231.4584 306.671,230.4001 313.701,224.8064 326.1734,213.7702 330.7088,208.9324 335.0175,203.7166 345.6758,196.0064"/>
    <polyline points="348.4726,187.4647 332.4474,179.6032 329.2726,179.6788 326.7025,179.3765 321.8647,177.4867 314.7592,173.4804 308.334,172.4221 303.4962,172.4977"/>
    <polyline points="317.5561,145.0583 321.0332,145.4363 325.2663,145.0583 332.1451,141.1276 342.2742,141.9591"/>
    <polyline points="390.123,176.882 390.0475,176.2773 392.0884,184.1387"/>
    <polygon points="317.7828,246.3497 325.4175,240.3781 330.9356,236.523 333.8081,233.3482 336.227,231.3072 341.1403,228.586 347.2632,225.7135 352.9325,222.3875 361.701,212.2584 371.0742,203.4143 376.3656,196.6867 381.6569,191.2442 387.2506,184.5166 392.164,188.0694 391.2569,189.5056 376.29,207.4962 371.7545,210.9733 369.0333,214.0726 366.1608,218.23 363.9687,222.5387 358.2238,228.0568 328.4411,253.5308 327.4584,254.2112"/>
    <polygon points="302.06,276.1324 307.4269,278.5513 296.2395,292.9135 292.46,295.5592 279.4584,307.3513 273.4112,315.1372 268.271,319.5214 255.8742,328.4411 247.786,336.3781 241.9655,344.5419 230.0978,358.4506 226.545,358.375 224.5796,357.997 220.7245,355.2002 240.4537,335.3955 291.8553,287.849 289.2852,286.0348 293.5183,280.3655 295.4836,281.8017"/>
    <polygon points="440.4664,361.8522 444.9262,356.7876 466.2428,362.4569 462.69,367.4459"/>
    <polyline points="464.5042,364.8758 590.4381,392.9955 586.8098,407.5089 530.8727,393.5246 525.5814,395.112 517.8711,393.6002"/>
    <polyline points="520.8192,381.5813 587.1121,398.816 589.0775,398.438 610.0917,403.8049 611.6035,404.4853 619.994,406.0727 639.95,410.8349 726.4256,433.8144 734.7406,435.6286 826.2808,458.9861 924.5485,484.9892"/>
    <polyline points="926.2871,472.0632 732.7752,421.9467 728.5421,421.1908 647.2822,400.479 640.0255,398.2868 618.2555,392.9955 609.7893,390.501 610.0161,370.3939 608.5799,348.6994 608.5043,293.5183 609.9405,290.4946 628.4602,260.4852 648.1137,230.5513 662.4004,209.3859 671.8492,194.419 685.6067,173.934 693.1657,161.7639 702.8413,148.082 712.9705,131.9812 734.665,99.7796 741.5437,89.1969 747.5154,79.1433 752.2776,72.567 773.9721,38.0221 787.654,17.6882 784.7815,16.4787"/>
    <line x1="787.654" x2="800.8428" y1="17.6882" y2="0.0"/>
    <polyline points="806.0658,-0.0 799.3705,8.6929 771.1752,51.5528 767.9248,53.5181 763.2382,59.9433 770.0414,63.1937 837.0146,102.1985 983.2824,185.197"/>
    <polyline points="926.6651,199.8615 921.4493,197.8962 906.2556,188.5985 854.6272,159.2694 779.717,116.1071 774.5012,113.6127 738.7469,101.9717"/>
    <polyline points="741.9217,96.756 774.5768,107.8678 782.4382,111.6473 857.8776,154.8851 907.3895,182.7781"/>
    <line x1="916.3847" x2="612.4319" y1="174.3875" y2="0.0"/>
    <polyline points="616.268,0.0 1033.6258,238.7907 1068.1707,261.3167"/>
    <polyline points="1069.8336,257.9151 863.3202,139.3891 621.3663,0.0"/>
    <polyline points="625.9025,-0.0 623.3956,3.9307 422.0979,267.3639 15.4849,755.9059"/>
    <polyline points="231.5793,755.9059 235.0112,746.4571 235.5403,741.6949 236.2962,738.5957 240.8316,729.298 249.6757,719.4713 254.2112,717.5815 271.2946,713.4996 279.0049,713.9531 284.6742,713.0461 287.6978,698.7594 288.9828,696.4917 289.4364,693.9972 291.4773,690.2177 297.449,687.95 305.8395,674.4949 310.375,669.5059 313.0962,667.4649 316.4222,665.8019 321.4112,664.3657 323.6789,664.2901 323.9057,663.761 321.638,662.4759 322.0915,660.057 327.1561,658.9232 333.9592,632.0129 339.0994,633.298 340.9136,625.7389 333.5057,623.8492 334.1104,621.5058 305.3104,614.9295 303.5718,612.9641 302.2868,610.772 301.9844,608.2775 302.2868,605.783 304.101,600.9452 306.5954,596.1074 309.1655,592.9326 312.6427,590.1358 316.271,588.3972 320.4285,587.9436 334.7151,591.4208 338.8726,590.5893 339.7041,589.1531 344.3907,589.7578 344.8443,587.868 342.3498,587.2633 340.46,585.9027 339.2506,581.8964 311.2065,574.7909 329.4994,537.5247 331.6915,538.1294 335.1687,532.3845 342.501,523.7672 346.5829,517.4932 348.1703,513.1845 341.2915,511.2948 382.186,441.3735 403.427,405.8459 452.4853,432.9829 496.4034,455.7357 519.7609,462.2365 551.0554,470.0223 573.279,476.1451 579.3263,451.7294 542.816,442.2806 542.4381,443.7924 500.5609,433.5876 434.8727,397.153 457.4743,368.2774 458.6081,362.8348 458.1546,362.6081 458.6081,360.4159 469.6443,363.364 472.8192,349.2285 474.2554,347.7167 476.5231,342.2742 482.5703,343.786 482.268,345.0711 484.0822,345.5246 483.7798,347.4144 486.7278,348.0947 484.6869,356.1073 485.5184,356.3341 484.3089,362.3813 486.2743,363.2884 487.6349,365.4049 489.0711,365.8585 510.69,321.4112 509.4806,320.7309 515.0743,309.3167 514.0916,307.6537 514.5452,304.1765 513.1845,301.6065 509.7074,298.2805 508.12,294.8033 508.4223,292.6112 509.1782,290.6458 515.8302,280.2899 514.8475,273.6379 515.4522,271.975 538.3562,241.134 537.2979,240.4537 536.8444,239.2442 549.6192,225.4111 551.5845,225.26 553.0964,223.7482 580.6113,186.2552 579.8554,185.2725 579.5531,184.2899 580.2334,182.7025 584.6932,176.2773 598.9799,158.7402 618.4066,126.5387 620.2964,128.2016 652.5736,77.6315 687.95,21.0142 700.1012,0.0"/>
    <line x1="705.8957" x2="694.9043" y1="0.0" y2="17.8394"/>
    <polyline points="715.3516,0.0 717.9594,3.4772 720.5295,8.6929 721.739,13.6819 722.1169,16.7055"/>
    <polyline points="726.5212,0.0 722.3437,14.589 721.5122,22.9039 721.739,31.3701 723.9311,35.8299 728.1642,39.2315 763.2382,59.9433 759.9122,65.6882 758.0225,71.8111 762.1043,68.3339 770.4949,55.4835 771.1752,51.5528 804.3595,70.6772"/>
    <polyline points="816.8319,83.1497 837.0902,94.4882 840.0382,95.4709 844.2713,95.093"/>
    <polyline points="837.0146,102.1985 838.602,99.7796 838.9044,95.093 843.3642,88.063 896.2776,17.6126"/>
    <polyline points="884.7879,33.0331 877.5312,28.3465 857.4241,23.0551 831.6477,58.3559"/>
    <line x1="812.6745" x2="838.98" y1="45.052" y2="8.6929"/>
    <polyline points="811.8141,0.0 803.3768,9.978 775.1815,53.8205 770.0414,63.1937 740.7878,106.5827 700.2712,169.3229 695.887,175.5969 674.4193,208.4789 648.7185,246.6521 626.1169,281.6505 617.3484,295.786 617.6507,314.2301"/>
    <polyline points="621.7326,311.7356 622.5641,308.1828 623.9247,299.1876 633.8271,283.2379 624.0003,277.0395"/>
    <polyline points="632.92,263.3576 623.698,257.386 621.2791,257.9151 613.1909,252.3214 646.8287,201.9025 617.2728,182.4001 600.6428,181.1151 589.6822,180.6615"/>
    <line x1="600.6428" x2="575.3956" y1="181.1151" y2="218.0789"/>
    <line x1="571.4649" x2="556.8759" y1="215.4332" y2="237.2789"/>
    <line x1="583.9373" x2="612.6617" y1="223.8993" y2="182.0221"/>
    <line x1="622.6397" x2="592.4791" y1="185.9529" y2="229.7198"/>
    <line x1="601.2476" x2="631.3326" y1="235.7671" y2="191.6977"/>
    <line x1="640.3279" x2="610.0917" y1="197.6694" y2="241.7387"/>
    <line x1="618.9358" x2="623.698" y1="247.6348" y2="257.386"/>
    <polyline points="625.2854,251.7923 567.6853,212.8631 589.6822,180.6615 603.1373,163.6536 620.6744,136.0631"/>
    <line x1="681.676" x2="690.3689" y1="121.2473" y2="108.1701"/>
    <polyline points="712.3657,122.6835 690.1421,155.641 651.8177,130.3938 673.9657,97.5119 715.8429,124.9512 745.928,145.1339"/>
    <polyline points="762.9358,141.9591 741.0146,128.1261 754.0917,107.1119"/>
    <polyline points="741.5437,89.1969 754.1673,97.5875 770.2681,101.8961 856.7438,150.1229"/>
    <polyline points="854.6272,159.2694 797.4052,237.2033 767.3957,282.4065 761.802,289.134 729.0713,418.8475 728.5421,421.1908 728.3154,427.4648 827.7926,453.0144 841.5501,398.7404 842.9107,395.5656 897.4871,312.038 899.2257,309.5435 905.5753,302.2112 923.0367,279.534"/>
    <polyline points="902.3249,305.9907 870.1989,285.2789 729.7516,192.8316 694.5264,169.1717"/>
    <polyline points="688.1767,169.7009 688.7815,170.4568 695.887,175.5969 724.2335,194.419 727.1815,196.7623 758.476,217.0206 759.6854,217.5497 826.5831,262.2238 833.4619,266.1545 862.8666,285.5057"/>
    <polyline points="862.4887,283.3891 843.7422,312.5671 814.5642,356.8632"/>
    <polyline points="816.0004,362.2301 846.9926,314.608 866.7973,283.0112"/>
    <polyline points="868.8383,287.6222 822.4256,359.1309 855.9879,368.2018"/>
    <polyline points="851.2257,373.2663 836.939,395.49 833.9154,405.9971 833.613,408.5671 821.2918,456.1892 802.3941,532.2334 780.4729,616.8192 761.802,692.4854 762.0288,691.5027 737.3862,685.1531 716.9012,699.5153 652.9515,743.2823 644.9389,748.4225 643.9563,748.3469 644.0318,749.2539 644.6366,742.4508 644.7877,735.4209 650.457,711.761 682.5075,587.0365 701.7075,509.1782 721.4366,432.4538 723.5531,421.4931 742.224,345.1466 743.7358,340.5356 758.1736,284.3718 762.9358,280.6679 795.1374,231.534 848.2776,159.9497"/>
    <polyline points="849.4115,160.5544 815.3957,140.9765 811.0115,138.7843 780.4729,121.1717 774.2744,117.9213 759.4587,139.767 729.3736,186.0284 725.2161,192.9828 702.9169,226.3182 645.5437,314.4569"/>
    <line x1="641.9909" x2="622.4129" y1="320.8821" y2="350.7403"/>
    <polyline points="623.7736,354.8222 702.9169,234.1041 782.4382,111.6473"/>
    <polyline points="780.4729,121.1717 734.665,191.5466 708.8886,230.5513 707.0744,233.7261 653.4051,316.271"/>
    <polyline points="649.3232,322.8474 684.5484,331.9183 689.9909,332.901 851.528,374.5514"/>
    <line x1="842.2304" x2="831.3453" y1="396.9262" y2="393.7514"/>
    <polyline points="843.8178,406.9042 835.5028,405.0144 741.4681,381.2034 735.1185,379.9183 671.5468,363.364 665.046,361.9278 628.3846,352.1766 622.4129,350.7403 609.9405,348.6994 608.5799,348.6994"/>
    <polyline points="614.098,352.8569 621.2035,354.1419 732.8508,383.3199 742.2996,385.3608 1025.6887,457.3987 1040.5801,461.6317"/>
    <polyline points="1080.9455,437.8963 1074.747,432.3026 1069.7581,427.0113 1061.0651,415.6727 1057.8147,411.8175 1054.0352,408.038 1049.5754,404.3341 1036.6494,394.5829 1031.2069,389.8963 1024.6305,383.3955 1019.4903,376.2144 1016.3155,369.9404 1014.5013,365.4049 1012.6872,360.1136 1011.3265,354.2175 1009.8903,342.8033 1009.7391,337.2852 1014.2746,271.219 1013.4431,261.9214 1011.7045,252.3214 1008.832,243.0993 1004.8257,234.2552 999.7612,226.0159 993.7139,218.3812 986.7596,211.5781 979.0493,205.682 936.643,181.493 869.6698,142.6394 788.4855,94.3371 763.9185,77.3292 870.6524,140.9009"/>
    <line x1="871.6351" x2="764.9768" y1="139.1623" y2="75.5906"/>
    <line x1="763.9185" x2="634.2434" y1="77.3292" y2="0.0"/>
    <polyline points="638.1939,0.0 764.9768,75.5906 791.887,89.4237 872.6178,137.4993 939.5911,176.3529 973.6068,195.6285 982.4509,201.5245 990.3123,207.8741 997.3423,215.1308 1003.3895,223.2946 1008.3029,232.0631 1012.158,241.4364 1014.8037,251.1875 1016.1643,261.2411 1016.2399,271.2946 1011.7045,337.3608 1011.9313,342.6522 1012.3848,348.0947 1014.5769,359.5844 1018.1297,369.1089 1021.2289,375.1561 1026.1423,382.1104 1032.4919,388.3845 1037.7832,392.9955 1055.3203,406.5262 1059.3266,410.5325 1062.7281,414.5388 1071.3455,425.8018 1076.1077,430.8664 1082.3061,436.4601 1088.2778,440.542 1094.1738,443.7924 1106.0415,449.4617 1114.5077,452.4853 1124.5612,454.5262 1133.8589,455.415"/>
    <polyline points="1133.8589,581.0113 1117.6825,594.8224 1109.7455,600.9452 1101.4305,606.6145 982.3753,677.8208 969.2982,685.0775 959.8493,689.235 954.4068,691.1248 939.2887,695.509 924.7753,698.6083 779.4902,722.9484"/>
    <polyline points="780.3217,725.8209 921.9785,702.0098 934.6777,699.4397 941.1029,697.7768 953.1218,694.0728 959.3958,691.8051 965.3675,689.3862 971.0367,686.6649 981.1659,680.9956 1116.5486,600.1137 1126.6022,593.7641 1133.8589,588.5825"/>
    <polyline points="982.9045,539.868 977.084,537.4491 917.9721,522.0286 765.128,482.6459 613.4932,444.0947 618.1043,438.1987 639.95,404.9388 710.1736,422.9294"/>
    <polyline points="719.6224,412.5735 713.1972,410.986 710.1736,422.9294 728.3154,427.4648 726.4256,433.8144 705.7138,514.394 675.0996,633.9783 666.0287,670.4886 655.3704,710.7783 379.8427,640.3279 377.0459,639.8744 369.7136,637.6822"/>
    <polyline points="365.4805,643.1248 372.4348,645.4681 373.7199,645.3925 550.9042,690.6712"/>
    <polyline points="556.3468,689.0838 651.6665,713.424 663.1563,715.9941 664.5169,715.465 669.3547,716.8256 670.413,717.7327 669.8082,719.0933 664.2901,722.6461 662.7783,722.5705 661.72,722.0413 661.4933,721.0587 662.2492,716.5232 663.1563,715.9941 665.1216,718.5642 662.7783,722.5705 646.8287,732.624 632.0129,743.4335 631.257,743.6602 623.9247,748.8004"/>
    <polyline points="623.32,750.3878 621.9594,748.3469 621.0523,747.8933 546.2932,729.1469 539.7576,755.9059"/>
    <polyline points="534.3877,755.9059 542.4381,724.0823 439.8617,698.0791 471.2318,574.2617 481.5877,534.6523 484.9136,520.2145 490.7341,497.9908 497.3105,471.2318 497.5373,469.342 497.1593,467.6034 496.1011,465.7892 493.6822,464.0506 430.8664,430.7152 427.0113,429.0522 421.7199,427.5404 418.7719,427.616 409.8522,429.2034 426.9357,481.4365 431.0176,495.194 432.6805,502.1483 433.0585,509.027 432.7561,514.016 431.6979,520.9704 421.342,560.8822 419.3766,566.9294 416.353,571.8428 373.3419,632.0129 369.7136,637.6822 362.3813,646.9799 355.9561,654.3122 342.123,668.9767 335.5466,675.2508 304.9324,702.3122 301.7576,705.487 296.2395,706.2429 291.7041,713.802 286.7907,723.9311 280.8946,738.1421"/>
    <polyline points="288.5293,741.6949 292.6112,731.4146 303.4962,710.4004 305.6884,709.4177 310.6017,706.0917 343.1813,676.0823 348.6994,672.1515 350.8915,668.9767 370.6207,647.6602 380.3719,635.9437 362.7593,632.3153 356.1829,632.6177 350.438,631.635 348.9262,631.635 347.112,632.5421 346.5073,633.5248 345.449,634.3562 341.2915,636.0192 333.3545,634.5074 291.3261,623.3956"/>
    <line x1="301.2285" x2="327.534" y1="651.8933" y2="657.5626"/>
    <polygon points="327.1561,658.9232 308.6364,654.3122 307.5781,659.0744 300.2458,657.1846 297.9781,655.6728 297.2222,653.6318 298.2049,650.457 301.3041,649.7011 322.8474,654.3878 327.0049,635.2633 289.4364,624.9074 288.4537,623.4712 288.9828,621.4303 291.2506,620.6744 314.1545,626.3436 314.1545,627.4019 333.9592,632.0129"/>
    <line x1="330.1041" x2="339.0238" y1="654.2366" y2="656.3531"/>
    <line x1="341.3671" x2="330.9356" y1="653.7074" y2="651.213"/>
    <line x1="333.2789" x2="341.8207" y1="642.52" y2="644.7877"/>
    <line x1="340.2333" x2="334.2616" y1="641.1594" y2="639.572"/>
    <polyline points="347.112,632.5421 346.5829,629.2161 346.6585,627.7043 360.4915,631.1059 362.7593,632.3153 362.6837,626.4948"/>
    <line x1="356.2585" x2="356.1829" y1="623.698" y2="612.9641"/>
    <line x1="363.7419" x2="375.2317" y1="617.2728" y2="617.424"/>
    <line x1="366.7656" x2="367.8238" y1="602.6082" y2="598.5263"/>
    <polyline points="359.1309,600.6428 366.7656,602.6082 364.3467,606.8413 363.6663,607.1436 363.8175,626.4948 356.2585,626.4948 356.2585,623.698 343.4081,621.8838"/>
    <polyline points="344.164,619.3893 342.1986,626.1925 340.9892,631.9373 341.2915,636.0192 341.8962,638.5893 344.6931,644.561 345.3734,648.5673 345.0711,651.4397 342.2742,658.0161 339.6285,660.435 332.3718,663.8366 328.8191,664.6681 319.1435,666.1043 315.7419,667.3893 313.0206,668.8256 308.334,673.2854 307.1246,674.7216 305.2348,679.0303 304.101,682.6586 303.7986,684.7752 302.8159,687.0429 292.1576,695.5846 291.2506,698.0791 289.512,701.0272 287.5466,709.6445 287.1687,715.3894 292.6868,706.6964 299.9435,697.9279 313.1718,685.909 335.2443,667.2382 342.2742,658.0161 348.5482,652.12 354.9734,644.9389 385.89,602.9862 391.1813,596.4098 410.9105,567.9877 414.8412,560.1263 425.575,520.2145 426.6333,512.5042 424.7435,498.4444 420.8128,484.0066 417.7136,476.2207 404.6364,435.0994 400.9325,431.0931"/>
    <polyline points="404.6364,435.0994 406.2994,434.5703 417.4112,433.512 418.7719,433.8144 419.679,432.3782 421.2664,431.3955 423.5341,431.0931 425.8774,431.8491 493.3798,467.4522 493.8333,468.5861 493.6822,469.5688 500.8633,470.7026"/>
    <polyline points="493.6822,469.5688 478.0349,533.8208 470.7782,531.553 462.3121,527.32 457.1719,526.7152 450.9735,524.5231 437.7451,523.6916 426.8601,520.5168 419.9813,519.005 414.1609,516.8885 408.8695,517.2664 402.5199,516.8885 397.3042,518.8538 389.1404,516.7373 383.6978,515.9814 378.0286,512.9578 370.3183,506.1546 367.6726,499.9562 367.8994,492.1703 372.3593,481.8144 377.4994,475.9184 380.5986,469.0396 390.2742,471.7609"/>
    <line x1="380.5986" x2="378.1797" y1="469.0396" y2="451.5782"/>
    <polyline points="389.4427,444.2459 373.9467,434.4947 370.923,440.0884"/>
    <polyline points="392.6931,428.2207 404.3341,424.1388 407.5089,422.249 414.0097,420.964 418.6963,419.4522 420.6616,418.016"/>
    <polyline points="416.8065,415.8238 413.9341,416.8821 410.079,417.7892 407.8112,417.7892"/>
    <line x1="406.753" x2="400.101" y1="419.679" y2="415.2947"/>
    <polyline points="405.0144,418.5451 401.6884,420.8884 396.3971,421.8711"/>
    <polyline points="404.3341,424.1388 402.8979,428.6742 399.8742,432.3782 397.0774,434.4191 393.0711,438.1987 388.9136,445.153 386.7971,451.427 386.4947,459.2128 388.0065,466.0916 390.2742,471.7609 405.6947,475.994"/>
    <polyline points="407.4333,476.5987 588.3216,523.0113 645.6948,537.3735 691.7295,549.3924 705.4114,552.6428 791.2823,574.7909 855.6855,591.0428 879.6477,597.6948 821.2918,628.2334 784.0256,646.9799 777.7516,650.5326 751.1214,755.9059"/>
    <polyline points="755.1707,755.9059 763.2382,723.402 782.3626,653.6318 801.1091,579.931 812.1453,534.879 821.7453,499.6538 822.8036,493.9089 843.1375,413.4049"/>
    <polyline points="841.6257,414.5388 741.4681,388.6868 733.8335,387.0238 667.5405,369.7136 660.813,368.2018 618.4066,356.3341"/>
    <polyline points="618.6334,368.1262 618.4066,356.3341 618.6334,350.9671 617.6507,314.2301 640.4035,320.0506 641.9909,320.8821 649.3232,322.8474 629.7452,352.5545 626.646,358.0726 618.6334,368.1262 620.2208,393.2979 619.994,394.8853 620.0696,404.7876 619.7673,407.3577 619.9184,424.0632 620.5232,424.7435 621.7326,425.2727"/>
    <polyline points="624.7562,428.2207 516.1326,400.5545 521.8019,377.6506"/>
    <polyline points="511.9751,366.312 529.2853,370.8474 530.7215,364.7246 515.2255,360.7939"/>
    <line x1="530.7215" x2="539.7924" y1="364.7246" y2="366.69"/>
    <polyline points="541.4554,357.1655 530.0412,352.4789 537.6759,332.2207 545.3861,333.9592 537.2979,381.1278 541.3798,379.238 552.4916,382.1104 556.8759,381.5057 565.4932,383.4711 566.5515,379.3892 609.7893,390.501 611.0743,426.5577 610.9232,435.6286 606.161,453.1656 578.9483,559.2948 577.6633,565.2664 568.3657,600.5673 548.6365,679.4838 536.4664,726.728 442.6585,702.3878 441.1467,702.2366 342.123,677.1405 335.5466,675.2508 328.2144,673.0586 325.2663,665.1972 323.6033,672.3027 320.8065,673.4366 316.1954,676.687 311.2821,678.1988 309.3167,686.0602"/>
    <line x1="312.038" x2="303.7986" y1="686.9673" y2="684.7752"/>
    <polyline points="302.8159,687.0429 301.3797,692.939 297.1466,695.509 295.6348,697.4744 294.9545,699.2886"/>
    <line x1="293.1403" x2="298.1293" y1="698.9106" y2="700.1201"/>
    <polyline points="303.9498,694.2996 310.9041,701.7075 321.8647,706.5453 428.2963,733.9846 515.1231,755.9059"/>
    <polyline points="504.8431,755.9059 433.6632,736.9327 425.4239,734.1358 417.638,730.6587 382.564,710.7783 0.0,496.6565"/>
    <polyline points="0.0,501.3156 403.3514,727.1059 414.5388,732.624 423.912,736.4791 432.9073,739.2004 495.9693,755.9059"/>
    <polyline points="500.3416,755.9059 429.8081,737.5374 301.7576,705.487 295.8616,713.7264 289.9655,724.9894"/>
    <polyline points="291.175,706.3185 302.1356,710.098 344.164,720.1516 426.4065,741.3169 432.3026,742.5264 484.6006,755.9059"/>
    <polyline points="529.0702,755.9059 536.4664,726.728 546.2932,729.1469 557.9342,682.0539 576.9074,608.9578 578.268,601.9279 588.0948,562.8475 597.0145,528.9074 607.3704,487.6349 607.7484,485.2916 617.5751,447.4963 619.6917,443.1876 640.4035,410.1546"/>
    <polyline points="639.3452,399.7231 640.0255,398.2868 683.9437,330.1797 687.1185,326.0222 810.1044,138.2552"/>
    <polyline points="816.3784,141.5812 739.8807,258.5954 738.2177,261.8458 736.6303,263.8112 695.7358,327.1561 691.8051,332.1451 669.5059,366.8411 646.7531,401.2349"/>
    <polyline points="624.983,412.0443 632.1641,410.1546 633.298,409.3231 623.32,424.9703 621.7326,425.2727 624.983,412.0443 619.994,406.0727"/>
    <line x1="611.0743" x2="579.8554" y1="426.5577" y2="418.6963"/>
    <line x1="578.3436" x2="571.4649" y1="416.4286" y2="444.6995"/>
    <line x1="563.1499" x2="570.2554" y1="442.5073" y2="414.3876"/>
    <line x1="553.4743" x2="549.0145" y1="410.079" y2="427.8428"/>
    <polyline points="590.2113,419.5278 586.205,437.2916 594.2176,445.153"/>
    <polyline points="601.172,455.2821 592.4791,452.9388 594.2176,445.153 611.9814,449.5373"/>
    <polyline points="617.1972,448.8569 719.3957,475.0869 764.3721,485.9719 812.1453,498.8979 821.3674,500.9389 912.3784,524.5231"/>
    <polyline points="914.117,517.2664 714.4067,466.0916 620.2208,442.4317"/>
    <polyline points="608.731,481.5121 702.6901,505.7011 714.9358,508.5735 811.3894,533.7452 904.1391,556.8759"/>
    <polyline points="900.8887,560.4286 801.7894,534.5767 715.3894,512.6554 710.4004,511.1436 701.7075,509.1782 603.2885,484.1577"/>
    <polyline points="606.9169,489.2223 805.7957,539.868 809.5752,540.6239 902.3249,564.7373"/>
    <polyline points="874.8855,592.6302 801.4115,573.2035 704.6555,548.5609 692.561,545.8397 590.0602,519.8365 493.6822,494.6648 430.7908,478.942 418.8475,475.2381 406.375,472.9703 404.9388,479.2444 420.8128,484.0066 422.5514,484.7625 434.1168,487.7861 435.4774,487.7105 418.6207,435.6286 418.7719,433.8144"/>
    <polyline points="407.5089,422.249 406.753,419.679 410.6837,412.4979"/>
    <polygon points="407.6601,415.0679 407.3577,414.0853 406.6018,413.3294 405.6191,413.027 404.5608,413.3294 403.8805,414.0853 403.5782,415.0679 403.8805,416.0506 404.5608,416.8065 405.6191,417.1089 406.6018,416.8065 407.3577,416.0506"/>
    <polygon points="403.427,405.8459 422.7026,416.5798 417.5624,419.2254 414.6144,420.1325 411.5908,420.5105 411.5908,419.7546 409.0207,419.9057 406.4506,420.5105 404.1829,421.4931 402.2175,422.9294 402.6711,423.5341 401.1593,424.4412 396.4727,426.1042 393.5246,422.5514"/>
    <polyline points="356.2585,488.542 356.4096,513.4869 343.5592,510.0097 384.3782,441.0711 392.6931,428.2207 403.9561,408.6427 420.4349,417.8648 424.3656,420.7372 432.8317,424.1388 447.4963,431.8491 449.6128,433.2853 452.3341,436.0821 457.3231,439.4837 462.0097,440.9955 466.016,441.6758 478.1105,448.3278 482.4192,451.7294 484.3845,452.7876 492.2459,455.5845 500.9389,459.8176 499.1247,465.0333 500.0318,466.4695 500.7121,468.4349 500.8633,470.7026 494.4381,497.3105 473.2727,582.1231 462.6144,622.2618 442.6585,702.3878 428.9115,755.9059"/>
    <polyline points="425.4007,755.9059 428.9766,741.8461 430.4128,734.5138 439.8617,698.0791 338.9482,672.0004"/>
    <polyline points="333.3545,663.4586 335.2443,667.2382 407.1309,685.909 438.3498,693.846 442.8853,694.7531 631.257,743.6602"/>
    <polygon points="635.1877,746.6083 635.0366,747.213 635.7169,747.3642 643.7295,742.602 643.7295,741.3925"/>
    <polyline points="632.1641,750.0099 629.2917,747.1374 627.5531,746.3059 617.2728,743.2823 542.4381,724.0823 614.8539,438.1987 615.6854,433.512 615.9121,429.5813 615.2318,398.6648 639.95,404.9388 665.2728,365.7073 689.9909,329.2726 761.9532,219.2127 815.3957,136.6678 817.9658,131.9812"/>
    <polyline points="775.1059,118.2993 763.5406,112.7056 749.6319,109.0016 738.9736,107.4898 732.2461,103.3323"/>
    <polyline points="747.5154,79.1433 747.8177,79.9748 748.6492,80.8819 751.7484,82.167"/>
    <polyline points="758.0225,71.8111 751.7484,82.167 743.7358,93.8835 738.7469,101.9717 720.9831,128.5796 668.4476,208.7056 614.098,292.1576 613.1153,294.7277 612.8885,296.3151 612.8885,309.6191 615.2318,398.6648 590.4381,392.9955"/>
    <polyline points="614.4759,370.8474 647.0555,378.9356 649.7011,368.8065"/>
    <polyline points="671.8492,356.0317 682.6586,358.6018 686.9673,349.9089 679.1815,345.2978"/>
    <polyline points="675.3263,368.353 673.5878,381.8837 692.0319,384.227"/>
    <polyline points="728.3154,427.4648 729.676,434.4947 687.2697,603.6665 697.9279,606.3877"/>
    <line x1="696.9453" x2="699.4397" y1="610.5452" y2="599.509"/>
    <line x1="687.2697" x2="677.7452" y1="603.6665" y2="641.3862"/>
    <line x1="676.309" x2="683.4901" y1="647.0555" y2="648.8696"/>
    <polyline points="685.0775,643.2003 677.7452,641.3862 674.5704,654.0098 684.8508,656.6555 682.1295,667.5405 671.9248,664.8948 666.709,686.0602"/>
    <line x1="664.5925" x2="672.076" y1="694.6019" y2="696.4161"/>
    <polyline points="680.013,689.235 666.709,686.0602 660.2838,712.0634 656.8822,733.6067 652.8144,755.9059"/>
    <polyline points="647.8434,755.9059 648.9452,745.8524 650.3059,737.9154 666.7846,727.1059 680.7689,717.2791 690.1421,719.6224 721.4366,728.3909 743.6602,722.7217"/>
    <line x1="725.2161" x2="705.2602" y1="720.1516" y2="714.5579"/>
    <line x1="695.2823" x2="731.0366" y1="721.1342" y2="697.4744"/>
    <line x1="733.8335" x2="725.2161" y1="703.6728" y2="701.3295"/>
    <line x1="720.6807" x2="713.0461" y1="704.2775" y2="694.6775"/>
    <line x1="715.3894" x2="727.2571" y1="707.8303" y2="711.1563"/>
    <polyline points="706.0917,738.3689 712.7437,737.9909 733.6823,735.6476 765.5059,734.4382 777.9028,733.3043 858.4068,719.7736"/>
    <polyline points="859.0115,723.2508 775.0303,737.3862 768.076,738.0665 758.9295,738.4445 703.824,738.4445 693.3169,737.9154"/>
    <polyline points="705.4114,743.0555 743.7358,748.498 751.8996,749.0272 759.4587,748.8004 779.9437,745.7768 860.5233,732.3217"/>
    <line x1="861.0524" x2="825.9784" y1="735.4209" y2="741.3925"/>
    <polyline points="859.6162,727.0303 770.7217,741.9217 756.2839,743.5091 742.5264,743.7358 731.8681,743.0555 698.7594,738.898 688.4035,737.3106 674.5704,734.665"/>
    <line x1="670.3374" x2="662.7783" y1="731.2634" y2="722.5705"/>
    <polyline points="665.1216,718.5642 669.9594,717.2035 710.7027,688.9327 714.2555,686.7405 721.5878,681.1468 766.5642,650.3815 773.3673,645.9972 820.1579,621.0523 850.0918,605.5562"/>
    <polyline points="851.3012,593.6129 799.3705,580.9893 791.887,579.4019 704.2775,556.4979 692.1075,553.0208 493.0774,502.6774 435.4774,487.7105 438.3498,497.3861 439.1813,503.131 439.7105,508.0444 438.9546,518.4003 427.5404,564.8129 425.7262,568.8192 400.1766,605.0271 380.3719,635.9437 454.2995,655.5216 548.6365,679.4838 651.9689,706.3185 676.8382,712.5169"/>
    <polyline points="663.1563,715.9941 665.1216,710.5516 668.9767,695.6602 675.1752,670.1106 680.9956,648.2649 684.0949,635.2633 685.5311,630.5767 705.4114,552.6428 726.1232,469.1152 734.7406,435.6286 735.1185,434.0412 732.7752,421.9467 742.9043,383.0175 751.824,347.2632 752.6555,342.8033 766.413,290.6458 769.5122,287.1687 802.9233,237.0521 856.139,164.4095"/>
    <line x1="885.317" x2="832.6304" y1="181.1151" y2="253.8332"/>
    <polyline points="826.5831,262.2238 795.591,309.4679 770.1925,286.1104 769.4366,285.1277 763.3138,280.0631 678.2744,202.5072 675.4019,198.4253 671.8492,194.419"/>
    <polyline points="667.087,201.9781 667.7673,202.8851 670.7909,205.1529 699.8933,231.3072 736.0256,264.7938 758.1736,284.3718 764.6744,290.797 766.1106,291.7041 791.5091,314.4569 793.7012,311.8112"/>
    <polyline points="797.3296,315.1372 832.9327,260.712 893.4052,174.9166"/>
    <polyline points="849.7894,79.5213 839.2823,70.6772 836.1831,63.2693 833.5375,59.7166 815.6981,46.9418 807.3075,41.726 798.8414,41.726 793.0965,40.3654 786.2177,36.8882"/>
    <polyline points="791.6927,-0.0 790.0729,6.3496 787.1248,12.4724 784.7815,16.4787 777.5248,26.6079 765.7327,38.8536 756.6618,45.5811 753.0335,47.2441 747.213,48.6803 742.4508,47.4709"/>
    <line x1="698.0035" x2="706.3941" y1="144.2268" y2="150.8788"/>
    <line x1="699.1374" x2="690.1421" y1="162.1418" y2="155.641"/>
    <polyline points="693.1657,161.7639 764.75,209.8395 800.3532,233.197 832.6304,253.8332 838.2241,258.5954 867.5532,277.7198"/>
    <polyline points="833.4619,266.1545 800.5044,316.1199 795.6666,317.7828"/>
    <polyline points="830.2871,318.1608 813.2792,306.8978 813.2792,306.0663 818.2682,298.5828 819.1752,297.7513 820.6115,298.1293 846.9926,314.608"/>
    <polyline points="822.4256,359.1309 776.7689,346.9608 745.3988,339.6285 695.7358,327.1561 692.1075,325.9466 652.1956,315.8931 645.5437,314.4569 617.4995,306.8978"/>
    <polyline points="612.8885,309.6191 685.4555,328.0632 747.7421,344.3151 774.4256,350.8915 816.0004,362.2301 863.8493,373.6443 963.7045,399.1939"/>
    <polyline points="975.3454,489.9026 510.1609,370.6207 497.1593,366.0096 484.9892,359.5089 473.953,351.1939 332.901,219.3639 178.2426,75.4394 168.0379,67.0489 156.6237,59.8677"/>
    <polyline points="154.5072,63.6473 168.6426,72.3402 178.6206,80.504 330.7844,221.7072 471.8365,353.4616 483.4774,361.701 496.1766,368.2018 509.7074,372.5104 974.8163,491.7924"/>
    <polyline points="978.2179,542.8916 777.1469,648.5673 758.1736,660.7374 620.0834,755.9059"/>
    <polyline points="629.1927,755.9059 761.424,664.7437 779.7925,653.0271 980.5612,547.4271"/>
    <polyline points="956.1454,697.55 939.3643,703.9752 885.3926,731.1878 872.9957,737.7642 866.117,740.939 862.2619,742.2996 854.6272,744.3406 798.6902,753.7138 792.265,754.0162 781.0776,753.7138 744.4917,751.2193 736.2524,750.3122 727.7862,748.7248 696.1138,740.7878 670.413,733.5311 641.7641,726.1988"/>
    <polyline points="650.3059,737.9154 644.4098,744.0382 641.6885,746.0791 636.7751,748.9516 632.1641,750.0099 634.961,745.1721 644.7122,738.3689 650.3059,737.9154 654.5389,714.0287 655.3704,710.7783 680.7689,717.2791 713.0461,694.6775 721.4366,688.4791 729.8272,683.2634 771.2508,654.3122 777.7516,650.5326 780.0193,642.3689 795.5154,580.0822 827.7926,453.0144 847.7485,458.0034"/>
    <line x1="765.128" x2="763.8429" y1="482.6459" y2="488.3908"/>
    <line x1="755.6036" x2="754.0917" y1="518.0223" y2="522.5578"/>
    <line x1="766.413" x2="756.2839" y1="568.3657" y2="608.3531"/>
    <line x1="738.2177" x2="734.0602" y1="628.0066" y2="645.5437"/>
    <polyline points="708.9642,638.9673 710.0224,634.2051 713.3484,632.0129 716.2209,621.5814"/>
    <line x1="695.5846" x2="684.624" y1="617.2728" y2="614.3247"/>
    <line x1="696.6429" x2="694.224" y1="612.5862" y2="623.0177"/>
    <line x1="674.5704" x2="671.9248" y1="654.0098" y2="664.8948"/>
    <line x1="682.3563" x2="680.3909" y1="666.6334" y2="674.2681"/>
    <polygon points="656.8822,714.0287 655.2193,725.065 655.5216,725.4429 655.8996,725.065 657.487,714.1043"/>
    <polyline points="664.8948,728.3154 661.6445,748.4225 660.6618,751.5217 658.8476,754.6965"/>
    <polygon points="651.4397,750.0854 653.2539,741.9973 653.1027,741.7705 651.5153,742.8287 650.835,746.6839"/>
    <polygon points="641.8397,752.5043 640.6303,750.9169 640.6303,750.4634 644.7122,748.0445 645.3169,750.2366"/>
    <polygon points="645.3169,740.7122 645.3169,741.6949 645.7704,741.1658"/>
    <polygon points="659.15,741.5437 656.9578,744.7941 655.5972,753.0335 655.824,753.7894 656.5043,753.5626 658.0917,750.9169 661.3421,737.5374 661.1909,736.6303 660.6618,736.7059 658.3185,738.4445 658.3941,739.5784"/>
    <polyline points="667.7673,733.002 667.8429,736.328 665.3484,750.3122 687.1299,755.9059"/>
    <polyline points="746.667,755.9059 754.6209,724.4602 761.802,692.4854"/>
    <polyline points="766.2618,696.1138 733.8335,687.7232 717.6571,684.0949 670.2618,671.4712 567.3074,645.6192 401.6128,603.0617 346.0537,589.3798"/>
    <polyline points="345.449,593.5373 346.734,598.6019 347.6411,605.5562 346.5829,613.8712 344.164,619.3893 307.8049,610.8476 307.2002,607.8995 309.1655,600.4917 314.0033,595.0491 320.5041,592.857 333.8081,595.6539 340.46,595.5783 345.449,593.5373 346.8852,581.8964"/>
    <polyline points="340.3844,579.5531 336.3781,567.2318 335.1687,559.8239 335.1687,553.4743 335.7734,545.5373 342.0474,539.5656 350.5136,529.6633 353.6884,523.3137 356.4096,513.4869"/>
    <line x1="356.3341" x2="370.3183" y1="509.405" y2="506.1546"/>
    <polyline points="383.6978,515.9814 387.0238,527.2444 386.4947,531.7798 385.1341,538.5074 382.7908,543.194 375.9876,553.5499"/>
    <polyline points="389.216,554.1546 390.3498,546.5956 391.4837,541.2286 392.0128,534.0475 387.0238,527.2444"/>
    <line x1="392.0128" x2="397.3042" y1="534.0475" y2="518.8538"/>
    <line x1="423.6853" x2="436.0821" y1="527.2444" y2="530.4948"/>
    <polyline points="414.8412,560.1263 425.953,562.6964 468.7373,573.7326 474.9357,575.0932 533.594,590.5137 676.9138,626.8728 766.5642,650.3815"/>
    <polyline points="770.3437,655.0681 762.4067,653.3295 734.0602,645.5437 680.3909,631.4838 532.6869,594.2176 420.1325,565.1909"/>
    <polyline points="413.6317,562.9231 389.216,554.1546 383.4711,554.2302 375.9876,553.5499 366.3876,557.783 360.038,563.4523 356.8632,568.8192 354.1419,580.1578 346.8852,581.8964 340.3844,579.5531 313.323,572.7499 326.0222,547.4271 335.7734,545.5373"/>
    <polyline points="341.4427,540.0948 342.5766,542.1357 344.8443,544.5546 349.1529,546.5956"/>
    <polyline points="353.4616,541.9845 350.5136,538.5074 347.7923,537.1467 344.6175,536.542"/>
    <polyline points="351.4207,527.8491 355.049,531.1751 360.038,531.553"/>
    <polyline points="411.4396,566.8538 422.7782,569.9531 755.3012,654.3122 757.7201,656.5043"/>
    <polygon points="761.424,663.5342 682.7342,718.1862 680.5421,715.3138 759.6099,660.9641"/>
    <polyline points="760.3658,698.5327 731.7925,690.5201 728.2398,690.0665 714.2555,686.7405 565.4932,648.8696 462.6144,622.2618 456.7184,621.1279 399.4207,606.161 356.2585,595.5783 355.5026,591.7232 358.7529,588.1704 392.3152,596.7121 397.6821,597.7704 662.1736,666.2555 675.4775,669.2035 737.3862,685.1531 770.0414,664.1389 779.4146,657.3358 790.2996,650.6082 796.6492,647.6602 862.8666,612.8885 895.2194,674.8728"/>
    <polyline points="883.0493,686.8917 877.002,685.3043 870.6524,684.1704 863.8493,683.6413 856.2902,683.5657 847.5217,684.4728 786.3689,692.4854"/>
    <polyline points="786.5957,703.2949 861.8839,693.4681 865.8902,693.2413 872.6934,693.6193 895.5973,697.2476 903.3832,697.6256 917.6698,696.7941 931.0493,694.4508 926.1359,694.9043 919.1816,695.0555 915.0997,694.9043 907.7674,694.0728 897.8651,691.6539 869.3674,682.6586 859.6162,680.9956 808.6682,678.9547"/>
    <line x1="798.917" x2="790.8288" y1="659.6791" y2="643.5783"/>
    <polyline points="796.3469,654.6145 793.8524,656.1263 789.0902,659.7547 785.2351,664.1389 783.6477,667.2382 781.6067,673.5122 780.6996,677.6697 778.8099,688.1767 778.3563,692.4854 776.4666,720.5295 777.9028,733.3043 779.5658,744.4917 780.2461,746.9862 781.6823,749.4051 785.3863,753.865 786.3689,755.9059"/>
    <line x1="777.4492" x2="861.9595" y1="729.3736" y2="714.4067"/>
    <polyline points="917.6698,696.7941 892.0446,700.9516 796.4225,713.1972"/>
    <polyline points="809.9532,626.5704 790.602,621.2791 682.1295,593.3106 481.8144,542.0601"/>
    <polyline points="480.605,538.0538 756.2839,608.3531 811.0871,622.5641 813.0524,623.0932 816.2272,624.6051 821.2918,628.2334"/>
    <polyline points="820.1579,621.0523 694.9043,588.6995 682.7342,585.9783 578.9483,559.2948 478.0349,533.8208 456.6428,614.6271 455.3577,620.7499 446.7404,654.9169 444.1703,666.4067 436.6868,694.6019 421.2632,755.9059"/>
    <line x1="435.2506" x2="447.6475" y1="715.9185" y2="719.1689"/>
    <line x1="406.2994" x2="407.4333" y1="689.3862" y2="684.4728"/>
    <line x1="413.4049" x2="416.5042" y1="662.1736" y2="649.7011"/>
    <polygon points="413.5561,628.1578 414.9924,628.0066 416.2774,627.4775 417.3357,626.4948 418.016,625.2098 418.3183,623.8492 418.1672,622.4129 416.6553,620.0696 415.2191,619.3137 413.7073,619.0869 412.1199,619.3893 410.7593,620.2208 409.7766,621.5058 409.3231,622.9421 409.3231,624.5295 409.9278,626.0413 410.986,627.1751 412.1955,627.931"/>
    <line x1="416.1262" x2="419.3766" y1="619.8429" y2="607.5972"/>
    <polyline points="354.9734,644.9389 445.0018,667.7673 451.0491,668.8256 554.5326,695.7358"/>
    <polyline points="590.0602,705.1846 617.1216,711.761 619.5405,701.5563"/>
    <line x1="621.1279" x2="617.2728" y1="729.8272" y2="743.2823"/>
    <polyline points="602.3814,739.4272 604.8003,729.4492 588.3972,725.3673"/>
    <line x1="584.4665" x2="581.1405" y1="720.6051" y2="733.9846"/>
    <line x1="621.657" x2="626.5704" y1="635.9437" y2="617.9531"/>
    <line x1="619.4649" x2="623.7736" y1="616.1389" y2="598.0728"/>
    <line x1="607.3704" x2="611.5279" y1="588.0948" y2="571.5405"/>
    <line x1="645.6948" x2="650.3059" y1="537.3735" y2="518.9294"/>
    <line x1="617.1972" x2="598.0728" y1="510.0097" y2="505.0207"/>
    <line x1="596.3342" x2="615.0051" y1="511.9751" y2="516.8885"/>
    <line x1="618.9358" x2="599.9625" y1="502.1483" y2="497.1593"/>
    <line x1="562.6208" x2="557.405" y1="494.2113" y2="514.9987"/>
    <line x1="502.6774" x2="511.4459" y1="501.09" y2="464.6554"/>
    <polygon points="500.7121,456.8695 498.5955,464.0506 502.5263,465.2601 504.7184,458.0034"/>
    <polyline points="495.4963,457.0207 494.4381,461.5562 492.6995,467.0743"/>
    <line x1="501.5436" x2="528.3782" y1="373.1152" y2="321.26"/>
    <line x1="613.1909" x2="622.9421" y1="321.5624" y2="321.5624"/>
    <polyline points="636.1704,258.5198 625.2854,251.7923 649.3232,214.9796 641.6129,209.7639"/>
    <polyline points="646.8287,201.9025 653.783,190.9418 672.5295,202.5828 797.3296,315.1372 774.4256,350.8915"/>
    <polyline points="811.2382,264.0379 804.813,259.5781 812.6745,247.408"/>
    <line x1="653.9342" x2="645.2413" y1="249.8269" y2="244.5356"/>
    <polyline points="604.5936,-0.0 758.3248,88.1386 905.4997,173.4804 911.5469,177.4867 917.0651,181.871 956.4478,210.5954 961.3611,213.6946 1019.4903,246.8033 1022.3628,249.2978 1023.4966,250.9608 1025.084,254.8915 1025.7643,257.7639 1025.7643,259.7293 1024.7817,263.7356 1023.7234,266.0033 1021.758,269.1025"/>
    <polyline points="1064.6179,267.9686 959.169,208.3277 894.6902,171.0615 596.2249,0.0"/>
    <polyline points="601.0899,0.0 901.4934,172.271 1066.2809,265.0206"/>
    <polyline points="810.3311,602.9106 817.9658,604.8759 817.6634,605.8586 805.7201,602.835"/>
    <polyline points="532.6869,594.2176 537.0712,576.0759 529.1341,573.9594 524.6743,592.1011"/>
    <polygon points="355.2002,671.8492 372.1325,676.2334 377.953,653.1783 369.638,650.9106 353.9907,668.0697 353.8396,669.9594"/>
    <line x1="337.8899" x2="327.8364" y1="710.7027" y2="750.9925"/>
    <line x1="330.9478" x2="341.7451" y1="755.9059" y2="715.3894"/>
    <line x1="345.1466" x2="335.2695" y1="716.2209" y2="755.9059"/>
    <polyline points="347.1973,755.9059 337.9655,753.5626 346.8096,719.5468"/>
    <polyline points="311.2821,678.1988 307.1246,674.7216 295.5592,671.8492 295.0301,674.0413 284.4474,671.2445 283.9183,673.2098 267.5907,668.75"/>
  </g>
</svg>
