<?xml version="1.0" encoding="UTF-8"?>
<svg xmlns="http://www.w3.org/2000/svg" width="400" height="500" viewBox="0 0 400 500">
  <rect width="100%" height="100%" fill="white"/>

  <!-- Star at top -->
  <path d="M 200.00 20.00 L 204.11 29.34 L 214.27 30.36 L 206.66 37.16 L 208.82 47.14 L 200.00 42.00 L 191.18 47.14 L 193.34 37.16 L 185.73 30.36 L 195.89 29.34 Z" fill="none" stroke="#DAA520" stroke-width="2"/>

  <!-- Tree (sine wave) -->
  <path d="M 200.00 50.00 L 200.63 50.62 L 201.26 51.23 L 201.87 51.85 L 202.47 52.47 L 203.04 53.08 L 203.57 53.70 L 204.06 54.32 L 204.49 54.93 L 204.87 55.55 L 205.17 56.17 L 205.40 56.78 L 205.55 57.40 L 205.62 58.02 L 205.60 58.63 L 205.49 59.25 L 205.29 59.87 L 205.00 60.48 L 204.62 61.10 L 204.16 61.72 L 203.62 62.33 L 203.01 62.95 L 202.33 63.57 L 201.59 64.18 L 200.81 64.80 L 200.00 65.42 L 199.16 66.03 L 198.31 66.65 L 197.47 67.27 L 196.64 67.88 L 195.84 68.50 L 195.09 69.12 L 194.39 69.73 L 193.77 70.35 L 193.23 70.97 L 192.78 71.58 L 192.43 72.20 L 192.20 72.82 L 192.09 73.43 L 192.10 74.05 L 192.24 74.67 L 192.51 75.28 L 192.91 75.90 L 193.44 76.52 L 194.09 77.13 L 194.85 77.75 L 195.72 78.37 L 196.69 78.98 L 197.73 79.60 L 198.84 80.22 L 200.00 80.83 L 201.19 81.45 L 202.40 82.07 L 203.60 82.68 L 204.78 83.30 L 205.91 83.92 L 206.98 84.53 L 207.96 85.15 L 208.84 85.77 L 209.60 86.38 L 210.22 87.00 L 210.70 87.62 L 211.01 88.23 L 211.16 88.85 L 211.12 89.47 L 210.91 90.08 L 210.51 90.70 L 209.94 91.32 L 209.18 91.93 L 208.26 92.55 L 207.18 93.17 L 205.96 93.78 L 204.61 94.40 L 203.15 95.02 L 201.61 95.63 L 200.00 96.25 L 198.35 96.87 L 196.69 97.48 L 195.04 98.10 L 193.44 98.72 L 191.90 99.33 L 190.46 99.95 L 189.13 100.57 L 187.96 101.18 L 186.95 101.80 L 186.13 102.42 L 185.51 103.03 L 185.11 103.65 L 184.95 104.27 L 185.02 104.88 L 185.34 105.50 L 185.90 106.12 L 186.71 106.73 L 187.74 107.35 L 188.99 107.97 L 190.45 108.58 L 192.09 109.20 L 193.89 109.82 L 195.83 110.43 L 197.88 111.05 L 200.00 111.67 L 202.16 112.28 L 204.34 112.90 L 206.48 113.52 L 208.57 114.13 L 210.55 114.75 L 212.41 115.37 L 214.10 115.98 L 215.59 116.60 L 216.86 117.22 L 217.89 117.83 L 218.65 118.45 L 219.12 119.07 L 219.29 119.68 L 219.15 120.30 L 218.71 120.92 L 217.95 121.53 L 216.90 122.15 L 215.56 122.77 L 213.94 123.38 L 212.07 124.00 L 209.97 124.62 L 207.69 125.23 L 205.23 125.85 L 202.66 126.47 L 200.00 127.08 L 197.30 127.70 L 194.59 128.32 L 191.94 128.93 L 189.36 129.55 L 186.92 130.17 L 184.65 130.78 L 182.60 131.40 L 180.79 132.02 L 179.26 132.63 L 178.04 133.25 L 177.15 133.87 L 176.62 134.48 L 176.45 135.10 L 176.65 135.72 L 177.24 136.33 L 178.19 136.95 L 179.51 137.57 L 181.18 138.18 L 183.16 138.80 L 185.45 139.42 L 187.99 140.03 L 190.76 140.65 L 193.72 141.27 L 196.81 141.88 L 200.00 142.50 L 203.23 143.12 L 206.44 143.73 L 209.59 144.35 L 212.63 144.97 L 215.51 145.58 L 218.17 146.20 L 220.57 146.82 L 222.67 147.43 L 224.44 148.05 L 225.84 148.67 L 226.84 149.28 L 227.43 149.90 L 227.58 150.52 L 227.30 151.13 L 226.57 151.75 L 225.42 152.37 L 223.85 152.98 L 221.88 153.60 L 219.54 154.22 L 216.87 154.83 L 213.90 155.45 L 210.67 156.07 L 207.25 156.68 L 203.67 157.30 L 200.00 157.92 L 196.29 158.53 L 192.61 159.15 L 189.00 159.77 L 185.54 160.38 L 182.27 161.00 L 179.25 161.62 L 176.54 162.23 L 174.17 162.85 L 172.20 163.47 L 170.64 164.08 L 169.54 164.70 L 168.91 165.32 L 168.77 165.93 L 169.13 166.55 L 169.98 167.17 L 171.32 167.78 L 173.12 168.40 L 175.37 169.02 L 178.02 169.63 L 181.05 170.25 L 184.40 170.87 L 188.03 171.48 L 191.88 172.10 L 195.89 172.72 L 200.00 173.33 L 204.14 173.95 L 208.25 174.57 L 212.26 175.18 L 216.10 175.80 L 219.73 176.42 L 223.06 177.03 L 226.06 177.65 L 228.66 178.27 L 230.83 178.88 L 232.53 179.50 L 233.72 180.12 L 234.39 180.73 L 234.52 181.35 L 234.10 181.97 L 233.13 182.58 L 231.64 183.20 L 229.63 183.82 L 227.14 184.43 L 224.19 185.05 L 220.85 185.67 L 217.15 186.28 L 213.15 186.90 L 208.91 187.52 L 204.51 188.13 L 200.00 188.75 L 195.46 189.37 L 190.96 189.98 L 186.57 190.60 L 182.37 191.22 L 178.41 191.83 L 174.77 192.45 L 171.50 193.07 L 168.67 193.68 L 166.31 194.30 L 164.46 194.92 L 163.17 195.53 L 162.45 196.15 L 162.33 196.77 L 162.79 197.38 L 163.85 198.00 L 165.49 198.62 L 167.69 199.23 L 170.41 199.85 L 173.62 200.47 L 177.28 201.08 L 181.31 201.70 L 185.67 202.32 L 190.29 202.93 L 195.09 203.55 L 200.00 204.17 L 204.95 204.78 L 209.85 205.40 L 214.63 206.02 L 219.21 206.63 L 223.52 207.25 L 227.49 207.87 L 231.06 208.48 L 234.15 209.10 L 236.73 209.72 L 238.74 210.33 L 240.16 210.95 L 240.95 211.57 L 241.10 212.18 L 240.60 212.80 L 239.45 213.42 L 237.67 214.03 L 235.28 214.65 L 232.31 215.27 L 228.82 215.88 L 224.84 216.50 L 220.43 217.12 L 215.67 217.73 L 210.63 218.35 L 205.38 218.97 L 200.00 219.58 L 194.58 220.20 L 189.21 220.82 L 183.96 221.43 L 178.93 222.05 L 174.19 222.67 L 169.82 223.28 L 165.89 223.90 L 162.47 224.52 L 159.62 225.13 L 157.38 225.75 L 155.80 226.37 L 154.90 226.98 L 154.71 227.60 L 155.24 228.22 L 156.48 228.83 L 158.41 229.45 L 161.03 230.07 L 164.28 230.68 L 168.13 231.30 L 172.51 231.92 L 177.37 232.53 L 182.63 233.15 L 188.21 233.77 L 194.03 234.38 L 200.00 235.00 L 206.02 235.62 L 212.00 236.23 L 217.85 236.85 L 223.47 237.47 L 228.77 238.08 L 233.66 238.70 L 238.07 239.32 L 241.92 239.93 L 245.14 240.55 L 247.68 241.17 L 249.48 241.78 L 250.52 242.40 L 250.77 243.02 L 250.22 243.63 L 248.87 244.25 L 246.73 244.87 L 243.82 245.48 L 240.20 246.10 L 235.89 246.72 L 230.98 247.33 L 225.52 247.95 L 219.60 248.57 L 213.31 249.18 L 206.74 249.80 L 200.00 250.42 L 193.18 251.03 L 186.40 251.65 L 179.76 252.27 L 173.37 252.88 L 167.34 253.50 L 161.75 254.12 L 156.71 254.73 L 152.30 255.35 L 148.60 255.97 L 145.68 256.58 L 143.58 257.20 L 142.36 257.82 L 142.03 258.43 L 142.63 259.05 L 144.13 259.67 L 146.55 260.28 L 149.84 260.90 L 153.96 261.52 L 158.86 262.13 L 164.47 262.75 L 170.71 263.37 L 177.49 263.98 L 184.71 264.60 L 192.25 265.22 L 200.00 265.83 L 207.84 266.45 L 215.66 267.07 L 223.31 267.68 L 230.69 268.30 L 237.66 268.92 L 244.12 269.53 L 249.96 270.15 L 255.07 270.77 L 259.37 271.38 L 262.78 272.00 L 265.23 272.62 L 266.67 273.23 L 267.07 273.85 L 266.41 274.47 L 264.69 275.08 L 261.91 275.70 L 258.12 276.32 L 253.36 276.93 L 247.69 277.55 L 241.20 278.17 L 233.97 278.78 L 226.12 279.40 L 217.75 280.02 L 209.00 280.63 L 200.00 281.25 L 190.89 281.87 L 181.81 282.48 L 172.92 283.10 L 164.34 283.72 L 156.23 284.33 L 148.72 284.95 L 141.93 285.57 L 135.98 286.18 L 130.98 286.80 L 127.01 287.42 L 124.16 288.03 L 122.48 288.65 L 122.01 289.27 L 122.78 289.88 L 124.78 290.50 L 128.01 291.12 L 132.42 291.73 L 137.96 292.35 L 144.55 292.97 L 152.11 293.58 L 160.51 294.20 L 169.65 294.82 L 179.37 295.43 L 189.54 296.05 L 200.00 296.67 L 210.58 297.28 L 221.12 297.90 L 231.44 298.52 L 241.39 299.13 L 250.80 299.75 L 259.50 300.37 L 267.36 300.98 L 274.24 301.60 L 280.02 302.22 L 284.59 302.83 L 287.87 303.45 L 289.79 304.07 L 290.30 304.68 L 289.38 305.30 L 287.03 305.92 L 283.26 306.53 L 278.13 307.15 L 271.70 307.77 L 264.05 308.38 L 255.30 309.00 L 245.58 309.62 L 235.02 310.23 L 223.79 310.85 L 212.05 311.47 L 200.00 312.08 L 187.82 312.70 L 175.69 313.32 L 163.83 313.93 L 152.41 314.55 L 141.63 315.17 L 131.66 315.78 L 122.68 316.40 L 114.83 317.02 L 108.25 317.63 L 103.07 318.25 L 99.37 318.87 L 97.24 319.48 L 96.72 320.10 L 97.84 320.72 L 100.59 321.33 L 104.95 321.95 L 110.87 322.57 L 118.26 323.18 L 127.02 323.80 L 137.03 324.42 L 148.14 325.03 L 160.18 325.65 L 172.97 326.27 L 186.32 326.88 L 200.00 327.50 L 213.81 328.12 L 227.54 328.73 L 240.95 329.35 L 253.83 329.97 L 265.98 330.58 L 277.18 331.20 L 287.26 331.82 L 296.05 332.43 L 303.38 333.05 L 309.14 333.67 L 313.21 334.28 L 315.52 334.90 L 316.01 335.52 L 314.66 336.13 L 311.48 336.75 L 306.50 337.37 L 299.79 337.98 L 291.44 338.60 L 281.57 339.22 L 270.32 339.83 L 257.86 340.45 L 244.39 341.07 L 230.10 341.68 L 215.23 342.30 L 200.00 342.92 L 184.65 343.53 L 169.43 344.15 L 154.59 344.77 L 140.35 345.38 L 126.96 346.00 L 114.63 346.62 L 103.56 347.23 L 93.95 347.85 L 85.95 348.47 L 79.71 349.08 L 75.34 349.70 L 72.91 350.32 L 72.49 350.93 L 74.08 351.55 L 77.69 352.17 L 83.26 352.78 L 90.71 353.40 L 99.95 354.02 L 110.84 354.63 L 123.21 355.25 L 136.87 355.87 L 151.61 356.48 L 167.21 357.10 L 183.43 357.72 L 200.00 358.33 L 216.67 358.95 L 233.16 359.57 L 249.23 360.18 L 264.60 360.80 L 279.03 361.42 L 292.29 362.03 L 304.15 362.65 L 314.42 363.27 L 322.93 363.88 L 329.54 364.50 L 334.13 365.12 L 336.61 365.73 L 336.94 366.35 L 335.10 366.97 L 331.11 367.58 L 325.02 368.20 L 316.92 368.82 L 306.94 369.43 L 295.22 370.05 L 281.93 370.67 L 267.29 371.28 L 251.53 371.90 L 234.88 372.52 L 217.61 373.13 L 200.00 373.75 L 182.32 374.37 L 164.85 374.98 L 147.86 375.60 L 131.65 376.22 L 116.45 376.83 L 102.53 377.45 L 90.10 378.07 L 79.37 378.68 L 70.51 379.30 L 63.67 379.92 L 58.97 380.53 L 56.49 381.15 L 56.27 381.77 L 58.33 382.38 L 62.64 383.00 L 69.13 383.62 L 77.71 384.23 L 88.25 384.85 L 100.59 385.47 L 114.53 386.08 L 129.86 386.70 L 146.34 387.32 L 163.70 387.93 L 181.69 388.55 L 200.00 389.17 L 218.35 389.78 L 236.46 390.40 L 254.03 391.02 L 270.77 391.63 L 286.43 392.25 L 300.76 392.87 L 313.52 393.48 L 324.50 394.10 L 333.54 394.72 L 340.48 395.33 L 345.21 395.95 L 347.66 396.57 L 347.77 397.18 L 345.55 397.80 L 341.02 398.42 L 334.26 399.03 L 325.36 399.65 L 314.47 400.27 L 301.76 400.88 L 287.43 401.50 L 271.70 402.12 L 254.82 402.73 L 237.05 403.35 L 218.68 403.97 L 200.00 404.58 L 181.30 405.20 L 162.88 405.82 L 145.03 406.43 L 128.04 407.05 L 112.17 407.67 L 97.67 408.28 L 84.78 408.90 L 73.71 409.52 L 64.62 410.13 L 57.66 410.75 L 52.95 411.37 L 50.56 411.98 L 50.53 412.60 L 52.86 413.22 L 57.51 413.83 L 64.41 414.45 L 73.46 415.07 L 84.50 415.68 L 97.37 416.30 L 111.87 416.92 L 127.76 417.53 L 144.79 418.15 L 162.70 418.77 L 181.20 419.38 L 200.00 420.00" fill="none" stroke="#228B22" stroke-width="2.5" stroke-linecap="round" stroke-linejoin="round"/>

  <!-- Trunk -->
  <path d="M 185.00 420.00 L 215.00 420.00 L 215.00 470.00 L 185.00 470.00 Z" fill="none" stroke="#8B4513" stroke-width="2"/>
</svg>