<svg baseProfile="tiny" height="200mm" version="1.2" viewBox="0 0 100 100" width="300mm" xmlns="http://www.w3.org/2000/svg"><rect x="-10000" y="-10000" width="20000" height="20000" fill="rgb(220,220,220)"/><g id="zoom-group" transform="translate(0,0) scale(1)"><g id="drag-group" transform="translate(0, 0)"><g fill="none" stroke="#555555" stroke-linecap="round" stroke-linejoin="round" class="zoomable-line" style="stroke-width: 0.32;"><path d="M 36.04 98.40 L 35.71 98.24 L 35.45 98.25 L 35.18 98.33"/><path d="M 103.55 8.42 L 102.63 9.06 L 88.98 18.38 L 88.56 18.76 L 88.14 19.05 L 86.35 20.31 L 85.46 21.50 L 82.85 24.86 L 80.20 28.45 L 77.52 31.95 L 77.19 32.38"/><path d="M 66.66 47.73 L 65.92 48.23 L 64.28 49.33 L 63.32 50.64 L 60.85 53.88 L 60.53 54.31"/><path d="M 19.78 56.57 L 18.65 63.87 L 18.58 64.36"/><path d="M 17.34 71.93 L 16.59 76.51 L 14.30 90.47"/><path d="M 21.38 47.15 L 21.92 44.01"/><path d="M 58.36 51.11 L 58.78 51.73 L 60.53 54.31 L 61.87 56.31 L 62.19 56.77 L 62.41 57.10 L 65.31 61.34 L 65.68 61.88 L 65.90 62.21 L 69.03 66.89 L 69.29 67.17 L 74.33 74.64 L 76.11 77.26 L 77.80 79.82 L 79.60 82.49 L 82.17 86.34 L 87.85 91.09 L 90.61 93.51 L 92.83 95.28 L 93.47 95.80 L 93.80 96.08 L 95.69 97.66 L 97.39 99.08 L 97.80 99.43"/><path d="M 76.11 77.26 L 68.16 82.72"/><path d="M 19.01 43.56 L 21.92 44.01 L 24.69 44.45"/><path d="M 18.97 97.80 L 15.83 97.21"/><path d="M 112.75 22.30 L 111.98 22.82 L 109.31 24.62 L 107.79 25.62 L 104.59 27.85 L 102.74 29.11 L 100.47 30.66 L 97.84 32.45 L 94.41 34.79 L 91.11 37.04 L 87.62 39.42 L 83.73 42.09"/><path d="M 35.18 98.33 L 32.77 99.35 L 32.39 99.52"/><path d="M 37.12 94.70 L 36.73 95.03 L 35.26 98.13 L 35.18 98.33"/><path d="M 83.66 84.48 L 89.38 89.24"/><path d="M 67.89 60.34 L 68.83 61.63"/><path d="M 53.48 38.60 L 53.72 38.94 L 58.69 46.26 L 59.14 46.93"/><path d="M 25.13 24.27 L 26.61 15.14 L 28.58 3.12 L 28.63 2.74 L 30.55 -8.82"/><path d="M 80.56 21.56 L 80.95 22.05 L 82.85 24.86 L 87.35 31.59 L 87.81 32.26 L 91.11 37.04 L 94.53 42.16 L 98.13 47.49 L 103.17 54.91 L 108.48 62.78 L 111.61 67.39 L 111.86 67.76"/><path d="M 36.22 63.31 L 38.24 60.60 L 38.45 60.29"/><path d="M 24.14 84.42 L 21.57 83.98 L 18.33 83.52"/><path d="M 1.51 73.94 L 2.01 74.02 L 4.83 74.50 L 5.66 74.65 L 7.64 74.98 L 8.07 75.06 L 8.42 75.12 L 10.86 75.54 L 13.67 76.01 L 16.59 76.51 L 19.40 76.99 L 22.61 77.54 L 25.34 78.01 L 25.86 78.10"/><path d="M 49.86 92.98 L 43.90 90.13 L 40.10 88.28 L 36.41 86.52 L 35.95 86.29"/><path d="M 41.48 67.44 L 41.12 67.15 L 36.22 63.31"/><path d="M 73.02 107.85 L 68.16 96.19 L 68.03 95.82 L 67.25 93.98 L 67.10 93.77 L 66.82 93.09 L 65.64 90.01 L 62.42 82.36 L 62.05 82.13 L 61.57 81.86 L 56.55 78.05 L 50.57 75.15 L 46.64 73.28"/><path d="M 36.04 98.40 L 40.24 100.41"/><path d="M 16.96 56.08 L 17.32 56.15 L 19.78 56.57"/><path d="M 72.17 87.04 L 74.72 93.22"/><path d="M 69.46 77.91 L 66.55 70.87 L 65.70 69.66 L 65.35 69.14 L 62.36 64.69 L 62.10 64.31 L 61.79 63.84 L 58.88 59.52 L 58.66 59.21"/><path d="M 37.26 27.87 L 42.50 35.58 L 47.10 42.42 L 47.38 42.84"/><path d="M 68.86 28.05 L 68.65 27.73 L 64.04 20.89 L 63.82 20.54 L 63.24 19.68 L 58.83 13.13 L 53.52 5.27 L 51.65 2.54 L 48.41 -2.24 L 48.03 -2.79"/><path d="M 33.35 92.15 L 32.93 91.64 L 32.54 91.20 L 31.37 89.98 L 30.96 89.55 L 30.37 88.95 L 29.94 88.53 L 28.55 87.02 L 26.50 84.91 L 25.70 84.66 L 25.37 84.59 L 25.14 84.56"/><path d="M 40.15 57.76 L 39.44 57.25 L 36.57 55.19 L 33.47 52.79 L 33.16 52.55"/><path d="M 35.79 17.23 L 39.22 15.06 L 42.86 12.59 L 43.83 11.96 L 46.38 10.13 L 49.96 7.69 L 52.59 5.90 L 53.52 5.27 L 57.14 2.81"/><path d="M 41.12 2.13 L 41.51 2.73 L 46.38 10.13 L 51.52 17.67 L 51.71 17.97 L 56.95 25.67 L 58.56 28.06 L 61.57 32.53 L 61.81 32.89"/><path d="M 102.33 85.16 L 96.61 80.49 L 90.64 75.49 L 90.38 75.17 L 90.19 74.80 L 85.10 67.27 L 80.04 59.85 L 76.45 54.49 L 72.94 49.30"/><path d="M 79.18 4.82 L 79.64 4.51 L 92.01 -4.00 L 92.89 -4.61"/><path d="M 35.88 40.09 L 36.06 40.35 L 40.52 46.87 L 40.60 46.99 L 41.06 47.17"/><path d="M 84.75 83.13 L 83.01 80.64 L 83.03 80.17 L 83.05 79.72 L 77.96 72.17 L 72.88 64.71 L 70.97 61.90 L 69.27 59.40"/><path d="M 85.32 82.42 L 85.51 82.57 L 90.72 86.77 L 91.16 87.12"/><path d="M 29.72 54.06 L 29.28 53.99 L 26.54 53.52 L 23.76 53.05 L 23.34 52.98 L 22.89 52.91 L 17.62 52.03 L 14.80 51.56 L 12.32 51.14 L 11.97 51.08 L 11.70 51.04 L 8.76 50.55 L 5.94 50.08 L 5.42 49.99 L 4.92 49.91 L 1.80 49.38 L -0.28 49.04 L -1.30 48.87 L -1.94 48.76"/><path d="M 78.20 11.17 L 72.98 3.48 L 67.70 -4.37 L 67.45 -4.73 L 62.32 -12.26 L 61.94 -12.83"/><path d="M 78.28 18.75 L 81.00 16.89"/><path d="M 53.35 43.72 L 53.05 43.92 L 46.36 48.49 L 46.04 48.71 L 45.66 48.97 L 43.58 50.37"/><path d="M 60.57 38.65 L 60.90 38.43 L 65.19 35.54 L 66.22 34.84 L 66.36 34.74 L 67.31 34.09 L 67.64 33.86"/><path d="M 73.90 27.57 L 73.51 27.83 L 67.04 32.21 L 66.72 32.43"/><path d="M 115.26 58.18 L 114.93 58.41 L 111.82 60.53 L 108.48 62.78 L 105.05 65.11 L 103.31 66.34 L 101.61 67.48 L 101.10 67.81 L 100.75 68.06 L 97.41 70.34 L 95.71 71.52 L 93.92 72.77 L 90.38 75.17 L 88.87 76.20 L 87.65 77.03 L 86.87 77.56 L 86.14 78.06 L 83.03 80.17 L 79.60 82.49 L 76.27 84.76 L 73.17 86.64 L 72.17 87.04 L 68.94 88.53 L 65.64 90.01 L 62.29 91.56 L 58.58 93.22 L 54.91 94.91"/><path d="M 69.09 35.98 L 69.46 36.52 L 69.72 36.90 L 70.76 38.44 L 71.65 39.74 L 72.08 40.38 L 72.49 40.97 L 76.56 46.98 L 80.03 52.11 L 83.60 57.41 L 88.66 64.89 L 93.74 72.41 L 93.92 72.77 L 94.12 73.00 L 99.26 77.25 L 107.32 83.98 L 107.41 84.06"/><path d="M 108.38 70.11 L 108.14 69.75 L 105.05 65.11 L 99.73 57.28 L 94.72 49.86 L 91.10 44.49 L 87.62 39.42 L 84.24 34.38 L 83.81 33.72"/><path d="M 71.24 15.91 L 66.05 8.18 L 60.73 0.36"/><path d="M 54.61 37.78 L 54.39 37.45 L 49.99 30.95 L 49.76 30.61 L 49.47 30.18 L 44.53 22.88 L 39.22 15.06"/><path d="M 61.50 45.78 L 61.07 45.07 L 55.94 37.43 L 55.71 37.09"/><path d="M -0.68 128.47 L 0.22 123.00 L 0.95 118.62 L 1.23 116.90 L 2.29 110.31 L 2.80 107.18 L 4.22 98.48 L 5.26 92.29 L 6.09 87.05 L 6.96 81.67 L 8.01 75.44 L 8.07 75.06 L 8.13 74.66 L 8.57 71.77 L 9.15 68.36 L 9.91 63.69 L 10.04 62.94 L 10.13 62.39 L 11.90 51.53 L 11.97 51.08 L 12.04 50.69 L 13.20 43.72 L 13.90 39.49 L 13.96 39.15 L 14.03 38.72 L 15.95 26.89 L 16.01 26.43 L 16.10 25.92 L 16.63 22.79 L 18.13 13.71 L 18.18 13.29 L 19.98 2.07 L 20.05 1.65 L 20.13 1.14 L 21.98 -10.30 L 24.00 -22.26 L 26.10 -34.98 L 26.59 -38.02 L 28.15 -47.73 L 30.12 -59.70 L 30.77 -63.75 L 31.17 -66.29 L 31.56 -68.79 L 32.05 -71.67"/><path d="M 58.91 83.50 L 62.05 82.13 L 65.40 80.54"/><path d="M 19.55 40.13 L 19.21 42.31 L 19.01 43.56 L 18.70 45.44 L 17.68 51.67 L 17.62 52.03 L 17.55 52.47 L 16.96 56.08 L 15.76 63.39 L 15.68 63.88 L 15.55 64.66 L 14.79 69.29 L 14.44 71.49 L 13.67 76.01 L 12.58 82.64 L 11.58 88.91"/><path d="M 47.38 42.84 L 51.03 40.26 L 53.48 38.60 L 54.61 37.78 L 55.71 37.09 L 58.02 35.50 L 58.28 35.32"/><path d="M 80.70 88.16 L 76.27 84.76"/><path d="M 37.36 101.63 L 36.04 98.40"/><path d="M 30.11 99.43 L 29.64 99.16 L 27.82 98.12 L 25.95 97.08 L 23.28 95.57 L 22.84 95.32"/><path d="M 41.99 56.16 L 42.74 56.74 L 46.96 60.02"/><path d="M 53.04 64.55 L 55.78 68.62"/><path d="M 38.21 49.13 L 37.90 48.67 L 33.26 41.85"/><path d="M 27.97 24.76 L 25.13 24.27 L 22.23 23.76 L 19.43 23.28 L 16.63 22.79"/><path d="M 52.07 88.15 L 53.97 92.74 L 54.91 94.91 L 56.18 98.02 L 57.47 101.05 L 62.27 112.75 L 63.55 115.68 L 64.30 117.52 L 65.74 120.95"/><path d="M 34.75 79.90 L 35.09 79.97 L 37.82 80.52 L 38.33 80.76"/><path d="M 20.16 72.36 L 17.34 71.93 L 14.44 71.49"/><path d="M 14.79 69.29 L 11.98 68.83 L 9.15 68.36"/><path d="M 47.72 81.58 L 53.68 84.51 L 55.27 85.31 L 55.45 85.57 L 55.65 86.04 L 58.58 93.22"/><path d="M 19.43 23.28 L 20.95 14.18 L 20.99 13.81 L 22.85 2.53 L 22.88 2.15 L 22.92 1.80 L 24.84 -9.83 L 26.80 -21.80 L 28.89 -34.51"/><path d="M 14.80 51.56 L 14.73 52.00 L 12.95 62.85 L 12.86 63.41"/><path d="M 56.44 48.24 L 51.09 55.47 L 50.68 55.64 L 50.20 55.73 L 46.96 60.02"/><path d="M 29.94 88.53 L 29.72 89.02 L 28.89 90.83 L 27.69 93.52 L 26.21 96.85 L 26.10 96.98 L 25.95 97.08"/><path d="M 70.68 84.74 L 77.80 79.82"/><path d="M 34.47 29.74 L 37.26 27.87 L 40.91 25.36 L 44.53 22.88 L 48.16 20.39"/><path d="M 58.28 35.32 L 58.01 34.93 L 53.63 28.49 L 53.38 28.13 L 53.14 27.77 L 48.16 20.39"/><path d="M 7.70 131.22 L 7.83 130.67 L 8.87 126.27 L 9.75 122.58 L 10.20 120.71 L 10.61 118.97 L 12.91 109.35 L 13.68 106.28 L 13.79 105.85 L 15.18 100.28 L 15.83 97.21 L 16.51 94.16 L 16.82 92.75 L 16.88 92.39 L 16.94 91.96 L 17.01 91.54 L 18.33 83.52 L 19.40 76.99 L 20.16 72.36 L 21.27 65.56 L 21.40 64.83 L 21.48 64.32 L 22.72 56.73 L 23.27 53.43 L 23.34 52.98 L 23.40 52.57 L 24.06 48.47 L 24.69 44.45 L 25.19 41.44 L 25.26 41.01 L 25.33 40.60 L 27.31 28.76 L 27.38 28.35 L 27.47 27.75 L 27.97 24.76 L 29.47 15.61 L 31.44 3.57 L 33.21 -7.16 L 33.40 -8.35 L 35.36 -20.30 L 37.45 -33.07 L 37.66 -34.32 L 37.78 -35.09 L 39.47 -45.43 L 39.54 -45.85"/><path d="M 33.90 103.06 L 34.27 102.91 L 37.36 101.63 L 40.24 100.41 L 44.99 98.41"/><path d="M 119.92 32.61 L 119.00 33.27 L 115.80 35.43 L 112.99 37.35 L 111.58 38.27 L 109.78 39.55 L 107.54 41.08 L 104.87 42.86 L 101.43 45.19 L 98.13 47.49 L 94.72 49.86 L 91.26 52.18 L 90.79 52.49 L 90.41 52.76 L 87.05 55.05 L 83.60 57.41 L 80.04 59.85 L 77.30 61.72 L 76.51 62.27 L 75.79 62.75 L 73.77 64.11 L 72.88 64.71 L 69.29 67.17 L 65.70 69.66 L 62.32 71.92 L 61.95 72.18 L 61.64 72.40 L 58.39 74.66 L 57.87 75.02 L 57.70 75.42 L 56.55 78.05 L 55.05 81.42 L 53.68 84.51 L 52.29 87.62 L 52.07 88.15 L 49.86 92.98 L 48.47 96.14 L 47.00 99.38"/><path d="M 49.07 78.42 L 50.57 75.15 L 50.71 74.99 L 52.28 71.31 L 52.46 70.90 L 52.89 70.60 L 55.78 68.62 L 58.04 67.05 L 58.33 66.85 L 58.72 66.59 L 62.10 64.31 L 65.32 62.12 L 65.68 61.88 L 67.89 60.34 L 69.27 59.40 L 72.16 57.42 L 72.91 56.91"/><path d="M 72.73 97.49 L 81.93 93.33"/><path d="M 81.78 8.68 L 78.20 11.17 L 74.75 13.57 L 72.22 15.25 L 71.24 15.91 L 71.09 16.01 L 67.65 18.34 L 64.04 20.89 L 60.49 23.27 L 58.52 24.60 L 56.95 25.67 L 53.74 27.88 L 53.38 28.13 L 53.09 28.33 L 50.03 30.43 L 49.76 30.61 L 49.45 30.82 L 46.14 33.05"/><path d="M 21.44 94.56 L 19.73 94.70 L 16.91 94.22 L 16.51 94.16"/><path d="M 38.02 4.83 L 38.30 4.43 L 38.55 4.11 L 38.79 3.87 L 38.86 3.79 L 39.26 3.41 L 39.54 3.22 L 39.84 3.01 L 41.12 2.13 L 42.37 1.25 L 42.95 0.83 L 44.51 -0.31 L 48.03 -2.79"/><path d="M 90.03 100.10 L 89.42 99.59 L 87.26 97.77 L 84.73 95.64 L 84.32 95.29 L 83.85 94.91 L 81.93 93.33 L 78.73 90.78 L 78.22 90.45 L 73.17 86.64 L 70.68 84.74 L 68.16 82.72 L 67.34 82.10 L 65.40 80.54"/><path d="M 38.12 3.86 L 38.16 3.46 L 38.20 3.01 L 38.43 1.69 L 39.08 -2.24 L 39.16 -2.68 L 39.72 -6.18 L 39.89 -7.25 L 41.83 -19.24 L 42.94 -26.00 L 43.28 -28.05 L 43.93 -32.02"/><path d="M 31.68 -34.05 L 29.61 -21.29 L 27.66 -9.34 L 27.13 -6.19 L 25.67 2.60 L 23.73 14.65 L 22.23 23.76 L 21.63 27.38"/><path d="M 3.95 11.30 L 4.53 11.40 L 7.94 11.99 L 11.57 12.60 L 14.92 13.16 L 18.13 13.71 L 20.95 14.18 L 23.73 14.65 L 26.61 15.14 L 29.47 15.61 L 32.68 16.16 L 34.02 16.38 L 34.75 16.50"/><path d="M 40.15 57.76 L 41.99 56.16 L 44.25 54.38 L 45.70 53.51"/><path d="M 27.77 65.89 L 27.87 65.32 L 28.57 61.06 L 29.63 54.61 L 29.72 54.06 L 29.80 53.58 L 31.31 44.39 L 31.59 42.72 L 31.68 42.16 L 31.76 41.69 L 32.94 34.51 L 33.76 29.50"/><path d="M 33.07 92.78 L 32.91 93.15 L 32.58 93.89 L 31.19 96.92 L 30.11 99.43 L 28.67 102.54 L 26.27 108.12 L 24.53 112.16 L 23.62 114.16 L 23.21 115.07 L 22.88 115.79"/><path d="M 18.23 100.79 L 18.35 100.34 L 18.81 98.46 L 18.97 97.80 L 19.63 95.08 L 19.73 94.70 L 19.90 93.62"/><path d="M 34.75 79.90 L 35.69 77.66 L 37.57 73.51 L 38.06 72.49 L 38.65 71.08 L 41.29 67.62 L 41.48 67.44"/><path d="M 64.80 97.72 L 63.55 94.72"/><path d="M 41.12 74.48 L 40.65 74.10 L 38.06 72.49"/><path d="M 38.33 80.76 L 38.86 81.03 L 46.32 84.68 L 52.29 87.62"/><path d="M 65.40 80.54 L 66.38 82.19 L 68.94 88.53 L 71.51 94.67 L 72.73 97.49 L 73.94 100.43 L 76.33 106.34 L 76.55 106.84 L 78.18 110.63 L 78.38 111.10"/><path d="M 19.90 93.62 L 19.98 93.19 L 21.57 83.98 L 22.14 80.27 L 22.52 77.87 L 22.61 77.54 L 22.69 77.08 L 24.44 66.09 L 24.45 66.04 L 24.61 65.36 L 24.69 64.88 L 26.46 53.97 L 26.54 53.52 L 26.60 53.13 L 27.29 48.99 L 28.45 42.01 L 28.51 41.64"/><path d="M 29.72 54.06 L 30.44 54.29 L 30.98 54.46 L 36.55 58.80 L 38.45 60.29 L 38.76 60.52 L 41.99 62.98 L 43.80 64.36 L 46.67 66.48"/><path d="M 33.26 41.85 L 32.32 42.26 L 31.68 42.16"/><path d="M 64.80 97.72 L 68.16 96.19 L 71.51 94.67 L 74.72 93.22 L 78.31 91.49 L 78.73 90.78 L 79.06 90.15 L 80.70 88.16 L 82.17 86.34 L 83.66 84.48 L 84.75 83.13 L 85.32 82.42 L 85.65 82.05 L 87.77 80.58 L 88.54 80.04"/><path d="M 37.12 94.70 L 33.97 93.22 L 33.60 93.04 L 33.07 92.78"/><path d="M 15.24 127.08 L 16.39 122.31 L 16.83 120.47 L 18.61 113.03 L 19.05 111.19 L 19.13 110.84 L 21.11 102.55 L 21.43 101.22 L 22.69 95.96 L 22.75 95.68 L 22.84 95.32 L 22.93 94.93 L 23.33 93.12 L 23.43 92.63 L 24.84 84.51 L 25.07 83.06 L 25.86 78.10 L 27.22 69.52 L 27.23 69.45 L 27.59 67.11 L 27.65 66.70 L 27.77 65.89"/><path d="M 28.68 69.66 L 28.75 69.26 L 28.81 68.90 L 30.00 61.77 L 29.90 61.39 L 29.71 61.27 L 29.28 61.19 L 29.12 61.16 L 28.57 61.06"/><path d="M 30.62 73.68 L 32.30 73.99 L 32.46 72.98 L 32.27 72.03 L 31.91 71.23 L 31.37 70.54 L 30.70 70.16 L 30.03 69.98 L 29.61 69.87 L 28.68 69.66 L 27.90 69.53"/><path d="M 14.48 38.76 L 16.21 37.34 L 19.48 34.75 L 19.69 34.58"/><path d="M 19.87 32.62 L 19.72 32.36 L 17.61 28.94 L 16.50 26.99"/><path d="M 19.80 39.20 L 20.43 35.22 L 20.47 34.96"/><path d="M 16.50 26.99 L 15.39 32.91"/><path d="M 21.64 32.90 L 21.84 32.72 L 26.76 28.69"/><path d="M 24.78 40.48 L 19.73 39.64 L 14.48 38.76"/><path d="M 14.48 38.76 L 15.39 32.91"/><path d="M 19.80 39.20 L 19.73 39.64"/><path d="M 25.78 34.50 L 24.78 40.48"/><path d="M 25.78 34.50 L 26.76 28.69"/><path d="M 76.86 16.66 L 83.48 12.16 L 83.89 11.88"/><path d="M 47.00 99.38 L 44.99 98.41 L 41.10 96.50"/><path d="M 81.56 69.71 L 82.33 69.18 L 85.10 67.27 L 88.66 64.89 L 92.10 62.52 L 95.44 60.23 L 95.81 59.97 L 96.28 59.65 L 98.03 58.47 L 99.73 57.28 L 103.17 54.91 L 106.50 52.66 L 109.55 50.58 L 109.93 50.31 L 110.37 50.02 L 112.56 48.52 L 114.83 46.99 L 118.04 44.83"/><path d="M 65.40 80.54 L 65.19 79.62 L 65.15 79.48 L 62.46 72.95 L 62.19 72.54 L 61.95 72.18 L 61.65 71.74 L 58.33 66.85 L 54.99 61.92 L 53.04 59.06 L 52.69 58.53 L 52.33 58.01 L 50.68 55.64 L 48.78 52.75 L 48.32 52.10 L 47.88 51.45 L 46.04 48.71 L 43.93 45.65 L 43.74 45.37 L 43.43 44.91 L 38.84 38.09 L 34.12 31.07 L 33.97 30.86"/><path d="M 96.35 -1.12 L 95.71 -0.35 L 95.12 0.36 L 93.60 2.14 L 92.16 3.81 L 91.90 4.14 L 91.62 4.56 L 85.73 13.52 L 85.38 14.06 L 85.04 14.59 L 82.23 19.01 L 80.56 21.56 L 79.68 22.75 L 78.67 24.12 L 75.31 28.69 L 74.97 29.16 L 74.62 29.64 L 72.14 33.00 L 69.46 36.52 L 69.16 36.91 L 68.99 37.13 L 68.93 37.20 L 68.64 37.58 L 68.18 38.18 L 64.76 42.63"/><path d="M 46.67 66.48 L 47.09 66.81 L 49.74 68.86 L 52.06 70.61 L 52.46 70.90 L 52.89 71.23 L 57.50 74.74 L 57.87 75.02 L 58.32 75.35 L 64.29 79.78 L 65.40 80.54"/><path d="M 33.07 92.78 L 33.35 92.15 L 33.61 91.56 L 33.92 90.87 L 35.95 86.29 L 38.33 80.76 L 40.82 75.15 L 41.12 74.48 L 41.39 73.93 L 41.85 72.99 L 42.28 72.32 L 46.31 66.95 L 46.67 66.48"/><path d="M 35.79 17.23 L 36.80 11.04 L 36.96 10.05 L 37.35 7.65 L 37.53 6.73 L 37.67 5.99 L 37.74 5.75 L 37.91 5.19 L 38.02 4.83"/><path d="M 74.97 29.16 L 75.32 29.68 L 77.19 32.38 L 79.25 35.45 L 79.69 36.11 L 80.13 36.76 L 83.73 42.09 L 87.18 47.19 L 90.54 52.11 L 90.79 52.49 L 91.05 52.87 L 95.53 59.56 L 95.81 59.97 L 96.04 60.30 L 100.83 67.42 L 101.10 67.81 L 101.34 68.17 L 104.24 72.40 L 104.51 72.79"/><path d="M 57.14 2.81 L 60.73 0.36 L 64.20 -2.01 L 67.70 -4.37 L 70.85 -6.51 L 71.27 -6.80"/><path d="M 33.76 29.50 L 33.85 29.02 L 35.27 20.37 L 35.55 18.73 L 35.79 17.23"/><path d="M 37.57 73.51 L 37.38 73.48 L 36.97 73.40 L 33.21 72.75 L 33.41 71.52 L 32.95 71.01 L 32.52 70.55 L 32.11 70.10 L 31.68 69.76 L 31.16 69.44 L 30.48 69.25 L 30.14 69.17"/><path d="M 26.21 75.04 L 26.15 76.23 L 26.09 77.50"/><path d="M 25.82 77.46 L 26.15 76.23 L 26.46 75.10"/><path d="M 27.84 62.83 L 28.10 62.87 L 27.68 65.61 L 27.49 66.78 L 27.44 67.01 L 27.30 67.87 L 26.70 71.13 L 26.47 71.09 L 26.77 69.29 L 27.15 67.03 L 27.17 66.88 L 27.30 66.10 L 27.84 62.83"/><path d="M 27.21 70.86 L 27.46 70.90 L 27.70 69.40 L 27.75 69.10 L 28.21 66.27 L 28.40 65.63 L 28.54 64.64 L 28.81 62.99 L 28.56 62.94 L 27.21 70.86"/><path d="M 34.97 19.04 L 35.25 19.09 L 35.51 17.54 L 35.59 17.00 L 35.70 16.34 L 36.71 10.27 L 36.44 10.22 L 35.27 17.23 L 35.08 18.41 L 34.97 19.04"/><path d="M 37.55 7.99 L 37.70 8.02 L 37.83 8.05 L 36.09 18.29 L 35.83 18.26 L 36.09 16.71 L 37.55 7.99"/><path d="M 36.30 16.68 L 36.24 17.15"/><path d="M 33.91 17.24 L 34.02 16.38"/><path d="M 35.02 17.38 L 33.91 17.24"/><path d="M 36.24 17.15 L 36.16 17.54 L 35.02 17.38"/><path d="M 75.88 22.55 L 74.83 21.61 L 71.28 16.30 L 71.09 16.01"/><path d="M 72.22 15.25 L 72.41 15.53 L 75.85 20.75 L 75.72 21.33 L 75.88 22.55 L 75.97 22.71 L 76.21 23.14"/><path d="M 73.77 64.11 L 73.94 64.36 L 74.40 65.06 L 74.45 65.10 L 74.50 65.13 L 74.57 65.15 L 74.62 65.14 L 74.70 65.10 L 76.39 63.99 L 76.55 63.87 L 77.27 63.40"/><path d="M 39.08 -2.24 L 37.48 -2.42 L 36.92 1.45 L 38.43 1.69"/><path d="M 51.65 2.54 L 50.78 3.21 L 52.59 5.90"/><path d="M 29.14 41.75 L 29.23 41.26 L 29.28 40.93 L 29.63 40.32 L 29.74 39.55 L 30.89 39.72"/><path d="M 27.78 40.32 L 26.46 40.14"/><path d="M 27.74 41.50 L 27.79 41.04 L 27.83 40.76 L 27.78 40.32 L 27.94 39.43"/><path d="M 15.35 44.07 L 15.69 42.11"/><path d="M 15.37 46.78 L 17.15 47.05 L 16.85 49.00"/><path d="M 13.20 43.72 L 13.76 43.81 L 15.35 44.07 L 15.79 44.14 L 15.37 46.78 L 15.21 47.79"/><path d="M 20.97 55.55 L 21.99 56.60 L 22.33 56.67 L 22.72 56.73"/><path d="M 61.42 20.96 L 63.24 19.68"/><path d="M 57.97 13.71 L 59.73 16.37"/><path d="M 52.58 11.61 L 55.12 9.85"/><path d="M 18.23 98.35 L 18.81 98.46"/><path d="M 16.17 99.14 L 17.95 99.43 L 18.23 98.35 L 16.40 98.06 L 16.17 99.14"/><path d="M 27.82 98.12 L 27.23 99.36"/><path d="M 25.77 94.20 L 23.92 93.22 L 23.82 93.20 L 23.33 93.12"/><path d="M 24.89 80.72 L 22.14 80.27"/><path d="M 28.55 87.02 L 28.83 86.74 L 28.93 86.65 L 29.19 86.39 L 29.24 86.11 L 29.08 85.81 L 27.07 83.61 L 26.68 83.51 L 26.45 83.67 L 26.24 83.97 L 25.97 84.34"/><path d="M 30.96 89.55 L 31.31 89.38 L 31.47 89.29 L 31.97 88.99 L 32.23 89.24 L 32.78 89.74 L 34.21 86.31 L 33.24 85.90 L 31.97 88.99"/><path d="M 42.17 94.13 L 45.89 95.89"/><path d="M 48.47 96.14 L 46.27 95.10 L 42.57 93.29"/><path d="M 45.01 97.71 L 45.89 95.89 L 46.27 95.10"/><path d="M 39.91 58.01 L 40.51 58.48 L 40.63 58.58 L 41.78 59.50 L 41.59 59.71 L 42.37 60.29"/><path d="M 8.76 50.55 L 8.82 50.18 L 10.62 38.95 L 10.68 38.62 L 10.75 38.20 L 12.81 25.89 L 14.92 13.16 L 16.79 1.50 L 16.85 1.12 L 16.92 0.71 L 18.83 -10.84 L 20.75 -22.83 L 22.85 -35.54"/><path d="M 35.26 98.13 L 34.98 97.99 L 33.42 97.18 L 33.63 97.08 L 34.08 96.87 L 34.61 96.40 L 35.57 95.21 L 36.43 94.99 L 36.55 95.01"/><path d="M 33.63 97.08 L 33.40 95.87 L 33.55 94.75 L 33.23 93.44"/><path d="M 33.42 97.18 L 32.82 97.14 L 32.01 97.44 L 31.93 97.47"/><path d="M 33.49 29.38 L 33.24 29.34 L 30.57 28.89 L 27.84 28.44 L 27.38 28.35 L 26.86 28.27 L 21.63 27.38 L 16.50 26.52 L 16.01 26.43 L 15.48 26.35 L 12.81 25.89 L 9.45 25.32 L 5.86 24.72 L 3.66 24.29 L 2.62 24.11 L 1.89 23.99"/><path d="M 35.79 17.23 L 36.24 18.48 L 40.91 25.36 L 46.14 33.05"/><path d="M 58.36 51.11 L 58.00 51.57 L 56.11 54.05 L 53.13 57.95 L 52.69 58.53 L 52.27 59.09 L 47.11 65.88 L 46.67 66.48"/><path d="M 65.13 45.40 L 66.66 47.73 L 69.20 51.38 L 69.43 51.70 L 69.66 52.05 L 72.62 56.48 L 72.91 56.91 L 73.14 57.27 L 76.22 61.84 L 76.51 62.27 L 76.72 62.59 L 77.27 63.40 L 81.27 69.28 L 81.56 69.71"/><path d="M 65.40 80.54 L 66.48 80.06 L 69.46 77.91 L 74.33 74.64 L 77.96 72.17 L 80.83 70.21 L 81.56 69.71"/><path d="M 69.67 109.37 L 64.95 97.97 L 64.80 97.72"/><path d="M 49.31 104.72 L 53.18 103.01 L 53.38 102.92 L 57.47 101.05 L 61.43 99.26 L 64.80 97.72"/><path d="M 81.56 69.71 L 81.74 69.97 L 82.85 71.61 L 86.59 77.16 L 86.87 77.56 L 87.06 77.85 L 88.54 80.04"/><path d="M 58.28 35.32 L 58.71 35.02 L 61.81 32.89 L 65.02 30.66 L 65.35 30.42 L 65.74 30.16 L 68.86 28.05 L 72.11 25.85 L 72.56 25.54 L 72.98 25.27 L 76.21 23.14 L 78.37 21.68 L 79.63 20.84"/><path d="M 63.44 42.77 L 60.57 38.65 L 58.56 35.73 L 58.28 35.32"/><path d="M 48.16 20.39 L 51.71 17.97 L 55.21 15.58 L 57.97 13.71 L 58.83 13.13 L 62.48 10.66 L 66.05 8.18 L 69.50 5.84 L 72.98 3.48 L 76.59 0.98 L 79.52 -1.05 L 82.48 -3.08 L 85.31 -5.03 L 90.01 -8.26"/><path d="M 48.16 20.39 L 47.98 20.10 L 42.86 12.59 L 38.89 6.70 L 38.38 5.96"/><path d="M 100.84 75.33 L 97.41 70.34 L 92.10 62.52 L 87.28 55.39 L 87.05 55.05 L 83.46 49.74 L 80.01 44.60 L 76.19 38.97 L 75.74 38.30 L 75.36 37.73 L 72.39 33.36 L 72.14 33.00"/><path d="M 93.49 84.25 L 92.93 84.93 L 91.16 87.12 L 89.38 89.24 L 87.85 91.09 L 84.72 94.81 L 84.32 95.29 L 84.03 95.67 L 83.84 95.92 L 73.94 100.43"/><path d="M 115.99 59.37 L 115.26 58.18 L 110.17 50.67 L 109.93 50.31 L 109.74 50.04 L 104.87 42.86 L 101.29 37.57 L 97.84 32.45 L 94.83 27.97 L 94.33 27.22 L 90.34 21.41 L 88.56 18.76 L 86.92 16.30 L 86.67 15.92 L 85.74 14.58 L 85.38 14.06 L 85.04 13.58 L 83.89 11.88 L 81.97 9.00 L 81.78 8.68 L 81.51 8.29 L 79.18 4.82 L 76.59 0.98 L 71.27 -6.80"/><path d="M 85.46 21.50 L 90.79 29.44"/><path d="M 30.37 88.95 L 30.59 88.59 L 30.63 88.50 L 31.33 86.88 L 31.81 85.79 L 32.32 84.63 L 32.65 84.77"/><path d="M 22.84 95.32 L 22.46 95.12 L 21.44 94.56 L 19.90 93.62 L 17.28 92.15 L 16.94 91.96 L 16.53 91.73 L 14.30 90.47 L 11.58 88.91 L 10.56 88.38 L 8.94 87.53 L 6.09 87.05 L 2.98 86.52 L -0.48 85.94 L -4.09 85.31 L -6.41 84.91 L -7.23 84.79 L -7.98 84.66 L -8.75 84.53 L -9.47 84.41 L -10.32 84.28 L -12.56 83.90 L -16.08 83.31 L -19.16 82.78 L -21.74 82.36 L -22.18 82.29 L -22.66 82.20 L -27.40 81.38 L -28.02 81.29 L -28.63 81.19 L -30.34 80.90 L -32.62 80.52 L -33.03 80.44 L -33.63 80.34 L -34.25 80.23 L -37.04 79.76 L -38.91 79.44 L -43.97 78.61 L -44.43 78.73"/><path d="M 38.02 4.83 L 38.12 3.86"/><path d="M 38.02 4.83 L 37.39 4.62 L 37.30 4.59"/><path d="M 38.38 5.96 L 38.33 5.78 L 38.02 4.83"/><path d="M 33.76 29.50 L 33.49 29.38"/><path d="M 33.76 29.50 L 34.32 29.69 L 34.47 29.74"/><path d="M 33.97 30.86 L 33.76 29.50"/><path d="M 21.85 34.06 L 21.86 34.00 L 21.91 33.62 L 21.81 33.18 L 21.64 32.90 L 21.58 32.81 L 21.23 32.53 L 20.87 32.41 L 20.81 32.39 L 20.40 32.39 L 20.01 32.52 L 19.87 32.62 L 19.68 32.77 L 19.44 33.11 L 19.35 33.42 L 19.32 33.50 L 19.34 33.91 L 19.47 34.30 L 19.69 34.58 L 19.73 34.62 L 20.07 34.85 L 20.47 34.96 L 20.91 34.93 L 21.32 34.76 L 21.39 34.69 L 21.65 34.46 L 21.85 34.06"/><path d="M 26.76 28.69 L 26.86 28.27 L 27.02 27.67 L 27.47 27.75 L 27.96 27.86"/><path d="M 16.50 26.99 L 16.50 26.52 L 16.51 25.98"/><path d="M 24.78 40.48 L 25.33 40.60 L 25.82 40.68"/><path d="M 33.81 91.92 L 33.61 91.56 L 33.36 91.05"/><path d="M 63.55 94.72 L 56.18 98.02"/><path d="M 58.91 83.50 L 58.77 83.25 L 55.05 81.42 L 49.07 78.42"/><path d="M 28.49 66.45 L 28.51 66.32 L 28.28 66.28"/><path d="M 26.67 70.10 L 27.46 70.22"/><path d="M 27.70 69.40 L 27.46 70.22"/><path d="M 27.26 66.10 L 27.18 66.62 L 27.15 66.83"/><path d="M 26.77 69.29 L 26.67 70.10"/><path d="M 28.15 66.99 L 28.28 66.28"/><path d="M 27.15 66.83 L 28.15 66.99"/><path d="M 28.49 66.45 L 28.45 66.73 L 28.70 66.76 L 28.76 66.42 L 28.71 66.07 L 28.57 65.84"/><path d="M 35.89 14.29 L 35.99 13.79"/><path d="M 36.85 13.33 L 36.77 13.92"/><path d="M 35.27 17.23 L 35.04 17.20 L 35.02 17.38"/><path d="M 38.35 7.08 L 38.75 7.81 L 38.43 7.98 L 37.74 7.86 L 37.70 8.02"/><path d="M 36.09 16.71 L 36.30 16.68"/><path d="M 35.99 13.79 L 36.77 13.92"/><path d="M 38.89 6.70 L 38.35 7.08"/><path d="M 35.48 50.98 L 35.68 51.27 L 35.80 51.44 L 36.54 52.52"/><path d="M 37.65 6.75 L 37.74 6.22 L 37.85 5.79 L 38.02 5.32 L 38.20 4.95 L 38.41 4.61 L 38.68 4.24 L 39.01 3.88 L 39.51 3.48 L 40.03 3.08"/><path d="M 39.84 2.82 L 39.40 3.15 L 39.04 3.42 L 38.73 3.70 L 38.44 4.01 L 37.96 4.70 L 37.83 4.96 L 37.71 5.22 L 37.58 5.55 L 37.46 5.98 L 37.33 6.74"/><path d="M 6.80 163.03 L 8.24 156.99 L 9.98 149.61 L 11.15 144.76 L 12.36 139.67 L 13.61 134.42 L 17.90 116.50 L 23.27 94.07 L 23.56 92.68 L 23.96 90.30 L 24.99 84.52 L 26.09 77.50"/><path d="M 26.09 77.50 L 26.46 75.10"/><path d="M 26.21 75.04 L 25.82 77.46"/><path d="M 25.82 77.46 L 25.76 77.78 L 24.65 84.49 L 23.30 92.64 L 22.98 94.17 L 22.65 95.59 L 22.34 96.86 L 17.65 116.41 L 13.36 134.38 L 10.92 144.58 L 9.98 148.45 L 9.74 149.47 L 7.97 156.94 L 6.52 163.01"/><path d="M 40.03 3.08 L 41.23 2.20 L 42.44 1.36 L 44.67 -0.27 L 48.21 -2.78 L 50.04 -4.09 L 51.71 -5.30 L 57.20 -9.24"/><path d="M 57.06 -9.45 L 51.53 -5.49 L 49.88 -4.30 L 48.04 -2.98 L 44.56 -0.52 L 42.32 1.12 L 41.01 2.01 L 39.84 2.82"/><path d="M 37.33 6.74 L 35.37 18.85 L 35.12 20.37 L 33.72 28.97 L 33.51 30.33 L 33.41 30.99 L 29.70 53.42 L 29.61 53.93 L 28.76 59.37 L 26.85 71.02 L 26.21 75.04"/><path d="M 26.46 75.10 L 27.88 65.91 L 28.40 62.96 L 29.01 59.48 L 29.78 54.63 L 29.89 53.97 L 31.84 42.11 L 32.68 37.02 L 33.62 31.25 L 33.76 30.43 L 33.87 29.67 L 33.98 29.04 L 35.42 20.39 L 35.66 18.77 L 36.93 11.07 L 37.42 8.06 L 37.51 7.55 L 37.65 6.75"/><path d="M 34.75 79.90 L 34.43 79.82 L 33.43 79.57 L 33.03 79.85 L 32.56 80.96 L 32.34 82.31 L 32.55 83.03 L 32.92 83.29 L 33.20 83.48"/><path d="M 28.75 69.26 L 27.87 69.13"/><path d="M 57.26 22.76 L 58.52 24.60"/><path d="M 31.19 96.92 L 31.46 97.55 L 32.39 99.52 L 33.55 102.22 L 33.90 103.06 L 36.84 110.39 L 38.45 114.25 L 41.74 122.10"/><path d="M 74.89 28.28 L 74.98 28.19 L 75.19 27.98 L 78.34 23.76 L 79.27 22.50 L 79.81 21.78 L 79.87 21.69"/><path d="M 79.87 21.69 L 80.15 21.25 L 80.36 20.93"/><path d="M 80.36 20.93 L 80.66 20.48"/><path d="M 80.66 20.48 L 81.10 19.86 L 81.78 18.92"/><path d="M 81.78 18.92 L 81.77 18.77"/><path d="M 84.83 13.92 L 85.04 13.58 L 85.30 13.16"/><path d="M 85.30 13.16 L 85.41 13.06 L 85.58 12.91 L 91.37 3.95 L 93.07 1.99 L 93.06 1.83 L 92.81 1.61 L 92.68 1.63 L 82.39 8.72 L 82.31 8.77"/><path d="M 82.31 8.77 L 81.97 9.00 L 81.62 9.23"/><path d="M 85.51 13.14 L 85.41 13.06 L 85.21 12.93 L 82.39 8.72 L 82.33 8.63"/><path d="M 74.89 28.28 L 74.62 28.62 L 74.36 28.94"/><path d="M 75.05 28.29 L 74.98 28.19 L 73.29 25.74 L 73.21 25.62 L 73.16 25.54"/><path d="M 73.16 25.54 L 72.98 25.27 L 72.81 25.03"/><path d="M 75.05 28.29 L 75.31 28.69 L 75.53 29.02"/><path d="M 75.60 29.37 L 75.66 29.21 L 75.75 28.91 L 80.58 22.47 L 80.79 22.35"/><path d="M 80.79 22.35 L 80.95 22.05 L 81.11 21.78"/><path d="M 81.11 21.78 L 81.18 21.49 L 82.73 19.09 L 86.48 16.59 L 86.61 16.51"/><path d="M 86.04 15.97 L 85.41 15.18 L 85.27 15.00"/><path d="M 85.27 15.00 L 85.04 14.59 L 84.82 14.18"/><path d="M 84.82 14.18 L 84.74 14.06 L 83.61 12.35"/><path d="M 83.61 12.35 L 83.48 12.16 L 83.35 11.95"/><path d="M 85.53 14.98 L 85.41 15.18"/><path d="M 94.71 -0.92 L 94.65 -0.75 L 94.58 -0.60 L 92.37 0.90 L 81.92 8.02 L 81.84 8.07"/><path d="M 75.53 29.02 L 75.66 29.21 L 77.32 31.72"/><path d="M 75.60 29.37 L 75.32 29.68 L 75.05 29.98"/><path d="M 77.32 31.72 L 77.52 31.95 L 77.68 32.13"/><path d="M 73.14 25.67 L 73.21 25.62 L 78.59 21.93 L 79.36 21.41 L 79.53 21.42 L 79.81 21.78"/><path d="M 73.14 25.67 L 72.80 25.90 L 72.47 26.13"/><path d="M 30.14 69.17 L 30.03 69.98"/><path d="M 29.20 102.82 L 29.22 102.59 L 31.18 98.20 L 31.26 98.03"/><path d="M 31.26 98.03 L 31.46 97.55 L 31.67 97.04"/><path d="M 33.70 92.66 L 33.75 92.50 L 33.90 92.03 L 36.14 86.95 L 36.32 86.79"/><path d="M 33.05 91.27 L 32.93 91.64 L 32.81 92.00"/><path d="M 33.36 91.05 L 33.22 90.96 L 33.05 91.27"/><path d="M 32.81 92.00 L 32.74 92.15 L 32.61 92.42 L 29.77 98.88 L 29.73 98.96"/><path d="M 32.72 92.47 L 32.91 93.15 L 33.06 93.60"/><path d="M 33.06 93.60 L 33.16 93.63"/><path d="M 33.48 93.39 L 33.60 93.04 L 33.70 92.66"/><path d="M 33.42 93.52 L 33.48 93.39"/><path d="M 36.55 95.01 L 36.73 95.03 L 36.91 95.05"/><path d="M 31.71 96.94 L 31.93 97.47 L 32.64 99.03 L 32.70 99.17"/><path d="M 32.64 99.03 L 34.89 98.18 L 34.98 97.99 L 35.05 97.84 L 36.02 95.83 L 36.43 94.99 L 33.42 93.52 L 33.23 93.44 L 33.16 93.63 L 31.71 96.94 L 31.67 97.04"/><path d="M 32.61 92.42 L 32.72 92.47"/><path d="M 29.73 98.96 L 29.64 99.16 L 29.61 99.35"/><path d="M 33.90 92.03 L 33.81 91.92"/><path d="M 36.32 86.79 L 36.41 86.52 L 36.50 86.25"/><path d="M 36.50 86.25 L 36.54 86.09 L 36.57 85.99 L 38.60 81.43 L 38.76 81.31"/><path d="M 38.76 81.31 L 38.86 81.03 L 38.96 80.76"/><path d="M 38.96 80.76 L 38.96 80.65 L 38.95 80.53 L 41.19 75.55 L 41.35 75.19 L 41.49 75.26 L 48.59 78.70"/><path d="M 48.59 78.70 L 48.89 78.85 L 49.17 78.99"/><path d="M 41.19 75.55 L 40.82 75.15 L 40.44 74.74"/><path d="M 41.49 75.26 L 41.68 74.86 L 41.85 74.49"/><path d="M 38.96 80.65 L 46.17 84.12"/><path d="M 46.17 84.12 L 46.51 84.27 L 46.80 84.40"/><path d="M 41.85 74.49 L 41.69 74.39 L 41.74 74.27 L 42.32 73.01 L 46.72 67.20 L 46.90 67.04"/><path d="M 46.90 67.04 L 47.09 66.81 L 47.30 66.56"/><path d="M 47.30 66.56 L 47.35 66.33 L 47.57 66.04 L 52.57 59.49 L 53.04 59.55 L 54.51 61.86"/><path d="M 52.88 59.31 L 53.04 59.06 L 53.17 58.84"/><path d="M 53.48 58.28 L 58.27 52.03 L 58.34 52.05 L 58.46 52.04 L 58.52 52.01 L 58.59 51.95"/><path d="M 58.59 51.95 L 58.78 51.73 L 59.01 51.45"/><path d="M 59.01 51.45 L 58.98 51.20 L 58.99 51.08 L 59.03 50.98 L 59.10 50.87 L 62.91 45.88 L 63.48 45.54"/><path d="M 64.55 45.61 L 65.05 45.43"/><path d="M 66.13 44.19 L 69.53 42.52 L 72.22 41.13"/><path d="M 72.22 41.13 L 72.49 40.97 L 72.76 40.82"/><path d="M 63.12 45.03 L 63.40 45.40"/><path d="M 63.65 42.63 L 63.44 42.77 L 63.15 42.97"/><path d="M 64.82 42.64 L 65.30 42.70"/><path d="M 65.87 43.66 L 66.07 44.06"/><path d="M 65.99 45.06 L 69.99 50.96"/><path d="M 69.99 50.96 L 70.15 51.21 L 70.31 51.45"/><path d="M 64.37 45.67 L 64.53 45.98 L 65.79 48.02 L 65.81 48.06"/><path d="M 65.81 48.06 L 65.92 48.23 L 66.03 48.39"/><path d="M 69.11 41.93 L 69.53 42.52 L 69.78 42.89"/><path d="M 59.10 50.87 L 58.97 50.74"/><path d="M 58.27 52.03 L 58.18 51.87"/><path d="M 64.31 42.57 L 64.16 42.49 L 67.71 37.84 L 68.10 37.31 L 68.46 36.83 L 68.80 36.36 L 68.85 36.30 L 68.90 36.23"/><path d="M 68.90 36.23 L 69.09 35.98 L 69.32 35.69"/><path d="M 63.69 42.59 L 61.04 38.65"/><path d="M 61.04 38.65 L 60.90 38.43 L 60.78 38.24"/><path d="M 63.15 42.97 L 63.09 43.03 L 63.44 43.59 L 62.73 44.55"/><path d="M 61.27 44.96 L 61.07 45.07 L 60.83 45.21"/><path d="M 63.09 43.03 L 58.26 35.86"/><path d="M 65.30 42.70 L 65.49 42.76"/><path d="M 65.60 43.12 L 65.55 42.95"/><path d="M 69.52 37.15 L 69.45 37.23 L 69.41 37.29 L 65.49 42.76 L 65.49 42.83 L 65.55 42.95 L 65.68 42.90 L 65.87 42.84 L 71.30 39.93 L 71.38 39.89"/><path d="M 71.38 39.89 L 71.65 39.74 L 71.92 39.60"/><path d="M 71.30 39.93 L 69.45 37.23"/><path d="M 69.52 37.15 L 69.72 36.90 L 69.91 36.65"/><path d="M 69.91 36.65 L 70.00 36.53 L 72.09 33.78 L 72.16 33.68"/><path d="M 72.16 33.68 L 72.39 33.36 L 72.55 33.15"/><path d="M 71.92 39.60 L 72.02 39.54 L 74.97 37.94 L 75.03 37.90"/><path d="M 75.03 37.90 L 75.36 37.73 L 75.62 37.58"/><path d="M 70.00 36.53 L 71.10 38.17 L 72.02 39.54"/><path d="M 57.28 48.51 L 57.36 48.65 L 58.11 49.98 L 58.31 50.12 L 58.49 50.24"/><path d="M 57.28 48.51 L 56.92 48.01 L 56.53 47.46"/><path d="M 58.17 50.23 L 58.31 50.12 L 58.50 49.95 L 59.12 49.15 L 60.54 47.34 L 60.52 47.19 L 60.38 47.13 L 58.43 48.11 L 57.36 48.65 L 57.17 48.74"/><path d="M 57.17 48.74 L 56.89 48.92 L 56.64 49.07"/><path d="M 58.17 50.23 L 57.97 50.51 L 57.81 50.75"/><path d="M 57.81 50.75 L 57.75 50.87 L 57.68 51.02 L 52.77 57.61"/><path d="M 52.56 57.74 L 52.33 58.01 L 52.15 58.24"/><path d="M 52.88 57.72 L 53.13 57.95 L 53.42 58.24"/><path d="M 58.01 47.48 L 58.43 48.11 L 59.12 49.15 L 59.45 49.63"/><path d="M 69.32 35.69 L 69.37 35.64 L 69.55 35.46 L 74.32 29.07 L 74.36 28.94"/><path d="M 75.05 29.98 L 74.92 30.06 L 74.78 30.14 L 72.66 33.02 L 72.55 33.15"/><path d="M 74.36 29.19 L 74.62 29.64 L 74.82 29.98"/><path d="M 74.36 29.19 L 74.32 29.07 L 74.24 28.85 L 73.51 27.83 L 72.36 26.21 L 72.29 26.11"/><path d="M 72.47 26.13 L 72.36 26.21 L 65.98 30.55 L 65.88 30.61"/><path d="M 65.88 30.61 L 65.61 30.79 L 65.38 30.94"/><path d="M 72.29 26.11 L 72.11 25.85 L 71.97 25.64"/><path d="M 74.82 29.98 L 74.92 30.06 L 75.06 30.16 L 78.82 35.71 L 78.89 35.81"/><path d="M 78.89 35.81 L 79.26 36.35 L 79.59 36.87"/><path d="M 75.62 37.58 L 75.75 37.51 L 78.82 35.71 L 78.89 35.66"/><path d="M 78.89 35.66 L 79.25 35.45 L 79.60 35.24"/><path d="M 72.09 33.78 L 72.30 33.87 L 74.97 37.94"/><path d="M 72.22 36.81 L 71.77 37.67 L 71.10 38.17 L 70.76 38.44"/><path d="M 77.68 32.13 L 77.74 32.33 L 79.71 35.15 L 79.60 35.24"/><path d="M 72.66 33.02 L 75.75 37.51"/><path d="M 81.84 8.07 L 81.51 8.29 L 81.17 8.53"/><path d="M 82.33 8.63 L 82.18 8.41 L 81.99 8.12"/><path d="M 81.99 8.12 L 81.92 8.02 L 79.80 4.96 L 79.87 4.75 L 92.26 -3.69"/><path d="M 79.87 4.75 L 79.64 4.51 L 79.41 4.28"/><path d="M 79.63 20.20 L 81.77 18.77 L 84.74 14.06 L 84.83 13.92"/><path d="M 79.63 20.20 L 79.34 20.39 L 78.96 20.63"/><path d="M 41.74 74.27 L 41.39 73.93 L 40.96 73.53"/><path d="M 46.72 67.20 L 46.31 66.95 L 45.88 66.68"/><path d="M 47.57 66.04 L 47.11 65.88 L 46.65 65.72"/><path d="M 52.43 59.36 L 52.27 59.09 L 52.09 58.82"/><path d="M 52.15 58.24 L 52.15 58.36 L 52.12 58.41 L 51.98 58.67 L 52.09 58.82"/><path d="M 58.97 50.74 L 58.77 50.54 L 58.49 50.24"/><path d="M 58.18 51.87 L 58.00 51.57 L 57.76 51.17"/><path d="M 57.76 51.17 L 57.68 51.02"/><path d="M 58.63 46.29 L 56.43 47.35"/><path d="M 56.21 47.37 L 55.95 47.52 L 55.68 47.67"/><path d="M 56.53 47.46 L 56.43 47.35 L 56.24 47.14"/><path d="M 66.02 43.48 L 66.17 43.41 L 69.11 41.93 L 72.08 40.38 L 75.74 38.30 L 76.18 38.05 L 79.11 36.44"/><path d="M 79.11 36.44 L 79.26 36.35 L 79.69 36.11 L 80.28 35.77"/><path d="M 80.28 35.77 L 83.81 33.72 L 87.35 31.59 L 89.45 30.28 L 90.79 29.44"/><path d="M 61.50 45.78 L 59.88 46.58"/><path d="M 58.01 47.48 L 56.92 48.01 L 56.81 48.06"/><path d="M 55.99 48.45 L 56.44 48.24"/><path d="M 48.99 51.75 L 55.99 48.45"/><path d="M 47.72 52.40 L 47.94 52.29 L 48.32 52.10 L 48.99 51.75"/><path d="M 38.52 59.66 L 39.91 58.01 L 40.15 57.76"/><path d="M 38.45 60.29 L 38.50 59.82 L 38.52 59.66"/><path d="M 88.32 75.41 L 84.84 70.39 L 84.68 70.34 L 83.77 70.98 L 83.60 71.09 L 82.85 71.61"/><path d="M 35.59 17.00 L 35.79 17.23"/><path d="M 34.75 16.50 L 34.99 16.54 L 35.42 16.81 L 35.59 17.00"/><path d="M 58.56 28.06 L 62.12 25.67"/><path d="M 62.01 63.68 L 62.23 63.51 L 62.16 63.05 L 62.19 62.58 L 62.25 62.25 L 62.77 61.57"/><path d="M 63.34 61.00 L 63.32 60.78 L 63.24 60.58 L 63.09 60.42 L 62.90 60.32 L 62.69 60.29 L 62.47 60.33 L 62.29 60.43 L 62.16 60.58 L 62.07 60.77 L 62.06 60.98 L 62.10 61.18 L 62.21 61.35 L 62.37 61.48 L 62.56 61.56 L 62.77 61.57 L 62.98 61.51 L 63.15 61.38 L 63.28 61.21 L 63.34 61.00"/><path d="M 58.88 59.52 L 59.29 59.24 L 61.66 61.09 L 62.21 61.35"/><path d="M 62.41 57.10 L 62.08 57.43 L 62.07 60.77"/><path d="M 62.98 61.51 L 64.94 61.60 L 65.31 61.34"/><path d="M 39.81 93.60 L 40.58 91.91 L 42.73 92.89"/><path d="M 53.97 92.74 L 53.55 93.08 L 52.71 93.98 L 51.94 94.78 L 51.29 95.76 L 49.95 97.54 L 49.38 98.20 L 48.65 98.83 L 49.73 101.07 L 48.66 101.58 L 48.60 101.60 L 48.09 101.80"/><path d="M 56.44 48.24 L 56.89 48.92 L 57.97 50.51 L 58.36 51.11"/><path d="M 56.81 48.06 L 56.44 48.24"/><path d="M 59.88 46.58 L 59.14 46.93 L 58.01 47.48"/><path d="M 62.42 45.68 L 60.31 48.48 L 59.45 49.63 L 58.77 50.54 L 58.36 51.11"/><path d="M 62.42 45.68 L 61.90 45.67 L 61.50 45.78"/><path d="M 63.06 44.95 L 62.42 45.68"/><path d="M 29.72 54.06 L 30.50 54.07 L 31.00 54.08 L 31.12 54.00 L 33.16 52.55 L 35.48 50.98 L 38.21 49.13 L 41.06 47.17"/><path d="M 41.06 47.17 L 41.40 47.29 L 41.50 47.33 L 43.31 50.00 L 43.39 50.12 L 43.58 50.37 L 45.24 52.83 L 45.70 53.51"/><path d="M 21.40 64.83 L 20.95 64.75 L 18.58 64.36 L 16.04 63.94 L 15.68 63.88 L 15.21 63.80 L 12.86 63.41 L 10.39 63.01 L 10.04 62.94 L 9.60 62.88 L 8.28 62.65 L 6.80 62.40 L 3.92 61.93 L 3.49 61.86 L 2.85 61.76 L -0.14 61.31 L -3.39 60.71 L -3.99 60.62 L -4.90 60.47 L -5.62 60.36 L -7.15 60.12"/><path d="M 70.31 51.45 L 73.35 55.96 L 75.94 54.23 L 72.98 49.88"/><path d="M 72.00 56.91 L 72.00 57.16 L 72.16 57.42 L 72.31 57.56 L 72.49 57.61 L 73.14 57.27 L 73.78 56.89 L 73.78 56.72 L 73.77 56.58 L 73.67 56.39 L 73.49 56.16 L 73.35 55.96 L 72.62 56.48 L 72.00 56.91"/><path d="M 75.62 62.22 L 75.60 62.34 L 75.57 62.48 L 75.79 62.75 L 75.94 62.93 L 76.14 62.98 L 76.72 62.59 L 77.35 62.16 L 77.33 61.98 L 77.30 61.72 L 77.08 61.45 L 76.98 61.43 L 76.82 61.39 L 76.22 61.84 L 75.62 62.22"/><path d="M 80.60 69.87 L 80.65 69.76 L 80.68 69.68 L 81.27 69.28 L 81.91 68.84 L 82.13 68.88 L 82.33 69.18 L 82.40 69.40 L 82.36 69.54 L 81.74 69.97 L 81.12 70.39 L 81.00 70.35 L 80.93 70.32 L 80.83 70.21 L 80.60 69.87"/><path d="M 86.49 78.24 L 86.47 78.44 L 87.51 80.29 L 85.91 81.41 L 84.81 82.42 L 84.66 82.42 L 83.31 80.55 L 83.30 80.35 L 86.19 78.33 L 86.22 78.17"/><path d="M 87.90 80.73 L 92.44 84.47 L 92.46 84.68 L 91.54 85.81 L 90.72 86.77 L 89.24 88.57 L 89.15 88.66 L 87.07 86.98 L 84.09 84.47 L 84.03 84.32 L 85.51 82.57 L 85.77 82.32 L 87.74 80.89 L 87.90 80.73"/><path d="M 76.71 64.13 L 80.49 69.67 L 80.65 69.76"/><path d="M 82.09 68.70 L 78.79 63.96"/><path d="M 78.00 71.54 L 80.46 69.88 L 80.49 69.67"/><path d="M 81.00 70.35 L 80.99 70.49 L 81.97 71.90 L 82.50 72.66"/><path d="M 82.50 72.66 L 82.68 72.91"/><path d="M 82.68 72.91 L 85.88 77.58 L 85.99 77.69"/><path d="M 85.88 77.58 L 83.32 79.35 L 83.21 79.33 L 78.47 72.37 L 78.48 72.18 L 80.99 70.49"/><path d="M 88.74 75.66 L 89.79 74.92 L 89.81 74.79 L 85.03 67.78 L 82.57 69.40 L 82.40 69.40"/><path d="M 82.57 69.40 L 82.59 69.59 L 83.49 70.92"/><path d="M 83.49 70.92 L 83.60 71.09 L 83.63 71.14 L 83.79 71.34"/><path d="M 83.79 71.34 L 87.31 76.58"/><path d="M 78.79 63.96 L 77.52 62.05 L 77.33 61.98"/><path d="M 77.52 62.05 L 77.53 61.93 L 79.89 60.30 L 80.01 60.28 L 84.53 66.90 L 84.58 67.02 L 84.52 67.12 L 82.09 68.70"/><path d="M 72.32 57.70 L 75.43 62.29 L 75.60 62.34"/><path d="M 73.78 56.72 L 73.94 56.72 L 77.00 61.29 L 76.98 61.43"/><path d="M 73.94 56.72 L 76.37 55.04 L 76.53 55.12 L 79.47 59.51 L 79.48 59.61 L 77.16 61.27 L 77.00 61.29"/><path d="M 69.75 59.49 L 72.85 64.02 L 72.95 64.06 L 75.40 62.41 L 75.43 62.29"/><path d="M 72.31 57.56 L 72.32 57.70 L 69.75 59.49"/><path d="M 68.85 52.61 L 71.85 56.92 L 72.00 56.91"/><path d="M 68.85 52.61 L 66.33 54.34 L 66.35 54.46 L 69.19 58.67 L 69.31 58.74 L 71.83 57.07 L 71.85 56.92"/><path d="M 68.85 52.61 L 68.61 52.26 L 68.50 52.01 L 68.56 51.84 L 69.20 51.38 L 69.74 51.01 L 69.99 50.96"/><path d="M 68.85 52.61 L 69.66 52.05 L 70.30 51.62 L 70.31 51.45"/><path d="M 69.99 50.96 L 70.41 50.58 L 75.87 46.80 L 75.82 46.64 L 72.24 41.31 L 72.22 41.13"/><path d="M 82.09 68.70 L 82.13 68.88"/><path d="M 76.44 63.70 L 75.94 62.93 L 74.08 64.25"/><path d="M 76.44 63.70 L 76.55 63.87 L 76.71 64.13"/><path d="M 74.08 64.25 L 73.94 64.36 L 73.80 64.46"/><path d="M 73.80 64.46 L 73.37 64.79 L 75.09 67.32 L 77.74 71.35 L 78.00 71.54"/><path d="M 66.03 48.39 L 68.32 51.86 L 68.50 52.01"/><path d="M 68.32 51.86 L 68.28 52.05 L 65.95 53.62 L 65.88 53.61 L 65.81 53.59 L 63.70 50.53 L 63.69 50.34 L 64.28 49.60 L 66.03 48.39"/><path d="M 65.82 43.57 L 66.02 43.48"/><path d="M 63.96 44.86 L 64.21 45.00 L 64.49 45.05 L 64.78 45.00 L 65.04 44.86 L 65.24 44.64 L 65.35 44.38 L 65.37 44.09 L 65.29 43.81 L 65.12 43.57 L 64.84 43.38"/><path d="M 64.76 42.63 L 64.46 42.95 L 64.32 43.33"/><path d="M 64.84 43.38 L 64.78 43.02 L 64.76 42.63"/><path d="M 65.35 44.38 L 65.51 44.07 L 65.82 43.57"/><path d="M 65.82 43.57 L 65.46 43.58 L 65.12 43.57"/><path d="M 65.13 45.40 L 65.19 45.03 L 65.24 44.64"/><path d="M 64.49 45.05 L 64.70 45.14 L 65.13 45.40"/><path d="M 63.63 44.25 L 63.39 44.51 L 63.06 44.95"/><path d="M 63.06 44.95 L 63.50 44.94 L 63.96 44.86"/><path d="M 61.55 46.17 L 61.90 45.67 L 62.16 45.30"/><path d="M 64.09 43.41 L 63.80 43.28 L 63.44 42.77"/><path d="M 33.05 91.27 L 31.79 89.88"/><path d="M 31.79 89.88 L 31.63 89.71 L 31.31 89.38 L 31.22 89.26"/><path d="M 31.22 89.26 L 30.59 88.59 L 29.02 86.95"/><path d="M 32.32 84.63 L 32.79 83.56"/><path d="M 33.03 82.99 L 34.33 80.01"/><path d="M 34.50 79.64 L 37.38 73.48"/><path d="M 37.38 73.48 L 38.34 70.90 L 40.93 67.49 L 40.90 67.35"/><path d="M 41.34 67.00 L 41.55 67.01 L 43.41 64.59 L 43.33 64.43 L 38.57 60.80 L 38.38 60.84 L 36.53 63.22 L 36.55 63.33 L 39.96 65.92 L 41.34 67.00"/><path d="M 38.38 60.84 L 38.24 60.60 L 38.13 60.45"/><path d="M 37.75 59.22 L 39.28 57.61 L 39.28 57.39"/><path d="M 31.33 54.32 L 37.75 59.22"/><path d="M 31.33 54.32 L 31.12 54.00 L 30.81 53.57"/><path d="M 30.81 53.57 L 30.64 53.61 L 30.44 53.46 L 30.49 52.53"/><path d="M 30.81 53.57 L 30.91 53.50 L 33.13 52.05 L 37.62 48.89"/><path d="M 30.22 54.71 L 30.35 54.64 L 35.57 58.53"/><path d="M 30.22 54.71 L 29.42 59.40"/><path d="M 30.35 54.64 L 30.44 54.29 L 30.50 54.07 L 30.64 53.61"/><path d="M 29.33 54.56 L 29.63 54.61 L 30.22 54.71"/><path d="M 39.28 57.39 L 39.44 57.25 L 39.60 57.11"/><path d="M 37.75 59.22 L 38.50 59.82 L 38.94 60.12"/><path d="M 38.94 60.12 L 39.08 60.22 L 43.58 63.61"/><path d="M 46.65 65.72 L 46.47 65.81 L 44.23 64.09 L 44.25 63.99 L 49.76 56.66 L 50.07 56.34 L 50.38 55.98"/><path d="M 43.58 63.61 L 43.69 63.60 L 46.47 59.99"/><path d="M 40.90 67.35 L 41.12 67.15 L 41.34 67.00"/><path d="M 34.33 80.01 L 34.43 79.82 L 34.50 79.64"/><path d="M 32.79 83.56 L 32.92 83.29 L 33.03 82.99"/><path d="M 29.02 86.95 L 28.83 86.74 L 28.67 86.57"/><path d="M 28.67 86.57 L 26.47 84.22"/><path d="M 29.42 59.40 L 29.12 61.16"/><path d="M 32.61 84.95 L 32.65 84.77 L 33.20 83.48 L 34.75 79.90"/><path d="M 28.71 73.66 L 27.12 73.39"/><path d="M 27.39 78.15 L 26.35 77.92"/><path d="M 26.47 84.22 L 26.24 83.97 L 26.11 83.84"/><path d="M 26.11 83.84 L 25.58 83.27 L 25.52 83.15 L 26.29 78.25 L 26.35 77.92"/><path d="M 24.62 88.86 L 25.23 85.16 L 25.32 85.07 L 26.20 85.18 L 28.17 87.25 L 28.78 87.88 L 29.36 88.58 L 29.37 88.78"/><path d="M 25.32 85.07 L 25.37 84.59 L 25.49 83.82 L 25.58 83.27"/><path d="M 26.50 84.91 L 25.97 84.34"/><path d="M 25.97 84.34 L 25.49 83.82"/><path d="M 24.14 84.42 L 24.26 84.44 L 24.65 84.49 L 24.84 84.51 L 24.99 84.52 L 25.14 84.56"/><path d="M 25.49 83.82 L 25.07 83.06"/><path d="M 24.26 84.44 L 24.32 84.18"/><path d="M 24.19 84.74 L 24.26 84.44"/><path d="M 24.32 84.18 L 24.84 80.99"/><path d="M 21.76 84.46 L 24.11 84.85 L 24.19 84.74"/><path d="M 24.84 80.99 L 24.89 80.72 L 24.99 80.15"/><path d="M 24.99 80.15 L 25.29 78.35 L 25.14 78.28 L 22.80 77.91"/><path d="M 25.29 78.35 L 25.34 78.01 L 25.36 77.63"/><path d="M 25.36 77.63 L 25.38 77.54 L 25.83 75.08 L 26.10 73.51"/><path d="M 27.90 69.53 L 27.78 69.53 L 27.22 69.52"/><path d="M 26.35 77.92 L 27.12 73.39"/><path d="M 27.12 73.39 L 27.69 69.89"/><path d="M 30.14 69.17 L 29.66 69.06 L 29.13 68.97 L 29.01 69.32"/><path d="M 28.75 69.26 L 29.01 69.32"/><path d="M 27.87 69.13 L 27.83 69.33"/><path d="M 27.69 69.89 L 27.78 69.53 L 27.83 69.33"/><path d="M 27.87 69.13 L 28.19 67.15"/><path d="M 27.37 65.24 L 27.53 65.05 L 28.11 61.27"/><path d="M 24.88 64.91 L 24.69 64.88 L 24.45 64.84"/><path d="M 21.86 64.40 L 24.45 64.84"/><path d="M 24.70 66.19 L 24.45 66.04 L 24.26 65.92"/><path d="M 24.70 66.19 L 25.78 66.36 L 26.42 66.46 L 26.85 66.53 L 27.14 66.61"/><path d="M 28.19 67.15 L 28.25 66.80 L 28.42 65.81"/><path d="M 28.57 65.84 L 28.49 65.82 L 28.42 65.81"/><path d="M 28.42 65.81 L 28.48 65.42 L 28.60 64.64 L 29.12 61.16"/><path d="M 28.11 61.27 L 28.62 58.24 L 28.87 56.73 L 28.99 56.61 L 29.33 54.66 L 29.33 54.56 L 29.26 54.43 L 29.21 54.36"/><path d="M 21.70 65.52 L 24.26 65.92"/><path d="M 21.70 65.52 L 21.79 64.89 L 21.85 64.56 L 21.86 64.40 L 21.48 64.32 L 21.11 64.26 L 21.03 64.36 L 20.95 64.75 L 20.86 65.35 L 20.94 65.54 L 21.27 65.56 L 21.70 65.52"/><path d="M 38.13 60.45 L 35.57 58.53"/><path d="M 39.60 57.11 L 41.34 55.64 L 42.65 54.61 L 43.98 53.65 L 45.16 52.88"/><path d="M 39.08 60.22 L 39.41 59.65 L 40.38 58.60"/><path d="M 40.38 58.60 L 40.51 58.48 L 40.62 58.41"/><path d="M 40.62 58.41 L 41.81 57.26 L 42.30 56.94 L 42.46 56.94 L 44.83 58.76 L 46.47 59.99"/><path d="M 38.57 60.80 L 38.76 60.52 L 39.08 60.22"/><path d="M 48.29 51.27 L 49.68 50.59 L 51.29 49.83 L 55.30 47.92 L 55.62 47.71 L 55.68 47.67"/><path d="M 52.84 50.75 L 54.28 50.08 L 54.77 49.88 L 54.81 50.01 L 51.15 54.86 L 50.85 55.05"/><path d="M 49.22 52.56 L 48.78 52.75 L 48.54 52.88"/><path d="M 50.01 55.49 L 49.95 55.42 L 48.76 56.97 L 47.07 59.27 L 46.87 59.39 L 46.79 59.39 L 43.08 56.54 L 42.98 56.43 L 43.00 56.32 L 43.97 55.52 L 45.28 54.64 L 45.48 54.52"/><path d="M 45.48 54.52 L 45.82 54.33"/><path d="M 45.82 54.33 L 48.26 52.97 L 48.54 52.88"/><path d="M 47.60 51.55 L 47.88 51.45 L 48.29 51.27"/><path d="M 47.60 51.55 L 47.59 51.66 L 47.57 51.74 L 47.94 52.29 L 48.33 52.82 L 48.54 52.88"/><path d="M 45.16 52.88 L 45.24 52.83 L 45.34 52.76"/><path d="M 45.34 52.76 L 47.46 51.65 L 47.59 51.66"/><path d="M 45.80 49.14 L 47.46 51.53 L 47.46 51.65"/><path d="M 46.36 48.49 L 48.29 51.27"/><path d="M 53.16 44.08 L 55.62 47.71"/><path d="M 51.65 40.33 L 51.66 40.45 L 55.94 46.72"/><path d="M 55.94 46.72 L 56.24 47.14"/><path d="M 42.46 56.94 L 42.74 56.74 L 42.98 56.43"/><path d="M 43.69 63.60 L 43.96 63.96 L 44.23 64.09"/><path d="M 39.44 70.32 L 41.37 67.77 L 41.55 67.69 L 43.78 64.75"/><path d="M 38.40 72.20 L 38.82 71.22 L 39.44 70.32"/><path d="M 38.40 72.20 L 40.78 73.72 L 40.96 73.53"/><path d="M 37.94 73.18 L 38.06 73.01 L 38.44 73.19 L 40.46 74.47 L 40.44 74.74"/><path d="M 40.46 74.47 L 40.65 74.10 L 40.78 73.72"/><path d="M 41.85 74.49 L 44.05 75.61 L 44.31 75.63 L 45.93 73.33"/><path d="M 35.21 79.57 L 38.03 80.16 L 38.10 80.06 L 40.44 74.74"/><path d="M 34.86 80.33 L 37.55 80.87 L 37.64 81.04 L 36.00 84.81"/><path d="M 37.55 80.87 L 37.82 80.52 L 38.03 80.16"/><path d="M 29.99 89.22 L 32.74 92.15"/><path d="M 29.37 88.78 L 29.72 89.02 L 29.99 89.22"/><path d="M 26.44 97.00 L 29.85 89.34 L 29.99 89.22"/><path d="M 26.44 97.00 L 29.77 98.88"/><path d="M 23.34 95.26 L 25.91 96.66"/><path d="M 23.15 95.91 L 25.49 97.18 L 24.55 101.29 L 22.02 100.84 L 21.96 100.75 L 23.05 96.05 L 23.15 95.91"/><path d="M 23.34 95.26 L 23.75 93.51 L 23.82 93.20 L 24.22 91.52 L 24.62 88.86"/><path d="M 19.98 93.19 L 22.36 94.55 L 22.59 94.66 L 23.07 91.93 L 23.69 88.36 L 24.21 85.10 L 24.11 84.85"/><path d="M 22.80 77.91 L 22.52 77.87 L 22.36 77.84"/><path d="M 22.36 77.84 L 19.75 77.43"/><path d="M 19.91 76.63 L 22.47 77.02"/><path d="M 22.47 77.02 L 22.69 77.08 L 22.82 77.13"/><path d="M 22.82 77.13 L 25.38 77.54"/><path d="M 37.08 55.26 L 39.48 57.04 L 39.60 57.11"/><path d="M 33.68 52.66 L 36.41 54.71"/><path d="M 33.35 52.86 L 36.29 55.13 L 38.23 56.59"/><path d="M 31.33 54.32 L 31.37 54.13 L 33.35 52.86"/><path d="M 31.98 43.06 L 31.67 44.66"/><path d="M 31.67 44.66 L 31.71 44.96 L 30.77 50.74 L 30.49 52.53"/><path d="M 31.98 43.06 L 32.25 42.80 L 32.32 42.26 L 32.36 41.98 L 32.37 41.83"/><path d="M 32.37 41.83 L 38.16 37.94"/><path d="M 33.84 41.88 L 35.94 40.43"/><path d="M 35.94 40.43 L 36.06 40.35 L 36.33 40.16"/><path d="M 36.33 40.16 L 38.67 38.55"/><path d="M 38.67 38.55 L 43.17 45.11"/><path d="M 43.17 45.11 L 43.21 45.28 L 43.46 45.56 L 43.56 45.73 L 43.66 45.76 L 43.75 45.78 L 43.93 45.65 L 44.21 45.47 L 44.21 45.29 L 44.13 45.10 L 43.94 44.78 L 43.68 44.70 L 43.43 44.91 L 43.17 45.11"/><path d="M 35.21 79.57 L 35.21 79.45 L 36.39 76.72 L 37.12 75.08 L 37.94 73.18"/><path d="M 34.86 80.33 L 35.09 79.97 L 35.21 79.57"/><path d="M 31.37 89.98 L 31.63 89.71 L 31.76 89.61 L 32.23 89.24"/><path d="M 23.34 95.26 L 23.28 95.57 L 23.15 95.91"/><path d="M 25.91 96.66 L 26.21 96.85 L 26.44 97.00"/><path d="M 33.68 52.66 L 35.68 51.27 L 38.37 49.41 L 41.33 47.41 L 41.40 47.29"/><path d="M 34.30 43.85 L 37.61 48.74 L 37.61 48.80 L 37.62 48.89"/><path d="M 36.00 84.81 L 33.45 90.45 L 33.22 90.96"/><path d="M 36.54 86.09 L 43.68 89.54"/><path d="M 33.75 92.50 L 35.40 93.35 L 37.23 94.19"/><path d="M 31.18 98.20 L 31.43 98.24 L 33.16 102.36"/><path d="M 46.65 65.72 L 48.88 62.65 L 51.67 59.06 L 51.98 58.67"/><path d="M 50.01 55.49 L 50.20 55.73 L 50.29 55.86"/><path d="M 50.29 55.86 L 50.38 55.98 L 52.12 58.41"/><path d="M 51.13 55.57 L 51.20 55.67 L 52.56 57.60 L 52.65 57.68"/><path d="M 50.94 55.19 L 51.09 55.47"/><path d="M 51.09 55.47 L 51.13 55.57"/><path d="M 40.96 73.53 L 41.31 72.72 L 44.47 68.55 L 45.88 66.68 L 45.94 66.47 L 43.78 64.75"/><path d="M 43.41 64.59 L 43.65 64.67 L 43.78 64.75"/><path d="M 17.24 92.63 L 19.61 94.01 L 19.58 94.17 L 17.02 93.78 L 17.24 92.63"/><path d="M 17.24 92.63 L 16.88 92.39 L 16.63 92.24 L 16.49 91.99 L 16.53 91.73 L 16.59 91.40 L 16.72 91.36 L 17.01 91.54 L 17.24 91.68 L 17.29 91.84 L 17.28 92.15 L 17.26 92.46 L 17.24 92.63"/><path d="M 16.21 96.94 L 16.82 94.54 L 19.47 94.99 L 19.51 95.09"/><path d="M 17.02 93.78 L 16.91 94.22 L 16.82 94.54"/><path d="M 19.87 95.07 L 22.37 95.46"/><path d="M 19.51 95.09 L 19.63 95.08 L 19.87 95.07"/><path d="M 22.59 94.66 L 22.46 95.12 L 22.37 95.46"/><path d="M 22.37 95.46 L 22.75 95.68 L 23.15 95.91"/><path d="M 22.59 94.66 L 22.93 94.93 L 23.34 95.26"/><path d="M 33.01 90.22 L 33.45 90.45"/><path d="M 16.24 39.55 L 16.17 40.02 L 15.96 41.26 L 16.00 41.54 L 16.16 41.76 L 18.59 42.20 L 19.21 42.31"/><path d="M 25.81 66.23 L 25.78 66.36 L 25.76 66.48 L 26.11 66.54 L 26.15 66.74 L 26.18 66.84 L 26.21 66.93 L 26.31 67.15 L 26.53 67.18 L 26.58 66.90 L 26.62 66.63 L 27.09 66.71 L 27.11 66.60 L 27.13 66.46 L 25.81 66.23"/><path d="M 26.42 66.46 L 26.36 66.81 L 26.18 66.84"/><path d="M 26.18 66.84 L 25.95 66.82 L 25.85 67.37 L 26.75 67.53"/><path d="M 27.26 66.10 L 27.30 66.10"/><path d="M 26.75 67.53 L 26.86 66.98 L 27.02 67.01 L 27.07 67.01 L 27.15 67.03"/><path d="M 27.15 66.83 L 26.73 66.77"/><path d="M 26.86 66.98 L 26.70 66.95 L 26.73 66.77"/><path d="M 26.36 66.81 L 26.58 66.90 L 26.73 66.77"/><path d="M 26.86 66.98 L 26.92 66.85 L 27.09 66.87 L 27.17 66.88"/><path d="M 26.85 68.28 L 27.07 67.01 L 27.09 66.87 L 27.14 66.61"/><path d="M 27.14 66.61 L 27.65 66.70 L 28.25 66.80"/><path d="M 27.14 66.61 L 27.28 65.80 L 27.34 65.44"/><path d="M 27.34 65.44 L 27.23 65.32"/><path d="M 27.37 65.24 L 27.87 65.32 L 28.48 65.42"/><path d="M 28.28 66.28 L 28.21 66.27"/><path d="M 15.77 64.69 L 20.94 65.54"/><path d="M 16.04 63.41 L 18.31 63.82"/><path d="M 18.31 63.82 L 18.65 63.87 L 18.85 63.90"/><path d="M 18.85 63.90 L 21.11 64.26"/><path d="M 15.92 64.54 L 16.04 63.94 L 16.11 63.54"/><path d="M 15.27 63.47 L 15.44 63.33 L 15.76 63.39 L 15.95 63.42 L 16.11 63.54"/><path d="M 15.27 63.47 L 15.21 63.80 L 15.10 64.38 L 15.21 64.60 L 15.55 64.66 L 15.77 64.69 L 15.92 64.54"/><path d="M 15.21 64.60 L 10.21 63.74"/><path d="M 13.10 62.88 L 15.21 63.29 L 15.27 63.47"/><path d="M 17.29 56.28 L 16.15 63.29 L 16.04 63.41"/><path d="M 15.21 63.29 L 15.33 63.13 L 17.08 52.39"/><path d="M 17.37 55.92 L 17.92 52.54"/><path d="M 17.29 56.28 L 17.32 56.15 L 17.37 55.92"/><path d="M 17.29 56.28 L 19.56 56.70 L 18.45 63.75 L 18.31 63.82"/><path d="M 20.01 56.37 L 18.85 63.90"/><path d="M 20.01 56.37 L 17.51 55.92 L 17.37 55.92"/><path d="M 21.11 64.26 L 22.33 56.67 L 22.84 53.53 L 22.82 53.32 L 17.92 52.54"/><path d="M 23.68 53.50 L 26.46 53.97"/><path d="M 23.68 53.50 L 23.27 53.43 L 22.98 53.37 L 22.82 53.32 L 22.89 52.91 L 22.92 52.67 L 23.00 52.58 L 23.05 52.51 L 23.40 52.57 L 23.76 52.65 L 23.80 52.81 L 23.76 53.05 L 23.71 53.33 L 23.68 53.50"/><path d="M 23.76 52.65 L 23.86 52.46 L 24.50 48.54 L 25.65 41.52"/><path d="M 23.05 52.51 L 23.45 49.98"/><path d="M 24.88 64.91 L 27.23 65.32 L 27.37 65.24"/><path d="M 36.41 54.71 L 36.80 55.03 L 37.08 55.26"/><path d="M 36.41 54.71 L 36.64 54.68 L 43.24 50.17"/><path d="M 37.08 55.26 L 37.09 55.11 L 43.54 50.69"/><path d="M 45.16 52.88 L 43.66 50.70 L 43.54 50.69"/><path d="M 43.24 50.17 L 43.22 50.05 L 41.48 47.49 L 41.33 47.41"/><path d="M 38.04 48.31 L 38.16 48.48 L 40.25 47.19 L 40.40 46.95"/><path d="M 38.04 48.31 L 33.83 42.02 L 33.84 41.88"/><path d="M 40.40 46.95 L 40.52 46.87 L 40.73 46.71"/><path d="M 40.73 46.71 L 43.17 45.11"/><path d="M 41.67 47.12 L 41.67 47.30 L 43.45 49.92"/><path d="M 43.22 50.05 L 43.31 50.00 L 43.45 49.92"/><path d="M 43.45 49.92 L 45.41 48.65"/><path d="M 45.41 48.65 L 45.66 48.97 L 45.80 49.14"/><path d="M 41.67 47.12 L 43.62 45.88 L 43.66 45.76"/><path d="M 43.62 45.88 L 45.44 48.49 L 45.41 48.65"/><path d="M 40.45 37.28 L 39.40 38.03 L 43.68 44.70 L 43.98 44.52 L 44.50 44.24 L 46.87 42.55"/><path d="M 46.87 42.55 L 47.10 42.42 L 47.36 42.28"/><path d="M 47.36 42.28 L 50.51 40.07"/><path d="M 50.51 40.07 L 50.78 39.88 L 51.04 39.71"/><path d="M 51.04 39.71 L 54.22 37.56"/><path d="M 54.22 37.56 L 54.39 37.45 L 54.64 37.28"/><path d="M 54.64 37.28 L 57.80 35.19 L 57.83 35.11"/><path d="M 57.83 35.11 L 58.01 34.93 L 58.23 34.70"/><path d="M 58.23 34.70 L 58.47 34.63 L 61.41 32.64"/><path d="M 61.41 32.64 L 61.57 32.53 L 61.78 32.40"/><path d="M 61.78 32.40 L 64.82 30.30 L 64.91 30.24"/><path d="M 64.91 30.24 L 65.13 30.10 L 65.38 29.94"/><path d="M 65.38 29.94 L 65.54 29.83 L 68.48 27.86"/><path d="M 68.48 27.86 L 68.65 27.73 L 68.88 27.56"/><path d="M 68.88 27.56 L 69.86 26.90 L 71.90 25.54 L 72.00 25.47"/><path d="M 69.86 26.90 L 68.94 25.17 L 68.77 24.85"/><path d="M 66.82 24.36 L 67.83 25.88 L 68.86 27.44 L 68.88 27.56"/><path d="M 67.83 25.88 L 68.49 25.41 L 68.61 25.47 L 68.79 25.47 L 68.90 25.34 L 68.94 25.17"/><path d="M 68.49 25.41 L 68.44 25.24 L 68.53 25.01 L 68.77 24.85"/><path d="M 71.97 25.64 L 71.90 25.54 L 67.44 18.83"/><path d="M 67.44 18.83 L 67.83 18.61 L 68.20 18.39"/><path d="M 68.20 18.39 L 68.31 18.32 L 71.28 16.30 L 72.41 15.53 L 74.58 14.06 L 74.92 13.82"/><path d="M 74.58 14.06 L 78.96 20.53 L 78.96 20.63 L 78.96 20.69 L 75.97 22.71 L 72.76 24.88"/><path d="M 72.00 25.47 L 72.33 25.22 L 72.76 24.88"/><path d="M 72.76 24.88 L 72.81 25.03"/><path d="M 72.76 24.88 L 68.31 18.32"/><path d="M 84.41 16.96 L 84.21 16.85 L 84.28 16.71 L 85.28 15.22 L 85.41 15.18"/><path d="M 84.41 16.96 L 86.04 15.97"/><path d="M 78.37 21.68 L 78.59 21.93 L 78.78 22.14 L 78.91 22.26 L 78.97 22.32 L 79.27 22.50 L 79.68 22.75"/><path d="M 78.67 24.12 L 78.34 23.76 L 77.85 23.22 L 78.91 22.26"/><path d="M 31.81 85.79 L 31.41 84.54 L 31.37 84.34 L 31.59 83.01"/><path d="M 34.17 30.69 L 34.12 31.07 L 34.03 31.67"/><path d="M 34.03 31.67 L 33.94 31.83 L 32.33 41.64 L 32.37 41.83"/><path d="M 34.17 30.69 L 34.17 30.46 L 34.17 30.36 L 34.21 30.24 L 34.24 30.11"/><path d="M 34.24 30.11 L 34.32 29.69 L 34.40 29.17"/><path d="M 34.21 30.24 L 36.44 28.72"/><path d="M 34.17 30.46 L 35.66 32.70 L 38.93 37.42 L 39.59 37.06"/><path d="M 34.03 31.67 L 38.18 37.82 L 38.16 37.94"/><path d="M 33.39 28.88 L 33.24 29.34 L 33.14 29.63"/><path d="M 33.14 29.63 L 30.52 29.21"/><path d="M 34.40 29.17 L 34.46 28.88 L 34.75 26.54 L 35.30 23.05 L 35.65 20.97 L 35.92 19.14 L 36.12 18.98 L 37.84 21.49 L 40.13 24.92 L 40.20 25.22 L 34.70 28.98 L 34.46 28.88"/><path d="M 63.55 94.72 L 62.29 91.56 L 58.91 83.50"/><path d="M 49.07 78.42 L 44.45 76.16 L 41.68 74.86 L 41.12 74.48"/><path d="M 41.10 96.50 L 42.17 94.13 L 42.57 93.29 L 42.73 92.89 L 43.90 90.13 L 46.32 84.68 L 46.51 84.27 L 47.72 81.58 L 48.89 78.85 L 49.07 78.42"/><path d="M 51.65 40.33 L 53.67 38.98"/><path d="M 49.73 101.07 L 51.88 100.11 L 51.99 100.06 L 53.51 99.30 L 55.80 98.20 L 56.18 98.02"/><path d="M 53.51 99.30 L 51.29 95.76"/><path d="M 41.48 67.44 L 43.65 64.67 L 43.80 64.36"/><path d="M 45.70 53.51 L 47.72 52.40"/><path d="M 57.14 2.81 L 62.48 10.66 L 67.65 18.34 L 67.83 18.61 L 72.33 25.22 L 72.56 25.54 L 72.80 25.90 L 73.90 27.57 L 74.62 28.62 L 74.97 29.16"/><path d="M 41.10 96.50 L 37.12 94.70"/><path d="M 40.10 88.28 L 37.42 94.28 L 37.12 94.70"/><path d="M 24.61 65.36 L 21.79 64.89 L 21.40 64.83"/><path d="M 27.77 65.89 L 27.28 65.80 L 24.61 65.36"/><path d="M 25.95 97.08 L 25.81 97.20 L 25.71 97.38 L 25.21 99.36 L 24.73 101.37 L 24.65 101.71"/><path d="M 17.61 28.94 L 17.71 30.17 L 17.77 30.87 L 17.77 31.52 L 17.76 32.12 L 17.71 32.63 L 17.62 33.07 L 17.59 33.19"/><path d="M 17.61 28.94 L 18.42 29.39 L 19.26 29.79 L 20.05 30.12 L 20.75 30.33 L 21.18 30.45"/><path d="M 17.59 33.19 L 17.40 34.36 L 17.21 35.00 L 16.96 35.68 L 16.61 36.53 L 16.33 37.13 L 16.21 37.34"/><path d="M 64.32 43.33 L 64.09 43.41 L 63.83 43.62 L 63.67 43.92 L 63.63 44.25"/><path d="M 63.63 44.25 L 63.69 44.48 L 63.80 44.69 L 63.96 44.86"/><path d="M 64.84 43.38 L 64.59 43.31 L 64.32 43.33"/><path d="M 60.52 47.19 L 60.85 47.23 L 61.55 46.17"/><path d="M 62.16 45.30 L 62.73 44.55"/><path d="M 57.36 74.94 L 57.50 74.74 L 57.69 74.47"/><path d="M 58.59 75.10 L 58.32 75.35 L 58.12 75.54"/><path d="M 58.02 74.42 L 58.39 74.66 L 58.61 74.80"/><path d="M 58.61 74.80 L 58.68 74.85 L 58.66 75.04 L 58.59 75.10"/><path d="M 58.12 75.54 L 58.06 75.61 L 57.96 75.56"/><path d="M 57.96 75.56 L 57.70 75.42 L 57.40 75.25"/><path d="M 57.69 74.47 L 57.75 74.38 L 57.92 74.34 L 58.02 74.42"/><path d="M 57.40 75.25 L 57.33 75.23 L 57.30 75.05 L 57.36 74.94"/><path d="M 14.96 52.04 L 17.08 52.39"/><path d="M 12.28 51.59 L 14.57 51.98"/><path d="M 14.57 51.98 L 14.73 52.00 L 14.96 52.04"/><path d="M 17.08 52.39 L 17.55 52.47 L 17.92 52.54"/><path d="M 12.36 50.77 L 17.35 51.62"/><path d="M 17.97 51.72 L 23.00 52.58"/><path d="M 17.35 51.62 L 17.68 51.67 L 17.97 51.72"/><path d="M 15.39 26.78 L 15.95 26.89 L 16.50 26.99"/><path d="M 15.75 25.85 L 15.58 25.98"/><path d="M 16.51 25.98 L 16.10 25.92 L 15.75 25.85"/><path d="M 21.59 27.87 L 16.50 26.99"/><path d="M 15.58 25.98 L 15.48 26.35 L 15.39 26.78"/><path d="M 25.65 41.52 L 25.19 41.44 L 24.69 41.34"/><path d="M 25.82 40.68 L 25.74 41.11 L 25.65 41.52"/><path d="M 21.39 34.69 L 21.55 34.92 L 24.78 40.48"/><path d="M 24.69 41.34 L 24.70 40.93 L 24.78 40.48"/><path d="M 31.28 41.60 L 31.26 41.73 L 31.21 42.08 L 31.18 42.33 L 31.17 42.42"/><path d="M 31.28 41.60 L 29.23 41.26 L 28.79 41.18"/><path d="M 28.30 41.13 L 27.79 41.04 L 25.82 40.68"/><path d="M 28.79 41.18 L 28.70 41.17 L 28.59 41.16 L 28.38 41.14 L 28.30 41.13"/><path d="M 31.17 42.42 L 28.64 42.04"/><path d="M 28.17 41.96 L 25.65 41.52"/><path d="M 28.64 42.04 L 28.55 42.03 L 28.45 42.01 L 28.31 41.98 L 28.17 41.96"/><path d="M 31.28 41.60 L 31.49 41.64 L 31.76 41.69 L 32.26 41.80 L 32.37 41.83"/><path d="M 31.17 42.42 L 31.29 42.46 L 31.59 42.72 L 31.98 43.06"/><path d="M 38.16 48.48 L 38.12 48.53 L 37.90 48.67 L 37.73 48.77 L 37.61 48.80"/><path d="M 33.35 52.86 L 33.47 52.79 L 33.68 52.66"/><path d="M 30.44 53.46 L 30.14 53.64 L 29.80 53.58 L 29.53 53.53 L 29.34 53.60"/><path d="M 29.34 53.60 L 29.28 53.99 L 29.21 54.36"/><path d="M 19.80 1.09 L 20.13 1.14 L 20.56 1.22"/><path d="M 20.56 1.22 L 20.49 1.73 L 20.43 2.15"/><path d="M 20.43 2.15 L 19.98 2.07 L 19.62 2.00"/><path d="M 19.64 1.19 L 19.51 1.56 L 19.38 1.91"/><path d="M 17.22 0.77 L 17.39 0.80 L 19.64 1.19"/><path d="M 17.10 1.55 L 19.38 1.91"/><path d="M 19.64 1.19 L 19.80 1.09"/><path d="M 19.38 1.91 L 19.62 2.00"/><path d="M 17.10 1.55 L 16.79 1.50 L 16.47 1.44"/><path d="M 16.47 1.44 L 13.94 1.06"/><path d="M 82.23 19.01 L 84.43 17.38 L 86.23 16.23 L 86.67 15.92 L 87.14 15.61 L 100.78 6.32 L 101.69 5.70"/><path d="M 82.23 19.01 L 81.10 19.86 L 79.63 20.84"/><path d="M -36.45 30.65 L -36.00 30.73 L -32.60 31.32 L -30.77 31.62 L -28.72 31.96 L -25.58 32.49 L -22.67 32.97 L -19.82 33.46 L -17.03 33.94 L -14.22 34.41 L -11.15 34.93 L -8.07 35.43 L -5.30 35.92 L -4.65 36.03 L -2.26 36.43 L -1.57 36.54 L -1.11 36.62 L 0.02 36.81 L 0.58 36.91 L 1.42 37.05 L 3.75 37.44 L 6.88 37.96 L 7.40 38.05 L 7.89 38.13 L 10.68 38.62 L 13.49 39.06 L 13.96 39.15 L 14.38 39.22 L 16.24 39.55 L 19.55 40.13 L 24.70 40.93 L 25.26 41.01 L 25.74 41.11 L 27.74 41.50 L 28.51 41.64 L 29.14 41.75 L 31.21 42.08 L 31.68 42.16"/><path d="M 31.44 3.57 L 28.58 3.12 L 25.67 2.60 L 22.88 2.15 L 20.49 1.73 L 20.05 1.65 L 19.51 1.56 L 16.85 1.12 L 14.03 0.66 L 13.56 0.58 L 12.86 0.46 L 10.70 0.10 L 10.10 -0.00 L 9.90 -0.03 L 9.43 -0.11 L 7.75 -0.39 L 6.69 -0.58 L 5.95 -0.70 L 5.64 -0.76 L 5.25 -0.82 L 4.52 -0.95 L 3.84 -1.06"/><path d="M 62.81 44.62 L 63.02 44.90"/><path d="M 63.02 44.90 L 63.06 44.95 L 63.12 45.03"/><path d="M 65.60 43.12 L 65.78 43.49"/><path d="M 65.78 43.49 L 65.82 43.57 L 65.87 43.66"/><path d="M 65.22 45.37 L 65.70 45.21"/><path d="M 65.05 45.43 L 65.13 45.40 L 65.22 45.37"/><path d="M 64.31 42.57 L 64.67 42.62"/><path d="M 64.67 42.62 L 64.76 42.63 L 64.82 42.64"/><path d="M 63.40 45.40 L 63.48 45.54 L 63.86 45.48 L 64.15 45.51 L 64.37 45.67 L 64.55 45.61"/><path d="M 62.81 44.62 L 62.73 44.55 L 62.59 44.40 L 61.27 44.96"/><path d="M 65.70 45.21 L 65.99 45.06 L 65.79 44.76 L 65.87 44.47 L 66.13 44.19 L 66.07 44.06"/><path d="M 64.16 42.49 L 63.94 42.73 L 63.69 42.59 L 63.65 42.63"/><path d="M 52.43 59.36 L 52.57 59.49 L 52.88 59.31"/><path d="M 52.88 57.72 L 52.77 57.61 L 52.65 57.68 L 52.56 57.74"/><path d="M 53.17 58.84 L 53.27 58.56 L 53.48 58.28 L 53.42 58.24"/><path d="M 65.63 29.97 L 65.74 30.16 L 65.93 30.47"/><path d="M 64.88 30.42 L 65.02 30.66 L 65.20 30.98"/><path d="M 65.20 30.98 L 65.24 31.04 L 65.38 30.94"/><path d="M 64.82 30.30 L 64.88 30.42"/><path d="M 65.54 29.83 L 65.63 29.97"/><path d="M 65.93 30.47 L 65.98 30.55"/><path d="M 58.83 35.53 L 58.56 35.73 L 58.30 35.83"/><path d="M 57.84 35.24 L 57.80 35.19"/><path d="M 58.47 34.63 L 58.56 34.78"/><path d="M 58.56 34.78 L 58.71 35.02 L 58.87 35.28"/><path d="M 58.21 35.79 L 58.02 35.50 L 57.84 35.24"/><path d="M 58.30 35.83 L 58.26 35.86 L 58.21 35.79"/><path d="M 58.87 35.28 L 58.96 35.43 L 58.83 35.53"/><path d="M 48.54 52.88 L 48.50 53.07 L 50.01 55.25 L 49.95 55.42"/><path d="M 50.94 55.19 L 50.85 55.05 L 50.75 54.90 L 49.22 52.56 L 50.36 51.97 L 52.84 50.75"/><path d="M 56.43 47.35 L 56.21 47.37"/><path d="M 41.06 47.17 L 43.46 45.56 L 43.74 45.37 L 44.13 45.10 L 47.38 42.84"/><path d="M 55.77 37.55 L 53.80 38.89"/><path d="M 58.26 35.86 L 56.11 37.32"/><path d="M 56.11 37.32 L 55.94 37.43 L 55.77 37.55"/><path d="M 53.67 38.98 L 53.72 38.94"/><path d="M 53.80 38.89 L 53.72 38.94"/><path d="M 58.96 35.43 L 65.24 31.04"/><path d="M 51.09 40.83 L 50.94 40.90 L 50.77 40.99 L 50.49 41.17 L 44.21 45.47 L 46.13 48.22 L 46.95 47.69"/><path d="M 51.57 40.50 L 51.31 40.68 L 51.09 40.83"/><path d="M 51.66 40.45 L 51.57 40.50"/><path d="M 58.96 35.43 L 60.73 38.16 L 60.78 38.24"/><path d="M 46.96 60.02 L 43.96 63.96 L 43.80 64.36"/><path d="M 56.64 49.07 L 56.58 49.10 L 56.47 49.15 L 56.26 49.27 L 55.72 49.67 L 53.69 52.34 L 52.42 53.96 L 51.20 55.67"/><path d="M 69.27 59.40 L 66.06 54.63 L 65.76 54.19 L 65.57 53.90 L 63.49 50.89 L 63.32 50.64"/><path d="M 60.92 53.96 L 61.00 54.03 L 62.09 52.56 L 62.68 51.78 L 63.01 51.40 L 63.20 51.26 L 63.36 51.28 L 63.58 51.52 L 65.31 54.12 L 65.36 54.07"/><path d="M 65.76 54.80 L 68.73 59.21"/><path d="M 65.75 53.75 L 65.57 53.90 L 65.36 54.07"/><path d="M 65.88 53.61 L 65.75 53.75"/><path d="M 65.88 54.73 L 66.06 54.63 L 66.26 54.51"/><path d="M 66.26 54.51 L 66.35 54.46"/><path d="M 65.76 54.80 L 65.88 54.73"/><path d="M 56.58 49.10 L 57.75 50.87"/><path d="M 44.51 -0.31 L 44.91 0.28 L 49.96 7.69 L 52.58 11.61 L 54.94 15.14 L 55.21 15.58 L 60.49 23.27 L 62.12 25.67"/><path d="M 62.12 25.67 L 65.13 30.10 L 65.35 30.42 L 65.61 30.79 L 66.72 32.43 L 67.64 33.86 L 69.09 35.98"/><path d="M 43.58 50.37 L 36.80 55.03 L 36.57 55.19"/><path d="M 65.76 54.19 L 62.63 56.45 L 62.19 56.77 L 62.05 56.87 L 61.80 57.04 L 58.66 59.21 L 55.22 61.56 L 54.99 61.92 L 54.76 62.22 L 53.04 64.55 L 49.74 68.86 L 46.64 73.28 L 44.45 76.16"/><path d="M 65.79 48.02 L 65.30 48.37 L 64.91 48.63 L 64.50 48.93 L 64.13 49.24 L 63.23 50.36 L 60.65 53.64 L 60.72 53.73"/><path d="M 60.72 53.73 L 60.85 53.88 L 60.92 53.96"/><path d="M 46.14 33.05 L 42.50 35.58 L 38.84 38.09 L 35.88 40.09 L 33.26 41.85"/><path d="M 51.03 40.26 L 51.31 40.68 L 52.72 42.79 L 53.35 43.72 L 55.95 47.52 L 56.44 48.24"/><path d="M 46.14 33.05 L 50.78 39.88 L 51.03 40.26"/><path d="M 50.94 40.90 L 52.97 43.80"/><path d="M 52.97 43.80 L 53.05 43.92"/><path d="M 53.05 43.92 L 53.16 44.08"/><path d="M 60.83 45.21 L 58.75 46.23"/><path d="M 58.75 46.23 L 58.69 46.26 L 58.63 46.29"/><path d="M 21.86 34.00 L 22.12 34.04 L 25.78 34.50"/><path d="M 26.76 28.69 L 21.59 27.87"/><path d="M 27.96 27.86 L 27.84 28.44 L 27.76 28.82 L 27.31 28.76 L 26.76 28.69"/><path d="M 20.87 32.41 L 20.91 32.14 L 21.18 30.45 L 21.59 27.87"/><path d="M 15.39 32.91 L 17.59 33.19 L 19.07 33.38 L 19.35 33.42"/><path d="M 61.63 63.95 L 61.79 63.84 L 62.01 63.68"/><path d="M 65.19 35.54 L 66.23 36.78 L 67.71 37.84 L 68.18 38.18"/><path d="M 66.22 34.84 L 67.30 35.92 L 68.46 36.83 L 68.93 37.20"/><path d="M 68.80 36.36 L 69.16 36.91 L 69.41 37.29"/><path d="M 60.73 38.16 L 67.14 33.81"/><path d="M 68.85 36.30 L 67.46 34.34"/><path d="M 67.14 33.81 L 67.31 34.09 L 67.46 34.34"/><path d="M 67.14 33.81 L 65.24 31.04"/><path d="M 65.98 30.55 L 66.87 31.92"/><path d="M 69.37 35.64 L 67.12 32.34"/><path d="M 66.87 31.92 L 67.04 32.21 L 67.12 32.34"/><path d="M 83.75 95.42 L 84.03 95.67 L 84.30 95.91"/><path d="M 84.92 94.96 L 84.72 94.81 L 84.44 94.58"/><path d="M 83.65 95.17 L 83.56 95.26 L 83.75 95.42"/><path d="M 84.17 94.57 L 83.85 94.91 L 83.65 95.17"/><path d="M 84.44 94.58 L 84.27 94.45 L 84.17 94.57"/><path d="M 84.96 95.28 L 85.08 95.09 L 84.92 94.96"/><path d="M 84.53 95.91 L 84.73 95.64 L 84.96 95.28"/><path d="M 84.30 95.91 L 84.43 96.02 L 84.53 95.91"/><path d="M 38.78 5.83 L 38.43 5.30 L 38.38 5.14 L 38.46 4.99 L 38.88 4.67 L 41.24 2.92"/><path d="M 38.43 5.30 L 38.33 5.78 L 38.22 6.26"/><path d="M 38.07 6.28 L 37.74 5.75 L 37.38 5.16"/><path d="M 37.35 4.93 L 37.39 4.62 L 37.43 4.21"/><path d="M 37.43 4.21 L 37.46 4.11 L 37.49 3.99 L 37.57 3.96"/><path d="M 38.58 3.11 L 38.69 3.03 L 47.72 -3.24 L 50.21 -5.15"/><path d="M 44.68 0.45 L 41.66 2.63"/><path d="M 41.66 2.63 L 41.51 2.73 L 41.24 2.92"/><path d="M 38.07 6.28 L 38.22 6.26"/><path d="M 37.35 4.93 L 37.38 5.16"/><path d="M 37.57 3.96 L 38.16 3.46 L 38.58 3.11"/><path d="M 38.71 3.19 L 38.79 3.87 L 38.86 4.50"/><path d="M 38.86 4.50 L 38.88 4.67"/><path d="M 38.71 3.19 L 38.69 3.03"/><path d="M 76.47 38.82 L 79.66 37.02 L 79.59 36.87"/><path d="M 72.76 40.82 L 75.89 39.13"/><path d="M 75.89 39.13 L 76.19 38.97 L 76.47 38.82"/><path d="M 31.90 3.21 L 37.46 4.11"/><path d="M 37.35 4.93 L 34.77 4.51"/><path d="M 34.77 4.51 L 34.60 4.49 L 34.37 4.46"/><path d="M 34.37 4.46 L 31.80 4.01"/><path d="M 37.30 4.59 L 34.66 4.13 L 31.44 3.57"/><path d="M 62.46 72.14 L 62.95 72.90 L 65.76 79.69 L 65.75 79.73 L 65.73 79.77 L 65.66 79.76"/><path d="M 61.73 72.53 L 61.92 72.78 L 62.78 74.65 L 64.01 77.41 L 64.70 79.11 L 64.73 79.24 L 64.67 79.35 L 64.63 79.46"/><path d="M 57.87 66.76 L 58.04 67.05 L 58.16 67.28"/><path d="M 55.34 61.74 L 55.80 62.44 L 58.55 66.36"/><path d="M 58.55 66.36 L 58.72 66.59 L 58.88 66.83"/><path d="M 58.88 66.83 L 59.52 67.76 L 62.15 71.67"/><path d="M 62.15 71.67 L 62.32 71.92 L 62.46 72.14"/><path d="M 58.16 67.28 L 58.35 67.59 L 61.42 72.08"/><path d="M 61.42 72.08 L 61.64 72.40 L 61.73 72.53"/><path d="M 54.98 62.53 L 57.21 65.63 L 57.87 66.76"/><path d="M 54.51 61.86 L 54.76 62.22 L 54.98 62.53"/><path d="M 53.27 58.56 L 54.55 60.61 L 54.93 61.15"/><path d="M 54.93 61.15 L 55.22 61.56 L 55.34 61.74"/><path d="M 30.57 28.89 L 32.68 16.16 L 34.60 4.49 L 34.66 4.13"/><path d="M 28.51 41.64 L 28.59 41.16 L 30.52 29.21 L 30.57 28.89"/><path d="M 51.56 -5.33 L 51.99 -4.82 L 53.52 -2.55 L 57.14 2.81"/><path d="M 83.73 42.09 L 80.01 44.60 L 76.56 46.98 L 72.94 49.30 L 70.15 51.21 L 69.43 51.70 L 68.61 52.26 L 65.76 54.19"/><path d="M 72.91 56.91 L 73.67 56.39 L 76.45 54.49 L 80.03 52.11 L 83.46 49.74 L 87.18 47.19"/><path d="M 83.81 33.72 L 80.20 28.45"/><path d="M 96.35 -1.12 L 95.27 -0.44 L 94.76 -0.12 L 92.66 1.32 L 82.18 8.41 L 81.78 8.68"/><path d="M 58.54 -10.35 L 58.99 -9.69 L 64.20 -2.01 L 69.50 5.84"/><path d="M 69.50 5.84 L 74.75 13.57 L 74.92 13.82 L 76.86 16.66 L 78.28 18.75 L 79.34 20.39 L 79.63 20.84 L 80.15 21.25 L 80.56 21.56"/><path d="M 29.34 53.60 L 26.60 53.13 L 23.76 52.65"/><path d="M 23.68 53.50 L 23.72 53.65 L 21.86 64.40"/><path d="M 36.33 40.16 L 40.73 46.71"/><path d="M 35.94 40.43 L 40.40 46.95"/><path d="M 24.06 48.47 L 24.50 48.54 L 25.85 48.76 L 27.29 48.99"/><path d="M 25.85 48.76 L 25.32 51.96"/><path d="M 80.53 36.55 L 80.13 36.76 L 79.79 36.95"/><path d="M 79.79 36.95 L 79.66 37.02"/><path d="M 84.00 34.53 L 80.53 36.55"/><path d="M 84.57 34.20 L 84.24 34.38 L 84.00 34.53"/><path d="M 87.56 32.39 L 84.57 34.20"/><path d="M 65.66 79.76 L 65.19 79.62 L 64.63 79.46"/></g></g></g></svg>