<?xml version="1.0" encoding="UTF-8" standalone="no"?>
<!-- Created with Inkscape (http://www.inkscape.org/) -->

<svg
   width="11in"
   height="8.5in"
   viewBox="0 0 279.4 215.9"
   version="1.1"
   id="svg1"
   xml:space="preserve"
   inkscape:version="1.4.2 (f4327f4, 2025-05-13)"
   sodipodi:docname="janet-inside-draw-line.svg"
   xmlns:inkscape="http://www.inkscape.org/namespaces/inkscape"
   xmlns:sodipodi="http://sodipodi.sourceforge.net/DTD/sodipodi-0.dtd"
   xmlns="http://www.w3.org/2000/svg"
   xmlns:svg="http://www.w3.org/2000/svg"
   xmlns:nd="https://bantam.tools/nd"><sodipodi:namedview
     id="namedview1"
     pagecolor="#ffffff"
     bordercolor="#000000"
     borderopacity="0.25"
     inkscape:showpageshadow="2"
     inkscape:pageopacity="0.0"
     inkscape:pagecheckerboard="0"
     inkscape:deskcolor="#d1d1d1"
     inkscape:document-units="in"
     inkscape:zoom="2.9825758"
     inkscape:cx="149.70282"
     inkscape:cy="334.44246"
     inkscape:window-width="1920"
     inkscape:window-height="1017"
     inkscape:window-x="-8"
     inkscape:window-y="-8"
     inkscape:window-maximized="1"
     inkscape:current-layer="svg1" /><defs
     id="defs1"><inkscape:path-effect
       effect="spiro"
       id="path-effect46"
       is_visible="true"
       lpeversion="1" /></defs><path
     style="baseline-shift:baseline;display:inline;overflow:visible;vector-effect:none;stroke-dasharray:1.06, 2.12;enable-background:accumulate;stop-color:#000000;stop-opacity:1;opacity:1"
     d="m 22.591797,82.140625 c -0.35073,0.01307 -0.702521,0.01653 -1.054688,0.01563 v 0.265625 c 0.354469,9.14e-4 0.708992,-0.0024 1.064453,-0.01563 z"
     id="path71" /><path
     style="baseline-shift:baseline;display:inline;overflow:visible;vector-effect:none;stroke-dasharray:1.06, 2.12;enable-background:accumulate;stop-color:#000000;stop-opacity:1;opacity:1"
     d="m 18.378906,81.980469 -0.0293,0.261718 0.150391,0.01758 0.427734,0.04102 0.429688,0.03516 0.05273,0.0039 0.01758,-0.263672 -0.05078,-0.0039 -0.425781,-0.03516 -0.423828,-0.04102 z"
     id="path70" /><path
     style="baseline-shift:baseline;display:inline;overflow:visible;vector-effect:none;stroke-dasharray:1.06, 2.12;enable-background:accumulate;stop-color:#000000;stop-opacity:1;opacity:1"
     d="m 25.746094,81.871094 -0.410157,0.05469 -0.423828,0.05078 -0.214843,0.02148 0.0293,0.263672 0.214844,-0.02344 0.427735,-0.05078 0.412109,-0.05469 z"
     id="path69" /><path
     style="baseline-shift:baseline;display:inline;overflow:visible;vector-effect:none;stroke-dasharray:1.06, 2.12;enable-background:accumulate;stop-color:#000000;stop-opacity:1;opacity:1"
     d="m 15.255859,81.472656 -0.05859,0.257813 c 0.346778,0.07605 0.695153,0.146985 1.044921,0.208984 l 0.04687,-0.261719 c -0.346054,-0.06134 -0.68972,-0.129754 -1.033203,-0.205078 z"
     id="path68" /><path
     style="baseline-shift:baseline;display:inline;overflow:visible;vector-effect:none;stroke-dasharray:1.06, 2.12;enable-background:accumulate;stop-color:#000000;stop-opacity:1;opacity:1"
     d="m 28.847656,81.257812 c -0.32863,0.08641 -0.66032,0.162713 -0.99414,0.236329 l -0.0293,0.0059 0.05273,0.259766 0.0332,-0.0078 c 0.335249,-0.07393 0.671795,-0.15044 1.00586,-0.238281 z"
     id="path67" /><path
     style="baseline-shift:baseline;display:inline;overflow:visible;vector-effect:none;stroke-dasharray:1.06, 2.12;enable-background:accumulate;stop-color:#000000;stop-opacity:1;opacity:1"
     d="m 12.203125,80.638672 -0.08398,0.25 0.07813,0.02734 0.410156,0.130859 0.412109,0.126953 0.115235,0.0332 0.07422,-0.255859 -0.115234,-0.0332 -0.40625,-0.123047 -0.40625,-0.13086 z"
     id="path66" /><path
     style="baseline-shift:baseline;display:inline;overflow:visible;vector-effect:none;stroke-dasharray:1.06, 2.12;enable-background:accumulate;stop-color:#000000;stop-opacity:1;opacity:1"
     d="m 31.865234,80.298828 -0.330078,0.125 -0.402344,0.144531 -0.261718,0.08984 0.08594,0.25 0.263672,-0.08984 0.40625,-0.146484 0.332031,-0.125 z"
     id="path65" /><path
     style="baseline-shift:baseline;display:inline;overflow:visible;vector-effect:none;stroke-dasharray:1.06, 2.12;enable-background:accumulate;stop-color:#000000;stop-opacity:1;opacity:1"
     d="m 9.2578125,79.480469 -0.1113281,0.242187 0.2441406,0.109375 0.3945313,0.173828 0.3378907,0.140625 0.101562,-0.24414 -0.3359371,-0.140625 -0.390625,-0.171875 z"
     id="path64" /><path
     style="baseline-shift:baseline;display:inline;overflow:visible;vector-effect:none;stroke-dasharray:1.06, 2.12;enable-background:accumulate;stop-color:#000000;stop-opacity:1;opacity:1"
     d="m 34.769531,79.037109 -0.310547,0.148438 -0.480468,0.224609 -0.166016,0.07422 0.109375,0.242187 0.167969,-0.07617 0.482422,-0.22461 0.3125,-0.15039 z"
     id="path63" /><path
     style="baseline-shift:baseline;display:inline;overflow:visible;vector-effect:none;stroke-dasharray:1.06, 2.12;enable-background:accumulate;stop-color:#000000;stop-opacity:1;opacity:1"
     d="m 81.224609,78.181641 -0.164062,0.208984 c 0.277499,0.215278 0.550924,0.437014 0.822265,0.662109 l 0.169922,-0.203125 c -0.272518,-0.226071 -0.547266,-0.450084 -0.828125,-0.667968 z"
     id="path62" /><path
     style="baseline-shift:baseline;display:inline;overflow:visible;vector-effect:none;stroke-dasharray:1.06, 2.12;enable-background:accumulate;stop-color:#000000;stop-opacity:1;opacity:1"
     d="m 37.589844,77.583984 c -0.309392,0.16907 -0.621272,0.334604 -0.933594,0.498047 l 0.123047,0.234375 c 0.313792,-0.164213 0.626775,-0.330201 0.9375,-0.5 z"
     id="path60" /><path
     style="baseline-shift:baseline;display:inline;overflow:visible;vector-effect:none;stroke-dasharray:1.06, 2.12;enable-background:accumulate;stop-color:#000000;stop-opacity:1;opacity:1"
     d="m 78.628906,76.326172 -0.144531,0.222656 c 0.295393,0.192103 0.586907,0.386712 0.875,0.587891 l 0.152344,-0.216797 C 79.22042,76.716505 78.925908,76.51932 78.628906,76.326172 Z"
     id="path59" /><path
     style="baseline-shift:baseline;display:inline;overflow:visible;vector-effect:none;stroke-dasharray:1.06, 2.12;enable-background:accumulate;stop-color:#000000;stop-opacity:1;opacity:1"
     d="m 40.375,76.050781 -0.273438,0.152344 -0.654296,0.361328 0.128906,0.232422 0.652344,-0.361328 0.27539,-0.152344 z"
     id="path58" /><path
     style="baseline-shift:baseline;display:inline;overflow:visible;vector-effect:none;stroke-dasharray:1.06, 2.12;enable-background:accumulate;stop-color:#000000;stop-opacity:1;opacity:1"
     d="m 75.878906,74.708981 -0.123047,0.234375 c 0.298161,0.156384 0.592133,0.319949 0.886719,0.486328 l 0.03711,0.02148 0.132813,-0.230469 -0.03906,-0.02148 C 76.47791,75.032308 76.180972,74.867416 75.878906,74.708984 Z"
     id="path57" /><path
     style="baseline-shift:baseline;display:inline;overflow:visible;vector-effect:none;stroke-dasharray:1.06, 2.12;enable-background:accumulate;stop-color:#000000;stop-opacity:1;opacity:1"
     d="m 43.183594,74.548825 c -0.315753,0.160659 -0.630921,0.323611 -0.94336,0.490234 l 0.125,0.234375 c 0.311098,-0.165908 0.623426,-0.328476 0.9375,-0.488281 z"
     id="path56" /><path
     style="baseline-shift:baseline;display:inline;overflow:visible;vector-effect:none;stroke-dasharray:1.06, 2.12;enable-background:accumulate;stop-color:#000000;stop-opacity:1;opacity:1"
     d="m 72.998047,73.335934 -0.103516,0.244141 c 0.324377,0.136879 0.647604,0.27828 0.966797,0.425781 l 0.111328,-0.240234 C 73.650359,73.616686 73.324738,73.47379 72.998047,73.335934 Z"
     id="path55" /><path
     style="baseline-shift:baseline;display:inline;overflow:visible;vector-effect:none;stroke-dasharray:1.06, 2.12;enable-background:accumulate;stop-color:#000000;stop-opacity:1;opacity:1"
     d="m 46.064453,73.185544 -0.259766,0.111328 -0.488281,0.216797 -0.222656,0.103515 0.109375,0.240235 0.222656,-0.101563 0.484375,-0.214843 0.259766,-0.111329 z"
     id="path54" /><path
     style="baseline-shift:baseline;display:inline;overflow:visible;vector-effect:none;stroke-dasharray:1.06, 2.12;enable-background:accumulate;stop-color:#000000;stop-opacity:1;opacity:1"
     d="m 70.007812,72.224606 -0.08203,0.251953 0.113281,0.03711 c 0.29759,0.09813 0.594211,0.194904 0.886719,0.300781 l 0.08984,-0.248047 c -0.297063,-0.107525 -0.594761,-0.206482 -0.892578,-0.304687 h -0.002 z"
     id="path53" /><path
     style="baseline-shift:baseline;display:inline;overflow:visible;vector-effect:none;stroke-dasharray:1.06, 2.12;enable-background:accumulate;stop-color:#000000;stop-opacity:1;opacity:1"
     d="m 49.058594,72.076169 c -0.338837,0.105822 -0.677131,0.217167 -1.011719,0.335937 l 0.08984,0.25 c 0.331329,-0.117613 0.664338,-0.229154 1,-0.333984 z"
     id="path52" /><path
     style="baseline-shift:baseline;display:inline;overflow:visible;vector-effect:none;stroke-dasharray:1.06, 2.12;enable-background:accumulate;stop-color:#000000;stop-opacity:1;opacity:1"
     d="m 66.927734,71.386716 -0.05664,0.257812 c 0.343463,0.07652 0.686329,0.158798 1.027343,0.246094 l 0.06445,-0.255859 c -0.343578,-0.08795 -0.688859,-0.170898 -1.035157,-0.248047 z"
     id="path51" /><path
     style="baseline-shift:baseline;display:inline;overflow:visible;vector-effect:none;stroke-dasharray:1.06, 2.12;enable-background:accumulate;stop-color:#000000;stop-opacity:1;opacity:1"
     d="m 52.144531,71.265622 c -0.3471,0.07308 -0.692457,0.153313 -1.037109,0.238281 l 0.0625,0.25586 c 0.34147,-0.08418 0.684902,-0.161866 1.029297,-0.234375 z"
     id="path50" /><path
     style="baseline-shift:baseline;display:inline;overflow:visible;vector-effect:none;stroke-dasharray:1.06, 2.12;enable-background:accumulate;stop-color:#000000;stop-opacity:1;opacity:1"
     d="m 63.785156,70.832028 -0.0332,0.261719 c 0.348944,0.04469 0.697777,0.09553 1.044922,0.152344 l 0.04297,-0.261719 c -0.350214,-0.05731 -0.702722,-0.107267 -1.054688,-0.152344 z"
     id="path49" /><path
     style="baseline-shift:baseline;display:inline;overflow:visible;vector-effect:none;stroke-dasharray:1.06, 2.12;enable-background:accumulate;stop-color:#000000;stop-opacity:1;opacity:1"
     d="m 55.294922,70.755858 c -0.352641,0.03948 -0.7036,0.08687 -1.054688,0.138672 l 0.03906,0.261719 c 0.347983,-0.05135 0.695308,-0.09757 1.044922,-0.136719 z"
     id="path48" /><path
     style="baseline-shift:baseline;display:inline;overflow:visible;vector-effect:none;stroke-dasharray:1.06, 2.12;enable-background:accumulate;stop-color:#000000;stop-opacity:1;opacity:1"
     d="m 60.607422,70.562499 -0.01172,0.263672 c 0.351791,0.01384 0.703785,0.0336 1.054688,0.05859 l 0.01953,-0.265625 c -0.353981,-0.02522 -0.708177,-0.04271 -1.0625,-0.05664 z"
     id="path47" /><path
     style="baseline-shift:baseline;display:inline;overflow:visible;vector-effect:none;stroke-dasharray:1.06, 2.12;enable-background:accumulate;stop-color:#000000;stop-opacity:1;opacity:1"
     d="m 58.478516,70.542969 c -0.354803,0.0068 -0.708187,0.01998 -1.0625,0.03906 l 0.01367,0.263672 c 0.351305,-0.01892 0.702983,-0.03231 1.054688,-0.03906 z"
     id="path46" /><nd:plotdata
     application="nextdraw"
     auto_rot="0"
     handling="0"
     hiding="0"
     layer="-2"
     model="8"
     optim="0"
     pause_dist="-25400"
     pause_ref="-25400"
     pause_warn="0"
     plob_version="n/a"
     rand_seed="1"
     rand_start="0" /></svg>
