<?xml version="1.0" encoding="UTF-8" standalone="no"?>
<!-- Created with Inkscape (http://www.inkscape.org/) -->

<svg
   width="11in"
   height="8.5in"
   viewBox="0 0 279.4 215.9"
   version="1.1"
   id="svg1"
   xml:space="preserve"
   inkscape:version="1.4.2 (f4327f4, 2025-05-13)"
   sodipodi:docname="janet-inside-draw.svg"
   xmlns:inkscape="http://www.inkscape.org/namespaces/inkscape"
   xmlns:sodipodi="http://sodipodi.sourceforge.net/DTD/sodipodi-0.dtd"
   xmlns="http://www.w3.org/2000/svg"
   xmlns:svg="http://www.w3.org/2000/svg"
   xmlns:nd="https://bantam.tools/nd"><sodipodi:namedview
     id="namedview1"
     pagecolor="#ffffff"
     bordercolor="#000000"
     borderopacity="0.25"
     inkscape:showpageshadow="2"
     inkscape:pageopacity="0.0"
     inkscape:pagecheckerboard="0"
     inkscape:deskcolor="#d1d1d1"
     inkscape:document-units="in"
     inkscape:zoom="0.74564396"
     inkscape:cx="472.74573"
     inkscape:cy="424.46532"
     inkscape:window-width="1920"
     inkscape:window-height="1017"
     inkscape:window-x="-8"
     inkscape:window-y="-8"
     inkscape:window-maximized="1"
     inkscape:current-layer="svg1" /><defs
     id="defs1" /><g
     fill="none"
     stroke="#555555"
     stroke-linecap="round"
     stroke-linejoin="round"
     class="zoomable-line"
     style="stroke-width:0.32"
     id="g905"
     transform="matrix(0.85264851,0,0,0.85264851,40.705362,61.36554)"><path
       d="m 36.04,98.4 -0.33,-0.16 -0.26,0.01 -0.27,0.08"
       id="path1" /><path
       d="m 103.55,8.42 -0.92,0.64 -13.65,9.32 -0.42,0.38 -0.42,0.29 -1.79,1.26 -0.89,1.19 -2.61,3.36 -2.65,3.59 -2.68,3.5 -0.33,0.43"
       id="path2" /><path
       d="m 66.66,47.73 -0.74,0.5 -1.64,1.1 -0.96,1.31 -2.47,3.24 -0.32,0.43"
       id="path3" /><path
       d="m 19.78,56.57 -1.13,7.3 -0.07,0.49"
       id="path4" /><path
       d="M 17.34,71.93 16.59,76.51 14.3,90.47"
       id="path5" /><path
       d="m 21.38,47.15 0.54,-3.14"
       id="path6" /><path
       d="m 58.36,51.11 0.42,0.62 1.75,2.58 1.34,2 0.32,0.46 0.22,0.33 2.9,4.24 0.37,0.54 0.22,0.33 3.13,4.68 0.26,0.28 5.04,7.47 1.78,2.62 1.69,2.56 1.8,2.67 2.57,3.85 5.68,4.75 2.76,2.42 2.22,1.77 0.64,0.52 0.33,0.28 1.89,1.58 1.7,1.42 0.41,0.35"
       id="path7" /><path
       d="m 76.11,77.26 -7.95,5.46"
       id="path8" /><path
       d="m 19.01,43.56 2.91,0.45 2.77,0.44"
       id="path9" /><path
       d="M 18.97,97.8 15.83,97.21"
       id="path10" /><path
       d="m 112.75,22.3 -0.77,0.52 -2.67,1.8 -1.52,1 -3.2,2.23 -1.85,1.26 -2.27,1.55 -2.63,1.79 -3.43,2.34 -3.3,2.25 -3.49,2.38 -3.89,2.67"
       id="path11" /><path
       d="m 35.18,98.33 -2.41,1.02 -0.38,0.17"
       id="path12" /><path
       d="m 37.12,94.7 -0.39,0.33 -1.47,3.1 -0.08,0.2"
       id="path13" /><path
       d="m 83.66,84.48 5.72,4.76"
       id="path14" /><path
       d="m 67.89,60.34 0.94,1.29"
       id="path15" /><path
       d="m 53.48,38.6 0.24,0.34 4.97,7.32 0.45,0.67"
       id="path16" /><path
       d="M 25.13,24.27 26.61,15.14 28.58,3.12 28.63,2.74 30.55,-8.82"
       id="path17" /><path
       d="m 80.56,21.56 0.39,0.49 1.9,2.81 4.5,6.73 0.46,0.67 3.3,4.78 3.42,5.12 3.6,5.33 5.04,7.42 5.31,7.87 3.13,4.61 0.25,0.37"
       id="path18" /><path
       d="m 36.22,63.31 2.02,-2.71 0.21,-0.31"
       id="path19" /><path
       d="M 24.14,84.42 21.57,83.98 18.33,83.52"
       id="path20" /><path
       d="m 1.51,73.94 0.5,0.08 2.82,0.48 0.83,0.15 1.98,0.33 0.43,0.08 0.35,0.06 2.44,0.42 2.81,0.47 2.92,0.5 2.81,0.48 3.21,0.55 2.73,0.47 0.52,0.09"
       id="path21" /><path
       d="M 49.86,92.98 43.9,90.13 40.1,88.28 36.41,86.52 35.95,86.29"
       id="path22" /><path
       d="m 41.48,67.44 -0.36,-0.29 -4.9,-3.84"
       id="path23" /><path
       d="M 73.02,107.85 68.16,96.19 68.03,95.82 67.25,93.98 67.1,93.77 66.82,93.09 65.64,90.01 62.42,82.36 62.05,82.13 61.57,81.86 56.55,78.05 50.57,75.15 46.64,73.28"
       id="path24" /><path
       d="m 36.04,98.4 4.2,2.01"
       id="path25" /><path
       d="m 16.96,56.08 0.36,0.07 2.46,0.42"
       id="path26" /><path
       d="m 72.17,87.04 2.55,6.18"
       id="path27" /><path
       d="M 69.46,77.91 66.55,70.87 65.7,69.66 65.35,69.14 62.36,64.69 62.1,64.31 61.79,63.84 58.88,59.52 58.66,59.21"
       id="path28" /><path
       d="m 37.26,27.87 5.24,7.71 4.6,6.84 0.28,0.42"
       id="path29" /><path
       d="M 68.86,28.05 68.65,27.73 64.04,20.89 63.82,20.54 63.24,19.68 58.83,13.13 53.52,5.27 51.65,2.54 48.41,-2.24 48.03,-2.79"
       id="path30" /><path
       d="M 33.35,92.15 32.93,91.64 32.54,91.2 31.37,89.98 30.96,89.55 30.37,88.95 29.94,88.53 28.55,87.02 26.5,84.91 25.7,84.66 25.37,84.59 25.14,84.56"
       id="path31" /><path
       d="m 40.15,57.76 -0.71,-0.51 -2.87,-2.06 -3.1,-2.4 -0.31,-0.24"
       id="path32" /><path
       d="m 35.79,17.23 3.43,-2.17 3.64,-2.47 0.97,-0.63 2.55,-1.83 3.58,-2.44 2.63,-1.79 0.93,-0.63 3.62,-2.46"
       id="path33" /><path
       d="m 41.12,2.13 0.39,0.6 4.87,7.4 5.14,7.54 0.19,0.3 5.24,7.7 1.61,2.39 3.01,4.47 0.24,0.36"
       id="path34" /><path
       d="m 102.33,85.16 -5.72,-4.67 -5.97,-5 L 90.38,75.17 90.19,74.8 85.1,67.27 80.04,59.85 76.45,54.49 72.94,49.3"
       id="path35" /><path
       d="M 79.18,4.82 79.64,4.51 92.01,-4 92.89,-4.61"
       id="path36" /><path
       d="m 35.88,40.09 0.18,0.26 4.46,6.52 0.08,0.12 0.46,0.18"
       id="path37" /><path
       d="m 84.75,83.13 -1.74,-2.49 0.02,-0.47 0.02,-0.45 -5.09,-7.55 -5.08,-7.46 -1.91,-2.81 -1.7,-2.5"
       id="path38" /><path
       d="m 85.32,82.42 0.19,0.15 5.21,4.2 0.44,0.35"
       id="path39" /><path
       d="M 29.72,54.06 29.28,53.99 26.54,53.52 23.76,53.05 23.34,52.98 22.89,52.91 17.62,52.03 14.8,51.56 12.32,51.14 11.97,51.08 11.7,51.04 8.76,50.55 5.94,50.08 5.42,49.99 4.92,49.91 1.8,49.38 -0.28,49.04 -1.3,48.87 -1.94,48.76"
       id="path40" /><path
       d="M 78.2,11.17 72.98,3.48 67.7,-4.37 67.45,-4.73 62.32,-12.26 61.94,-12.83"
       id="path41" /><path
       d="M 78.28,18.75 81,16.89"
       id="path42" /><path
       d="m 53.35,43.72 -0.3,0.2 -6.69,4.57 -0.32,0.22 -0.38,0.26 -2.08,1.4"
       id="path43" /><path
       d="m 60.57,38.65 0.33,-0.22 4.29,-2.89 1.03,-0.7 0.14,-0.1 0.95,-0.65 0.33,-0.23"
       id="path44" /><path
       d="m 73.9,27.57 -0.39,0.26 -6.47,4.38 -0.32,0.22"
       id="path45" /><path
       d="m 69.09,35.98 0.37,0.54 0.26,0.38 1.04,1.54 0.89,1.3 0.43,0.64 0.41,0.59 4.07,6.01 3.47,5.13 3.57,5.3 5.06,7.48 5.08,7.52 0.18,0.36 0.2,0.23 5.14,4.25 8.06,6.73 0.09,0.08"
       id="path47" /><path
       d="m 108.38,70.11 -0.24,-0.36 -3.09,-4.64 -5.32,-7.83 -5.01,-7.42 -3.62,-5.37 -3.48,-5.07 -3.38,-5.04 -0.43,-0.66"
       id="path48" /><path
       d="M 71.24,15.91 66.05,8.18 60.73,0.36"
       id="path49" /><path
       d="m 54.61,37.78 -0.22,-0.33 -4.4,-6.5 -0.23,-0.34 -0.29,-0.43 -4.94,-7.3 -5.31,-7.82"
       id="path50" /><path
       d="M 61.5,45.78 61.07,45.07 55.94,37.43 55.71,37.09"
       id="path51" /><path
       d="m 58.91,83.5 3.14,-1.37 3.35,-1.59"
       id="path53" /><path
       d="m 19.55,40.13 -0.34,2.18 -0.2,1.25 -0.31,1.88 -1.02,6.23 -0.06,0.36 -0.07,0.44 -0.59,3.61 -1.2,7.31 -0.08,0.49 -0.13,0.78 -0.76,4.63 -0.35,2.2 -0.77,4.52 -1.09,6.63 -1,6.27"
       id="path54" /><path
       d="m 47.38,42.84 3.65,-2.58 2.45,-1.66 1.13,-0.82 1.1,-0.69 2.31,-1.59 0.26,-0.18"
       id="path55" /><path
       d="m 80.7,88.16 -4.43,-3.4"
       id="path56" /><path
       d="M 37.36,101.63 36.04,98.4"
       id="path57" /><path
       d="M 30.11,99.43 29.64,99.16 27.82,98.12 25.95,97.08 23.28,95.57 22.84,95.32"
       id="path58" /><path
       d="m 41.99,56.16 0.75,0.58 4.22,3.28"
       id="path59" /><path
       d="m 53.04,64.55 2.74,4.07"
       id="path60" /><path
       d="M 38.21,49.13 37.9,48.67 33.26,41.85"
       id="path61" /><path
       d="m 27.97,24.76 -2.84,-0.49 -2.9,-0.51 -2.8,-0.48 -2.8,-0.49"
       id="path62" /><path
       d="m 52.07,88.15 1.9,4.59 0.94,2.17 1.27,3.11 1.29,3.03 4.8,11.7 1.28,2.93 0.75,1.84 1.44,3.43"
       id="path63" /><path
       d="m 34.75,79.9 0.34,0.07 2.73,0.55 0.51,0.24"
       id="path64" /><path
       d="m 20.16,72.36 -2.82,-0.43 -2.9,-0.44"
       id="path65" /><path
       d="M 14.79,69.29 11.98,68.83 9.15,68.36"
       id="path66" /><path
       d="m 47.72,81.58 5.96,2.93 1.59,0.8 0.18,0.26 0.2,0.47 2.93,7.18"
       id="path67" /><path
       d="M 14.8,51.56 14.73,52 12.95,62.85 12.86,63.41"
       id="path69" /><path
       d="m 56.44,48.24 -5.35,7.23 -0.41,0.17 -0.48,0.09 -3.24,4.29"
       id="path70" /><path
       d="m 29.94,88.53 -0.22,0.49 -0.83,1.81 -1.2,2.69 -1.48,3.33 -0.11,0.13 -0.15,0.1"
       id="path71" /><path
       d="M 70.68,84.74 77.8,79.82"
       id="path72" /><path
       d="m 34.47,29.74 2.79,-1.87 3.65,-2.51 3.62,-2.48 3.63,-2.49"
       id="path73" /><path
       d="M 58.28,35.32 58.01,34.93 53.63,28.49 53.38,28.13 53.14,27.77 48.16,20.39"
       id="path74" /><path
       d="m 33.9,103.06 0.37,-0.15 3.09,-1.28 2.88,-1.22 4.75,-2"
       id="path76" /><path
       d="m 49.07,78.42 1.5,-3.27 0.14,-0.16 1.57,-3.68 0.18,-0.41 0.43,-0.3 2.89,-1.98 2.26,-1.57 0.29,-0.2 0.39,-0.26 3.38,-2.28 3.22,-2.19 0.36,-0.24 2.21,-1.54 1.38,-0.94 2.89,-1.98 0.75,-0.51"
       id="path78" /><path
       d="m 72.73,97.49 9.2,-4.16"
       id="path79" /><path
       d="m 81.78,8.68 -3.58,2.49 -3.45,2.4 -2.53,1.68 -0.98,0.66 -0.15,0.1 -3.44,2.33 -3.61,2.55 -3.55,2.38 -1.97,1.33 -1.57,1.07 -3.21,2.21 -0.36,0.25 -0.29,0.2 -3.06,2.1 -0.27,0.18 -0.31,0.21 -3.31,2.23"
       id="path80" /><path
       d="m 21.44,94.56 -1.71,0.14 -2.82,-0.48 -0.4,-0.06"
       id="path81" /><path
       d="m 38.02,4.83 0.28,-0.4 0.25,-0.32 0.24,-0.24 0.07,-0.08 0.4,-0.38 0.28,-0.19 0.3,-0.21 1.28,-0.88 1.25,-0.88 0.58,-0.42 1.56,-1.14 3.52,-2.48"
       id="path82" /><path
       d="M 90.03,100.1 89.42,99.59 87.26,97.77 84.73,95.64 84.32,95.29 83.85,94.91 81.93,93.33 78.73,90.78 78.22,90.45 73.17,86.64 70.68,84.74 68.16,82.72 67.34,82.1 65.4,80.54"
       id="path83" /><path
       d="m 3.95,11.3 0.58,0.1 3.41,0.59 3.63,0.61 3.35,0.56 3.21,0.55 2.82,0.47 2.78,0.47 2.88,0.49 2.86,0.47 3.21,0.55 1.34,0.22 0.73,0.12"
       id="path86" /><path
       d="m 40.15,57.76 1.84,-1.6 2.26,-1.78 1.45,-0.87"
       id="path87" /><path
       d="m 27.77,65.89 0.1,-0.57 0.7,-4.26 1.06,-6.45 0.09,-0.55 0.08,-0.48 1.51,-9.19 0.28,-1.67 0.09,-0.56 0.08,-0.47 1.18,-7.18 0.82,-5.01"
       id="path88" /><path
       d="m 33.07,92.78 -0.16,0.37 -0.33,0.74 -1.39,3.03 -1.08,2.51 -1.44,3.11 -2.4,5.58 -1.74,4.04 -0.91,2 -0.41,0.91 -0.33,0.72"
       id="path89" /><path
       d="m 18.23,100.79 0.12,-0.45 0.46,-1.88 0.16,-0.66 0.66,-2.72 0.1,-0.38 0.17,-1.08"
       id="path90" /><path
       d="m 34.75,79.9 0.94,-2.24 1.88,-4.15 0.49,-1.02 0.59,-1.41 2.64,-3.46 0.19,-0.18"
       id="path91" /><path
       d="m 64.8,97.72 -1.25,-3"
       id="path92" /><path
       d="M 41.12,74.48 40.65,74.1 38.06,72.49"
       id="path93" /><path
       d="m 38.33,80.76 0.53,0.27 7.46,3.65 5.97,2.94"
       id="path94" /><path
       d="m 65.4,80.54 0.98,1.65 2.56,6.34 2.57,6.14 1.22,2.82 1.21,2.94 2.39,5.91 0.22,0.5 1.63,3.79 0.2,0.47"
       id="path95" /><path
       d="m 19.9,93.62 0.08,-0.43 1.59,-9.21 0.57,-3.71 0.38,-2.4 0.09,-0.33 0.08,-0.46 1.75,-10.99 0.01,-0.05 0.16,-0.68 0.08,-0.48 1.77,-10.91 0.08,-0.45 0.06,-0.39 0.69,-4.14 1.16,-6.98 0.06,-0.37"
       id="path96" /><path
       d="m 29.72,54.06 0.72,0.23 0.54,0.17 5.57,4.34 1.9,1.49 0.31,0.23 3.23,2.46 1.81,1.38 2.87,2.12"
       id="path97" /><path
       d="m 33.26,41.85 -0.94,0.41 -0.64,-0.1"
       id="path98" /><path
       d="m 64.8,97.72 3.36,-1.53 3.35,-1.52 3.21,-1.45 3.59,-1.73 0.42,-0.71 0.33,-0.63 1.64,-1.99 1.47,-1.82 1.49,-1.86 1.09,-1.35 0.57,-0.71 0.33,-0.37 2.12,-1.47 0.77,-0.54"
       id="path99" /><path
       d="M 37.12,94.7 33.97,93.22 33.6,93.04 33.07,92.78"
       id="path100" /><path
       d="m 28.68,69.66 0.07,-0.4 0.06,-0.36 1.19,-7.13 -0.1,-0.38 -0.19,-0.12 -0.43,-0.08 -0.16,-0.03 -0.55,-0.1"
       id="path102" /><path
       d="m 30.62,73.68 1.68,0.31 0.16,-1.01 -0.19,-0.95 -0.36,-0.8 -0.54,-0.69 -0.67,-0.38 -0.67,-0.18 -0.42,-0.11 -0.93,-0.21 -0.78,-0.13"
       id="path103" /><path
       d="m 14.48,38.76 1.73,-1.42 3.27,-2.59 0.21,-0.17"
       id="path104" /><path
       d="M 19.87,32.62 19.72,32.36 17.61,28.94 16.5,26.99"
       id="path105" /><path
       d="m 19.8,39.2 0.63,-3.98 0.04,-0.26"
       id="path106" /><path
       d="m 16.5,26.99 -1.11,5.92"
       id="path107" /><path
       d="m 21.64,32.9 0.2,-0.18 4.92,-4.03"
       id="path108" /><path
       d="M 24.78,40.48 19.73,39.64 14.48,38.76"
       id="path109" /><path
       d="m 14.48,38.76 0.91,-5.85"
       id="path110" /><path
       d="m 19.8,39.2 -0.07,0.44"
       id="path111" /><path
       d="m 25.78,34.5 -1,5.98"
       id="path112" /><path
       d="m 25.78,34.5 0.98,-5.81"
       id="path113" /><path
       d="m 76.86,16.66 6.62,-4.5 0.41,-0.28"
       id="path114" /><path
       d="M 47,99.38 44.99,98.41 41.1,96.5"
       id="path115" /><path
       d="m 65.4,80.54 -0.21,-0.92 -0.04,-0.14 -2.69,-6.53 -0.27,-0.41 -0.24,-0.36 -0.3,-0.44 -3.32,-4.89 -3.34,-4.93 -1.95,-2.86 -0.35,-0.53 -0.36,-0.52 -1.65,-2.37 -1.9,-2.89 -0.46,-0.65 -0.44,-0.65 -1.84,-2.74 -2.11,-3.06 -0.19,-0.28 -0.31,-0.46 -4.59,-6.82 -4.72,-7.02 -0.15,-0.21"
       id="path117" /><path
       d="m 96.35,-1.12 -0.64,0.77 -0.59,0.71 -1.52,1.78 -1.44,1.67 -0.26,0.33 -0.28,0.42 -5.89,8.96 -0.35,0.54 -0.34,0.53 -2.81,4.42 -1.67,2.55 -0.88,1.19 -1.01,1.37 -3.36,4.57 -0.34,0.47 -0.35,0.48 -2.48,3.36 -2.68,3.52 -0.3,0.39 -0.17,0.22 -0.06,0.07 -0.29,0.38 -0.46,0.6 -3.42,4.45"
       id="path118" /><path
       d="m 46.67,66.48 0.42,0.33 2.65,2.05 2.32,1.75 0.4,0.29 0.43,0.33 4.61,3.51 0.37,0.28 0.45,0.33 5.97,4.43 1.11,0.76"
       id="path119" /><path
       d="m 33.07,92.78 0.28,-0.63 0.26,-0.59 0.31,-0.69 2.03,-4.58 2.38,-5.53 2.49,-5.61 0.3,-0.67 0.27,-0.55 0.46,-0.94 0.43,-0.67 4.03,-5.37 0.36,-0.47"
       id="path120" /><path
       d="m 35.79,17.23 1.01,-6.19 0.16,-0.99 0.39,-2.4 0.18,-0.92 0.14,-0.74 0.07,-0.24 0.17,-0.56 0.11,-0.36"
       id="path121" /><path
       d="m 74.97,29.16 0.35,0.52 1.87,2.7 2.06,3.07 0.44,0.66 0.44,0.65 3.6,5.33 3.45,5.1 3.36,4.92 0.25,0.38 0.26,0.38 4.48,6.69 0.28,0.41 0.23,0.33 4.79,7.12 0.27,0.39 0.24,0.36 2.9,4.23 0.27,0.39"
       id="path122" /><path
       d="m 57.14,2.81 3.59,-2.45 3.47,-2.37 3.5,-2.36 3.15,-2.14 0.42,-0.29"
       id="path123" /><path
       d="m 33.76,29.5 0.09,-0.48 1.42,-8.65 0.28,-1.64 0.24,-1.5"
       id="path124" /><path
       d="M 37.57,73.51 37.38,73.48 36.97,73.4 33.21,72.75 33.41,71.52 32.95,71.01 32.52,70.55 32.11,70.1 31.68,69.76 31.16,69.44 30.48,69.25 30.14,69.17"
       id="path125" /><path
       d="m 26.21,75.04 -0.06,1.19 -0.06,1.27"
       id="path126" /><path
       d="m 25.82,77.46 0.33,-1.23 0.31,-1.13"
       id="path127" /><path
       d="m 34.97,19.04 0.28,0.05 0.26,-1.55 0.08,-0.54 0.11,-0.66 1.01,-6.07 -0.27,-0.05 -1.17,7.01 -0.19,1.18 -0.11,0.63"
       id="path130" /><path
       d="m 37.55,7.99 0.15,0.03 0.13,0.03 -1.74,10.24 -0.26,-0.03 0.26,-1.55 1.46,-8.72"
       id="path131" /><path
       d="m 36.3,16.68 -0.06,0.47"
       id="path132" /><path
       d="m 33.91,17.24 0.11,-0.86"
       id="path133" /><path
       d="M 35.02,17.38 33.91,17.24"
       id="path134" /><path
       d="m 36.24,17.15 -0.08,0.39 -1.14,-0.16"
       id="path135" /><path
       d="M 75.88,22.55 74.83,21.61 71.28,16.3 71.09,16.01"
       id="path136" /><path
       d="m 72.22,15.25 0.19,0.28 3.44,5.22 -0.13,0.58 0.16,1.22 0.09,0.16 0.24,0.43"
       id="path137" /><path
       d="m 73.77,64.11 0.17,0.25 0.46,0.7 0.05,0.04 0.05,0.03 0.07,0.02 0.05,-0.01 0.08,-0.04 1.69,-1.11 0.16,-0.12 0.72,-0.47"
       id="path138" /><path
       d="M 51.65,2.54 50.78,3.21 52.59,5.9"
       id="path140" /><path
       d="m 29.14,41.75 0.09,-0.49 0.05,-0.33 0.35,-0.61 0.11,-0.77 1.15,0.17"
       id="path141" /><path
       d="M 27.78,40.32 26.46,40.14"
       id="path142" /><path
       d="m 27.74,41.5 0.05,-0.46 0.04,-0.28 -0.05,-0.44 0.16,-0.89"
       id="path143" /><path
       d="m 15.35,44.07 0.34,-1.96"
       id="path144" /><path
       d="m 15.37,46.78 1.78,0.27 -0.3,1.95"
       id="path145" /><path
       d="m 13.2,43.72 0.56,0.09 1.59,0.26 0.44,0.07 -0.42,2.64 -0.16,1.01"
       id="path146" /><path
       d="m 20.97,55.55 1.02,1.05 0.34,0.07 0.39,0.06"
       id="path147" /><path
       d="m 61.42,20.96 1.82,-1.28"
       id="path148" /><path
       d="m 57.97,13.71 1.76,2.66"
       id="path149" /><path
       d="M 52.58,11.61 55.12,9.85"
       id="path150" /><path
       d="m 18.23,98.35 0.58,0.11"
       id="path151" /><path
       d="m 16.17,99.14 1.78,0.29 0.28,-1.08 -1.83,-0.29 -0.23,1.08"
       id="path152" /><path
       d="m 27.82,98.12 -0.59,1.24"
       id="path153" /><path
       d="M 25.77,94.2 23.92,93.22 23.82,93.2 23.33,93.12"
       id="path154" /><path
       d="M 24.89,80.72 22.14,80.27"
       id="path155" /><path
       d="m 28.55,87.02 0.28,-0.28 0.1,-0.09 0.26,-0.26 0.05,-0.28 -0.16,-0.3 -2.01,-2.2 -0.39,-0.1 -0.23,0.16 -0.21,0.3 -0.27,0.37"
       id="path156" /><path
       d="m 30.96,89.55 0.35,-0.17 0.16,-0.09 0.5,-0.3 0.26,0.25 0.55,0.5 1.43,-3.43 -0.97,-0.41 -1.27,3.09"
       id="path157" /><path
       d="m 42.17,94.13 3.72,1.76"
       id="path158" /><path
       d="m 48.47,96.14 -2.2,-1.04 -3.7,-1.81"
       id="path159" /><path
       d="m 45.01,97.71 0.88,-1.82 0.38,-0.79"
       id="path160" /><path
       d="m 39.91,58.01 0.6,0.47 0.12,0.1 1.15,0.92 -0.19,0.21 0.78,0.58"
       id="path161" /><path
       d="m 35.26,98.13 -0.28,-0.14 -1.56,-0.81 0.21,-0.1 0.45,-0.21 0.53,-0.47 0.96,-1.19 0.86,-0.22 0.12,0.02"
       id="path163" /><path
       d="M 33.63,97.08 33.4,95.87 33.55,94.75 33.23,93.44"
       id="path164" /><path
       d="m 33.42,97.18 -0.6,-0.04 -0.81,0.3 -0.08,0.03"
       id="path165" /><path
       d="M 33.49,29.38 33.24,29.34 30.57,28.89 27.84,28.44 27.38,28.35 26.86,28.27 21.63,27.38 16.5,26.52 16.01,26.43 15.48,26.35 12.81,25.89 9.45,25.32 5.86,24.72 3.66,24.29 2.62,24.11 1.89,23.99"
       id="path166" /><path
       d="m 35.79,17.23 0.45,1.25 4.67,6.88 5.23,7.69"
       id="path167" /><path
       d="m 58.36,51.11 -0.36,0.46 -1.89,2.48 -2.98,3.9 -0.44,0.58 -0.42,0.56 -5.16,6.79 -0.44,0.6"
       id="path168" /><path
       d="m 65.13,45.4 1.53,2.33 2.54,3.65 0.23,0.32 0.23,0.35 2.96,4.43 0.29,0.43 0.23,0.36 3.08,4.57 0.29,0.43 0.21,0.32 0.55,0.81 4,5.88 0.29,0.43"
       id="path169" /><path
       d="m 65.4,80.54 1.08,-0.48 2.98,-2.15 4.87,-3.27 3.63,-2.47 2.87,-1.96 0.73,-0.5"
       id="path170" /><path
       d="M 69.67,109.37 64.95,97.97 64.8,97.72"
       id="path171" /><path
       d="m 49.31,104.72 3.87,-1.71 0.2,-0.09 4.09,-1.87 3.96,-1.79 3.37,-1.54"
       id="path172" /><path
       d="m 81.56,69.71 0.18,0.26 1.11,1.64 3.74,5.55 0.28,0.4 0.19,0.29 1.48,2.19"
       id="path173" /><path
       d="m 58.28,35.32 0.43,-0.3 3.1,-2.13 3.21,-2.23 0.33,-0.24 0.39,-0.26 3.12,-2.11 3.25,-2.2 0.45,-0.31 0.42,-0.27 3.23,-2.13 2.16,-1.46 1.26,-0.84"
       id="path174" /><path
       d="M 63.44,42.77 60.57,38.65 58.56,35.73 58.28,35.32"
       id="path175" /><path
       d="m 48.16,20.39 3.55,-2.42 3.5,-2.39 2.76,-1.87 0.86,-0.58 3.65,-2.47 3.57,-2.48 3.45,-2.34 3.48,-2.36 3.61,-2.5 2.93,-2.03 2.96,-2.03 2.83,-1.95 4.7,-3.23"
       id="path176" /><path
       d="M 48.16,20.39 47.98,20.1 42.86,12.59 38.89,6.7 38.38,5.96"
       id="path177" /><path
       d="M 100.84,75.33 97.41,70.34 92.1,62.52 87.28,55.39 87.05,55.05 83.46,49.74 80.01,44.6 76.19,38.97 75.74,38.3 75.36,37.73 72.39,33.36 72.14,33"
       id="path178" /><path
       d="m 93.49,84.25 -0.56,0.68 -1.77,2.19 -1.78,2.12 -1.53,1.85 -3.13,3.72 -0.4,0.48 -0.29,0.38 -0.19,0.25 -9.9,4.51"
       id="path179" /><path
       d="m 85.46,21.5 5.33,7.94"
       id="path181" /><path
       d="m 30.37,88.95 0.22,-0.36 0.04,-0.09 0.7,-1.62 0.48,-1.09 0.51,-1.16 0.33,0.14"
       id="path182" /><path
       d="m 38.02,4.83 0.1,-0.97"
       id="path184" /><path
       d="M 38.02,4.83 37.39,4.62 37.3,4.59"
       id="path185" /><path
       d="M 38.38,5.96 38.33,5.78 38.02,4.83"
       id="path186" /><path
       d="M 33.76,29.5 33.49,29.38"
       id="path187" /><path
       d="m 33.76,29.5 0.56,0.19 0.15,0.05"
       id="path188" /><path
       d="M 33.97,30.86 33.76,29.5"
       id="path189" /><path
       d="M 21.85,34.06 21.86,34 21.91,33.62 21.81,33.18 21.64,32.9 21.58,32.81 21.23,32.53 20.87,32.41 20.81,32.39 H 20.4 l -0.39,0.13 -0.14,0.1 -0.19,0.15 -0.24,0.34 -0.09,0.31 -0.03,0.08 0.02,0.41 0.13,0.39 0.22,0.28 0.04,0.04 0.34,0.23 0.4,0.11 0.44,-0.03 0.41,-0.17 0.07,-0.07 0.26,-0.23 0.2,-0.4"
       id="path190" /><path
       d="m 26.76,28.69 0.1,-0.42 0.16,-0.6 0.45,0.08 0.49,0.11"
       id="path191" /><path
       d="m 16.5,26.99 v -0.47 l 0.01,-0.54"
       id="path192" /><path
       d="m 24.78,40.48 0.55,0.12 0.49,0.08"
       id="path193" /><path
       d="m 33.81,91.92 -0.2,-0.36 -0.25,-0.51"
       id="path194" /><path
       d="m 63.55,94.72 -7.37,3.3"
       id="path195" /><path
       d="m 58.91,83.5 -0.14,-0.25 -3.72,-1.83 -5.98,-3"
       id="path196" /><path
       d="m 28.49,66.45 0.02,-0.13 -0.23,-0.04"
       id="path197" /><path
       d="m 26.67,70.1 0.79,0.12"
       id="path198" /><path
       d="m 27.7,69.4 -0.24,0.82"
       id="path199" /><path
       d="m 27.26,66.1 -0.08,0.52 -0.03,0.21"
       id="path200" /><path
       d="m 26.77,69.29 -0.1,0.81"
       id="path201" /><path
       d="m 28.15,66.99 0.13,-0.71"
       id="path202" /><path
       d="m 27.15,66.83 1,0.16"
       id="path203" /><path
       d="m 28.49,66.45 -0.04,0.28 0.25,0.03 0.06,-0.34 -0.05,-0.35 -0.14,-0.23"
       id="path204" /><path
       d="m 35.89,14.29 0.1,-0.5"
       id="path205" /><path
       d="m 36.85,13.33 -0.08,0.59"
       id="path206" /><path
       d="M 35.27,17.23 35.04,17.2 35.02,17.38"
       id="path207" /><path
       d="M 38.35,7.08 38.75,7.81 38.43,7.98 37.74,7.86 37.7,8.02"
       id="path208" /><path
       d="M 36.09,16.71 36.3,16.68"
       id="path209" /><path
       d="m 35.99,13.79 0.78,0.13"
       id="path210" /><path
       d="M 38.89,6.7 38.35,7.08"
       id="path211" /><path
       d="m 35.48,50.98 0.2,0.29 0.12,0.17 0.74,1.08"
       id="path212" /><path
       d="m 37.65,6.75 0.09,-0.53 0.11,-0.43 0.17,-0.47 0.18,-0.37 0.21,-0.34 0.27,-0.37 0.33,-0.36 0.5,-0.4 0.52,-0.4"
       id="path213" /><path
       d="M 39.84,2.82 39.4,3.15 39.04,3.42 38.73,3.7 38.44,4.01 37.96,4.7 37.83,4.96 37.71,5.22 37.58,5.55 37.46,5.98 37.33,6.74"
       id="path214" /><path
       d="m 26.09,77.5 0.37,-2.4"
       id="path216" /><path
       d="m 26.21,75.04 -0.39,2.42"
       id="path217" /><path
       d="m 40.03,3.08 1.2,-0.88 1.21,-0.84 2.23,-1.63 3.54,-2.51 1.83,-1.31 1.67,-1.21 5.49,-3.94"
       id="path219" /><path
       d="m 57.06,-9.45 -5.53,3.96 -1.65,1.19 -1.84,1.32 -3.48,2.46 -2.24,1.64 -1.31,0.89 -1.17,0.81"
       id="path220" /><path
       d="m 34.75,79.9 -0.32,-0.08 -1,-0.25 -0.4,0.28 -0.47,1.11 -0.22,1.35 0.21,0.72 0.37,0.26 0.28,0.19"
       id="path223" /><path
       d="M 28.75,69.26 27.87,69.13"
       id="path224" /><path
       d="m 57.26,22.76 1.26,1.84"
       id="path225" /><path
       d="m 31.19,96.92 0.27,0.63 0.93,1.97 1.16,2.7 0.35,0.84 2.94,7.33 1.61,3.86 3.29,7.85"
       id="path226" /><path
       d="m 74.89,28.28 0.09,-0.09 0.21,-0.21 3.15,-4.22 0.93,-1.26 0.54,-0.72 0.06,-0.09"
       id="path227" /><path
       d="m 79.87,21.69 0.28,-0.44 0.21,-0.32"
       id="path228" /><path
       d="m 80.36,20.93 0.3,-0.45"
       id="path229" /><path
       d="m 80.66,20.48 0.44,-0.62 0.68,-0.94"
       id="path230" /><path
       d="M 81.78,18.92 81.77,18.77"
       id="path231" /><path
       d="m 84.83,13.92 0.21,-0.34 0.26,-0.42"
       id="path232" /><path
       d="m 85.3,13.16 0.11,-0.1 0.17,-0.15 5.79,-8.96 1.7,-1.96 L 93.06,1.83 92.81,1.61 92.68,1.63 82.39,8.72 82.31,8.77"
       id="path233" /><path
       d="M 82.31,8.77 81.97,9 81.62,9.23"
       id="path234" /><path
       d="M 85.51,13.14 85.41,13.06 85.21,12.93 82.39,8.72 82.33,8.63"
       id="path235" /><path
       d="m 74.89,28.28 -0.27,0.34 -0.26,0.32"
       id="path236" /><path
       d="m 75.05,28.29 -0.07,-0.1 -1.69,-2.45 -0.08,-0.12 -0.05,-0.08"
       id="path237" /><path
       d="M 73.16,25.54 72.98,25.27 72.81,25.03"
       id="path238" /><path
       d="m 75.05,28.29 0.26,0.4 0.22,0.33"
       id="path239" /><path
       d="m 75.6,29.37 0.06,-0.16 0.09,-0.3 4.83,-6.44 0.21,-0.12"
       id="path240" /><path
       d="m 80.79,22.35 0.16,-0.3 0.16,-0.27"
       id="path241" /><path
       d="m 81.11,21.78 0.07,-0.29 1.55,-2.4 3.75,-2.5 0.13,-0.08"
       id="path242" /><path
       d="M 86.04,15.97 85.41,15.18 85.27,15"
       id="path243" /><path
       d="M 85.27,15 85.04,14.59 84.82,14.18"
       id="path244" /><path
       d="M 84.82,14.18 84.74,14.06 83.61,12.35"
       id="path245" /><path
       d="M 83.61,12.35 83.48,12.16 83.35,11.95"
       id="path246" /><path
       d="m 85.53,14.98 -0.12,0.2"
       id="path247" /><path
       d="M 94.71,-0.92 94.65,-0.75 94.58,-0.6 92.37,0.9 81.92,8.02 81.84,8.07"
       id="path248" /><path
       d="m 75.53,29.02 0.13,0.19 1.66,2.51"
       id="path249" /><path
       d="m 75.6,29.37 -0.28,0.31 -0.27,0.3"
       id="path250" /><path
       d="m 77.32,31.72 0.2,0.23 0.16,0.18"
       id="path251" /><path
       d="m 73.14,25.67 0.07,-0.05 5.38,-3.69 0.77,-0.52 0.17,0.01 0.28,0.36"
       id="path252" /><path
       d="M 73.14,25.67 72.8,25.9 72.47,26.13"
       id="path253" /><path
       d="m 30.14,69.17 -0.11,0.81"
       id="path254" /><path
       d="m 29.2,102.82 0.02,-0.23 1.96,-4.39 0.08,-0.17"
       id="path255" /><path
       d="m 31.26,98.03 0.2,-0.48 0.21,-0.51"
       id="path256" /><path
       d="m 33.7,92.66 0.05,-0.16 0.15,-0.47 2.24,-5.08 0.18,-0.16"
       id="path257" /><path
       d="M 33.05,91.27 32.93,91.64 32.81,92"
       id="path258" /><path
       d="m 33.36,91.05 -0.14,-0.09 -0.17,0.31"
       id="path259" /><path
       d="m 32.81,92 -0.07,0.15 -0.13,0.27 -2.84,6.46 -0.04,0.08"
       id="path260" /><path
       d="m 32.72,92.47 0.19,0.68 0.15,0.45"
       id="path261" /><path
       d="m 33.06,93.6 0.1,0.03"
       id="path262" /><path
       d="m 33.48,93.39 0.12,-0.35 0.1,-0.38"
       id="path263" /><path
       d="m 33.42,93.52 0.06,-0.13"
       id="path264" /><path
       d="m 36.55,95.01 0.18,0.02 0.18,0.02"
       id="path265" /><path
       d="m 31.71,96.94 0.22,0.53 0.71,1.56 0.06,0.14"
       id="path266" /><path
       d="m 32.64,99.03 2.25,-0.85 0.09,-0.19 0.07,-0.15 0.97,-2.01 0.41,-0.84 -3.01,-1.47 -0.19,-0.08 -0.07,0.19 -1.45,3.31 -0.04,0.1"
       id="path267" /><path
       d="m 32.61,92.42 0.11,0.05"
       id="path268" /><path
       d="m 29.73,98.96 -0.09,0.2 -0.03,0.19"
       id="path269" /><path
       d="M 33.9,92.03 33.81,91.92"
       id="path270" /><path
       d="m 36.32,86.79 0.09,-0.27 0.09,-0.27"
       id="path271" /><path
       d="m 36.5,86.25 0.04,-0.16 0.03,-0.1 2.03,-4.56 0.16,-0.12"
       id="path272" /><path
       d="m 38.76,81.31 0.1,-0.28 0.1,-0.27"
       id="path273" /><path
       d="m 38.96,80.76 v -0.11 l -0.01,-0.12 2.24,-4.98 0.16,-0.36 0.14,0.07 7.1,3.44"
       id="path274" /><path
       d="m 48.59,78.7 0.3,0.15 0.28,0.14"
       id="path275" /><path
       d="m 41.19,75.55 -0.37,-0.4 -0.38,-0.41"
       id="path276" /><path
       d="m 41.49,75.26 0.19,-0.4 0.17,-0.37"
       id="path277" /><path
       d="m 38.96,80.65 7.21,3.47"
       id="path278" /><path
       d="m 46.17,84.12 0.34,0.15 0.29,0.13"
       id="path279" /><path
       d="m 41.85,74.49 -0.16,-0.1 0.05,-0.12 0.58,-1.26 4.4,-5.81 0.18,-0.16"
       id="path280" /><path
       d="m 46.9,67.04 0.19,-0.23 0.21,-0.25"
       id="path281" /><path
       d="m 47.3,66.56 0.05,-0.23 0.22,-0.29 5,-6.55 0.47,0.06 1.47,2.31"
       id="path282" /><path
       d="m 52.88,59.31 0.16,-0.25 0.13,-0.22"
       id="path283" /><path
       d="m 53.48,58.28 4.79,-6.25 0.07,0.02 0.12,-0.01 0.06,-0.03 0.07,-0.06"
       id="path284" /><path
       d="m 58.59,51.95 0.19,-0.22 0.23,-0.28"
       id="path285" /><path
       d="m 59.01,51.45 -0.03,-0.25 0.01,-0.12 0.04,-0.1 0.07,-0.11 3.81,-4.99 0.57,-0.34"
       id="path286" /><path
       d="m 64.55,45.61 0.5,-0.18"
       id="path287" /><path
       d="m 66.13,44.19 3.4,-1.67 2.69,-1.39"
       id="path288" /><path
       d="m 72.22,41.13 0.27,-0.16 0.27,-0.15"
       id="path289" /><path
       d="M 63.12,45.03 63.4,45.4"
       id="path290" /><path
       d="m 63.65,42.63 -0.21,0.14 -0.29,0.2"
       id="path291" /><path
       d="M 64.82,42.64 65.3,42.7"
       id="path292" /><path
       d="m 65.87,43.66 0.2,0.4"
       id="path293" /><path
       d="m 65.99,45.06 4,5.9"
       id="path294" /><path
       d="m 69.99,50.96 0.16,0.25 0.16,0.24"
       id="path295" /><path
       d="m 64.37,45.67 0.16,0.31 1.26,2.04 0.02,0.04"
       id="path296" /><path
       d="m 65.81,48.06 0.11,0.17 0.11,0.16"
       id="path297" /><path
       d="m 69.11,41.93 0.42,0.59 0.25,0.37"
       id="path298" /><path
       d="M 59.1,50.87 58.97,50.74"
       id="path299" /><path
       d="M 58.27,52.03 58.18,51.87"
       id="path300" /><path
       d="m 64.31,42.57 -0.15,-0.08 3.55,-4.65 0.39,-0.53 0.36,-0.48 0.34,-0.47 0.05,-0.06 0.05,-0.07"
       id="path301" /><path
       d="m 68.9,36.23 0.19,-0.25 0.23,-0.29"
       id="path302" /><path
       d="M 63.69,42.59 61.04,38.65"
       id="path303" /><path
       d="M 61.04,38.65 60.9,38.43 60.78,38.24"
       id="path304" /><path
       d="m 63.15,42.97 -0.06,0.06 0.35,0.56 -0.71,0.96"
       id="path305" /><path
       d="m 61.27,44.96 -0.2,0.11 -0.24,0.14"
       id="path306" /><path
       d="M 63.09,43.03 58.26,35.86"
       id="path307" /><path
       d="m 65.3,42.7 0.19,0.06"
       id="path308" /><path
       d="M 65.6,43.12 65.55,42.95"
       id="path309" /><path
       d="m 69.52,37.15 -0.07,0.08 -0.04,0.06 -3.92,5.47 v 0.07 l 0.06,0.12 0.13,-0.05 0.19,-0.06 5.43,-2.91 0.08,-0.04"
       id="path310" /><path
       d="m 71.38,39.89 0.27,-0.15 0.27,-0.14"
       id="path311" /><path
       d="m 71.3,39.93 -1.85,-2.7"
       id="path312" /><path
       d="m 69.52,37.15 0.2,-0.25 0.19,-0.25"
       id="path313" /><path
       d="m 69.91,36.65 0.09,-0.12 2.09,-2.75 0.07,-0.1"
       id="path314" /><path
       d="m 72.16,33.68 0.23,-0.32 0.16,-0.21"
       id="path315" /><path
       d="m 71.92,39.6 0.1,-0.06 2.95,-1.6 0.06,-0.04"
       id="path316" /><path
       d="m 75.03,37.9 0.33,-0.17 0.26,-0.15"
       id="path317" /><path
       d="m 70,36.53 1.1,1.64 0.92,1.37"
       id="path318" /><path
       d="m 57.28,48.51 0.08,0.14 0.75,1.33 0.2,0.14 0.18,0.12"
       id="path319" /><path
       d="m 57.28,48.51 -0.36,-0.5 -0.39,-0.55"
       id="path320" /><path
       d="m 58.17,50.23 0.14,-0.11 0.19,-0.17 0.62,-0.8 1.42,-1.81 -0.02,-0.15 -0.14,-0.06 -1.95,0.98 -1.07,0.54 -0.19,0.09"
       id="path321" /><path
       d="m 57.17,48.74 -0.28,0.18 -0.25,0.15"
       id="path322" /><path
       d="m 58.17,50.23 -0.2,0.28 -0.16,0.24"
       id="path323" /><path
       d="m 57.81,50.75 -0.06,0.12 -0.07,0.15 -4.91,6.59"
       id="path324" /><path
       d="m 52.56,57.74 -0.23,0.27 -0.18,0.23"
       id="path325" /><path
       d="m 52.88,57.72 0.25,0.23 0.29,0.29"
       id="path326" /><path
       d="m 58.01,47.48 0.42,0.63 0.69,1.04 0.33,0.48"
       id="path327" /><path
       d="m 69.32,35.69 0.05,-0.05 0.18,-0.18 4.77,-6.39 0.04,-0.13"
       id="path328" /><path
       d="m 75.05,29.98 -0.13,0.08 -0.14,0.08 -2.12,2.88 -0.11,0.13"
       id="path329" /><path
       d="m 74.36,29.19 0.26,0.45 0.2,0.34"
       id="path330" /><path
       d="m 74.36,29.19 -0.04,-0.12 -0.08,-0.22 -0.73,-1.02 -1.15,-1.62 -0.07,-0.1"
       id="path331" /><path
       d="m 72.47,26.13 -0.11,0.08 -6.38,4.34 -0.1,0.06"
       id="path332" /><path
       d="m 65.88,30.61 -0.27,0.18 -0.23,0.15"
       id="path333" /><path
       d="M 72.29,26.11 72.11,25.85 71.97,25.64"
       id="path334" /><path
       d="m 74.82,29.98 0.1,0.08 0.14,0.1 3.76,5.55 0.07,0.1"
       id="path335" /><path
       d="m 78.89,35.81 0.37,0.54 0.33,0.52"
       id="path336" /><path
       d="m 75.62,37.58 0.13,-0.07 3.07,-1.8 0.07,-0.05"
       id="path337" /><path
       d="m 78.89,35.66 0.36,-0.21 0.35,-0.21"
       id="path338" /><path
       d="m 72.09,33.78 0.21,0.09 2.67,4.07"
       id="path339" /><path
       d="m 72.22,36.81 -0.45,0.86 -0.67,0.5 -0.34,0.27"
       id="path340" /><path
       d="m 77.68,32.13 0.06,0.2 1.97,2.82 -0.11,0.09"
       id="path341" /><path
       d="m 72.66,33.02 3.09,4.49"
       id="path342" /><path
       d="M 81.84,8.07 81.51,8.29 81.17,8.53"
       id="path343" /><path
       d="M 82.33,8.63 82.18,8.41 81.99,8.12"
       id="path344" /><path
       d="M 81.99,8.12 81.92,8.02 79.8,4.96 79.87,4.75 92.26,-3.69"
       id="path345" /><path
       d="M 79.87,4.75 79.64,4.51 79.41,4.28"
       id="path346" /><path
       d="m 79.63,20.2 2.14,-1.43 2.97,-4.71 0.09,-0.14"
       id="path347" /><path
       d="m 79.63,20.2 -0.29,0.19 -0.38,0.24"
       id="path348" /><path
       d="m 41.74,74.27 -0.35,-0.34 -0.43,-0.4"
       id="path349" /><path
       d="M 46.72,67.2 46.31,66.95 45.88,66.68"
       id="path350" /><path
       d="M 47.57,66.04 47.11,65.88 46.65,65.72"
       id="path351" /><path
       d="M 52.43,59.36 52.27,59.09 52.09,58.82"
       id="path352" /><path
       d="m 52.15,58.24 v 0.12 l -0.03,0.05 -0.14,0.26 0.11,0.15"
       id="path353" /><path
       d="m 58.97,50.74 -0.2,-0.2 -0.28,-0.3"
       id="path354" /><path
       d="M 58.18,51.87 58,51.57 57.76,51.17"
       id="path355" /><path
       d="M 57.76,51.17 57.68,51.02"
       id="path356" /><path
       d="m 58.63,46.29 -2.2,1.06"
       id="path357" /><path
       d="m 56.21,47.37 -0.26,0.15 -0.27,0.15"
       id="path358" /><path
       d="m 56.53,47.46 -0.1,-0.11 -0.19,-0.21"
       id="path359" /><path
       d="m 66.02,43.48 0.15,-0.07 2.94,-1.48 2.97,-1.55 3.66,-2.08 0.44,-0.25 2.93,-1.61"
       id="path360" /><path
       d="m 79.11,36.44 0.15,-0.09 0.43,-0.24 0.59,-0.34"
       id="path361" /><path
       d="m 80.28,35.77 3.53,-2.05 3.54,-2.13 2.1,-1.31 1.34,-0.84"
       id="path362" /><path
       d="m 61.5,45.78 -1.62,0.8"
       id="path363" /><path
       d="m 58.01,47.48 -1.09,0.53 -0.11,0.05"
       id="path364" /><path
       d="m 55.99,48.45 0.45,-0.21"
       id="path365" /><path
       d="m 48.99,51.75 7,-3.3"
       id="path366" /><path
       d="m 47.72,52.4 0.22,-0.11 0.38,-0.19 0.67,-0.35"
       id="path367" /><path
       d="m 38.52,59.66 1.39,-1.65 0.24,-0.25"
       id="path368" /><path
       d="m 38.45,60.29 0.05,-0.47 0.02,-0.16"
       id="path369" /><path
       d="m 88.32,75.41 -3.48,-5.02 -0.16,-0.05 -0.91,0.64 -0.17,0.11 -0.75,0.52"
       id="path370" /><path
       d="m 35.59,17 0.2,0.23"
       id="path371" /><path
       d="m 34.75,16.5 0.24,0.04 0.43,0.27 0.17,0.19"
       id="path372" /><path
       d="m 58.56,28.06 3.56,-2.39"
       id="path373" /><path
       d="m 62.01,63.68 0.22,-0.17 -0.07,-0.46 0.03,-0.47 0.06,-0.33 0.52,-0.68"
       id="path374" /><path
       d="m 63.34,61 -0.02,-0.22 -0.08,-0.2 -0.15,-0.16 -0.19,-0.1 -0.21,-0.03 -0.22,0.04 -0.18,0.1 -0.13,0.15 -0.09,0.19 -0.01,0.21 0.04,0.2 0.11,0.17 0.16,0.13 0.19,0.08 0.21,0.01 0.21,-0.06 0.17,-0.13 0.13,-0.17 0.06,-0.21"
       id="path375" /><path
       d="m 58.88,59.52 0.41,-0.28 2.37,1.85 0.55,0.26"
       id="path376" /><path
       d="m 62.41,57.1 -0.33,0.33 -0.01,3.34"
       id="path377" /><path
       d="m 62.98,61.51 1.96,0.09 0.37,-0.26"
       id="path378" /><path
       d="m 39.81,93.6 0.77,-1.69 2.15,0.98"
       id="path379" /><path
       d="m 53.97,92.74 -0.42,0.34 -0.84,0.9 -0.77,0.8 -0.65,0.98 -1.34,1.78 -0.57,0.66 -0.73,0.63 1.08,2.24 -1.07,0.51 -0.06,0.02 -0.51,0.2"
       id="path380" /><path
       d="m 56.44,48.24 0.45,0.68 1.08,1.59 0.39,0.6"
       id="path381" /><path
       d="m 56.81,48.06 -0.37,0.18"
       id="path382" /><path
       d="m 59.88,46.58 -0.74,0.35 -1.13,0.55"
       id="path383" /><path
       d="m 62.42,45.68 -2.11,2.8 -0.86,1.15 -0.68,0.91 -0.41,0.57"
       id="path384" /><path
       d="M 62.42,45.68 61.9,45.67 61.5,45.78"
       id="path385" /><path
       d="m 63.06,44.95 -0.64,0.73"
       id="path386" /><path
       d="m 29.72,54.06 0.78,0.01 0.5,0.01 0.12,-0.08 2.04,-1.45 2.32,-1.57 2.73,-1.85 2.85,-1.96"
       id="path387" /><path
       d="m 41.06,47.17 0.34,0.12 0.1,0.04 1.81,2.67 0.08,0.12 0.19,0.25 1.66,2.46 0.46,0.68"
       id="path388" /><path
       d="M 21.4,64.83 20.95,64.75 18.58,64.36 16.04,63.94 15.68,63.88 15.21,63.8 12.86,63.41 10.39,63.01 10.04,62.94 9.6,62.88 8.28,62.65 6.8,62.4 3.92,61.93 3.49,61.86 2.85,61.76 -0.14,61.31 -3.39,60.71 -3.99,60.62 -4.9,60.47 -5.62,60.36 -7.15,60.12"
       id="path389" /><path
       d="m 70.31,51.45 3.04,4.51 2.59,-1.73 -2.96,-4.35"
       id="path390" /><path
       d="m 72,56.91 v 0.25 l 0.16,0.26 0.15,0.14 0.18,0.05 0.65,-0.34 0.64,-0.38 v -0.17 l -0.01,-0.14 -0.1,-0.19 -0.18,-0.23 -0.14,-0.2 -0.73,0.52 -0.62,0.43"
       id="path391" /><path
       d="m 75.62,62.22 -0.02,0.12 -0.03,0.14 0.22,0.27 0.15,0.18 0.2,0.05 0.58,-0.39 0.63,-0.43 -0.02,-0.18 -0.03,-0.26 -0.22,-0.27 -0.1,-0.02 -0.16,-0.04 -0.6,0.45 -0.6,0.38"
       id="path392" /><path
       d="m 80.6,69.87 0.05,-0.11 0.03,-0.08 0.59,-0.4 0.64,-0.44 0.22,0.04 0.2,0.3 0.07,0.22 -0.04,0.14 -0.62,0.43 -0.62,0.42 L 81,70.35 80.93,70.32 80.83,70.21 80.6,69.87"
       id="path393" /><path
       d="m 86.49,78.24 -0.02,0.2 1.04,1.85 -1.6,1.12 -1.1,1.01 h -0.15 l -1.35,-1.87 -0.01,-0.2 2.89,-2.02 0.03,-0.16"
       id="path394" /><path
       d="m 87.9,80.73 4.54,3.74 0.02,0.21 -0.92,1.13 -0.82,0.96 -1.48,1.8 -0.09,0.09 -2.08,-1.68 -2.98,-2.51 -0.06,-0.15 1.48,-1.75 0.26,-0.25 1.97,-1.43 0.16,-0.16"
       id="path395" /><path
       d="m 76.71,64.13 3.78,5.54 0.16,0.09"
       id="path396" /><path
       d="m 82.09,68.7 -3.3,-4.74"
       id="path397" /><path
       d="m 78,71.54 2.46,-1.66 0.03,-0.21"
       id="path398" /><path
       d="m 81,70.35 -0.01,0.14 0.98,1.41 0.53,0.76"
       id="path399" /><path
       d="m 82.5,72.66 0.18,0.25"
       id="path400" /><path
       d="m 82.68,72.91 3.2,4.67 0.11,0.11"
       id="path401" /><path
       d="m 85.88,77.58 -2.56,1.77 -0.11,-0.02 -4.74,-6.96 0.01,-0.19 2.51,-1.69"
       id="path402" /><path
       d="m 88.74,75.66 1.05,-0.74 0.02,-0.13 -4.78,-7.01 -2.46,1.62 H 82.4"
       id="path403" /><path
       d="m 82.57,69.4 0.02,0.19 0.9,1.33"
       id="path404" /><path
       d="m 83.49,70.92 0.11,0.17 0.03,0.05 0.16,0.2"
       id="path405" /><path
       d="m 83.79,71.34 3.52,5.24"
       id="path406" /><path
       d="M 78.79,63.96 77.52,62.05 77.33,61.98"
       id="path407" /><path
       d="m 77.52,62.05 0.01,-0.12 2.36,-1.63 0.12,-0.02 4.52,6.62 0.05,0.12 -0.06,0.1 -2.43,1.58"
       id="path408" /><path
       d="m 72.32,57.7 3.11,4.59 0.17,0.05"
       id="path409" /><path
       d="m 73.78,56.72 h 0.16 l 3.06,4.57 -0.02,0.14"
       id="path410" /><path
       d="m 73.94,56.72 2.43,-1.68 0.16,0.08 2.94,4.39 0.01,0.1 -2.32,1.66 -0.16,0.02"
       id="path411" /><path
       d="m 69.75,59.49 3.1,4.53 0.1,0.04 2.45,-1.65 0.03,-0.12"
       id="path412" /><path
       d="m 72.31,57.56 0.01,0.14 -2.57,1.79"
       id="path413" /><path
       d="m 68.85,52.61 3,4.31 0.15,-0.01"
       id="path414" /><path
       d="m 68.85,52.61 -2.52,1.73 0.02,0.12 2.84,4.21 0.12,0.07 2.52,-1.67 0.02,-0.15"
       id="path415" /><path
       d="m 68.85,52.61 -0.24,-0.35 -0.11,-0.25 0.06,-0.17 0.64,-0.46 0.54,-0.37 0.25,-0.05"
       id="path416" /><path
       d="m 68.85,52.61 0.81,-0.56 0.64,-0.43 0.01,-0.17"
       id="path417" /><path
       d="m 69.99,50.96 0.42,-0.38 5.46,-3.78 -0.05,-0.16 -3.58,-5.33 -0.02,-0.18"
       id="path418" /><path
       d="m 82.09,68.7 0.04,0.18"
       id="path419" /><path
       d="m 76.44,63.7 -0.5,-0.77 -1.86,1.32"
       id="path420" /><path
       d="m 76.44,63.7 0.11,0.17 0.16,0.26"
       id="path421" /><path
       d="m 74.08,64.25 -0.14,0.11 -0.14,0.1"
       id="path422" /><path
       d="m 73.8,64.46 -0.43,0.33 1.72,2.53 2.65,4.03 0.26,0.19"
       id="path423" /><path
       d="m 66.03,48.39 2.29,3.47 0.18,0.15"
       id="path424" /><path
       d="m 68.32,51.86 -0.04,0.19 -2.33,1.57 -0.07,-0.01 -0.07,-0.02 -2.11,-3.06 -0.01,-0.19 0.59,-0.74 1.75,-1.21"
       id="path425" /><path
       d="m 65.82,43.57 0.2,-0.09"
       id="path426" /><path
       d="m 63.96,44.86 0.25,0.14 0.28,0.05 0.29,-0.05 0.26,-0.14 0.2,-0.22 0.11,-0.26 0.02,-0.29 -0.08,-0.28 -0.17,-0.24 -0.28,-0.19"
       id="path427" /><path
       d="m 64.76,42.63 -0.3,0.32 -0.14,0.38"
       id="path428" /><path
       d="M 64.84,43.38 64.78,43.02 64.76,42.63"
       id="path429" /><path
       d="m 65.35,44.38 0.16,-0.31 0.31,-0.5"
       id="path430" /><path
       d="m 65.82,43.57 -0.36,0.01 -0.34,-0.01"
       id="path431" /><path
       d="m 65.13,45.4 0.06,-0.37 0.05,-0.39"
       id="path432" /><path
       d="m 64.49,45.05 0.21,0.09 0.43,0.26"
       id="path433" /><path
       d="m 63.63,44.25 -0.24,0.26 -0.33,0.44"
       id="path434" /><path
       d="m 63.06,44.95 0.44,-0.01 0.46,-0.08"
       id="path435" /><path
       d="m 61.55,46.17 0.35,-0.5 0.26,-0.37"
       id="path436" /><path
       d="M 64.09,43.41 63.8,43.28 63.44,42.77"
       id="path437" /><path
       d="M 33.05,91.27 31.79,89.88"
       id="path438" /><path
       d="M 31.79,89.88 31.63,89.71 31.31,89.38 31.22,89.26"
       id="path439" /><path
       d="M 31.22,89.26 30.59,88.59 29.02,86.95"
       id="path440" /><path
       d="m 32.32,84.63 0.47,-1.07"
       id="path441" /><path
       d="m 33.03,82.99 1.3,-2.98"
       id="path442" /><path
       d="m 34.5,79.64 2.88,-6.16"
       id="path443" /><path
       d="M 37.38,73.48 38.34,70.9 40.93,67.49 40.9,67.35"
       id="path444" /><path
       d="m 41.34,67 0.21,0.01 1.86,-2.42 -0.08,-0.16 -4.76,-3.63 -0.19,0.04 -1.85,2.38 0.02,0.11 3.41,2.59 1.38,1.08"
       id="path445" /><path
       d="M 38.38,60.84 38.24,60.6 38.13,60.45"
       id="path446" /><path
       d="m 37.75,59.22 1.53,-1.61 v -0.22"
       id="path447" /><path
       d="m 31.33,54.32 6.42,4.9"
       id="path448" /><path
       d="M 31.33,54.32 31.12,54 30.81,53.57"
       id="path449" /><path
       d="m 30.81,53.57 -0.17,0.04 -0.2,-0.15 0.05,-0.93"
       id="path450" /><path
       d="m 30.81,53.57 0.1,-0.07 2.22,-1.45 4.49,-3.16"
       id="path451" /><path
       d="m 30.22,54.71 0.13,-0.07 5.22,3.89"
       id="path452" /><path
       d="m 30.22,54.71 -0.8,4.69"
       id="path453" /><path
       d="m 30.35,54.64 0.09,-0.35 0.06,-0.22 0.14,-0.46"
       id="path454" /><path
       d="m 29.33,54.56 0.3,0.05 0.59,0.1"
       id="path455" /><path
       d="m 39.28,57.39 0.16,-0.14 0.16,-0.14"
       id="path456" /><path
       d="m 37.75,59.22 0.75,0.6 0.44,0.3"
       id="path457" /><path
       d="m 38.94,60.12 0.14,0.1 4.5,3.39"
       id="path458" /><path
       d="m 46.65,65.72 -0.18,0.09 -2.24,-1.72 0.02,-0.1 5.51,-7.33 0.31,-0.32 0.31,-0.36"
       id="path459" /><path
       d="m 43.58,63.61 0.11,-0.01 2.78,-3.61"
       id="path460" /><path
       d="M 40.9,67.35 41.12,67.15 41.34,67"
       id="path461" /><path
       d="m 34.33,80.01 0.1,-0.19 0.07,-0.18"
       id="path462" /><path
       d="m 32.79,83.56 0.13,-0.27 0.11,-0.3"
       id="path463" /><path
       d="M 29.02,86.95 28.83,86.74 28.67,86.57"
       id="path464" /><path
       d="m 28.67,86.57 -2.2,-2.35"
       id="path465" /><path
       d="m 29.42,59.4 -0.3,1.76"
       id="path466" /><path
       d="m 32.61,84.95 0.04,-0.18 0.55,-1.29 1.55,-3.58"
       id="path467" /><path
       d="M 28.71,73.66 27.12,73.39"
       id="path468" /><path
       d="M 27.39,78.15 26.35,77.92"
       id="path469" /><path
       d="M 26.47,84.22 26.24,83.97 26.11,83.84"
       id="path470" /><path
       d="m 26.11,83.84 -0.53,-0.57 -0.06,-0.12 0.77,-4.9 0.06,-0.33"
       id="path471" /><path
       d="m 24.62,88.86 0.61,-3.7 0.09,-0.09 0.88,0.11 1.97,2.07 0.61,0.63 0.58,0.7 0.01,0.2"
       id="path472" /><path
       d="m 25.32,85.07 0.05,-0.48 0.12,-0.77 0.09,-0.55"
       id="path473" /><path
       d="M 26.5,84.91 25.97,84.34"
       id="path474" /><path
       d="M 25.97,84.34 25.49,83.82"
       id="path475" /><path
       d="m 24.14,84.42 0.12,0.02 0.39,0.05 0.19,0.02 0.15,0.01 0.15,0.04"
       id="path476" /><path
       d="M 25.49,83.82 25.07,83.06"
       id="path477" /><path
       d="m 24.26,84.44 0.06,-0.26"
       id="path478" /><path
       d="m 24.19,84.74 0.07,-0.3"
       id="path479" /><path
       d="m 24.32,84.18 0.52,-3.19"
       id="path480" /><path
       d="m 21.76,84.46 2.35,0.39 0.08,-0.11"
       id="path481" /><path
       d="m 24.84,80.99 0.05,-0.27 0.1,-0.57"
       id="path482" /><path
       d="m 24.99,80.15 0.3,-1.8 -0.15,-0.07 -2.34,-0.37"
       id="path483" /><path
       d="m 25.29,78.35 0.05,-0.34 0.02,-0.38"
       id="path484" /><path
       d="m 25.36,77.63 0.02,-0.09 0.45,-2.46 0.27,-1.57"
       id="path485" /><path
       d="M 27.9,69.53 H 27.78 L 27.22,69.52"
       id="path486" /><path
       d="m 26.35,77.92 0.77,-4.53"
       id="path487" /><path
       d="m 27.12,73.39 0.57,-3.5"
       id="path488" /><path
       d="m 30.14,69.17 -0.48,-0.11 -0.53,-0.09 -0.12,0.35"
       id="path489" /><path
       d="m 28.75,69.26 0.26,0.06"
       id="path490" /><path
       d="m 27.87,69.13 -0.04,0.2"
       id="path491" /><path
       d="m 27.69,69.89 0.09,-0.36 0.05,-0.2"
       id="path492" /><path
       d="m 27.87,69.13 0.32,-1.98"
       id="path493" /><path
       d="m 27.37,65.24 0.16,-0.19 0.58,-3.78"
       id="path494" /><path
       d="M 24.88,64.91 24.69,64.88 24.45,64.84"
       id="path495" /><path
       d="m 21.86,64.4 2.59,0.44"
       id="path496" /><path
       d="M 24.7,66.19 24.45,66.04 24.26,65.92"
       id="path497" /><path
       d="m 24.7,66.19 1.08,0.17 0.64,0.1 0.43,0.07 0.29,0.08"
       id="path498" /><path
       d="m 28.19,67.15 0.06,-0.35 0.17,-0.99"
       id="path499" /><path
       d="M 28.57,65.84 28.49,65.82 28.42,65.81"
       id="path500" /><path
       d="m 28.42,65.81 0.06,-0.39 0.12,-0.78 0.52,-3.48"
       id="path501" /><path
       d="m 28.11,61.27 0.51,-3.03 0.25,-1.51 0.12,-0.12 0.34,-1.95 v -0.1 l -0.07,-0.13 -0.05,-0.07"
       id="path502" /><path
       d="m 21.7,65.52 2.56,0.4"
       id="path503" /><path
       d="m 21.7,65.52 0.09,-0.63 0.06,-0.33 0.01,-0.16 -0.38,-0.08 -0.37,-0.06 -0.08,0.1 -0.08,0.39 -0.09,0.6 0.08,0.19 0.33,0.02 0.43,-0.04"
       id="path504" /><path
       d="M 38.13,60.45 35.57,58.53"
       id="path505" /><path
       d="m 39.6,57.11 1.74,-1.47 1.31,-1.03 1.33,-0.96 1.18,-0.77"
       id="path506" /><path
       d="m 39.08,60.22 0.33,-0.57 0.97,-1.05"
       id="path507" /><path
       d="m 40.38,58.6 0.13,-0.12 0.11,-0.07"
       id="path508" /><path
       d="m 40.62,58.41 1.19,-1.15 0.49,-0.32 h 0.16 l 2.37,1.82 1.64,1.23"
       id="path509" /><path
       d="m 38.57,60.8 0.19,-0.28 0.32,-0.3"
       id="path510" /><path
       d="m 48.29,51.27 1.39,-0.68 1.61,-0.76 4.01,-1.91 0.32,-0.21 0.06,-0.04"
       id="path511" /><path
       d="m 49.22,52.56 -0.44,0.19 -0.24,0.13"
       id="path513" /><path
       d="m 50.01,55.49 -0.06,-0.07 -1.19,1.55 -1.69,2.3 -0.2,0.12 h -0.08 l -3.71,-2.85 -0.1,-0.11 0.02,-0.11 0.97,-0.8 1.31,-0.88 0.2,-0.12"
       id="path514" /><path
       d="m 45.48,54.52 0.34,-0.19"
       id="path515" /><path
       d="m 45.82,54.33 2.44,-1.36 0.28,-0.09"
       id="path516" /><path
       d="m 47.6,51.55 0.28,-0.1 0.41,-0.18"
       id="path517" /><path
       d="m 47.6,51.55 -0.01,0.11 -0.02,0.08 0.37,0.55 0.39,0.53 0.21,0.06"
       id="path518" /><path
       d="m 45.16,52.88 0.08,-0.05 0.1,-0.07"
       id="path519" /><path
       d="m 45.34,52.76 2.12,-1.11 0.13,0.01"
       id="path520" /><path
       d="m 45.8,49.14 1.66,2.39 v 0.12"
       id="path521" /><path
       d="m 46.36,48.49 1.93,2.78"
       id="path522" /><path
       d="m 53.16,44.08 2.46,3.63"
       id="path523" /><path
       d="m 51.65,40.33 0.01,0.12 4.28,6.27"
       id="path524" /><path
       d="m 55.94,46.72 0.3,0.42"
       id="path525" /><path
       d="m 42.46,56.94 0.28,-0.2 0.24,-0.31"
       id="path526" /><path
       d="m 43.69,63.6 0.27,0.36 0.27,0.13"
       id="path527" /><path
       d="m 38.4,72.2 2.38,1.52 0.18,-0.19"
       id="path530" /><path
       d="m 37.94,73.18 0.12,-0.17 0.38,0.18 2.02,1.28 -0.02,0.27"
       id="path531" /><path
       d="m 40.46,74.47 0.19,-0.37 0.13,-0.38"
       id="path532" /><path
       d="m 41.85,74.49 2.2,1.12 0.26,0.02 1.62,-2.3"
       id="path533" /><path
       d="m 35.21,79.57 2.82,0.59 0.07,-0.1 2.34,-5.32"
       id="path534" /><path
       d="m 34.86,80.33 2.69,0.54 0.09,0.17 -1.64,3.77"
       id="path535" /><path
       d="m 37.55,80.87 0.27,-0.35 0.21,-0.36"
       id="path536" /><path
       d="m 29.99,89.22 2.75,2.93"
       id="path537" /><path
       d="m 29.37,88.78 0.35,0.24 0.27,0.2"
       id="path538" /><path
       d="m 26.44,97 3.41,-7.66 0.14,-0.12"
       id="path539" /><path
       d="m 26.44,97 3.33,1.88"
       id="path540" /><path
       d="m 23.34,95.26 2.57,1.4"
       id="path541" /><path
       d="m 23.15,95.91 2.34,1.27 -0.94,4.11 -2.53,-0.45 -0.06,-0.09 1.09,-4.7 0.1,-0.14"
       id="path542" /><path
       d="m 23.34,95.26 0.41,-1.75 0.07,-0.31 0.4,-1.68 0.4,-2.66"
       id="path543" /><path
       d="m 19.98,93.19 2.38,1.36 0.23,0.11 0.48,-2.73 0.62,-3.57 0.52,-3.26 -0.1,-0.25"
       id="path544" /><path
       d="M 22.8,77.91 22.52,77.87 22.36,77.84"
       id="path545" /><path
       d="M 22.36,77.84 19.75,77.43"
       id="path546" /><path
       d="m 19.91,76.63 2.56,0.39"
       id="path547" /><path
       d="m 22.47,77.02 0.22,0.06 0.13,0.05"
       id="path548" /><path
       d="m 22.82,77.13 2.56,0.41"
       id="path549" /><path
       d="m 37.08,55.26 2.4,1.78 0.12,0.07"
       id="path550" /><path
       d="m 33.68,52.66 2.73,2.05"
       id="path551" /><path
       d="m 33.35,52.86 2.94,2.27 1.94,1.46"
       id="path552" /><path
       d="m 31.33,54.32 0.04,-0.19 1.98,-1.27"
       id="path553" /><path
       d="m 31.98,43.06 -0.31,1.6"
       id="path554" /><path
       d="m 31.67,44.66 0.04,0.3 -0.94,5.78 -0.28,1.79"
       id="path555" /><path
       d="m 31.98,43.06 0.27,-0.26 0.07,-0.54 0.04,-0.28 0.01,-0.15"
       id="path556" /><path
       d="m 32.37,41.83 5.79,-3.89"
       id="path557" /><path
       d="m 33.84,41.88 2.1,-1.45"
       id="path558" /><path
       d="m 35.94,40.43 0.12,-0.08 0.27,-0.19"
       id="path559" /><path
       d="m 36.33,40.16 2.34,-1.61"
       id="path560" /><path
       d="m 38.67,38.55 4.5,6.56"
       id="path561" /><path
       d="m 43.17,45.11 0.04,0.17 0.25,0.28 0.1,0.17 0.1,0.03 0.09,0.02 0.18,-0.13 0.28,-0.18 v -0.18 l -0.08,-0.19 -0.19,-0.32 -0.26,-0.08 -0.25,0.21 -0.26,0.2"
       id="path562" /><path
       d="m 35.21,79.57 v -0.12 l 1.18,-2.73 0.73,-1.64 0.82,-1.9"
       id="path563" /><path
       d="m 34.86,80.33 0.23,-0.36 0.12,-0.4"
       id="path564" /><path
       d="m 31.37,89.98 0.26,-0.27 0.13,-0.1 0.47,-0.37"
       id="path565" /><path
       d="m 23.34,95.26 -0.06,0.31 -0.13,0.34"
       id="path566" /><path
       d="m 25.91,96.66 0.3,0.19 0.23,0.15"
       id="path567" /><path
       d="m 33.68,52.66 2,-1.39 2.69,-1.86 2.96,-2 0.07,-0.12"
       id="path568" /><path
       d="m 34.3,43.85 3.31,4.89 v 0.06 l 0.01,0.09"
       id="path569" /><path
       d="m 36,84.81 -2.55,5.64 -0.23,0.51"
       id="path570" /><path
       d="m 36.54,86.09 7.14,3.45"
       id="path571" /><path
       d="m 33.75,92.5 1.65,0.85 1.83,0.84"
       id="path572" /><path
       d="m 31.18,98.2 0.25,0.04 1.73,4.12"
       id="path573" /><path
       d="m 46.65,65.72 2.23,-3.07 2.79,-3.59 0.31,-0.39"
       id="path574" /><path
       d="m 50.01,55.49 0.19,0.24 0.09,0.13"
       id="path575" /><path
       d="m 50.29,55.86 0.09,0.12 1.74,2.43"
       id="path576" /><path
       d="m 51.13,55.57 0.07,0.1 1.36,1.93 0.09,0.08"
       id="path577" /><path
       d="m 50.94,55.19 0.15,0.28"
       id="path578" /><path
       d="m 51.09,55.47 0.04,0.1"
       id="path579" /><path
       d="m 40.96,73.53 0.35,-0.81 3.16,-4.17 1.41,-1.87 0.06,-0.21 -2.16,-1.72"
       id="path580" /><path
       d="m 43.41,64.59 0.24,0.08 0.13,0.08"
       id="path581" /><path
       d="m 17.24,92.63 2.37,1.38 -0.03,0.16 -2.56,-0.39 0.22,-1.15"
       id="path582" /><path
       d="m 17.24,92.63 -0.36,-0.24 -0.25,-0.15 -0.14,-0.25 0.04,-0.26 0.06,-0.33 0.13,-0.04 0.29,0.18 0.23,0.14 0.05,0.16 -0.01,0.31 -0.02,0.31 -0.02,0.17"
       id="path583" /><path
       d="m 16.21,96.94 0.61,-2.4 2.65,0.45 0.04,0.1"
       id="path584" /><path
       d="m 17.02,93.78 -0.11,0.44 -0.09,0.32"
       id="path585" /><path
       d="m 19.87,95.07 2.5,0.39"
       id="path586" /><path
       d="m 19.51,95.09 0.12,-0.01 0.24,-0.01"
       id="path587" /><path
       d="m 22.59,94.66 -0.13,0.46 -0.09,0.34"
       id="path588" /><path
       d="m 22.37,95.46 0.38,0.22 0.4,0.23"
       id="path589" /><path
       d="m 22.59,94.66 0.34,0.27 0.41,0.33"
       id="path590" /><path
       d="m 33.01,90.22 0.44,0.23"
       id="path591" /><path
       d="m 16.24,39.55 -0.07,0.47 -0.21,1.24 0.04,0.28 0.16,0.22 2.43,0.44 0.62,0.11"
       id="path592" /><path
       d="m 25.81,66.23 -0.03,0.13 -0.02,0.12 0.35,0.06 0.04,0.2 0.03,0.1 0.03,0.09 0.1,0.22 0.22,0.03 0.05,-0.28 0.04,-0.27 0.47,0.08 0.02,-0.11 0.02,-0.14 -1.32,-0.23"
       id="path593" /><path
       d="m 26.42,66.46 -0.06,0.35 -0.18,0.03"
       id="path594" /><path
       d="m 26.18,66.84 -0.23,-0.02 -0.1,0.55 0.9,0.16"
       id="path595" /><path
       d="M 27.26,66.1 H 27.3"
       id="path596" /><path
       d="m 26.75,67.53 0.11,-0.55 0.16,0.03 h 0.05 l 0.08,0.02"
       id="path597" /><path
       d="M 27.15,66.83 26.73,66.77"
       id="path598" /><path
       d="M 26.86,66.98 26.7,66.95 26.73,66.77"
       id="path599" /><path
       d="m 26.36,66.81 0.22,0.09 0.15,-0.13"
       id="path600" /><path
       d="m 26.86,66.98 0.06,-0.13 0.17,0.02 0.08,0.01"
       id="path601" /><path
       d="m 26.85,68.28 0.22,-1.27 0.02,-0.14 0.05,-0.26"
       id="path602" /><path
       d="m 27.14,66.61 0.51,0.09 0.6,0.1"
       id="path603" /><path
       d="m 27.14,66.61 0.14,-0.81 0.06,-0.36"
       id="path604" /><path
       d="M 27.34,65.44 27.23,65.32"
       id="path605" /><path
       d="M 28.28,66.28 28.21,66.27"
       id="path607" /><path
       d="m 15.77,64.69 5.17,0.85"
       id="path608" /><path
       d="m 16.04,63.41 2.27,0.41"
       id="path609" /><path
       d="m 18.31,63.82 0.34,0.05 0.2,0.03"
       id="path610" /><path
       d="m 18.85,63.9 2.26,0.36"
       id="path611" /><path
       d="m 15.92,64.54 0.12,-0.6 0.07,-0.4"
       id="path612" /><path
       d="m 15.27,63.47 0.17,-0.14 0.32,0.06 0.19,0.03 0.16,0.12"
       id="path613" /><path
       d="m 15.27,63.47 -0.06,0.33 -0.11,0.58 0.11,0.22 0.34,0.06 0.22,0.03 0.15,-0.15"
       id="path614" /><path
       d="m 15.21,64.6 -5,-0.86"
       id="path615" /><path
       d="m 13.1,62.88 2.11,0.41 0.06,0.18"
       id="path616" /><path
       d="m 17.29,56.28 -1.14,7.01 -0.11,0.12"
       id="path617" /><path
       d="m 15.21,63.29 0.12,-0.16 1.75,-10.74"
       id="path618" /><path
       d="m 17.37,55.92 0.55,-3.38"
       id="path619" /><path
       d="m 17.29,56.28 0.03,-0.13 0.05,-0.23"
       id="path620" /><path
       d="m 17.29,56.28 2.27,0.42 -1.11,7.05 -0.14,0.07"
       id="path621" /><path
       d="M 20.01,56.37 18.85,63.9"
       id="path622" /><path
       d="m 20.01,56.37 -2.5,-0.45 h -0.14"
       id="path623" /><path
       d="m 21.11,64.26 1.22,-7.59 0.51,-3.14 -0.02,-0.21 -4.9,-0.78"
       id="path624" /><path
       d="m 23.68,53.5 2.78,0.47"
       id="path625" /><path
       d="m 23.68,53.5 -0.41,-0.07 -0.29,-0.06 -0.16,-0.05 0.07,-0.41 0.03,-0.24 0.08,-0.09 0.05,-0.07 0.35,0.06 0.36,0.08 0.04,0.16 -0.04,0.24 -0.05,0.28 -0.03,0.17"
       id="path626" /><path
       d="m 23.76,52.65 0.1,-0.19 0.64,-3.92 1.15,-7.02"
       id="path627" /><path
       d="m 23.05,52.51 0.4,-2.53"
       id="path628" /><path
       d="m 24.88,64.91 2.35,0.41 0.14,-0.08"
       id="path629" /><path
       d="m 36.41,54.71 0.39,0.32 0.28,0.23"
       id="path630" /><path
       d="m 36.41,54.71 0.23,-0.03 6.6,-4.51"
       id="path631" /><path
       d="m 37.08,55.26 0.01,-0.15 6.45,-4.42"
       id="path632" /><path
       d="M 45.16,52.88 43.66,50.7 43.54,50.69"
       id="path633" /><path
       d="M 43.24,50.17 43.22,50.05 41.48,47.49 41.33,47.41"
       id="path634" /><path
       d="m 38.04,48.31 0.12,0.17 2.09,-1.29 0.15,-0.24"
       id="path635" /><path
       d="m 38.04,48.31 -4.21,-6.29 0.01,-0.14"
       id="path636" /><path
       d="m 40.4,46.95 0.12,-0.08 0.21,-0.16"
       id="path637" /><path
       d="m 40.73,46.71 2.44,-1.6"
       id="path638" /><path
       d="m 41.67,47.12 v 0.18 l 1.78,2.62"
       id="path639" /><path
       d="M 43.22,50.05 43.31,50 43.45,49.92"
       id="path640" /><path
       d="m 43.45,49.92 1.96,-1.27"
       id="path641" /><path
       d="m 45.41,48.65 0.25,0.32 0.14,0.17"
       id="path642" /><path
       d="m 41.67,47.12 1.95,-1.24 0.04,-0.12"
       id="path643" /><path
       d="m 43.62,45.88 1.82,2.61 -0.03,0.16"
       id="path644" /><path
       d="m 40.45,37.28 -1.05,0.75 4.28,6.67 0.3,-0.18 0.52,-0.28 2.37,-1.69"
       id="path645" /><path
       d="m 46.87,42.55 0.23,-0.13 0.26,-0.14"
       id="path646" /><path
       d="m 47.36,42.28 3.15,-2.21"
       id="path647" /><path
       d="m 50.51,40.07 0.27,-0.19 0.26,-0.17"
       id="path648" /><path
       d="m 51.04,39.71 3.18,-2.15"
       id="path649" /><path
       d="m 54.22,37.56 0.17,-0.11 0.25,-0.17"
       id="path650" /><path
       d="m 54.64,37.28 3.16,-2.09 0.03,-0.08"
       id="path651" /><path
       d="m 57.83,35.11 0.18,-0.18 0.22,-0.23"
       id="path652" /><path
       d="m 58.23,34.7 0.24,-0.07 2.94,-1.99"
       id="path653" /><path
       d="m 61.41,32.64 0.16,-0.11 0.21,-0.13"
       id="path654" /><path
       d="m 61.78,32.4 3.04,-2.1 0.09,-0.06"
       id="path655" /><path
       d="m 64.91,30.24 0.22,-0.14 0.25,-0.16"
       id="path656" /><path
       d="m 65.38,29.94 0.16,-0.11 2.94,-1.97"
       id="path657" /><path
       d="m 68.48,27.86 0.17,-0.13 0.23,-0.17"
       id="path658" /><path
       d="M 68.88,27.56 69.86,26.9 71.9,25.54 72,25.47"
       id="path659" /><path
       d="M 69.86,26.9 68.94,25.17 68.77,24.85"
       id="path660" /><path
       d="m 66.82,24.36 1.01,1.52 1.03,1.56 0.02,0.12"
       id="path661" /><path
       d="m 67.83,25.88 0.66,-0.47 0.12,0.06 h 0.18 l 0.11,-0.13 0.04,-0.17"
       id="path662" /><path
       d="m 68.49,25.41 -0.05,-0.17 0.09,-0.23 0.24,-0.16"
       id="path663" /><path
       d="M 71.97,25.64 71.9,25.54 67.44,18.83"
       id="path664" /><path
       d="m 67.44,18.83 0.39,-0.22 0.37,-0.22"
       id="path665" /><path
       d="m 68.2,18.39 0.11,-0.07 2.97,-2.02 1.13,-0.77 2.17,-1.47 0.34,-0.24"
       id="path666" /><path
       d="m 74.58,14.06 4.38,6.47 v 0.1 0.06 l -2.99,2.02 -3.21,2.17"
       id="path667" /><path
       d="m 72,25.47 0.33,-0.25 0.43,-0.34"
       id="path668" /><path
       d="m 72.76,24.88 0.05,0.15"
       id="path669" /><path
       d="M 72.76,24.88 68.31,18.32"
       id="path670" /><path
       d="m 84.41,16.96 -0.2,-0.11 0.07,-0.14 1,-1.49 0.13,-0.04"
       id="path671" /><path
       d="m 84.41,16.96 1.63,-0.99"
       id="path672" /><path
       d="m 78.37,21.68 0.22,0.25 0.19,0.21 0.13,0.12 0.06,0.06 0.3,0.18 0.41,0.25"
       id="path673" /><path
       d="m 78.67,24.12 -0.33,-0.36 -0.49,-0.54 1.06,-0.96"
       id="path674" /><path
       d="m 31.81,85.79 -0.4,-1.25 -0.04,-0.2 0.22,-1.33"
       id="path675" /><path
       d="m 34.17,30.69 -0.05,0.38 -0.09,0.6"
       id="path676" /><path
       d="m 34.03,31.67 -0.09,0.16 -1.61,9.81 0.04,0.19"
       id="path677" /><path
       d="m 34.17,30.69 v -0.23 -0.1 l 0.04,-0.12 0.03,-0.13"
       id="path678" /><path
       d="m 34.24,30.11 0.08,-0.42 0.08,-0.52"
       id="path679" /><path
       d="m 34.21,30.24 2.23,-1.52"
       id="path680" /><path
       d="m 34.17,30.46 1.49,2.24 3.27,4.72 0.66,-0.36"
       id="path681" /><path
       d="m 34.03,31.67 4.15,6.15 -0.02,0.12"
       id="path682" /><path
       d="m 33.39,28.88 -0.15,0.46 -0.1,0.29"
       id="path683" /><path
       d="M 33.14,29.63 30.52,29.21"
       id="path684" /><path
       d="m 34.4,29.17 0.06,-0.29 0.29,-2.34 0.55,-3.49 0.35,-2.08 0.27,-1.83 0.2,-0.16 1.72,2.51 2.29,3.43 0.07,0.3 -5.5,3.76 -0.24,-0.1"
       id="path685" /><path
       d="M 63.55,94.72 62.29,91.56 58.91,83.5"
       id="path686" /><path
       d="m 49.07,78.42 -4.62,-2.26 -2.77,-1.3 -0.56,-0.38"
       id="path687" /><path
       d="m 41.1,96.5 1.07,-2.37 0.4,-0.84 0.16,-0.4 1.17,-2.76 2.42,-5.45 0.19,-0.41 1.21,-2.69 1.17,-2.73 0.18,-0.43"
       id="path688" /><path
       d="m 51.65,40.33 2.02,-1.35"
       id="path689" /><path
       d="m 49.73,101.07 2.15,-0.96 0.11,-0.05 1.52,-0.76 2.29,-1.1 0.38,-0.18"
       id="path690" /><path
       d="M 53.51,99.3 51.29,95.76"
       id="path691" /><path
       d="m 41.48,67.44 2.17,-2.77 0.15,-0.31"
       id="path692" /><path
       d="M 45.7,53.51 47.72,52.4"
       id="path693" /><path
       d="m 57.14,2.81 5.34,7.85 5.17,7.68 0.18,0.27 4.5,6.61 0.23,0.32 0.24,0.36 1.1,1.67 0.72,1.05 0.35,0.54"
       id="path694" /><path
       d="M 41.1,96.5 37.12,94.7"
       id="path695" /><path
       d="m 40.1,88.28 -2.68,6 -0.3,0.42"
       id="path696" /><path
       d="M 24.61,65.36 21.79,64.89 21.4,64.83"
       id="path697" /><path
       d="M 27.77,65.89 27.28,65.8 24.61,65.36"
       id="path698" /><path
       d="m 25.95,97.08 -0.14,0.12 -0.1,0.18 -0.5,1.98 -0.48,2.01 -0.08,0.34"
       id="path699" /><path
       d="m 17.61,28.94 0.1,1.23 0.06,0.7 v 0.65 l -0.01,0.6 -0.05,0.51 -0.09,0.44 -0.03,0.12"
       id="path700" /><path
       d="m 17.61,28.94 0.81,0.45 0.84,0.4 0.79,0.33 0.7,0.21 0.43,0.12"
       id="path701" /><path
       d="m 17.59,33.19 -0.19,1.17 -0.19,0.64 -0.25,0.68 -0.35,0.85 -0.28,0.6 -0.12,0.21"
       id="path702" /><path
       d="m 64.32,43.33 -0.23,0.08 -0.26,0.21 -0.16,0.3 -0.04,0.33"
       id="path703" /><path
       d="m 63.63,44.25 0.06,0.23 0.11,0.21 0.16,0.17"
       id="path704" /><path
       d="m 64.84,43.38 -0.25,-0.07 -0.27,0.02"
       id="path705" /><path
       d="m 60.52,47.19 0.33,0.04 0.7,-1.06"
       id="path706" /><path
       d="m 62.16,45.3 0.57,-0.75"
       id="path707" /><path
       d="m 57.36,74.94 0.14,-0.2 0.19,-0.27"
       id="path708" /><path
       d="m 58.59,75.1 -0.27,0.25 -0.2,0.19"
       id="path709" /><path
       d="m 58.02,74.42 0.37,0.24 0.22,0.14"
       id="path710" /><path
       d="m 58.61,74.8 0.07,0.05 -0.02,0.19 -0.07,0.06"
       id="path711" /><path
       d="m 58.12,75.54 -0.06,0.07 -0.1,-0.05"
       id="path712" /><path
       d="M 57.96,75.56 57.7,75.42 57.4,75.25"
       id="path713" /><path
       d="m 57.69,74.47 0.06,-0.09 0.17,-0.04 0.1,0.08"
       id="path714" /><path
       d="M 57.4,75.25 57.33,75.23 57.3,75.05 57.36,74.94"
       id="path715" /><path
       d="m 14.96,52.04 2.12,0.35"
       id="path716" /><path
       d="m 12.28,51.59 2.29,0.39"
       id="path717" /><path
       d="m 14.57,51.98 0.16,0.02 0.23,0.04"
       id="path718" /><path
       d="m 17.08,52.39 0.47,0.08 0.37,0.07"
       id="path719" /><path
       d="m 12.36,50.77 4.99,0.85"
       id="path720" /><path
       d="M 17.97,51.72 23,52.58"
       id="path721" /><path
       d="m 17.35,51.62 0.33,0.05 0.29,0.05"
       id="path722" /><path
       d="m 15.39,26.78 0.56,0.11 0.55,0.1"
       id="path723" /><path
       d="m 15.75,25.85 -0.17,0.13"
       id="path724" /><path
       d="M 16.51,25.98 16.1,25.92 15.75,25.85"
       id="path725" /><path
       d="M 21.59,27.87 16.5,26.99"
       id="path726" /><path
       d="m 15.58,25.98 -0.1,0.37 -0.09,0.43"
       id="path727" /><path
       d="m 25.65,41.52 -0.46,-0.08 -0.5,-0.1"
       id="path728" /><path
       d="m 25.82,40.68 -0.08,0.43 -0.09,0.41"
       id="path729" /><path
       d="m 21.39,34.69 0.16,0.23 3.23,5.56"
       id="path730" /><path
       d="m 24.69,41.34 0.01,-0.41 0.08,-0.45"
       id="path731" /><path
       d="m 31.28,41.6 -0.02,0.13 -0.05,0.35 -0.03,0.25 -0.01,0.09"
       id="path732" /><path
       d="M 31.28,41.6 29.23,41.26 28.79,41.18"
       id="path733" /><path
       d="M 28.3,41.13 27.79,41.04 25.82,40.68"
       id="path734" /><path
       d="M 28.79,41.18 28.7,41.17 28.59,41.16 28.38,41.14 28.3,41.13"
       id="path735" /><path
       d="M 31.17,42.42 28.64,42.04"
       id="path736" /><path
       d="M 28.17,41.96 25.65,41.52"
       id="path737" /><path
       d="m 28.64,42.04 -0.09,-0.01 -0.1,-0.02 -0.14,-0.03 -0.14,-0.02"
       id="path738" /><path
       d="m 31.28,41.6 0.21,0.04 0.27,0.05 0.5,0.11 0.11,0.03"
       id="path739" /><path
       d="m 31.17,42.42 0.12,0.04 0.3,0.26 0.39,0.34"
       id="path740" /><path
       d="m 38.16,48.48 -0.04,0.05 -0.22,0.14 -0.17,0.1 -0.12,0.03"
       id="path741" /><path
       d="m 33.35,52.86 0.12,-0.07 0.21,-0.13"
       id="path742" /><path
       d="m 30.44,53.46 -0.3,0.18 -0.34,-0.06 -0.27,-0.05 -0.19,0.07"
       id="path743" /><path
       d="m 29.34,53.6 -0.06,0.39 -0.07,0.37"
       id="path744" /><path
       d="m 19.8,1.09 0.33,0.05 0.43,0.08"
       id="path745" /><path
       d="M 20.56,1.22 20.49,1.73 20.43,2.15"
       id="path746" /><path
       d="M 20.43,2.15 19.98,2.07 19.62,2"
       id="path747" /><path
       d="M 19.64,1.19 19.51,1.56 19.38,1.91"
       id="path748" /><path
       d="m 17.22,0.77 0.17,0.03 2.25,0.39"
       id="path749" /><path
       d="m 17.1,1.55 2.28,0.36"
       id="path750" /><path
       d="M 19.64,1.19 19.8,1.09"
       id="path751" /><path
       d="M 19.38,1.91 19.62,2"
       id="path752" /><path
       d="M 17.1,1.55 16.79,1.5 16.47,1.44"
       id="path753" /><path
       d="M 16.47,1.44 13.94,1.06"
       id="path754" /><path
       d="m 82.23,19.01 2.2,-1.63 1.8,-1.15 0.44,-0.31 0.47,-0.31 13.64,-9.29 0.91,-0.62"
       id="path755" /><path
       d="m 82.23,19.01 -1.13,0.85 -1.47,0.98"
       id="path756" /><path
       d="M 31.44,3.57 28.58,3.12 25.67,2.6 22.88,2.15 20.49,1.73 20.05,1.65 19.51,1.56 16.85,1.12 14.03,0.66 13.56,0.58 12.86,0.46 10.7,0.1 10.1,0 9.9,-0.03 9.43,-0.11 7.75,-0.39 6.69,-0.58 5.95,-0.7 5.64,-0.76 5.25,-0.82 4.52,-0.95 3.84,-1.06"
       id="path758" /><path
       d="m 62.81,44.62 0.21,0.28"
       id="path759" /><path
       d="m 63.02,44.9 0.04,0.05 0.06,0.08"
       id="path760" /><path
       d="m 65.6,43.12 0.18,0.37"
       id="path761" /><path
       d="m 65.78,43.49 0.04,0.08 0.05,0.09"
       id="path762" /><path
       d="M 65.22,45.37 65.7,45.21"
       id="path763" /><path
       d="m 65.05,45.43 0.08,-0.03 0.09,-0.03"
       id="path764" /><path
       d="m 64.31,42.57 0.36,0.05"
       id="path765" /><path
       d="m 64.67,42.62 0.09,0.01 0.06,0.01"
       id="path766" /><path
       d="m 63.4,45.4 0.08,0.14 0.38,-0.06 0.29,0.03 0.22,0.16 0.18,-0.06"
       id="path767" /><path
       d="M 62.81,44.62 62.73,44.55 62.59,44.4 61.27,44.96"
       id="path768" /><path
       d="m 65.7,45.21 0.29,-0.15 -0.2,-0.3 0.08,-0.29 0.26,-0.28 -0.06,-0.13"
       id="path769" /><path
       d="m 64.16,42.49 -0.22,0.24 -0.25,-0.14 -0.04,0.04"
       id="path770" /><path
       d="m 52.43,59.36 0.14,0.13 0.31,-0.18"
       id="path771" /><path
       d="m 52.88,57.72 -0.11,-0.11 -0.12,0.07 -0.09,0.06"
       id="path772" /><path
       d="m 53.17,58.84 0.1,-0.28 0.21,-0.28 -0.06,-0.04"
       id="path773" /><path
       d="m 65.63,29.97 0.11,0.19 0.19,0.31"
       id="path774" /><path
       d="m 64.88,30.42 0.14,0.24 0.18,0.32"
       id="path775" /><path
       d="m 65.2,30.98 0.04,0.06 0.14,-0.1"
       id="path776" /><path
       d="m 64.82,30.3 0.06,0.12"
       id="path777" /><path
       d="m 65.54,29.83 0.09,0.14"
       id="path778" /><path
       d="m 65.93,30.47 0.05,0.08"
       id="path779" /><path
       d="m 58.83,35.53 -0.27,0.2 -0.26,0.1"
       id="path780" /><path
       d="M 57.84,35.24 57.8,35.19"
       id="path781" /><path
       d="m 58.47,34.63 0.09,0.15"
       id="path782" /><path
       d="m 58.56,34.78 0.15,0.24 0.16,0.26"
       id="path783" /><path
       d="M 58.21,35.79 58.02,35.5 57.84,35.24"
       id="path784" /><path
       d="m 58.3,35.83 -0.04,0.03 -0.05,-0.07"
       id="path785" /><path
       d="m 58.87,35.28 0.09,0.15 -0.13,0.1"
       id="path786" /><path
       d="m 48.54,52.88 -0.04,0.19 1.51,2.18 -0.06,0.17"
       id="path787" /><path
       d="m 50.94,55.19 -0.09,-0.14 -0.1,-0.15 -1.53,-2.34 1.14,-0.59 2.48,-1.22"
       id="path788" /><path
       d="m 56.43,47.35 -0.22,0.02"
       id="path789" /><path
       d="m 41.06,47.17 2.4,-1.61 0.28,-0.19 0.39,-0.27 3.25,-2.26"
       id="path790" /><path
       d="M 55.77,37.55 53.8,38.89"
       id="path791" /><path
       d="m 58.26,35.86 -2.15,1.46"
       id="path792" /><path
       d="m 56.11,37.32 -0.17,0.11 -0.17,0.12"
       id="path793" /><path
       d="m 53.67,38.98 0.05,-0.04"
       id="path794" /><path
       d="m 53.8,38.89 -0.08,0.05"
       id="path795" /><path
       d="m 58.96,35.43 6.28,-4.39"
       id="path796" /><path
       d="m 51.09,40.83 -0.15,0.07 -0.17,0.09 -0.28,0.18 -6.28,4.3 1.92,2.75 0.82,-0.53"
       id="path797" /><path
       d="m 51.57,40.5 -0.26,0.18 -0.22,0.15"
       id="path798" /><path
       d="M 51.66,40.45 51.57,40.5"
       id="path799" /><path
       d="m 58.96,35.43 1.77,2.73 0.05,0.08"
       id="path800" /><path
       d="m 46.96,60.02 -3,3.94 -0.16,0.4"
       id="path801" /><path
       d="M 69.27,59.4 66.06,54.63 65.76,54.19 65.57,53.9 63.49,50.89 63.32,50.64"
       id="path803" /><path
       d="m 60.92,53.96 0.08,0.07 1.09,-1.47 0.59,-0.78 0.33,-0.38 0.19,-0.14 0.16,0.02 0.22,0.24 1.73,2.6 0.05,-0.05"
       id="path804" /><path
       d="m 65.76,54.8 2.97,4.41"
       id="path805" /><path
       d="m 65.75,53.75 -0.18,0.15 -0.21,0.17"
       id="path806" /><path
       d="m 65.88,53.61 -0.13,0.14"
       id="path807" /><path
       d="m 65.88,54.73 0.18,-0.1 0.2,-0.12"
       id="path808" /><path
       d="m 66.26,54.51 0.09,-0.05"
       id="path809" /><path
       d="m 65.76,54.8 0.12,-0.07"
       id="path810" /><path
       d="m 56.58,49.1 1.17,1.77"
       id="path811" /><path
       d="m 44.51,-0.31 0.4,0.59 5.05,7.41 2.62,3.92 2.36,3.53 0.27,0.44 5.28,7.69 1.63,2.4"
       id="path812" /><path
       d="m 62.12,25.67 3.01,4.43 0.22,0.32 0.26,0.37 1.11,1.64 0.92,1.43 1.45,2.12"
       id="path813" /><path
       d="m 43.58,50.37 -6.78,4.66 -0.23,0.16"
       id="path814" /><path
       d="m 65.76,54.19 -3.13,2.26 -0.44,0.32 -0.14,0.1 -0.25,0.17 -3.14,2.17 -3.44,2.35 -0.23,0.36 -0.23,0.3 -1.72,2.33 -3.3,4.31 -3.1,4.42 -2.19,2.88"
       id="path815" /><path
       d="m 65.79,48.02 -0.49,0.35 -0.39,0.26 -0.41,0.3 -0.37,0.31 -0.9,1.12 -2.58,3.28 0.07,0.09"
       id="path816" /><path
       d="m 60.72,53.73 0.13,0.15 0.07,0.08"
       id="path817" /><path
       d="m 46.14,33.05 -3.64,2.53 -3.66,2.51 -2.96,2 -2.62,1.76"
       id="path818" /><path
       d="m 51.03,40.26 0.28,0.42 1.41,2.11 0.63,0.93 2.6,3.8 0.49,0.72"
       id="path819" /><path
       d="m 46.14,33.05 4.64,6.83 0.25,0.38"
       id="path820" /><path
       d="m 50.94,40.9 2.03,2.9"
       id="path821" /><path
       d="m 52.97,43.8 0.08,0.12"
       id="path822" /><path
       d="m 53.05,43.92 0.11,0.16"
       id="path823" /><path
       d="m 60.83,45.21 -2.08,1.02"
       id="path824" /><path
       d="m 58.75,46.23 -0.06,0.03 -0.06,0.03"
       id="path825" /><path
       d="m 21.86,34 0.26,0.04 3.66,0.46"
       id="path826" /><path
       d="M 26.76,28.69 21.59,27.87"
       id="path827" /><path
       d="m 27.96,27.86 -0.12,0.58 -0.08,0.38 -0.45,-0.06 -0.55,-0.07"
       id="path828" /><path
       d="m 20.87,32.41 0.04,-0.27 0.27,-1.69 0.41,-2.58"
       id="path829" /><path
       d="m 15.39,32.91 2.2,0.28 1.48,0.19 0.28,0.04"
       id="path830" /><path
       d="m 61.63,63.95 0.16,-0.11 0.22,-0.16"
       id="path831" /><path
       d="m 65.19,35.54 1.04,1.24 1.48,1.06 0.47,0.34"
       id="path832" /><path
       d="m 66.22,34.84 1.08,1.08 1.16,0.91 0.47,0.37"
       id="path833" /><path
       d="m 68.8,36.36 0.36,0.55 0.25,0.38"
       id="path834" /><path
       d="m 60.73,38.16 6.41,-4.35"
       id="path835" /><path
       d="M 68.85,36.3 67.46,34.34"
       id="path836" /><path
       d="m 67.14,33.81 0.17,0.28 0.15,0.25"
       id="path837" /><path
       d="m 67.14,33.81 -1.9,-2.77"
       id="path838" /><path
       d="m 65.98,30.55 0.89,1.37"
       id="path839" /><path
       d="m 69.37,35.64 -2.25,-3.3"
       id="path840" /><path
       d="m 66.87,31.92 0.17,0.29 0.08,0.13"
       id="path841" /><path
       d="m 83.75,95.42 0.28,0.25 0.27,0.24"
       id="path842" /><path
       d="m 84.92,94.96 -0.2,-0.15 -0.28,-0.23"
       id="path843" /><path
       d="m 83.65,95.17 -0.09,0.09 0.19,0.16"
       id="path844" /><path
       d="m 84.17,94.57 -0.32,0.34 -0.2,0.26"
       id="path845" /><path
       d="m 84.44,94.58 -0.17,-0.13 -0.1,0.12"
       id="path846" /><path
       d="m 84.96,95.28 0.12,-0.19 -0.16,-0.13"
       id="path847" /><path
       d="m 84.53,95.91 0.2,-0.27 0.23,-0.36"
       id="path848" /><path
       d="m 84.3,95.91 0.13,0.11 0.1,-0.11"
       id="path849" /><path
       d="M 38.78,5.83 38.43,5.3 38.38,5.14 38.46,4.99 38.88,4.67 41.24,2.92"
       id="path850" /><path
       d="m 38.43,5.3 -0.1,0.48 -0.11,0.48"
       id="path851" /><path
       d="M 38.07,6.28 37.74,5.75 37.38,5.16"
       id="path852" /><path
       d="M 37.35,4.93 37.39,4.62 37.43,4.21"
       id="path853" /><path
       d="m 37.43,4.21 0.03,-0.1 0.03,-0.12 0.08,-0.03"
       id="path854" /><path
       d="m 38.58,3.11 0.11,-0.08 9.03,-6.27 2.49,-1.91"
       id="path855" /><path
       d="M 44.68,0.45 41.66,2.63"
       id="path856" /><path
       d="m 41.66,2.63 -0.15,0.1 -0.27,0.19"
       id="path857" /><path
       d="M 38.07,6.28 38.22,6.26"
       id="path858" /><path
       d="m 37.35,4.93 0.03,0.23"
       id="path859" /><path
       d="m 37.57,3.96 0.59,-0.5 0.42,-0.35"
       id="path860" /><path
       d="m 38.71,3.19 0.08,0.68 0.07,0.63"
       id="path861" /><path
       d="m 38.86,4.5 0.02,0.17"
       id="path862" /><path
       d="M 38.71,3.19 38.69,3.03"
       id="path863" /><path
       d="m 76.47,38.82 3.19,-1.8 -0.07,-0.15"
       id="path864" /><path
       d="m 72.76,40.82 3.13,-1.69"
       id="path865" /><path
       d="m 75.89,39.13 0.3,-0.16 0.28,-0.15"
       id="path866" /><path
       d="m 31.9,3.21 5.56,0.9"
       id="path867" /><path
       d="M 37.35,4.93 34.77,4.51"
       id="path868" /><path
       d="M 34.77,4.51 34.6,4.49 34.37,4.46"
       id="path869" /><path
       d="M 34.37,4.46 31.8,4.01"
       id="path870" /><path
       d="M 37.3,4.59 34.66,4.13 31.44,3.57"
       id="path871" /><path
       d="m 62.46,72.14 0.49,0.76 2.81,6.79 -0.01,0.04 -0.02,0.04 -0.07,-0.01"
       id="path872" /><path
       d="m 61.73,72.53 0.19,0.25 0.86,1.87 1.23,2.76 0.69,1.7 0.03,0.13 -0.06,0.11 -0.04,0.11"
       id="path873" /><path
       d="m 57.87,66.76 0.17,0.29 0.12,0.23"
       id="path874" /><path
       d="m 55.34,61.74 0.46,0.7 2.75,3.92"
       id="path875" /><path
       d="m 58.55,66.36 0.17,0.23 0.16,0.24"
       id="path876" /><path
       d="m 58.88,66.83 0.64,0.93 2.63,3.91"
       id="path877" /><path
       d="m 62.15,71.67 0.17,0.25 0.14,0.22"
       id="path878" /><path
       d="m 58.16,67.28 0.19,0.31 3.07,4.49"
       id="path879" /><path
       d="m 61.42,72.08 0.22,0.32 0.09,0.13"
       id="path880" /><path
       d="m 54.98,62.53 2.23,3.1 0.66,1.13"
       id="path881" /><path
       d="m 54.51,61.86 0.25,0.36 0.22,0.31"
       id="path882" /><path
       d="m 53.27,58.56 1.28,2.05 0.38,0.54"
       id="path883" /><path
       d="m 54.93,61.15 0.29,0.41 0.12,0.18"
       id="path884" /><path
       d="M 30.57,28.89 32.68,16.16 34.6,4.49 34.66,4.13"
       id="path885" /><path
       d="m 28.51,41.64 0.08,-0.48 1.93,-11.95 0.05,-0.32"
       id="path886" /><path
       d="m 51.56,-5.33 0.43,0.51 1.53,2.27 3.62,5.36"
       id="path887" /><path
       d="m 83.73,42.09 -3.72,2.51 -3.45,2.38 -3.62,2.32 -2.79,1.91 -0.72,0.49 -0.82,0.56 -2.85,1.93"
       id="path888" /><path
       d="m 72.91,56.91 0.76,-0.52 2.78,-1.9 3.58,-2.38 3.43,-2.37 3.72,-2.55"
       id="path889" /><path
       d="M 83.81,33.72 80.2,28.45"
       id="path890" /><path
       d="m 96.35,-1.12 -1.08,0.68 -0.51,0.32 -2.1,1.44 -10.48,7.09 -0.4,0.27"
       id="path891" /><path
       d="m 58.54,-10.35 0.45,0.66 5.21,7.68 5.3,7.85"
       id="path892" /><path
       d="m 69.5,5.84 5.25,7.73 0.17,0.25 1.94,2.84 1.42,2.09 1.06,1.64 0.29,0.45 0.52,0.41 0.41,0.31"
       id="path893" /><path
       d="M 29.34,53.6 26.6,53.13 23.76,52.65"
       id="path894" /><path
       d="m 23.68,53.5 0.04,0.15 -1.86,10.75"
       id="path895" /><path
       d="m 36.33,40.16 4.4,6.55"
       id="path896" /><path
       d="m 35.94,40.43 4.46,6.52"
       id="path897" /><path
       d="m 24.06,48.47 0.44,0.07 1.35,0.22 1.44,0.23"
       id="path898" /><path
       d="m 25.85,48.76 -0.53,3.2"
       id="path899" /><path
       d="m 80.53,36.55 -0.4,0.21 -0.34,0.19"
       id="path900" /><path
       d="m 79.79,36.95 -0.13,0.07"
       id="path901" /><path
       d="m 84,34.53 -3.47,2.02"
       id="path902" /><path
       d="M 84.57,34.2 84.24,34.38 84,34.53"
       id="path903" /><path
       d="M 87.56,32.39 84.57,34.2"
       id="path904" /><path
       d="M 65.66,79.76 65.19,79.62 64.63,79.46"
       id="path905" /><path
       sodipodi:type="star"
       style="fill:none;fill-opacity:1;stroke:#000000;stroke-width:0.353763;stroke-opacity:1"
       id="path3633"
       inkscape:flatsided="false"
       sodipodi:sides="5"
       sodipodi:cx="61.366482"
       sodipodi:cy="77.734146"
       sodipodi:r1="1.4845481"
       sodipodi:r2="0.74227405"
       sodipodi:arg1="0.93576959"
       sodipodi:arg2="1.5640881"
       inkscape:rounded="0"
       inkscape:randomized="0"
       d="m 62.247114,78.92929 -0.875653,-0.452887 -0.869498,0.464594 0.160129,-0.972745 -0.710545,-0.683375 0.974619,-0.148303 0.430357,-0.886943 0.442218,0.88109 0.976521,0.135214 -0.701313,0.692846 z"
       inkscape:transform-center-x="0.0023016023"
       inkscape:transform-center-y="-0.10383398"
       transform="matrix(0.87716346,0,0,0.87716346,-3.9080209,-47.166767)" /></g><nd:plotdata
     application="nextdraw"
     auto_rot="0"
     handling="0"
     hiding="0"
     layer="-2"
     model="8"
     optim="0"
     pause_dist="-25400"
     pause_ref="-25400"
     pause_warn="0"
     plob_version="n/a"
     rand_seed="1"
     rand_start="0" /></svg>
