<svg baseProfile="tiny" height="200mm" version="1.2" viewBox="0 0 100 100" width="300mm" xmlns="http://www.w3.org/2000/svg"><rect x="-10000" y="-10000" width="20000" height="20000" fill="rgb(220,220,220)"/><g id="zoom-group" transform="translate(0,0) scale(1)"><g id="drag-group" transform="translate(0, 0)"><g fill="none" stroke="#555555" stroke-linecap="round" stroke-linejoin="round" class="zoomable-line" style="stroke-width: 0.32;"><path d="M 13.78 36.47 L 10.64 34.10 L 11.78 32.56 L 12.17 32.07 L 13.18 30.77 L 13.55 30.30 L 13.34 29.93 L 13.21 29.44 L 13.22 28.89 L 13.27 28.53 L 13.30 28.32 L 13.36 28.13 L 13.47 27.78 L 13.49 27.72 L 13.69 27.44 L 13.91 27.13 L 14.34 26.74 L 14.40 26.49 L 14.67 25.28 L 14.73 24.89 L 14.95 23.38 L 15.15 22.82 L 15.91 20.92 L 16.40 20.02 L 17.01 19.19 L 17.95 18.05"/><path d="M 15.15 22.82 L 15.79 22.81 L 16.64 22.95 L 17.58 23.48 L 18.22 23.73 L 18.56 23.77 L 18.98 23.76 L 21.10 24.80"/><path d="M 44.43 1.34 L 43.69 0.79 L 43.37 0.56 L 35.96 -4.70 L 35.71 -4.87 L 35.62 -4.93 L 35.36 -5.11"/><path d="M 26.24 23.67 L 26.12 23.60 L 25.45 23.17 L 23.51 21.98 L 23.18 21.75 L 21.70 20.72 L 21.27 20.39 L 20.31 19.61"/><path d="M 19.99 19.35 L 19.78 19.16 L 19.73 19.08 L 19.68 18.97 L 19.65 18.85 L 19.65 18.71 L 19.67 18.58 L 19.70 18.44 L 19.76 18.28 L 19.84 18.13 L 19.96 17.99 L 20.35 17.56 L 20.94 16.90 L 21.15 16.64 L 21.34 16.38 L 21.54 16.08 L 22.59 14.45 L 23.06 13.66 L 23.42 13.06 L 23.87 12.23 L 24.31 11.38 L 24.74 10.58 L 25.15 9.83 L 25.84 8.59 L 26.01 8.31 L 26.61 7.33 L 27.16 6.47 L 27.78 5.58 L 28.44 4.64 L 29.08 3.74 L 29.27 3.47 L 34.30 -3.60"/><path d="M 44.43 1.34 L 44.23 1.44 L 43.59 1.87"/><path d="M 66.88 22.38 L 67.42 22.72 L 67.72 22.92 L 71.12 25.22 L 71.54 25.51 L 71.91 25.75 L 75.66 28.20 L 76.12 28.50 L 76.46 28.73 L 79.93 31.01 L 80.49 31.38 L 80.98 31.71 L 82.51 32.73 L 85.19 34.49 L 89.28 37.18 L 89.67 37.44 L 90.12 37.74 L 93.71 40.05 L 94.37 40.48"/><path d="M 20.81 89.15 L 26.38 90.58 L 28.52 91.14 L 28.75 91.20 L 32.47 92.17 L 32.69 92.22 L 33.19 92.35"/><path d="M 80.38 76.21 L 79.68 76.04 L 76.39 75.19 L 68.32 73.11 L 67.65 72.95 L 67.14 72.83 L 66.51 72.68 L 60.42 71.09 L 54.09 69.51 L 53.46 69.35 L 52.83 69.19 L 48.74 68.13 L 41.50 66.29 L 40.35 65.99 L 39.92 65.88"/><path d="M 52.12 74.64 L 52.72 74.80 L 55.90 75.61 L 65.20 77.98 L 65.78 78.12 L 66.32 78.26 L 66.97 78.42 L 75.05 80.48 L 78.33 81.33 L 79.05 81.52 L 79.71 81.68 L 82.30 82.36 L 82.56 82.43 L 82.78 82.54 L 82.98 82.63 L 83.23 82.78 L 83.44 82.93 L 83.65 83.11"/><path d="M 76.91 86.66 L 75.86 86.43 L 72.11 85.40 L 68.79 84.53 L 65.60 83.70 L 65.01 83.54 L 64.43 83.40 L 63.84 83.25 L 57.89 81.75 L 56.95 81.51 L 51.41 80.09 L 50.77 79.94 L 50.11 79.78 L 45.47 78.61 L 44.41 78.33 L 37.70 76.61 L 37.21 76.48 L 36.74 76.35 L 31.75 75.08 L 31.43 75.00"/><path d="M 44.03 49.96 L 43.90 50.48 L 43.51 52.07 L 43.28 52.99"/><path d="M 88.06 21.07 L 87.76 21.47 L 87.51 21.81 L 80.88 30.85 L 80.49 31.38 L 80.16 31.88 L 76.52 37.36 L 76.45 37.44 L 76.15 37.79 L 75.85 38.17 L 75.78 38.25 L 74.06 45.01 L 73.92 45.55 L 73.81 46.00 L 72.71 50.35 L 72.59 50.85 L 72.48 51.29 L 71.45 55.41 L 71.38 55.72 L 71.35 56.55"/><path d="M 61.03 97.62 L 60.85 98.67 L 60.74 99.69 L 60.62 100.73 L 60.53 101.31 L 60.35 102.03 L 59.80 104.05"/><path d="M 65.06 94.89 L 64.00 94.63 L 62.87 94.32 L 62.35 94.20 L 61.70 94.03"/><path d="M 82.95 47.92 L 83.29 47.39 L 83.46 47.13 L 87.05 41.62 L 89.28 38.07 L 89.36 37.93 L 89.67 37.44"/><path d="M 78.51 14.77 L 78.15 15.36 L 77.85 15.82 L 75.93 18.78 L 72.10 24.65 L 71.93 24.91 L 71.54 25.51 L 71.20 26.03 L 68.46 30.22 L 68.20 30.62 L 67.99 30.97 L 64.28 36.61 L 64.24 36.68 L 61.19 41.33 L 60.92 41.71 L 60.67 42.13 L 60.39 42.56 L 58.99 44.69 L 58.00 46.21 L 57.79 46.52 L 57.52 46.94"/><path d="M 96.23 23.07 L 95.25 22.49 L 94.28 21.93 L 75.58 11.22"/><path d="M 54.81 64.05 L 55.40 64.20 L 67.83 67.36 L 68.50 67.51 L 68.98 67.62 L 69.64 67.82 L 74.76 69.13 L 81.07 70.72 L 81.72 70.90"/><path d="M 59.66 53.57 L 60.15 52.85 L 62.75 48.79 L 63.01 48.38 L 63.31 47.95 L 63.88 47.10 L 64.85 45.68 L 65.75 44.34 L 65.99 43.99 L 66.28 43.56 L 66.56 43.12 L 72.04 34.72 L 72.31 34.32 L 72.57 33.92 L 75.62 29.26 L 75.80 29.00 L 76.12 28.50 L 76.48 27.95 L 82.40 18.79 L 82.58 18.52 L 82.87 18.08 L 83.21 17.46"/><path d="M 80.48 41.69 L 80.00 41.25 L 76.74 38.31 L 76.61 38.19 L 76.15 37.79 L 75.66 37.33 L 72.86 34.82 L 72.66 34.64 L 72.31 34.32 L 71.92 33.97 L 68.54 30.92 L 68.20 30.62 L 67.79 30.25 L 64.46 27.22 L 63.97 26.80"/><path d="M 56.08 40.96 L 56.70 41.10 L 57.25 41.24 L 58.32 41.53 L 60.67 42.13 L 65.68 43.40 L 66.28 43.56 L 66.72 43.67 L 73.27 45.38 L 73.92 45.55 L 74.51 45.69 L 77.45 46.42 L 82.95 47.92 L 87.81 49.09 L 88.53 49.25 L 89.28 49.43 L 95.49 51.01 L 97.49 51.53 L 101.42 52.53 L 101.80 52.62 L 102.49 52.81"/><path d="M 24.22 78.80 L 25.09 79.02 L 26.42 79.35 L 27.26 79.56 L 28.13 79.78 L 30.48 80.38 L 35.22 81.59 L 35.34 81.62 L 35.89 81.76"/><path d="M 93.19 23.14 L 92.78 23.74 L 92.49 24.16 L 85.78 33.66 L 85.58 33.94 L 85.19 34.49 L 84.86 34.99 L 80.48 41.69"/><path d="M 80.48 41.69 L 80.26 42.04 L 77.76 45.90 L 77.45 46.42"/><path d="M 43.28 52.99 L 48.22 54.25 L 50.44 54.82 L 51.51 55.09 L 53.08 55.50 L 55.49 56.10 L 55.83 56.18 L 56.48 56.35 L 57.65 56.65"/><path d="M 72.73 13.49 L 73.29 13.68 L 74.76 14.17 L 74.92 14.22 L 77.46 15.03"/><path d="M 112.66 61.07 L 112.24 60.95 L 111.07 60.62 L 110.69 60.51 L 110.23 60.41 L 109.65 60.26 L 104.76 59.02 L 100.32 57.88 L 100.02 57.81 L 99.52 57.68 L 98.76 57.49 L 96.17 56.83 L 86.64 54.40 L 85.95 54.23 L 85.28 54.05 L 73.20 50.98 L 72.59 50.85 L 71.95 50.71 L 69.32 50.03 L 64.34 48.73 L 63.57 48.53 L 63.01 48.38 L 62.53 48.25 L 58.06 47.08 L 57.52 46.94 L 57.18 46.85 L 56.82 46.78 L 56.57 46.73 L 56.24 46.68"/><path d="M 24.44 85.38 L 29.90 86.77 L 33.48 87.68 L 33.84 87.77 L 34.33 87.90 L 34.78 88.01 L 47.24 91.21 L 47.88 91.37"/><path d="M 75.44 95.81 L 74.07 101.16"/><path d="M 77.18 88.79 L 76.37 92.09 L 75.44 95.81"/><path d="M 14.26 93.69 L 14.09 93.64 L 13.72 93.49 L 13.52 93.44"/><path d="M 116.31 34.57 L 111.74 31.59 L 105.83 28.23 L 94.69 21.83 L 75.71 11.00"/><path d="M 80.31 84.78 L 83.65 83.11 L 87.62 81.05 L 89.27 80.17 L 91.37 79.07"/><path d="M 76.06 10.23 L 79.46 12.26 L 90.18 18.64"/><path d="M 128.44 59.82 L 126.78 60.16 L 125.13 60.26 L 123.77 60.13 L 122.44 59.86 L 121.32 59.46 L 120.43 59.06 L 119.75 58.71 L 118.97 58.28 L 118.18 57.74 L 117.36 57.00 L 116.73 56.33 L 116.15 55.61 L 115.59 54.84 L 115.14 54.31 L 114.61 53.78 L 114.00 53.28 L 112.29 51.99 L 111.59 51.38 L 110.75 50.55 L 110.10 49.63 L 109.69 48.83 L 109.45 48.25 L 109.22 47.57 L 109.05 46.81 L 108.93 46.05 L 108.87 45.33 L 108.84 44.63 L 109.06 41.57 L 109.21 39.30 L 109.44 35.89 L 109.43 34.56 L 109.25 33.23 L 108.90 31.94 L 108.39 30.70 L 107.74 29.54 L 106.94 28.46 L 106.01 27.50 L 104.97 26.66 L 103.80 25.88 L 99.30 23.33 L 95.33 21.02 L 90.44 18.19 L 79.76 11.83 L 76.20 10.00"/><path d="M 75.85 10.74 L 66.84 5.56 L 49.73 -4.31 L 30.16 -15.60 L 15.78 -23.68 L 8.08 -28.00 L 6.44 -29.33 L 0.93 -32.54"/><path d="M 62.16 99.84 L 62.28 99.64 L 62.40 99.42 L 62.48 99.21 L 62.53 99.01 L 62.80 97.36 L 62.96 96.35"/><path d="M 14.92 93.33 L 15.86 93.56 L 19.59 94.49 L 20.21 94.64 L 20.66 94.75"/><path d="M 35.89 81.76 L 36.33 81.88 L 48.79 85.08 L 49.43 85.25 L 50.05 85.41 L 62.48 88.55 L 63.11 88.70 L 63.67 88.83 L 64.25 89.00 L 65.01 89.20 L 69.94 90.50 L 71.03 90.74 L 72.08 90.98 L 75.38 91.84 L 75.70 91.92 L 76.37 92.09"/><path d="M 46.76 95.79 L 47.40 95.95 L 51.88 97.10 L 54.69 97.82 L 56.66 98.33 L 58.02 98.73 L 58.25 98.84 L 58.63 99.22"/><path d="M 61.90 97.05 L 62.96 96.35"/><path d="M 75.66 87.52 L 71.55 90.39 L 71.03 90.74 L 70.44 91.08 L 69.33 91.90 L 66.95 93.57 L 65.60 94.52"/><path d="M 39.92 65.88 L 39.42 65.75 L 32.41 63.93 L 31.48 63.69"/><path d="M 40.81 62.20 L 40.79 62.34 L 40.04 65.38 L 39.92 65.88 L 39.79 66.38 L 39.15 68.82 L 38.71 70.73 L 38.58 71.18 L 37.34 75.97 L 37.21 76.48 L 37.10 76.95 L 36.02 81.26 L 35.89 81.76 L 35.77 82.24 L 34.75 86.24 L 34.66 86.59 L 34.53 87.09 L 34.33 87.90 L 34.20 88.40 L 33.31 91.85 L 33.19 92.35"/><path d="M 78.23 96.02 L 96.97 92.87 L 97.82 92.70 L 98.65 92.53 L 99.50 92.31 L 100.32 92.06 L 101.09 91.82 L 101.92 91.52 L 102.71 91.20 L 103.46 90.84 L 104.12 90.49 L 104.80 90.09 L 105.36 89.73 L 108.78 87.71 L 115.75 83.55 L 121.94 79.85 L 122.71 79.39 L 123.35 79.00 L 124.04 78.55 L 124.67 78.12 L 125.29 77.64 L 126.51 76.68"/><path d="M 76.88 -10.01 L 76.54 -9.65 L 76.33 -9.26 L 76.18 -8.88 L 76.09 -8.38 L 76.12 -7.70 L 76.00 -6.96 L 75.78 -6.22 L 75.57 -5.56 L 75.19 -5.06 L 74.72 -4.71 L 74.10 -4.25 L 72.86 -3.17 L 72.27 -2.29 L 71.97 -1.84 L 71.90 -1.69 L 71.49 -0.86 L 71.06 0.12 L 70.79 1.11 L 70.56 1.93 L 70.53 2.21 L 70.51 2.47"/><path d="M 26.02 24.18 L 25.25 25.11 L 25.19 25.17 L 24.93 25.39 L 23.99 26.58 L 23.06 27.45 L 21.89 28.86 L 20.72 29.70 L 19.24 30.59 L 18.65 31.12 L 17.85 31.69"/><path d="M 84.79 -3.75 L 84.54 -3.48 L 83.57 -2.42 L 81.34 0.37 L 80.75 1.15 L 79.82 2.59 L 77.02 6.82"/><path d="M 84.51 59.93 L 84.72 59.12 L 85.82 54.72 L 85.95 54.23 L 86.09 53.72 L 86.27 52.99 L 86.33 52.75 L 86.42 52.51 L 86.51 52.33 L 86.62 52.14 L 88.25 49.67 L 88.53 49.25 L 88.81 48.85 L 91.62 44.50 L 93.73 41.28 L 93.96 40.95 L 94.37 40.48 L 94.80 39.98 L 96.65 37.60 L 97.11 36.98"/><path d="M 58.63 99.22 L 59.24 99.08 L 59.89 98.70 L 60.25 98.43 L 61.03 97.62"/><path d="M 53.11 51.99 L 46.08 50.42 L 44.03 49.96 L 41.35 49.36 L 38.17 48.65"/><path d="M 30.28 75.34 L 30.08 75.65 L 27.61 79.08 L 27.26 79.56 L 26.98 79.99 L 26.60 80.52 L 24.39 83.61 L 24.21 83.90"/><path d="M 16.17 76.04 L 19.88 76.98 L 20.04 77.51 L 20.29 77.69 L 20.62 77.77 L 20.56 78.02 L 19.94 77.94 L 19.83 78.13 L 19.28 78.24 L 17.39 77.78 L 16.84 77.84 L 16.36 78.07 L 15.90 78.44 L 15.56 78.86 L 15.23 79.50 L 14.99 80.14 L 14.95 80.47 L 14.99 80.80 L 15.16 81.09 L 15.39 81.35 L 19.20 82.22 L 19.12 82.53 L 20.10 82.78 L 19.86 83.78 L 19.18 83.61 L 19.10 83.94 L 18.33 86.99 L 18.28 87.17 L 17.97 87.24 L 17.61 87.32 L 17.55 87.64 L 17.85 87.81 L 17.82 87.88 L 17.52 87.89 L 17.16 87.98 L 16.86 88.08 L 16.63 88.18 L 16.42 88.30 L 16.23 88.44 L 16.06 88.57 L 15.83 88.80 L 15.66 89.01 L 15.46 89.23 L 15.09 89.78 L 14.35 91.01 L 13.56 91.31 L 13.39 91.60 L 13.29 91.81 L 13.29 91.86 L 13.23 92.14 L 13.06 92.44 L 12.91 93.21 L 12.85 93.46 L 12.72 94.06 L 12.66 94.33 L 12.44 94.37 L 11.91 94.45 L 10.89 94.39 L 8.63 94.93 L 8.03 95.18 L 6.86 96.48 L 6.26 97.71 L 6.16 98.12 L 6.09 98.75 L 5.32 100.87 L 4.83 100.64 L 2.10 106.79 L 4.07 107.23 L 4.28 107.55 L 4.49 108.33 L 4.58 108.93 L 4.56 110.37 L 4.44 111.10 L 3.83 112.39 L 4.23 113.00 L 4.15 113.21 L 3.66 113.07 L 3.40 113.15 L 2.81 113.17 L 2.36 113.09 L 1.18 113.39 L 0.76 113.59 L 0.42 113.93 L 0.22 114.38 L -0.04 115.01 L -0.13 115.52 L -0.08 116.02 L 0.20 116.55 L 0.61 117.11 L 1.54 117.58 L 2.31 117.80 L 2.57 118.03 L 3.12 118.27 L 3.74 118.54 L 3.79 118.72 L 3.64 119.19 L 3.21 119.30 L 2.85 119.38 L 2.62 119.85 L 2.25 120.33 L 2.03 120.38 L 1.97 120.61 L 1.72 121.04 L 1.22 121.45 L 0.89 121.72 L 0.24 121.72 L -0.28 121.64 L -0.70 121.64 L -1.01 121.51 L -1.18 121.68 L -2.00 122.24 L -2.58 122.77 L -3.23 123.69 L -3.53 124.90 L -3.61 126.06 L -3.61 126.82 L -3.77 127.57 L -4.04 128.35 L -4.28 128.95 L -4.42 129.78 L -4.53 131.05 L -4.51 132.05 L -4.26 132.44 L -6.08 134.34 L -4.27 145.16 L -3.58 149.32 L -1.05 163.93 L -0.66 164.42 L -0.52 164.40 L -0.64 164.71 L -2.08 168.25 L -2.32 170.40 L -2.08 171.33 L -1.96 172.42 L -2.17 172.55 L -2.07 173.40 L -1.92 174.26 L -1.93 174.63 L -1.76 175.05 L -1.57 175.11 L -1.56 175.26 L -1.75 175.78 L -1.65 176.08 L -1.25 177.31 L -1.25 177.33 L -0.12 178.10 L -0.04 178.32 L 0.02 179.21 L -0.00 179.40 L -0.07 179.53 L -0.86 180.14 L -0.71 181.00 L -0.33 181.08 L 1.05 186.09 L 1.53 185.96 L 1.61 186.56 L 1.65 187.19 L 1.67 187.40 L 1.86 187.49 L 1.98 187.73 L 2.83 190.56 L 3.18 190.66 L 3.45 191.90 L 3.85 199.24 L 4.34 200.19 L 4.72 200.60 L 5.04 200.63 L 5.08 200.92 L 4.43 201.02 L 4.72 202.84 L 5.02 206.49 L 5.04 206.75 L 5.26 208.12 L 5.23 209.57 L 4.96 210.20 L 4.68 212.70 L 4.60 213.39 L 3.81 217.40 L 3.54 218.75 L 3.46 219.05 L 3.33 219.07 L 3.32 219.31 L 2.91 220.14 L 2.86 221.90 L 2.00 223.67 L 1.84 224.74 L 1.84 225.50 L 1.69 225.88 L 1.58 228.19 L 1.71 229.08 L 2.03 229.78 L 1.86 229.78 L 1.85 229.63 L 1.69 229.63 L 1.68 229.84 L 1.54 229.85 L 1.55 230.07 L 1.93 230.03 L 1.96 230.21 L 2.10 230.21 L 2.24 229.98 L 2.24 230.05 L 2.49 230.02 L 2.87 230.08 L 2.96 230.29 L 3.31 230.29 L 3.75 230.29 L 4.02 230.40 L 4.68 230.37 L 5.47 230.27 L 5.64 230.18 L 5.66 229.93 L 6.21 229.74 L 7.32 229.81 L 8.10 229.61 L 8.86 229.63 L 9.48 229.48 L 9.84 229.46 L 10.13 229.91 L 10.24 230.59 L 10.30 231.09 L 10.21 231.36 L 10.44 231.98 L 10.25 232.45 L 10.52 233.75 L 10.64 234.37 L 11.15 234.38 L 11.98 233.97 L 12.57 233.82 L 12.96 233.72 L 13.59 233.94 L 14.17 233.90 L 15.36 233.59 L 15.71 233.68 L 16.60 233.52 L 17.78 233.61 L 19.64 233.48 L 20.28 233.53 L 20.82 234.77 L 22.01 235.88 L 22.86 236.31 L 23.12 236.83 L 23.42 237.83 L 23.43 238.53 L 23.38 239.48 L 23.16 240.16 L 22.78 240.71 L 22.69 241.01 L 22.52 241.30 L 22.25 241.47 L 22.01 241.50 L 20.84 241.42 L 19.82 241.08 L 17.70 240.17 L 17.28 239.99 L 17.19 239.74 L 12.94 238.05 L 9.42 236.46 L 8.64 235.97 L 6.13 235.22 L 4.40 234.95 L 3.07 235.37 L 2.72 235.60 L 2.24 235.72 L 2.31 235.62 L 2.40 235.42 L 2.35 235.28 L 2.32 235.19 L 1.84 235.01 L 1.54 235.33 L 1.23 235.20 L 0.72 235.06 L 0.41 234.81 L 0.14 234.64 L -0.18 234.93 L -0.37 235.31 L -0.64 235.14 L -1.02 235.72 L 1.60 237.87 L 1.55 238.03 L 0.05 242.84 L 0.71 243.42 L 0.06 244.88 L -0.21 244.71 L -0.55 245.48 L -1.40 247.43 L -1.72 248.17 L -2.11 249.06 L -3.83 253.22 L -4.25 254.27"/><path d="M 63.97 6.04 L 61.33 10.27 L 61.26 10.38 L 57.06 16.96 L 56.81 16.74 L 54.24 21.00 L 52.35 23.32 L 51.76 24.17 L 51.70 24.27 L 51.67 24.38 L 51.71 24.51 L 51.81 24.64 L 48.17 29.60 L 48.06 29.73 L 47.97 29.80 L 47.84 29.83 L 47.71 29.82 L 46.02 31.65 L 46.03 31.74 L 46.08 31.81 L 46.22 31.90 L 43.19 35.98 L 43.11 36.20 L 43.18 36.67 L 43.24 36.95 L 43.24 37.08 L 43.17 37.17 L 42.36 38.45 L 42.26 38.71 L 42.22 39.00 L 42.31 39.25 L 42.43 39.46 L 42.89 39.90 L 43.07 40.24 L 43.01 40.70 L 43.14 40.92 L 42.40 42.43 L 42.56 42.52 L 39.70 48.40 L 39.51 48.34 L 39.43 48.20 L 39.33 48.06 L 39.20 47.98 L 39.07 47.94 L 39.23 47.14 L 39.12 47.11 L 39.39 46.05 L 39.00 45.96 L 39.04 45.71 L 38.80 45.65 L 38.84 45.48 L 38.04 45.28 L 37.74 46.00 L 37.55 46.20 L 37.13 48.07 L 36.68 47.95 L 35.67 47.68 L 35.61 47.97 L 35.67 48.00 L 35.58 48.46 L 35.52 48.72 L 34.38 50.17 L 32.53 52.54 L 33.30 52.97 L 41.22 57.36 L 43.42 57.89 L 46.24 58.58 L 46.76 58.71 L 46.81 58.51 L 48.76 59.01 L 51.41 59.69 L 51.64 59.76 L 50.84 62.99 L 47.90 62.18 L 46.43 61.81 L 44.29 61.28 L 43.76 61.15 L 41.77 60.59 L 41.24 60.44 L 40.67 60.29 L 40.37 60.14 L 38.89 59.38 L 37.56 58.69 L 36.46 58.12 L 34.86 57.28 L 34.45 57.06 L 31.93 55.66 L 30.92 55.11 L 28.37 53.69 L 27.06 55.90 L 25.70 58.17 L 25.66 58.24 L 25.56 58.39 L 22.33 63.94"/><path d="M 83.83 62.60 L 83.18 65.16 L 83.07 65.64 L 82.95 66.11 L 81.83 70.47 L 81.72 70.90 L 81.60 71.42 L 81.16 73.15 L 80.81 74.51 L 80.78 74.63 L 80.51 75.70 L 80.38 76.21 L 80.24 76.74 L 79.18 81.02 L 79.05 81.52 L 78.92 82.03 L 78.55 83.50"/><path d="M 74.03 57.24 L 78.34 58.34 L 79.11 58.54 L 81.16 59.07"/><path d="M 75.71 11.00 L 15.65 -23.44 L 8.00 -27.82"/><path d="M 7.56 -26.93 L 75.20 11.86"/><path d="M 75.20 11.86 L 94.26 22.79 L 106.05 29.42 L 116.06 35.06"/><path d="M 7.38 -26.67 L 75.04 12.14"/><path d="M 75.04 12.14 L 76.77 13.11 L 93.36 22.63 L 101.89 27.56 L 115.84 35.45"/><path d="M 7.68 -27.12 L 75.32 11.66"/><path d="M 75.58 11.22 L 72.41 9.41 L 15.54 -23.24 L 7.95 -27.60"/><path d="M 75.32 11.66 L 94.32 22.70 L 94.79 22.95 L 95.19 23.22 L 95.59 23.48 L 96.32 24.06 L 101.01 27.50 L 101.53 27.86 L 102.18 28.27 L 102.88 28.67 L 109.48 32.42 L 109.87 32.65 L 110.07 32.80 L 110.25 32.98 L 110.40 33.20 L 110.51 33.42 L 110.61 33.72 L 110.70 34.10 L 110.70 34.36 L 110.65 34.65 L 110.57 34.89 L 110.43 35.19 L 110.17 35.60"/><path d="M 68.41 97.68 L 69.29 97.63 L 69.95 97.56 L 71.45 97.37 L 72.06 97.32 L 72.68 97.28 L 73.49 97.25 L 75.47 97.19 L 76.27 97.16 L 76.86 97.11 L 77.40 97.06 L 77.91 97.01 L 78.39 96.93 L 79.45 96.75"/><path d="M 79.06 93.04 L 88.51 91.80 L 89.02 91.74 L 89.55 91.71 L 90.01 91.73 L 90.45 91.76 L 90.90 91.81 L 91.49 91.91 L 92.96 92.16 L 93.48 92.24 L 93.98 92.28 L 94.51 92.29 L 95.10 92.27 L 95.70 92.24 L 96.40 92.18 L 98.17 91.87"/><path d="M 64.24 97.19 L 66.07 97.54 L 66.72 97.62 L 67.44 97.75 L 68.06 97.84 L 71.12 98.22 L 71.82 98.30 L 72.56 98.35 L 73.23 98.39 L 73.86 98.39 L 74.45 98.38 L 75.05 98.36 L 75.67 98.31 L 76.34 98.24 L 76.96 98.15 L 78.05 97.97 L 79.62 97.71"/><path d="M 101.49 92.28 L 100.27 92.75 L 99.74 92.95 L 99.27 93.13 L 98.51 93.52 L 97.86 93.83 L 96.75 94.39 L 92.13 96.73 L 90.49 97.60 L 89.98 97.84 L 89.58 98.02 L 89.07 98.20 L 88.57 98.34 L 88.06 98.47 L 87.53 98.57 L 81.61 99.56 L 81.14 99.64 L 80.66 99.71 L 80.22 99.74 L 79.81 99.75 L 79.35 99.75 L 78.90 99.73 L 78.33 99.71 L 77.80 99.68 L 73.49 99.38 L 72.93 99.33 L 72.40 99.26 L 71.83 99.16 L 71.28 99.05 L 70.67 98.90 L 69.64 98.63 L 68.32 98.30 L 67.73 98.15 L 67.09 98.00 L 66.33 97.79 L 65.58 97.59 L 64.24 97.19 L 63.69 97.04"/><path d="M 96.40 92.18 L 93.01 92.73 L 91.95 92.87 L 80.36 94.35"/><path d="M 125.42 76.50 L 123.36 78.28 L 122.86 78.69 L 122.34 79.10 L 121.81 79.50 L 121.27 79.87 L 120.71 80.25 L 120.06 80.65 L 112.69 85.04 L 110.88 86.11 L 108.11 87.79 L 104.96 89.67 L 104.36 90.01 L 103.81 90.33 L 103.23 90.63 L 102.64 90.91 L 101.98 91.18 L 101.26 91.43 L 100.58 91.63 L 99.93 91.83 L 99.26 92.01 L 98.55 92.17 L 97.92 92.30 L 97.34 92.42 L 78.12 95.64"/><path d="M 81.98 89.82 L 88.24 90.06 L 88.72 90.09 L 89.17 90.15 L 89.62 90.23 L 90.01 90.31 L 90.39 90.42 L 91.82 90.87 L 93.78 91.50 L 94.23 91.63 L 94.64 91.72 L 95.09 91.82 L 95.61 91.88 L 96.06 91.93 L 96.60 91.95 L 97.04 91.95 L 97.52 91.93 L 98.17 91.87"/><path d="M 68.32 98.30 L 72.73 98.93 L 73.39 99.02 L 73.95 99.07 L 74.47 99.09 L 74.97 99.09 L 75.47 99.06 L 76.05 98.98 L 76.69 98.89 L 78.18 98.66 L 79.73 98.39"/><path d="M 20.21 94.64 L 20.08 95.17 L 19.00 99.13 L 18.90 99.49 L 18.77 100.05 L 18.68 100.44 L 17.79 104.15 L 17.72 104.46 L 17.51 105.28"/><path d="M 90.31 18.41 L 79.61 12.05 L 76.20 10.00"/><path d="M 79.03 91.61 L 87.12 90.55 L 87.76 90.48 L 88.28 90.43 L 88.77 90.43 L 89.28 90.44 L 89.78 90.47 L 90.18 90.51 L 90.50 90.56 L 91.02 90.66 L 91.82 90.87"/><path d="M 18.78 86.15 L 20.16 86.48"/><path d="M 19.09 85.00 L 20.22 85.30"/><path d="M 18.67 86.55 L 19.85 86.83"/><path d="M 59.90 96.07 L 63.69 97.04"/><path d="M 19.22 84.61 L 20.01 84.82"/><path d="M 14.92 93.33 L 14.74 93.56 L 14.58 93.81 L 14.39 94.06 L 14.14 94.42 L 13.88 94.89 L 13.62 95.38 L 13.36 95.91"/><path d="M 15.26 28.38 L 15.18 28.02 L 14.34 26.74"/><path d="M 13.55 30.30 L 14.09 30.50 L 14.71 30.62 L 15.57 30.48 L 16.02 30.10 L 16.50 29.74 L 18.15 28.28 L 18.75 27.64 L 19.32 26.95 L 20.11 26.35 L 20.73 25.93"/><path d="M 17.85 31.69 L 16.91 30.39 L 16.50 29.74"/><path d="M 18.94 18.67 L 18.03 19.19 L 17.47 19.24 L 17.01 19.19"/><path d="M 61.70 94.03 L 61.13 93.89 L 56.96 92.81 L 48.70 90.71 L 48.08 90.55"/><path d="M 61.70 94.03 L 61.59 94.46 L 61.47 95.13 L 61.35 95.76 L 61.21 96.52 L 61.18 96.74 L 61.03 97.62"/><path d="M 60.52 104.23 L 61.12 101.32 L 61.71 98.10 L 61.90 97.05"/><path d="M 62.96 96.35 L 63.21 96.19 L 65.06 94.89"/><path d="M 27.32 24.23 L 27.38 24.19 L 29.91 21.21 L 30.73 20.15 L 32.13 18.23 L 33.50 16.31 L 36.93 11.33 L 38.10 9.63 L 38.16 9.55 L 38.62 8.85 L 38.73 8.68 L 38.78 8.63 L 38.86 8.57 L 38.95 8.54 L 39.04 8.53 L 39.46 8.53 L 39.57 8.51 L 39.67 8.44 L 39.79 8.30 L 40.34 7.62 L 41.95 5.67 L 43.29 4.18 L 44.40 2.92"/><path d="M 26.02 24.18 L 25.57 23.92 L 24.06 22.91 L 22.58 21.92 L 21.27 20.97 L 20.39 20.29 L 19.38 19.52 L 19.20 19.32 L 18.94 18.67 L 17.95 18.05 L 18.65 17.31 L 18.81 16.94 L 20.24 15.39"/><path d="M 23.91 84.36 L 23.35 85.08 L 22.94 85.59 L 22.09 86.56 L 21.49 87.21 L 20.26 88.50 L 19.84 88.90 L 19.39 89.33"/><path d="M 74.45 10.87 L 73.59 12.13 L 73.39 12.42 L 73.15 12.80 L 72.73 13.49 L 72.37 14.00 L 70.38 17.01 L 68.45 19.96 L 67.49 21.45 L 67.26 21.80 L 66.88 22.38 L 66.56 22.87 L 64.35 26.25 L 63.97 26.80"/><path d="M 53.46 69.35 L 53.33 69.81 L 52.25 74.16 L 52.12 74.64 L 52.00 75.09 L 50.89 79.47 L 50.77 79.94 L 50.66 80.40 L 49.56 84.75 L 49.43 85.25 L 49.30 85.70 L 48.19 90.06 L 48.08 90.55 L 47.88 91.37 L 47.75 91.88 L 47.66 92.24 L 47.37 93.38 L 46.95 95.03 L 46.87 95.35 L 46.76 95.79"/><path d="M 38.24 70.62 L 38.06 70.56 L 37.28 70.32 L 36.16 69.76 L 35.48 69.68 L 34.66 69.39 L 32.91 69.28 L 32.64 69.19"/><path d="M 59.16 34.20 L 58.56 33.83 L 57.72 33.31"/><path d="M 55.71 31.98 L 59.71 26.15"/><path d="M 58.52 25.36 L 54.54 31.19"/><path d="M 53.38 30.39 L 57.37 24.60"/><path d="M 50.10 28.16 L 53.01 23.90 L 54.79 21.65 L 57.11 18.00"/><path d="M 54.46 23.96 L 51.12 28.85"/><path d="M 52.25 29.62 L 56.05 24.08"/><path d="M 57.72 33.31 L 60.90 28.44 L 59.88 27.75"/><path d="M 57.72 33.31 L 56.88 32.76 L 56.62 32.59 L 55.71 31.98 L 54.54 31.19 L 53.38 30.39 L 52.25 29.62 L 51.12 28.85 L 50.60 28.50 L 50.10 28.16"/><path d="M 84.84 42.09 L 82.63 40.64 L 82.59 40.60 L 82.58 40.54 L 82.59 40.49 L 82.63 40.43 L 83.25 39.50 L 83.30 39.43 L 83.37 39.39 L 83.46 39.39 L 83.56 39.44 L 86.62 41.35 L 87.05 41.62"/><path d="M 33.50 16.31 L 33.22 16.12"/><path d="M 50.60 28.50 L 48.67 31.39"/><path d="M 60.25 26.50 L 60.57 26.71 L 59.88 27.75 L 56.62 32.59"/><path d="M 28.93 54.91 L 28.89 54.78 L 28.79 54.68 L 28.66 54.64 L 28.52 54.68 L 28.43 54.78 L 28.39 54.91 L 28.43 55.04 L 28.52 55.14 L 28.66 55.18 L 28.79 55.14 L 28.89 55.04 L 28.93 54.91"/><path d="M 29.22 56.78 L 30.40 56.57 L 30.59 56.55 L 30.79 56.56 L 31.01 56.61 L 31.23 56.67 L 31.49 56.76 L 31.71 56.85 L 32.00 56.98 L 40.31 61.39 L 40.52 61.52 L 40.63 61.62 L 40.71 61.74 L 40.77 61.86 L 40.80 61.98 L 40.82 62.09 L 40.81 62.20"/><path d="M 21.49 69.83 L 21.73 70.05 L 21.97 70.27 L 22.36 70.30 L 22.63 70.32"/><path d="M 20.59 70.98 L 21.01 71.06 L 21.37 71.24 L 21.66 71.58 L 21.76 71.70"/><path d="M 20.17 71.45 L 20.32 71.72 L 20.62 72.04 L 21.11 72.27 L 21.19 72.31"/><path d="M 28.37 53.69 L 30.92 55.11 L 30.68 55.25 L 30.62 55.28 L 30.24 55.46 L 29.85 55.58 L 29.45 55.63 L 29.45 55.53 L 29.11 55.55 L 28.84 55.62 L 28.77 55.63 L 28.47 55.76 L 28.21 55.95 L 28.27 56.03 L 28.07 56.15 L 27.84 56.24 L 27.65 56.31 L 27.45 56.37 L 27.26 56.12 L 27.06 55.90 L 28.37 53.69"/><path d="M 28.85 55.65 L 28.84 55.62 L 28.82 55.58"/><path d="M 73.22 6.28 L 73.85 6.44 L 74.62 6.25 L 75.10 6.03 L 75.65 5.65 L 76.30 5.14 L 76.77 4.67 L 77.21 4.17 L 77.86 3.52 L 78.40 2.76 L 78.82 2.18 L 79.13 1.65 L 79.52 0.84 L 79.77 -0.14 L 79.86 -0.85 L 79.88 -1.77 L 79.81 -2.68 L 79.70 -3.30 L 79.47 -3.89 L 78.88 -4.64 L 78.34 -4.95 L 77.79 -5.20 L 77.04 -5.36 L 76.32 -5.30 L 75.54 -5.16 L 75.19 -5.06"/><path d="M 57.13 53.86 L 57.68 54.51 L 57.27 56.20 L 57.25 56.26"/><path d="M 57.68 54.51 L 58.63 54.26"/><path d="M 18.65 17.31 L 19.08 17.25 L 19.63 17.30"/><path d="M 18.94 18.67 L 19.10 18.69"/><path d="M 78.82 2.18 L 79.20 2.34"/><path d="M 69.23 -0.54 L 69.98 0.46 L 70.32 1.15 L 70.48 1.81 L 70.53 2.21"/><path d="M 46.27 49.32 L 46.08 50.42"/><path d="M 46.27 49.32 L 46.41 48.51 L 46.63 47.25 L 47.15 44.18 L 46.13 43.95 L 45.12 46.63 L 46.63 47.25"/><path d="M 42.73 48.46 L 45.02 49.06 L 45.21 48.25 L 43.16 47.73"/><path d="M 45.21 48.25 L 46.41 48.51"/><path d="M 68.95 55.95 L 69.15 55.16 L 69.19 54.98"/><path d="M 70.20 54.58 L 69.35 54.37 L 69.19 54.98"/><path d="M 56.36 68.38 L 54.49 67.89 L 53.89 67.73"/><path d="M 56.88 66.43 L 54.98 65.93 L 54.37 65.77"/><path d="M 56.65 67.47 L 54.72 66.97 L 54.12 66.81"/><path d="M 95.04 24.18 L 93.19 23.14 L 89.97 21.32 L 88.49 20.49 L 83.21 17.46 L 78.51 14.77 L 77.47 14.27"/><path d="M 19.63 17.30 L 19.88 17.33 L 20.11 17.39 L 20.35 17.56"/><path d="M 68.95 55.95 L 59.66 53.57"/><path d="M 67.80 19.45 L 67.98 19.59 L 68.45 19.96"/><path d="M 44.90 42.50 L 41.35 49.36"/><path d="M 83.07 65.64 L 82.37 65.46 L 76.22 63.85 L 70.96 62.52 L 70.29 62.35 L 69.85 62.24 L 69.19 62.07 L 57.21 59.02 L 56.84 58.92 L 56.16 58.75"/><path d="M 59.91 99.55 L 59.81 99.44 L 59.75 99.34 L 59.75 99.28 L 59.80 99.25 L 60.19 99.00 L 60.25 98.96 L 60.29 98.96 L 60.32 99.01 L 60.37 99.25 L 59.91 99.55"/><path d="M 61.18 99.23 L 61.29 98.73 L 61.38 98.33 L 61.42 98.16 L 61.40 98.13 L 61.37 98.13 L 61.19 98.27 L 61.15 98.47 L 61.10 98.78 L 61.18 99.23"/><path d="M 62.20 98.10 L 61.91 98.53 L 61.73 99.62 L 61.73 99.67 L 61.76 99.72 L 61.81 99.72 L 61.85 99.69 L 62.06 99.34 L 62.49 97.57 L 62.50 97.48 L 62.47 97.45 L 62.44 97.44 L 62.40 97.46 L 62.11 97.65 L 62.09 97.69 L 62.08 97.74 L 62.10 97.84 L 62.20 98.10"/><path d="M 49.43 65.38 L 48.85 67.69 L 48.74 68.13"/><path d="M 65.06 94.89 L 66.04 95.13 L 66.30 95.20 L 66.98 95.40"/><path d="M 66.98 95.40 L 68.30 94.53 L 69.64 93.64 L 70.34 93.17 L 70.94 92.78 L 71.71 92.27"/><path d="M 70.94 95.27 L 68.30 94.53"/><path d="M 71.21 94.08 L 69.64 93.64"/><path d="M 72.08 93.09 L 70.94 92.78"/><path d="M 70.34 93.17 L 69.97 92.71 L 69.84 92.54 L 69.33 91.90"/><path d="M 66.98 95.40 L 70.44 96.36 L 73.38 95.61"/><path d="M 78.36 -16.52 L 75.38 -11.83 L 75.05 -11.29 L 74.22 -9.94 L 73.88 -9.36 L 71.86 -5.82 L 71.52 -5.25 L 68.84 -0.74 L 66.93 2.36"/><path d="M 62.73 94.72 L 62.61 94.79 L 62.51 95.39 L 62.54 95.52 L 62.68 95.59 L 62.88 95.60 L 63.61 95.13 L 63.66 95.05 L 63.69 94.95 L 63.63 94.88 L 63.55 94.83 L 63.09 94.70 L 62.91 94.65 L 62.73 94.72"/><path d="M 30.48 80.38 L 30.36 80.84 L 30.05 82.00"/><path d="M 29.71 83.10 L 29.90 83.08 L 30.07 83.01 L 30.21 82.88 L 30.30 82.71 L 30.34 82.53 L 30.32 82.34 L 30.24 82.17 L 30.12 82.03 L 30.05 82.00 L 29.93 81.93 L 29.73 81.90 L 29.52 81.94 L 29.34 82.05 L 29.21 82.22 L 29.15 82.41 L 29.15 82.62 L 29.23 82.82 L 29.37 82.97 L 29.53 83.07 L 29.71 83.10"/><path d="M 15.63 89.26 L 15.46 89.23"/><path d="M 18.28 87.17 L 15.83 86.56 L 15.69 87.19 L 14.72 86.94 L 14.42 86.74 L 14.32 86.47 L 14.45 86.05 L 14.86 85.95 L 17.71 86.57 L 18.26 84.04 L 13.29 82.67 L 13.16 82.48 L 13.23 82.21 L 13.53 82.11 L 16.56 82.86 L 16.56 83.00 L 19.18 83.61 L 19.10 83.94 L 18.33 86.99 L 18.28 87.17"/><path d="M 31.86 97.57 L 31.75 98.14 L 31.70 98.34 L 30.65 102.46 L 30.50 103.08 L 30.41 103.42 L 29.93 105.31 L 29.51 107.07 L 29.45 107.32 L 29.23 108.18"/><path d="M 33.19 92.35 L 33.67 92.47 L 46.10 95.62 L 46.76 95.79"/><path d="M 28.90 63.05 L 30.43 63.43 L 31.48 63.69"/><path d="M 21.56 -22.27 L 76.06 10.23"/><path d="M 61.51 33.05 L 60.82 32.63 L 60.36 32.35"/><path d="M 70.38 17.01 L 70.90 17.36 L 73.68 19.20"/><path d="M 77.89 86.06 L 78.72 85.59 L 79.62 85.14 L 80.31 84.78"/><path d="M 77.89 86.06 L 77.03 86.56 L 76.91 86.66 L 75.66 87.52"/><path d="M 77.89 86.06 L 77.59 87.34 L 77.18 88.79"/><path d="M 78.55 83.50 L 78.54 83.52 L 78.19 84.98 L 77.89 86.06"/><path d="M 56.16 58.75 L 56.77 57.97 L 57.65 56.65 L 59.05 54.51 L 59.22 54.25 L 59.66 53.57"/><path d="M 75.28 9.50 L 75.82 9.04 L 76.41 8.14 L 76.93 7.34 L 77.02 6.82"/><path d="M 75.67 7.77 L 75.97 7.93"/><path d="M 20.66 94.75 L 31.04 97.37 L 31.36 97.45 L 31.86 97.57"/><path d="M 19.35 88.27 L 19.10 87.77"/><path d="M 19.10 83.94 L 20.15 84.14"/><path d="M 20.28 87.05 L 21.11 86.27 L 21.96 85.32 L 23.14 83.68"/><path d="M 59.84 52.76 L 60.15 52.85 L 60.48 52.94"/><path d="M 58.63 54.26 L 58.78 54.15"/><path d="M 56.86 53.70 L 57.02 53.72 L 58.78 54.15 L 58.87 54.17"/><path d="M 57.03 53.55 L 57.02 53.72 L 56.99 53.89 L 57.01 56.10 L 57.09 56.19 L 57.25 56.26"/><path d="M 57.13 53.86 L 57.02 53.72"/><path d="M 65.60 94.52 L 65.06 94.89"/><path d="M 48.08 90.55 L 47.44 90.40 L 35.29 87.28 L 34.99 87.21 L 34.53 87.09 L 34.04 86.96 L 30.10 85.95 L 25.25 84.71 L 25.04 84.68"/><path d="M 18.15 28.28 L 18.99 28.01 L 19.50 27.78 L 20.01 27.48 L 20.40 27.08 L 20.66 26.65 L 20.74 26.31 L 20.73 25.93 L 21.10 24.80 L 21.73 23.72 L 21.98 23.51 L 22.25 23.40 L 22.78 23.35 L 23.16 23.36 L 23.54 23.43 L 23.91 23.57 L 24.18 23.76 L 24.47 23.97 L 24.66 24.22 L 24.80 24.60 L 24.85 25.01 L 24.93 25.39"/><path d="M 55.90 75.61 L 55.78 76.08 L 55.35 77.80"/><path d="M 56.95 81.51 L 57.06 81.05 L 57.52 79.12"/><path d="M 44.41 78.33 L 44.54 77.83 L 45.00 75.93"/><path d="M 51.88 97.10 L 51.98 96.68 L 52.32 95.33"/><path d="M 32.58 94.71 L 33.05 94.83 L 34.22 95.14"/><path d="M 51.51 55.09 L 50.60 58.83"/><path d="M 50.44 54.82 L 49.50 58.54"/><path d="M 82.20 79.76 L 83.21 80.02 L 83.17 80.15 L 81.59 79.75"/><path d="M 12.99 94.64 L 13.72 93.49 L 14.44 92.62 L 14.68 92.33 L 15.21 91.85 L 16.28 90.88 L 16.43 90.74 L 18.42 89.04 L 19.35 88.27 L 20.28 87.05"/><path d="M 76.39 75.19 L 76.26 75.71 L 75.17 80.02 L 75.05 80.48"/><path d="M 63.20 90.76 L 63.55 89.33 L 63.67 88.83 L 63.78 88.40 L 63.89 87.96"/><path d="M 140.76 -131.31 L 141.86 -127.07 L 152.77 -122.82 L 152.99 -122.73 L 157.34 -120.94 L 157.18 -119.76 L 160.18 -118.74 L 159.52 -117.00 L 159.15 -116.45 L 156.69 -117.22 L 156.48 -116.42 L 156.03 -116.56 L 155.08 -111.94 L 156.46 -111.49 L 157.43 -110.49 L 156.50 -107.96 L 156.03 -106.99 L 155.10 -105.65 L 152.99 -103.49 L 152.23 -103.02 L 151.45 -102.87 L 150.75 -103.24 L 150.39 -103.48 L 150.34 -103.61 L 149.84 -103.87 L 149.78 -104.01 L 149.36 -104.04 L 147.54 -102.79 L 146.63 -101.41 L 146.15 -99.85 L 145.49 -99.09 L 140.90 -99.53 L 139.88 -98.79 L 139.19 -98.28 L 139.10 -97.89 L 139.68 -97.36 L 140.04 -96.94 L 139.58 -96.63 L 138.82 -97.40 L 138.46 -97.64 L 138.14 -97.85 L 137.03 -97.07 L 133.25 -91.88 L 131.01 -93.64 L 129.81 -92.79 L 129.00 -92.73 L 128.27 -92.48 L 127.31 -91.86 L 126.46 -91.14 L 125.88 -90.80 L 125.68 -90.45 L 124.85 -89.88 L 124.01 -88.74 L 119.55 -84.50 L 109.22 -69.94 L 106.39 -65.02 L 105.21 -62.14 L 103.05 -57.89 L 99.22 -52.20 L 93.71 -42.89 L 89.93 -36.49 L 88.15 -33.56 L 85.42 -29.05 L 83.75 -26.23 L 70.74 -5.40 L 66.01 2.78 L 63.97 6.04"/><path d="M 2.87 48.06 L 3.37 48.43 L 3.48 48.51 L 4.38 47.29 L 4.12 47.10 L 4.20 46.99 L 4.52 47.25 L 4.71 47.36 L 4.97 47.41 L 5.44 47.42 L 5.81 46.99 L 7.01 45.58 L 7.78 44.50 L 8.85 43.45 L 9.66 42.85 L 10.49 42.27 L 11.17 41.69 L 11.97 40.66 L 13.01 39.69 L 13.69 39.10 L 14.19 38.75 L 14.53 38.35 L 15.08 37.57 L 15.67 36.85 L 15.99 36.47 L 16.53 35.78 L 16.70 35.34 L 16.88 34.70 L 17.34 34.42 L 18.32 33.63 L 18.45 33.54 L 20.77 31.57 L 22.39 30.17 L 23.15 29.44 L 23.44 28.87 L 23.82 28.32 L 24.18 27.91 L 24.78 27.45 L 26.76 25.07 L 27.28 24.75 L 27.60 24.53 L 27.53 24.28 L 27.62 24.12 L 27.94 24.12 L 28.85 23.00 L 29.39 22.44 L 30.91 20.46 L 31.86 19.14 L 33.73 16.52 L 35.86 13.26 L 36.44 12.69 L 37.89 10.64 L 38.83 9.21 L 39.06 8.97 L 39.78 8.78 L 41.20 7.10 L 43.35 4.59 L 43.76 4.10 L 44.76 2.75 L 46.15 1.22 L 47.20 -0.08 L 48.43 -1.33 L 49.20 -2.27 L 49.53 -2.24 L 49.76 -2.14"/><path d="M 36.29 -8.52 L 26.39 5.87 L 20.06 15.24 L 20.18 15.33 L 17.28 18.24 L 16.98 17.97 L 15.44 20.07 L 14.48 22.08 L 14.39 22.36 L 13.68 24.40 L 12.43 28.01 L 11.63 30.33 L 11.55 30.30 L 11.15 31.36 L 10.67 32.07 L 10.07 32.78 L 9.54 33.40 L 8.44 34.73 L 7.68 36.04 L 6.15 38.50 L 5.09 40.22 L 4.53 41.77 L 4.19 42.63 L 3.79 43.95 L 3.33 44.74 L 2.85 45.45 L 2.92 45.97 L 3.50 46.43 L 3.41 46.56 L 3.16 46.38 L 2.27 47.61"/><path d="M 38.16 9.55 L 37.95 9.40"/><path d="M 25.31 7.61 L 25.44 7.89 L 25.66 8.12"/><path d="M 122.37 -107.72 L 122.22 -107.12 L 120.76 -103.78 L 120.41 -103.21 L 120.35 -103.07 L 120.15 -102.85 L 119.87 -102.60 L 119.57 -102.41 L 118.78 -101.91 L 118.03 -101.48 L 117.50 -101.17 L 117.28 -101.03 L 117.06 -100.89 L 116.72 -100.64 L 116.45 -100.44 L 116.19 -100.19 L 115.70 -99.76 L 115.11 -99.17 L 114.05 -98.18 L 113.00 -97.19 L 112.72 -96.94 L 112.34 -96.55 L 111.51 -95.80 L 111.05 -95.33 L 110.50 -94.72 L 110.27 -94.49 L 110.04 -94.20 L 109.83 -93.82 L 109.55 -93.28 L 108.80 -92.17 L 108.38 -91.57 L 107.47 -90.30 L 104.46 -86.06 L 102.12 -81.81 L 101.43 -80.62 L 100.70 -79.34 L 98.17 -74.88 L 95.13 -70.59 L 93.86 -68.80 L 92.66 -67.12 L 88.14 -60.12 L 87.44 -59.00 L 86.91 -58.14 L 86.67 -57.80 L 86.48 -57.57 L 86.29 -57.43 L 86.24 -57.35 L 86.18 -57.28 L 86.14 -57.13 L 86.13 -56.98 L 85.49 -55.91 L 85.16 -55.41 L 84.65 -54.67 L 83.53 -52.88 L 83.49 -52.82 L 83.09 -52.17 L 82.07 -50.60 L 81.62 -49.89 L 81.16 -49.22 L 80.96 -48.93 L 78.69 -45.35 L 72.38 -35.48 L 71.12 -34.22 L 69.38 -32.49 L 68.08 -31.19 L 66.96 -30.08 L 65.73 -28.31 L 63.49 -24.97 L 62.46 -23.48 L 62.20 -23.36 L 62.09 -23.18 L 62.10 -22.88 L 61.50 -21.98 L 60.14 -20.93 L 60.02 -20.61 L 59.94 -20.48 L 59.69 -20.19 L 59.03 -19.41 L 58.95 -19.35 L 58.86 -19.32 L 58.77 -19.27 L 58.72 -19.19 L 58.66 -19.02 L 58.56 -18.80 L 57.71 -17.30 L 57.33 -16.66 L 56.93 -15.98 L 56.79 -15.75 L 56.58 -15.26 L 56.38 -14.97 L 56.33 -14.58 L 56.28 -14.10 L 56.23 -13.47 L 56.16 -12.80 L 56.16 -12.78 L 56.15 -12.66 L 56.10 -12.53 L 55.89 -12.03 L 55.68 -11.56 L 55.57 -11.37 L 55.24 -10.78 L 54.94 -10.25 L 54.44 -9.33 L 54.03 -8.71 L 53.86 -8.44 L 53.78 -8.30 L 53.51 -7.90 L 53.38 -7.70 L 53.21 -7.44 L 52.98 -7.10 L 52.93 -7.02 L 52.86 -6.97 L 52.79 -6.94 L 52.09 -6.86 L 51.69 -6.85 L 51.38 -6.75 L 49.43 -5.03 L 49.28 -4.85 L 48.27 -2.94 L 48.14 -2.66 L 47.88 -1.47 L 47.78 -1.24 L 47.37 -0.70 L 46.78 -0.12 L 46.46 0.35 L 46.02 0.96 L 44.40 2.92 L 43.85 2.17"/><path d="M 34.88 2.10 L 35.61 2.40 L 36.57 2.61"/><path d="M 65.92 79.86 L 66.20 78.76 L 66.32 78.26 L 66.44 77.77 L 67.52 73.44 L 67.65 72.95 L 67.77 72.47 L 68.84 68.16 L 68.98 67.62 L 69.09 67.17 L 70.11 63.06 L 70.17 62.85 L 70.29 62.35 L 70.41 61.89 L 70.95 59.76"/><path d="M 71.32 58.34 L 71.53 57.48 L 71.35 56.55"/><path d="M 55.71 53.17 L 55.69 52.57 L 55.67 51.66"/><path d="M 56.81 47.14 L 57.85 47.44 L 61.09 48.36 L 62.27 48.67 L 62.42 48.71"/><path d="M 56.81 46.98 L 56.81 47.14 L 56.82 47.22 L 56.84 48.70"/><path d="M 56.67 46.29 L 56.23 46.23 L 55.69 46.13"/><path d="M 59.93 42.45 L 59.72 42.34 L 56.71 41.57 L 56.74 42.54"/><path d="M 56.71 41.57 L 56.70 41.10 L 56.69 40.60"/><path d="M 56.69 40.60 L 56.67 39.13 L 57.83 37.26 L 58.03 36.95 L 59.23 35.07 L 60.82 32.63 L 61.95 30.94 L 64.22 27.58 L 64.31 27.43"/><path d="M 63.34 26.84 L 63.74 27.14 L 64.10 27.47"/><path d="M 70.94 25.53 L 70.81 25.72 L 68.05 29.85 L 67.99 29.94"/><path d="M 67.66 30.48 L 67.59 30.60 L 60.40 41.60"/><path d="M 67.18 23.08 L 67.42 22.72 L 67.64 22.40"/><path d="M 66.92 23.13 L 66.56 22.87 L 66.12 22.55"/><path d="M 67.61 22.04 L 67.26 21.80 L 66.82 21.51"/><path d="M 71.39 24.77 L 71.49 24.61 L 75.47 18.49 L 77.43 15.60"/><path d="M 73.00 14.10 L 73.29 13.68 L 73.74 13.00 L 74.01 12.64"/><path d="M 83.04 -2.81 L 79.20 2.34"/><path d="M 73.89 10.47 L 73.10 11.80 L 72.19 13.20 L 71.87 13.67 L 69.87 16.65 L 69.32 17.46 L 67.98 19.59 L 66.95 21.06 L 66.70 21.40 L 66.04 22.45 L 65.70 23.01 L 63.88 25.72 L 63.56 26.21 L 63.41 26.46 L 63.25 26.72 L 62.63 27.70 L 60.74 30.50 L 59.44 32.48 L 58.56 33.83 L 58.14 34.46 L 57.90 34.84 L 55.69 38.43 L 55.50 38.83 L 55.52 44.85 L 55.51 46.13 L 55.70 49.00 L 55.69 51.24 L 55.67 51.66"/><path d="M 41.03 61.52 L 41.06 61.42 L 41.27 60.83 L 41.15 60.76 L 40.55 60.46 L 40.12 60.27 L 39.70 60.11 L 39.32 59.97 L 39.08 59.90 L 38.82 59.76 L 38.57 59.54"/><path d="M 30.65 55.30 L 30.62 55.28 L 30.14 55.01 L 29.33 54.57 L 28.44 54.06"/><path d="M 28.44 54.06 L 27.93 54.94 L 27.44 55.81 L 27.26 56.12 L 26.95 56.65 L 25.85 58.35"/><path d="M 28.67 62.97 L 26.63 62.41 L 26.33 61.66 L 26.13 60.75 L 26.17 59.72 L 26.45 58.89 L 26.52 58.77 L 26.54 58.74 L 27.00 57.97 L 27.53 57.47 L 27.90 57.20 L 28.04 57.03 L 28.30 56.71 L 28.49 56.11"/><path d="M 28.04 57.03 L 28.53 57.56 L 28.59 57.73 L 30.21 62.84 L 30.26 63.00"/><path d="M 25.35 62.05 L 26.63 62.41"/><path d="M 25.35 62.05 L 24.94 62.96 L 24.26 63.74 L 23.67 65.11 L 23.64 66.14 L 23.99 66.96 L 25.01 67.86 L 25.76 68.26 L 26.48 68.36 L 27.56 68.64 L 28.25 68.38 L 29.09 68.43 L 29.79 68.38 L 30.56 68.66 L 31.30 68.82 L 31.47 68.86"/><path d="M 23.99 66.96 L 22.14 67.39"/><path d="M 22.15 67.93 L 21.79 69.23 L 21.49 69.83 L 21.37 70.07 L 20.59 70.98 L 20.25 71.38 L 20.17 71.45 L 19.42 72.17 L 19.34 73.22 L 19.34 74.06 L 19.50 75.04 L 20.03 76.67"/><path d="M 19.42 72.17 L 18.13 72.42 L 16.45 75.77 L 20.03 76.67 L 20.89 76.98 L 21.85 76.75 L 22.21 75.25"/><path d="M 22.21 75.25 L 22.63 74.54 L 23.47 73.79 L 24.74 73.23 L 25.73 73.32 L 26.49 73.31"/><path d="M 25.76 68.26 L 26.20 69.75 L 26.13 70.35 L 25.95 71.24 L 25.64 71.86 L 25.07 72.70 L 24.74 73.23"/><path d="M 26.20 69.75 L 26.48 70.12 L 26.86 70.65 L 26.79 71.60 L 26.64 72.31 L 26.49 73.31"/><path d="M 26.86 70.65 L 26.97 70.33 L 27.46 68.91 L 27.56 68.64"/><path d="M 20.89 76.98 L 20.79 77.91 L 20.78 77.97 L 20.70 78.52 L 20.04 78.79 L 19.16 78.80 L 17.40 78.43 L 16.54 78.72 L 15.90 79.44 L 15.64 80.42 L 15.72 80.81 L 20.53 81.94 L 20.85 81.21 L 20.99 80.11 L 20.87 79.19 L 20.70 78.52"/><path d="M 20.53 81.94 L 20.43 82.27 L 20.27 82.84"/><path d="M 19.10 83.94 L 13.54 82.47"/><path d="M 18.33 86.99 L 14.85 86.24"/><path d="M 15.46 89.23 L 14.10 88.88 L 14.03 89.17 L 12.63 88.80 L 12.56 89.06 L 10.40 88.47"/><path d="M 15.19 90.59 L 15.92 90.76 L 16.28 90.88"/><path d="M 15.92 90.76 L 16.08 90.07 L 16.18 89.72 L 16.45 89.66 L 16.83 89.52 L 17.44 89.09 L 17.81 88.94 L 17.94 88.28 L 18.03 88.00"/><path d="M 33.27 47.87 L 33.86 47.20 L 35.67 47.68 L 36.68 47.95 L 36.45 48.27 L 36.21 48.61 L 35.58 48.46 L 33.27 47.87"/><path d="M 33.50 7.99 L 33.94 8.04 L 34.64 8.21 L 35.39 8.46 L 35.31 8.65 L 36.69 9.43 L 35.95 10.53 L 35.58 10.66 L 35.47 10.73 L 35.39 10.89 L 35.02 11.85 L 32.27 15.73 L 31.86 15.80 L 31.78 15.86 L 31.76 15.92 L 31.63 16.63 L 30.40 18.26 L 28.54 20.57 L 27.17 22.60 L 26.32 22.00 L 26.12 22.26 L 26.26 22.36 L 26.09 22.56 L 26.00 22.55 L 25.78 22.84 L 24.99 22.29 L 24.03 21.61 L 20.44 18.95 L 20.72 18.65 L 20.83 18.37 L 20.92 18.06 L 21.07 17.76 L 21.26 17.53 L 21.50 17.25 L 22.12 16.35 L 22.64 15.55 L 23.98 13.31 L 25.09 11.27 L 25.39 11.22 L 25.55 11.03 L 25.75 10.07 L 26.42 8.83 L 27.14 8.69 L 27.86 8.61 L 31.34 8.40 L 31.52 8.40 L 31.58 8.47 L 31.54 8.57 L 31.04 9.27 L 31.24 9.40 L 31.41 9.52 L 31.92 8.80 L 32.11 8.60 L 32.32 8.41 L 32.55 8.24 L 32.79 8.12 L 33.13 8.03 L 33.50 7.99"/><path d="M 55.96 59.47 L 55.37 59.32 L 53.61 58.89"/><path d="M 53.08 55.50 L 53.03 55.72 L 52.55 57.85"/><path d="M 52.55 57.85 L 53.61 58.89"/><path d="M 53.61 58.89 L 53.38 59.92"/><path d="M 53.38 59.92 L 54.53 60.23"/><path d="M 53.11 51.99 L 52.93 52.71 L 52.63 53.91"/><path d="M 52.63 53.91 L 45.23 52.06"/><path d="M 43.51 52.07 L 44.53 52.27"/><path d="M 44.53 52.27 L 45.23 52.06"/><path d="M 42.66 61.47 L 41.62 65.79 L 41.50 66.29"/><path d="M 46.05 76.21 L 45.59 78.12 L 45.47 78.61"/><path d="M 45.00 75.93 L 46.05 76.21"/><path d="M 52.84 95.96 L 55.01 96.50"/><path d="M 55.01 96.50 L 54.79 97.41 L 54.69 97.82"/><path d="M 56.96 92.81 L 56.85 93.26 L 56.80 93.44 L 56.64 94.16"/><path d="M 56.64 94.16 L 53.06 93.29"/><path d="M 67.53 79.31 L 67.33 80.22 L 67.20 80.77"/><path d="M 65.92 79.86 L 66.56 80.02 L 67.33 80.22"/><path d="M 67.16 81.04 L 67.02 81.66 L 66.84 82.42"/><path d="M 65.57 81.27 L 66.19 81.44 L 67.02 81.66"/><path d="M 69.75 82.23 L 69.37 83.61 L 68.93 83.90 L 68.89 84.07 L 68.79 84.53"/><path d="M 72.66 83.08 L 72.29 84.65 L 72.22 84.93 L 72.11 85.40"/><path d="M 76.05 64.61 L 76.12 64.29 L 76.22 63.85"/><path d="M 77.72 95.32 L 77.75 95.65 L 77.85 96.49 L 77.91 97.01 L 77.98 97.47 L 78.05 97.97 L 78.13 98.49 L 78.18 98.66 L 78.22 98.82 L 78.31 98.98 L 78.41 99.14 L 78.65 99.43 L 78.79 99.59 L 78.90 99.73 L 78.97 99.88 L 79.06 100.06 L 79.15 100.28 L 79.19 100.52 L 79.19 100.77"/><path d="M 74.96 68.53 L 74.91 68.69 L 74.76 69.13"/><path d="M 127.59 -149.90 L 133.30 -130.80 L 134.64 -126.42 L 135.38 -117.96 L 133.64 -109.00 L 125.92 -99.54 L 108.50 -82.61 L 95.06 -58.97 L 77.63 -31.09 L 57.47 0.52 L 30.84 35.37 L -36.21 115.93"/><path d="M 10.73 130.04 L 10.82 130.00 L 10.96 129.91 L 11.11 129.82 L 11.35 129.67 L 11.64 129.41 L 11.73 129.33 L 11.83 129.17 L 11.99 128.92 L 12.01 128.80 L 12.07 128.59 L 13.78 121.92 L 13.82 121.77 L 13.95 121.27 L 14.05 120.85 L 14.40 119.50 L 15.08 116.61 L 15.28 116.02 L 15.46 115.46 L 16.77 110.27 L 17.74 106.44 L 17.81 106.17 L 17.96 105.41 L 18.15 104.57 L 18.19 104.39 L 19.21 100.57 L 19.31 100.19 L 19.44 99.62 L 19.52 99.31 L 20.53 95.27 L 20.66 94.75"/><path d="M 12.16 97.65 L 12.19 97.55 L 12.36 97.11 L 12.94 95.77 L 13.59 94.43 L 14.09 93.64 L 14.19 93.43 L 14.92 93.33"/><path d="M 80.35 86.60 L 80.02 86.80 L 79.71 87.03 L 79.39 87.28 L 79.10 87.58 L 78.88 87.86 L 78.67 88.27 L 78.52 88.69 L 78.40 89.10 L 78.28 89.65 L 78.14 90.44 L 78.03 91.04 L 77.97 91.61 L 77.78 94.36 L 77.73 94.89 L 77.72 95.32"/><path d="M 79.62 85.14 L 79.98 85.87 L 80.17 86.23 L 80.35 86.60 L 80.69 87.27"/><path d="M 105.03 71.42 L 104.89 71.36 L 104.69 71.26 L 104.49 71.18 L 104.26 71.10 L 97.37 69.31 L 97.09 69.24 L 96.44 69.06 L 95.81 68.91 L 83.76 65.81 L 83.07 65.64"/><path d="M 24.22 78.80 L 22.03 78.28 L 21.05 78.04 L 20.78 77.97"/><path d="M 41.24 60.44 L 41.15 60.76 L 40.96 61.39 L 41.06 61.42 L 41.48 61.55 L 41.77 60.59 L 41.24 60.44"/><path d="M 40.55 60.46 L 40.41 61.06"/><path d="M 38.57 59.54 L 38.25 59.31 L 37.84 59.08 L 37.28 58.78 L 36.65 58.43"/><path d="M 36.65 58.43 L 36.41 58.37 L 36.12 58.34 L 35.78 58.25 L 35.50 58.14 L 35.28 58.01 L 35.06 57.86 L 34.84 57.69 L 34.67 57.49 L 34.48 57.32 L 34.20 57.13"/><path d="M 34.20 57.13 L 32.69 56.34 L 32.26 56.11 L 31.94 55.99 L 31.54 55.84 L 31.14 55.66 L 30.87 55.48 L 30.65 55.30"/><path d="M 27.93 54.94 L 28.58 55.37 L 28.81 55.52"/><path d="M 29.33 54.57 L 28.95 55.27 L 28.81 55.52"/><path d="M 30.65 55.30 L 30.39 55.49 L 30.06 55.60 L 29.77 55.69 L 29.33 55.76 L 28.91 55.86 L 28.49 56.11 L 26.95 56.65"/><path d="M 24.07 58.22 L 24.47 57.48 L 25.66 58.24"/><path d="M 25.85 58.35 L 25.03 59.74 L 22.13 64.63 L 20.45 67.47"/><path d="M 20.45 67.47 L 22.15 67.93"/><path d="M 22.15 67.93 L 22.14 67.39 L 22.13 64.63"/><path d="M 56.29 49.06 L 56.88 49.21 L 60.60 50.13"/><path d="M 60.60 50.13 L 60.84 49.21 L 60.95 48.79"/><path d="M 63.97 26.80 L 63.41 26.46 L 61.49 25.26"/><path d="M 61.49 25.26 L 60.57 26.71"/><path d="M 25.35 62.05 L 25.03 59.74"/><path d="M 86.69 12.58 L 86.13 12.63 L 85.98 12.58 L 85.74 12.50 L 83.06 11.00"/><path d="M 77.02 6.82 L 77.55 7.12 L 77.87 7.31 L 81.41 9.35"/><path d="M 77.02 6.82 L 76.59 7.08 L 76.28 7.51 L 75.97 7.93"/><path d="M 21.99 88.88 L 24.23 89.46 L 25.00 86.41 L 23.90 86.11 L 21.83 88.38 L 21.81 88.63 L 21.99 88.88"/><path d="M 25.66 58.24 L 25.85 58.35 L 25.95 58.42"/><path d="M 43.59 1.87 L 43.44 1.67"/><path d="M 43.59 1.87 L 43.21 2.13 L 42.77 2.45 L 42.38 2.79 L 41.97 3.18 L 41.59 3.60 L 41.25 4.03 L 40.92 4.47 L 40.51 5.05 L 38.60 7.75 L 37.79 8.89 L 37.59 9.16 L 35.87 11.62 L 33.07 15.61 L 32.87 15.88 L 32.04 17.07 L 31.47 17.84 L 30.92 18.58 L 30.28 19.37 L 29.57 20.25 L 28.94 21.02 L 28.61 21.42 L 28.29 21.84 L 27.08 23.39 L 27.00 23.50 L 26.93 23.57 L 26.81 23.64 L 26.69 23.70 L 26.56 23.72 L 26.45 23.72 L 26.32 23.70 L 26.24 23.67"/><path d="M 82.51 32.73 L 82.19 33.23 L 82.06 33.44 L 81.47 34.34 L 82.32 34.93"/><path d="M 37.70 46.46 L 19.04 29.02 L -1.42 9.98 L -2.77 8.87 L -4.28 7.92"/><path d="M -35.62 60.38 L 11.17 86.55 L 25.37 94.51 L 28.36 96.19"/><path d="M 28.36 96.19 L 29.84 96.92 L 31.08 97.43 L 32.27 97.79 L 44.01 100.90 L 55.13 103.67 L 65.57 106.26 L 68.29 106.62 L 69.88 106.48 L 71.01 106.39 L 73.71 105.73 L 77.40 104.58 L 81.48 103.31 L 81.71 103.24"/><path d="M 57.24 84.13 L 57.72 82.44 L 57.78 82.21 L 57.89 81.75"/><path d="M 79.45 96.75 L 88.56 95.22"/><path d="M 79.54 97.22 L 88.64 95.68"/><path d="M 66.72 97.62 L 67.57 97.68 L 68.11 97.69 L 68.41 97.68 L 74.77 97.69 L 75.40 97.69 L 76.08 97.67 L 76.61 97.64 L 77.05 97.60 L 77.53 97.55 L 77.98 97.47 L 79.54 97.22"/><path d="M 79.62 97.71 L 88.72 96.18"/><path d="M 79.73 98.39 L 88.84 96.88"/><path d="M 84.27 98.08 L 88.91 97.29"/><path d="M 33.19 92.35 L 33.07 92.82 L 32.58 94.71 L 31.94 97.17 L 31.86 97.57"/><path d="M 116.53 34.12 L 89.21 18.44 L 75.85 10.74"/><path d="M 60.42 71.09 L 60.53 70.64 L 61.03 68.65"/><path d="M 30.25 96.66 L 25.61 94.03 L 11.41 86.08 L -35.37 59.90"/><path d="M 81.62 102.96 L 81.38 103.03 L 73.59 105.44 L 70.91 106.09 L 69.67 106.19 L 68.25 106.30 L 65.62 105.94 L 55.23 103.37 L 44.15 100.63 L 32.37 97.49 L 31.28 97.12 L 30.25 96.66"/><path d="M 76.20 10.00 L 21.69 -22.50"/><path d="M 76.06 10.23 L 79.31 12.48 L 90.05 18.87 L 94.94 21.70 L 98.91 24.01 L 103.41 26.57 L 104.52 27.21 L 105.54 27.99 L 106.46 28.89 L 107.26 29.90 L 107.93 30.99 L 108.46 32.16 L 108.84 33.38 L 109.07 34.65 L 109.18 35.88 L 108.95 39.28 L 108.80 41.55 L 108.58 44.62 L 108.60 45.35 L 108.67 46.08 L 108.79 46.86 L 108.97 47.64 L 109.21 48.34 L 109.45 48.94 L 109.87 49.77 L 110.55 50.72 L 111.42 51.58 L 112.14 52.20 L 113.85 53.49 L 114.44 53.98 L 114.94 54.48 L 115.37 54.99 L 115.93 55.75 L 116.52 56.49 L 117.18 57.19 L 118.00 57.93"/><path d="M 104.41 71.82 L 97.87 75.23 L 80.08 84.59 L 77.81 85.80 L 75.30 87.41 L 65.09 94.45 L 56.03 100.69 L 49.55 105.38 L 47.07 107.24 L 44.82 109.40 L 42.84 111.81 L 41.15 114.43 L 39.80 117.24 L 38.79 120.18"/><path d="M 39.04 120.26 L 40.04 117.34 L 41.38 114.56 L 43.05 111.96 L 45.01 109.58 L 47.24 107.44 L 49.71 105.59 L 56.42 101.25 L 65.49 95.01 L 75.73 87.94 L 78.16 86.39 L 80.40 85.19 L 98.18 75.84 L 104.72 72.42"/><path d="M -4.56 8.42 L -2.69 9.57 L -1.37 10.65 L 18.76 29.33 L 37.42 46.76"/><path d="M 56.66 98.33 L 56.77 97.93 L 56.84 97.66 L 57.17 96.55"/><path d="M 104.03 64.81 L 100.38 63.87 L 87.39 60.54 L 69.03 55.83 L 42.49 49.03 L 40.77 48.42 L 39.16 47.56 L 37.70 46.46"/><path d="M 37.42 46.76 L 38.96 47.85 L 40.64 48.71 L 42.43 49.28 L 68.97 56.09 L 87.32 60.79 L 100.31 64.12 L 103.96 65.06"/><path d="M 84.98 52.09 L 85.72 52.32 L 86.42 52.51"/><path d="M 58.85 37.47 L 58.03 36.95 L 57.55 36.65"/><path d="M 57.25 41.24 L 57.36 40.77 L 57.54 39.58"/><path d="M 57.54 39.58 L 58.85 37.47"/><path d="M 56.12 42.54 L 56.74 42.54 L 57.41 42.54"/><path d="M 64.34 48.73 L 64.28 49.17 L 64.11 50.52"/><path d="M 64.11 50.52 L 66.55 50.83"/><path d="M 77.47 14.27 L 73.74 13.00 L 73.15 12.80"/><path d="M 77.46 15.03 L 78.15 15.36 L 82.87 18.08 L 87.24 20.60 L 87.37 20.67 L 88.06 21.07 L 92.78 23.74 L 94.89 24.95 L 96.90 26.18 L 97.59 26.44"/><path d="M 57.51 34.05 L 58.14 34.46 L 58.73 34.84"/><path d="M 56.12 33.38 L 57.19 34.12 L 57.51 34.05"/><path d="M 56.88 32.76 L 57.51 34.05"/><path d="M 56.62 32.59 L 56.12 33.38"/><path d="M 53.01 23.90 L 54.46 23.96 L 56.05 24.08 L 56.66 24.13 L 57.37 24.60 L 58.52 25.36 L 59.71 26.15 L 60.25 26.50"/><path d="M 26.41 58.70 L 26.52 58.77"/><path d="M 25.95 58.42 L 26.41 58.70"/><path d="M 105.08 24.50 L 95.70 19.17 L 85.73 13.52 L 76.87 8.36"/><path d="M 26.61 23.40 L 26.60 23.32"/><path d="M 19.10 18.69 L 19.65 18.71 L 19.96 18.74"/><path d="M 28.96 3.26 L 28.86 3.16 L 28.87 3.07 L 28.84 2.99 L 28.67 2.85"/><path d="M 26.30 8.45 L 26.43 8.51 L 26.64 8.55 L 27.80 8.43 L 30.55 8.27 L 31.15 8.19 L 31.84 7.94 L 32.36 7.61 L 32.79 7.30 L 33.38 6.05 L 34.39 4.12 L 34.48 3.93 L 34.74 2.90 L 34.88 2.10 L 35.18 0.47 L 35.30 -0.80 L 35.52 -2.06 L 35.67 -3.34 L 35.62 -3.82 L 35.47 -4.53"/><path d="M 32.66 15.72 L 32.51 15.62"/><path d="M 41.77 2.71 L 40.88 2.55 L 39.78 2.40 L 38.95 2.35 L 38.70 2.32 L 37.40 2.41 L 36.57 2.61 L 36.27 2.74 L 36.07 2.82 L 35.63 3.08 L 34.96 3.49 L 34.48 3.93"/><path d="M 29.49 3.63 L 29.27 3.47 L 28.96 3.26"/><path d="M 33.22 16.12 L 32.87 15.88 L 32.66 15.72"/><path d="M 35.47 -4.53 L 35.33 -4.34 L 31.41 1.27 L 31.17 1.37 L 31.01 1.42 L 30.89 1.62 L 30.87 1.95 L 30.74 2.24 L 29.62 3.82 L 27.94 6.18 L 26.43 8.51 L 24.75 11.57 L 23.99 13.00 L 22.77 15.07 L 22.12 16.05 L 21.44 17.07 L 21.20 17.40 L 20.99 17.68 L 20.86 17.97 L 20.77 18.21 L 20.70 18.47 L 20.53 18.68 L 20.28 18.78 L 20.27 19.03 L 25.49 22.80 L 26.29 23.29 L 26.44 23.33 L 26.60 23.32 L 26.81 23.20 L 27.01 22.99 L 28.41 20.90 L 29.82 19.15 L 32.51 15.62 L 37.19 8.91 L 38.21 7.48 L 39.31 5.95 L 40.27 4.57 L 40.72 3.94 L 41.33 3.20 L 41.77 2.71 L 42.32 2.19 L 42.85 1.84 L 43.04 1.71 L 43.29 1.54"/><path d="M 37.38 9.03 L 37.19 8.91 L 37.04 8.82 L 33.59 7.65 L 33.36 7.57 L 33.05 7.45 L 32.79 7.30 L 31.62 5.93 L 30.85 5.15 L 29.62 3.82 L 29.49 3.63"/><path d="M 26.87 24.36 L 26.82 24.19"/><path d="M 19.96 18.74 L 20.28 18.78"/><path d="M 43.85 2.17 L 43.59 1.87"/><path d="M 20.24 15.39 L 20.19 15.22 L 23.34 10.55 L 24.23 9.25 L 25.31 7.61 L 25.48 7.36 L 26.01 6.59 L 27.23 4.93 L 28.67 2.85 L 30.10 0.82 L 30.57 0.16 L 31.56 -1.22 L 34.19 -5.16 L 35.11 -6.54 L 35.41 -6.98 L 35.52 -7.16 L 35.94 -7.81 L 36.40 -7.55 L 36.95 -7.79 L 37.34 -8.33 L 37.56 -8.65 L 37.78 -8.96"/><path d="M 38.14 7.42 L 38.21 7.48 L 38.60 7.75"/><path d="M 48.22 54.25 L 48.17 54.49 L 47.63 56.60"/><path d="M 85.73 13.52 L 85.94 13.20 L 85.98 12.58 L 86.57 11.65 L 87.42 10.52 L 89.24 8.12 L 92.05 4.37 L 93.57 2.33"/><path d="M 87.42 10.52 L 86.03 9.35 L 85.62 8.37 L 85.27 7.90 L 85.02 7.72 L 82.91 6.21 L 82.51 5.96 L 81.80 5.52 L 80.68 5.52 L 79.92 5.34 L 79.01 4.88"/><path d="M 92.05 4.37 L 91.09 3.75 L 89.11 3.22 L 88.43 3.05 L 85.02 7.72"/><path d="M 85.99 1.15 L 82.51 5.96"/><path d="M 20.66 95.31 L 20.53 95.27 L 20.08 95.17 L 19.62 95.05"/><path d="M 14.97 93.94 L 14.58 93.81 L 14.26 93.69"/><path d="M 33.59 7.65 L 35.57 6.22"/><path d="M 34.48 3.93 L 34.57 3.99"/><path d="M 32.79 7.30 L 32.28 7.90 L 31.85 8.48 L 31.24 9.40"/><path d="M 25.66 8.12 L 26.01 8.31 L 26.30 8.45"/><path d="M 30.85 5.15 L 31.90 4.39"/><path d="M 36.27 2.74 L 36.07 3.40"/><path d="M 38.95 2.35 L 38.95 2.62 L 39.28 2.95 L 39.73 3.41"/><path d="M 39.28 2.95 L 39.27 3.41"/><path d="M 40.27 4.57 L 39.77 4.59"/><path d="M 39.77 4.59 L 39.21 4.59"/><path d="M 39.21 4.59 L 38.92 4.59"/><path d="M 39.78 1.97 L 39.78 2.40"/><path d="M 43.29 1.54 L 43.38 1.43 L 43.42 1.30 L 43.37 1.17 L 43.26 1.05 L 43.10 0.93 L 43.03 0.88 L 35.47 -4.53"/><path d="M 43.03 0.88 L 42.93 1.06 L 42.87 1.21 L 42.86 1.36 L 42.92 1.50 L 43.04 1.71"/><path d="M 37.38 9.03 L 37.59 9.16 L 37.95 9.40"/><path d="M 26.61 23.40 L 26.69 23.70 L 26.82 24.19"/><path d="M 31.24 9.40 L 30.44 10.56 L 29.67 11.69 L 29.52 11.96 L 28.79 13.33 L 27.77 15.90 L 27.51 16.76 L 26.76 19.25 L 25.85 21.99 L 25.49 22.80"/><path d="M 27.51 16.76 L 20.70 18.47"/><path d="M 29.52 11.96 L 24.75 11.57"/><path d="M 29.52 11.96 L 32.51 15.62"/><path d="M 14.96 36.53 L 15.67 36.85 L 15.08 37.57 L 14.53 38.35 L 14.19 38.75 L 13.69 39.10 L 13.01 39.69 L 11.97 40.66 L 11.17 41.69 L 10.49 42.27 L 9.66 42.85 L 8.85 43.45 L 7.78 44.50 L 7.01 45.58 L 5.81 46.99 L 5.44 47.42 L 4.97 47.41 L 4.71 47.36 L 4.52 47.25 L 4.20 46.99 L 6.81 44.37 L 13.61 38.08 L 13.27 37.84 L 13.83 37.09 L 14.09 37.28 L 14.96 36.53"/><path d="M 13.59 30.53 L 14.25 30.66 L 14.74 30.76 L 15.09 30.76 L 15.49 30.71 L 15.81 30.46 L 16.19 30.12 L 16.36 30.05 L 16.62 30.16 L 16.85 30.50 L 17.58 31.62 L 17.01 32.14 L 16.55 32.61 L 14.05 35.82 L 13.89 36.02 L 13.78 35.93 L 13.67 36.07 L 11.06 34.04 L 11.16 33.91 L 11.05 33.82 L 13.59 30.53"/><path d="M 17.04 32.59 L 18.05 31.80 L 18.78 31.29 L 19.16 30.87 L 19.48 30.60 L 20.13 30.24 L 20.94 29.86 L 21.69 29.42 L 22.85 28.08 L 24.09 26.91 L 24.79 26.02 L 25.49 25.30 L 26.23 24.41 L 26.88 24.88 L 26.76 25.07 L 24.78 27.45 L 24.18 27.91 L 23.82 28.32 L 23.44 28.87 L 23.15 29.44 L 22.39 30.17 L 18.45 33.54 L 18.32 33.63 L 17.04 32.59"/><path d="M 26.24 23.67 L 26.02 24.18"/><path d="M 26.44 24.33 L 26.02 24.18"/><path d="M 30.10 85.95 L 29.90 86.77"/><path d="M 84.82 60.86 L 84.99 60.91 L 97.06 64.10 L 97.31 64.16"/><path d="M 70.67 62.96 L 70.84 63.00 L 76.12 64.29 L 82.25 65.95 L 82.44 66.00"/><path d="M 83.82 65.49 L 83.76 65.81 L 83.71 66.10"/><path d="M 80.90 41.82 L 85.26 35.21"/><path d="M 74.20 46.09 L 74.41 46.14 L 87.52 49.52 L 87.65 49.55"/><path d="M 72.03 57.59 L 72.20 57.63 L 83.60 60.55 L 83.78 60.60"/><path d="M 85.53 53.58 L 86.09 53.72 L 86.63 53.83"/><path d="M 85.34 59.47 L 85.18 60.10 L 85.04 60.71"/><path d="M 84.21 58.99 L 84.04 58.94 L 71.94 55.82 L 71.77 55.78"/><path d="M 88.24 48.71 L 88.08 48.67 L 83.80 47.51 L 89.81 38.22 L 89.94 38.05"/><path d="M 75.73 87.78 L 65.32 95.01 L 65.03 94.63 L 75.49 87.44 L 75.73 87.78"/><path d="M 17.85 31.69 L 17.17 32.32 L 16.76 32.70 L 13.78 36.47"/><path d="M 31.86 97.57 L 32.32 97.69 L 44.34 100.82 L 44.75 100.93 L 45.42 101.09"/><path d="M 29.90 86.77 L 29.77 87.32 L 29.69 87.60"/><path d="M 28.90 90.55 L 28.86 90.74 L 28.75 91.20"/><path d="M 73.89 10.47 L 73.93 10.58 L 74.04 10.70 L 74.45 10.87"/><path d="M 79.20 2.34 L 77.39 5.03 L 75.67 7.77"/><path d="M 75.67 7.77 L 74.52 9.60 L 73.89 10.47"/><path d="M 76.87 8.36 L 76.41 8.14 L 75.97 7.93"/><path d="M 70.51 2.47 L 70.45 3.03 L 70.46 3.59 L 70.48 4.15 L 70.77 4.74 L 71.33 5.19 L 73.22 6.28 L 75.53 7.68 L 75.67 7.77"/><path d="M 82.10 71.52 L 82.26 71.57 L 93.80 74.56 L 94.37 74.71"/><path d="M 82.31 71.38 L 82.38 71.06 L 82.44 70.76"/><path d="M 81.07 71.28 L 81.60 71.42 L 82.10 71.52"/><path d="M 82.34 70.61 L 81.83 70.47 L 81.35 70.34"/><path d="M 46.76 95.79 L 46.62 96.30 L 45.62 100.30 L 45.54 100.62 L 45.42 101.09"/><path d="M 36.45 48.27 L 38.17 48.65"/><path d="M 74.57 45.35 L 74.62 45.16 L 76.35 38.59 L 76.39 38.45"/><path d="M 80.26 42.04 L 80.90 41.82"/><path d="M 84.10 83.73 L 89.15 81.08 L 91.96 86.46 L 93.43 89.28"/><path d="M 84.10 83.73 L 83.48 84.06"/><path d="M 83.48 84.06 L 80.39 85.68"/><path d="M 80.39 85.68 L 79.98 85.87 L 79.55 86.07"/><path d="M 78.50 86.47 L 78.41 86.78 L 75.97 95.70"/><path d="M 75.97 95.70 L 74.59 101.26"/><path d="M 71.77 91.20 L 71.59 91.33 L 69.84 92.54 L 66.04 95.13 L 65.37 95.59 L 63.68 96.74 L 63.34 96.97 L 63.20 97.07"/><path d="M 73.54 100.94 L 74.83 95.84"/><path d="M 43.29 1.54 L 43.44 1.67"/><path d="M 20.31 19.61 L 19.99 19.35"/><path d="M 87.15 60.59 L 85.58 60.20 L 85.18 60.10 L 84.51 59.93"/><path d="M 81.16 59.07 L 81.52 59.16 L 83.83 59.75 L 84.51 59.93"/><path d="M 71.35 56.55 L 72.13 56.75 L 74.03 57.24"/><path d="M 64.66 84.85 L 64.87 84.01 L 65.01 83.54"/><path d="M 59.66 53.57 L 57.27 52.95 L 57.03 52.89 L 56.39 52.74"/><path d="M 56.39 52.74 L 55.69 52.57 L 53.11 51.99"/><path d="M 71.35 56.55 L 70.61 56.36 L 68.95 55.95"/><path d="M 29.22 56.78 L 29.34 57.15 L 29.42 57.43 L 29.51 57.69 L 31.30 63.15 L 31.48 63.69 L 31.67 64.33 L 32.02 65.51 L 32.11 65.84 L 32.19 66.14 L 32.24 66.43 L 32.27 66.70 L 32.29 67.02 L 32.29 67.34 L 32.28 67.65 L 32.25 68.00 L 32.19 68.47 L 32.11 68.92"/><path d="M 32.11 68.92 L 32.08 69.03 L 31.85 69.98 L 31.82 70.10"/><path d="M 31.82 70.10 L 30.74 74.20"/><path d="M 30.74 74.20 L 30.71 74.31 L 30.58 74.77 L 30.48 75.00 L 30.34 75.24 L 30.28 75.34"/><path d="M 31.43 75.00 L 30.58 74.77"/><path d="M 24.21 83.90 L 23.91 84.36"/><path d="M 25.04 84.68 L 24.88 84.65 L 23.91 84.36"/><path d="M 23.35 85.08 L 24.27 85.39 L 24.44 85.38"/><path d="M 19.39 89.33 L 16.97 91.47"/><path d="M 19.84 88.90 L 20.81 89.15"/><path d="M 16.97 91.47 L 16.09 92.25 L 15.82 92.49 L 15.34 92.91 L 15.13 93.10 L 14.92 93.33"/><path d="M 81.15 70.41 L 81.07 70.72 L 80.98 71.06"/><path d="M 27.44 55.81 L 27.84 55.76 L 28.14 55.68 L 28.36 55.50 L 28.58 55.37"/><path d="M 28.95 55.27 L 29.25 55.27 L 29.45 55.22 L 29.76 55.15 L 30.14 55.01"/><path d="M 20.15 84.14 L 20.53 83.99 L 20.63 83.95 L 20.70 83.92 L 20.76 83.88 L 20.84 83.81 L 20.92 83.68 L 21.04 83.60 L 21.16 83.56 L 21.36 83.56 L 21.60 83.61 L 21.91 83.67 L 22.12 83.69 L 22.35 83.70 L 22.84 83.67 L 22.92 83.66 L 22.99 83.65 L 23.14 83.68"/><path d="M 20.92 83.68 L 20.91 83.55 L 20.88 83.44 L 20.86 83.33 L 20.85 83.24 L 20.85 83.13 L 20.86 83.04 L 22.69 83.49 L 22.84 83.56 L 22.99 83.65"/><path d="M 20.43 82.27 L 20.70 82.31 L 22.13 82.51 L 22.13 82.88 L 22.98 82.88 L 23.13 82.88 L 23.12 81.66 L 23.11 80.32"/><path d="M 22.13 82.51 L 22.12 81.09"/><path d="M 23.12 81.66 L 24.64 81.68"/><path d="M 26.63 79.07 L 26.75 78.90 L 29.36 75.14 L 29.43 74.99 L 29.72 74.47 L 29.88 74.10 L 29.95 73.92 L 31.03 69.85 L 31.05 69.75 L 31.30 68.82 L 31.33 68.61 L 31.44 67.80 L 31.30 66.58 L 31.19 65.94 L 30.67 64.03 L 30.59 63.83"/><path d="M 23.14 83.68 L 23.24 83.55"/><path d="M 22.98 82.88 L 22.99 83.65"/><path d="M 22.51 79.46 L 23.52 79.72 L 23.20 80.28 L 23.11 80.32"/><path d="M 23.66 79.18 L 23.52 79.72"/><path d="M 62.49 97.57 L 62.67 97.45 L 62.80 97.36 L 63.20 97.07"/><path d="M 60.28 98.22 L 60.25 98.43 L 60.19 99.00"/><path d="M 58.36 98.49 L 58.02 98.73 L 57.54 99.06"/><path d="M 61.21 94.38 L 61.02 94.33 L 56.85 93.26 L 48.60 91.16"/><path d="M 28.82 55.58 L 28.81 55.52"/><path d="M 63.88 47.10 L 64.39 47.22 L 64.57 47.26 L 65.31 47.44"/><path d="M 65.88 46.29 L 65.39 45.99 L 65.24 45.91 L 64.85 45.68"/><path d="M 65.31 47.44 L 65.88 46.29"/><path d="M 75.40 18.45 L 73.66 17.32"/><path d="M 73.85 15.61 L 74.45 14.64 L 74.53 14.51 L 74.76 14.17"/><path d="M 73.64 15.95 L 73.85 15.61"/><path d="M 73.66 17.32 L 73.03 16.95 L 73.64 15.95"/><path d="M 75.93 18.78 L 75.47 18.49 L 75.40 18.45"/><path d="M 38.58 71.18 L 39.03 71.29 L 51.48 74.49 L 52.12 74.64"/><path d="M 82.76 47.21 L 83.29 47.39 L 83.80 47.51"/><path d="M 70.95 59.76 L 71.32 58.34"/><path d="M 71.35 56.55 L 71.10 57.39 L 69.97 61.78 L 69.85 62.24 L 69.73 62.73 L 68.62 67.06 L 68.50 67.51 L 68.36 68.05 L 67.26 72.36 L 67.14 72.83 L 67.02 73.30 L 65.90 77.65 L 65.78 78.12"/><path d="M 64.43 83.40 L 64.31 83.87 L 63.21 88.28 L 63.11 88.70 L 62.98 89.19 L 62.14 92.38"/><path d="M 61.90 97.05 L 62.07 95.98 L 62.29 94.62 L 62.35 94.20"/><path d="M 61.03 97.62 L 61.90 97.05"/><path d="M 82.17 18.29 L 76.01 27.65 L 75.90 27.83"/><path d="M 77.54 15.65 L 77.85 15.82 L 78.10 15.95"/><path d="M 71.64 24.71 L 71.93 24.91 L 72.15 25.06"/><path d="M 84.51 59.93 L 84.31 60.72 L 84.02 61.85 L 83.83 62.60"/><path d="M 30.90 64.13 L 31.67 64.33 L 32.43 64.53"/><path d="M 30.26 63.00 L 30.43 63.43 L 30.59 63.83"/><path d="M 30.41 62.87 L 31.30 63.15 L 31.99 63.36"/><path d="M 32.31 63.62 L 32.41 63.93 L 32.56 64.38"/><path d="M 30.41 62.87 L 30.21 62.84 L 28.92 62.60 L 28.76 62.57 L 28.67 62.97 L 28.57 63.40 L 28.71 63.44 L 30.67 64.03 L 30.90 64.13"/><path d="M 32.31 63.62 L 32.24 63.42 L 30.38 57.63 L 30.40 57.39"/><path d="M 28.53 57.56 L 28.75 57.49"/><path d="M 28.75 57.49 L 29.42 57.43 L 30.22 57.35"/><path d="M 30.22 57.35 L 30.40 57.39 L 30.52 57.20 L 30.73 57.07 L 31.03 57.03 L 31.34 57.13 L 40.18 61.79 L 40.27 61.84 L 40.33 61.99 L 40.31 62.12 L 40.49 62.16"/><path d="M 40.49 62.16 L 40.81 62.20 L 41.12 62.24"/><path d="M 40.41 61.06 L 40.31 61.39 L 40.23 61.70"/><path d="M 40.23 61.70 L 40.18 61.79"/><path d="M 41.03 61.52 L 41.15 61.71 L 41.24 61.97 L 41.26 62.27 L 40.48 65.49 L 40.41 65.79"/><path d="M 39.34 66.09 L 39.42 65.75 L 39.49 65.41"/><path d="M 41.12 62.24 L 41.26 62.27"/><path d="M 31.99 63.36 L 32.24 63.42 L 39.53 65.26 L 39.69 65.30"/><path d="M 40.31 65.44 L 40.48 65.49 L 41.62 65.79 L 48.85 67.69 L 52.95 68.74 L 53.06 68.77"/><path d="M 39.43 66.29 L 39.30 66.26 L 32.61 64.52 L 32.99 65.80 L 33.10 66.56 L 33.17 67.21 L 33.14 67.87 L 33.07 68.58 L 32.91 69.28 L 32.69 70.18 L 31.61 74.51 L 31.56 74.72"/><path d="M 28.85 55.65 L 28.91 55.86"/><path d="M 38.74 71.71 L 38.91 71.76 L 51.38 74.93 L 51.52 74.96"/><path d="M 52.65 75.10 L 52.72 74.80 L 52.80 74.46"/><path d="M 40.05 66.45 L 40.23 66.50 L 52.71 69.66 L 52.92 69.71"/><path d="M 66.56 73.16 L 66.40 73.12 L 53.98 69.97 L 53.80 69.92"/><path d="M 57.46 99.27 L 57.41 99.15 L 57.34 99.07 L 57.28 99.00 L 57.16 98.94 L 47.27 96.46 L 46.21 100.80 L 46.24 100.98"/><path d="M 31.41 98.07 L 31.22 98.02 L 20.84 95.36 L 20.66 95.31"/><path d="M 32.06 98.20 L 32.19 98.23 L 44.62 101.41 L 44.23 102.96 L 43.53 105.75 L 43.53 105.78"/><path d="M 16.13 92.83 L 16.38 92.94 L 16.53 93.00 L 17.58 93.47 L 19.70 94.02 L 31.47 97.05 L 31.66 97.10"/><path d="M 45.97 96.14 L 33.56 92.92 L 33.36 92.90"/><path d="M 46.21 95.18 L 47.10 91.71 L 47.16 91.54"/><path d="M 21.02 88.68 L 21.25 88.75 L 28.86 90.74 L 32.82 91.74 L 32.99 91.79"/><path d="M 34.30 86.49 L 34.15 86.45 L 25.32 84.13"/><path d="M 28.28 79.27 L 28.44 79.32 L 35.46 81.12 L 35.69 81.18"/><path d="M 54.00 68.99 L 54.20 69.05 L 60.53 70.64 L 66.62 72.21 L 66.82 72.26"/><path d="M 69.24 62.60 L 69.07 62.55 L 56.65 59.38"/><path d="M 70.92 55.60 L 70.77 55.56 L 69.15 55.16 L 60.63 52.98 L 60.48 52.94"/><path d="M 69.51 61.66 L 69.29 61.61 L 57.05 58.53"/><path d="M 56.70 59.20 L 56.84 58.92 L 56.98 58.63"/><path d="M 75.78 91.61 L 75.70 91.92 L 75.63 92.22"/><path d="M 48.66 90.18 L 48.81 90.23 L 61.25 93.44 L 61.41 93.48"/><path d="M 64.39 94.36 L 64.54 94.26 L 69.02 91.14 L 69.49 90.85"/><path d="M 76.87 87.86 L 76.65 88.00 L 72.55 90.64"/><path d="M 69.49 90.85 L 70.44 91.08 L 71.34 91.29"/><path d="M 65.31 84.12 L 65.47 84.17 L 74.92 86.56 L 75.24 86.85"/><path d="M 66.57 78.85 L 66.84 78.92 L 78.19 81.85 L 78.40 81.90"/><path d="M 78.85 84.63 L 78.99 84.55 L 82.15 82.89 L 82.32 82.80"/><path d="M 79.76 76.65 L 79.54 76.59 L 76.26 75.71 L 68.17 73.62 L 67.99 73.57"/><path d="M 87.62 78.53 L 80.93 76.91 L 80.75 76.86"/><path d="M 81.07 71.28 L 80.93 71.24 L 69.51 68.32 L 69.33 68.28"/><path d="M 32.56 64.38 L 32.61 64.52"/><path d="M 32.61 64.52 L 32.43 64.53"/><path d="M 39.49 65.41 L 39.53 65.26 L 40.31 62.12"/><path d="M 76.79 37.72 L 76.89 37.85 L 80.25 40.94 L 84.35 34.69"/><path d="M 75.93 37.13 L 75.98 37.05 L 79.60 31.51 L 79.71 31.33"/><path d="M 72.25 50.26 L 72.08 50.21 L 68.67 49.33 L 63.84 48.07 L 63.72 48.04"/><path d="M 60.90 42.71 L 58.31 46.64 L 58.22 46.78"/><path d="M 65.90 43.13 L 65.99 42.99 L 71.66 34.36 L 71.74 34.23"/><path d="M 66.93 43.38 L 66.72 43.67 L 66.52 43.94"/><path d="M 52.43 75.20 L 52.61 75.24 L 55.78 76.08 L 65.07 78.45 L 65.24 78.49"/><path d="M 62.72 88.17 L 62.60 88.14 L 50.17 84.90 L 50.05 84.87"/><path d="M 36.05 82.30 L 36.20 82.32 L 48.67 85.54 L 48.83 85.58"/><path d="M 36.31 81.33 L 36.46 81.37 L 48.92 84.58 L 49.05 84.62"/><path d="M 33.59 92.79 L 33.67 92.47 L 33.75 92.15"/><path d="M 35.41 81.31 L 35.34 81.62 L 35.27 81.93"/><path d="M 80.75 76.86 L 80.24 76.74 L 79.76 76.65"/><path d="M 79.42 82.15 L 78.92 82.03 L 78.40 81.90"/><path d="M 49.05 84.62 L 49.56 84.75 L 50.05 84.87"/><path d="M 72.86 51.38 L 72.48 51.29 L 72.08 51.20"/><path d="M 48.64 91.00 L 48.70 90.71 L 48.78 90.36"/><path d="M 57.44 46.42 L 57.79 46.52 L 57.95 46.55 L 58.13 46.59"/><path d="M 82.32 82.80 L 82.78 82.54 L 83.30 82.27"/><path d="M 75.54 86.65 L 75.86 86.43 L 76.28 86.13"/><path d="M 78.50 86.47 L 78.72 85.59 L 78.95 84.71"/><path d="M 62.72 47.96 L 62.53 48.25 L 62.37 48.51"/><path d="M 18.42 89.04 L 18.03 88.00"/><path d="M 16.18 89.72 L 15.63 89.26"/><path d="M 14.02 92.51 L 14.11 92.27 L 14.31 92.01 L 14.61 91.81 L 14.87 91.67 L 15.06 90.89"/><path d="M 13.78 92.46 L 14.02 92.51 L 14.44 92.62"/><path d="M 29.72 74.47 L 26.49 73.31"/><path d="M 28.35 79.44 L 28.21 79.66 L 28.13 79.78 L 27.94 80.04"/><path d="M 62.99 95.06 L 62.68 95.59"/><path d="M 63.63 94.88 L 62.99 95.06"/><path d="M 64.39 94.36 L 64.00 94.63 L 63.63 94.88"/><path d="M 62.73 94.72 L 62.29 94.62 L 61.97 94.55"/><path d="M 60.37 97.99 L 60.37 98.12 L 60.41 98.09 L 60.43 98.05 L 60.41 98.00 L 60.37 97.99"/><path d="M 59.03 98.77 L 59.01 98.85 L 59.10 98.87 L 60.16 98.24 L 60.16 98.08 L 59.03 98.77"/><path d="M 61.90 94.46 L 61.89 94.53 L 61.68 95.92 L 61.72 95.97 L 61.77 95.92 L 61.97 94.55 L 61.98 94.47 L 61.94 94.44 L 61.90 94.46"/><path d="M 61.03 97.62 L 60.29 97.68 L 59.00 98.58 L 58.63 99.22"/><path d="M 62.68 95.59 L 62.07 95.98 L 61.21 96.52 L 60.57 96.92"/><path d="M 66.93 77.88 L 66.44 77.77 L 65.90 77.65 L 65.45 77.55"/><path d="M 68.22 73.41 L 68.32 73.11 L 68.37 72.85"/><path d="M 62.72 88.17 L 63.21 88.28 L 63.78 88.40 L 64.19 88.49"/><path d="M 33.76 88.16 L 33.84 87.77 L 33.90 87.55 L 33.94 87.37 L 34.04 86.96 L 34.10 86.64"/><path d="M 65.54 83.20 L 65.12 83.09 L 64.55 82.93 L 64.12 82.82"/><path d="M 36.78 76.86 L 37.10 76.95 L 37.37 77.03"/><path d="M 51.48 79.79 L 51.41 80.09 L 51.35 80.37"/><path d="M 55.84 56.35 L 55.83 56.18 L 55.83 55.90"/><path d="M 58.87 54.17 L 59.22 54.25 L 59.53 54.32"/><path d="M 70.72 55.76 L 70.61 56.36 L 70.48 56.95"/><path d="M 70.85 62.01 L 70.41 61.89 L 69.97 61.78 L 69.51 61.66"/><path d="M 68.16 66.95 L 68.62 67.06 L 69.09 67.17 L 69.58 67.28"/><path d="M 55.35 64.51 L 55.40 64.20 L 55.50 63.88"/><path d="M 52.75 69.48 L 52.83 69.19 L 52.92 68.84"/><path d="M 38.95 71.59 L 39.03 71.29 L 39.11 70.99"/><path d="M 75.38 37.54 L 75.30 37.62 L 73.43 44.88 L 73.39 45.05"/><path d="M 65.48 43.68 L 65.68 43.40 L 65.90 43.13"/><path d="M 59.93 42.45 L 60.39 42.56 L 60.90 42.71"/><path d="M 68.70 30.64 L 68.54 30.92 L 68.38 31.16"/><path d="M 71.74 34.23 L 71.92 33.97 L 72.10 33.67"/><path d="M 72.81 34.32 L 72.66 34.64 L 72.45 34.90"/><path d="M 75.38 37.54 L 75.66 37.33 L 75.93 37.13"/><path d="M 76.39 38.45 L 76.61 38.19 L 76.80 37.99"/><path d="M 74.20 46.09 L 73.81 46.00 L 73.35 45.87"/><path d="M 72.10 33.67 L 72.17 33.57 L 75.34 28.71 L 75.46 28.54"/><path d="M 70.94 25.81 L 71.20 26.03 L 71.42 26.16"/><path d="M 76.17 27.76 L 76.48 27.95 L 76.69 28.09"/><path d="M 82.87 18.65 L 82.58 18.52 L 82.29 18.36"/><path d="M 80.77 32.01 L 80.98 31.71 L 81.22 31.36"/><path d="M 85.12 35.15 L 84.86 34.99 L 84.48 34.74"/><path d="M 85.73 34.06 L 85.58 33.94 L 85.26 33.70"/><path d="M 87.22 21.16 L 80.31 30.47 L 80.19 30.63"/><path d="M 81.16 31.02 L 81.37 31.15 L 85.15 33.58 L 85.26 33.70"/><path d="M 55.83 55.90 L 55.71 53.42 L 55.71 53.17"/><path d="M 32.06 98.20 L 31.75 98.14 L 31.41 98.07"/><path d="M 46.13 96.18 L 46.62 96.30 L 47.05 96.41"/><path d="M 22.33 63.94 L 20.15 67.64 L 21.06 67.89 L 20.85 68.46 L 20.31 69.29 L 19.34 70.43 L 18.88 71.19 L 18.59 71.11 L 17.85 72.63 L 16.17 76.04"/><path d="M 38.99 70.79 L 38.71 70.73 L 38.40 70.66"/><path d="M 29.68 75.06 L 30.34 75.24 L 30.93 75.40"/><path d="M 32.41 70.11 L 31.85 69.98 L 31.17 69.77"/><path d="M 32.64 69.19 L 32.08 69.03 L 31.47 68.86"/><path d="M 25.32 84.13 L 24.88 84.65 L 24.67 84.88"/><path d="M 23.14 83.68 L 24.21 83.90 L 25.32 84.13"/><path d="M 18.42 89.04 L 19.39 89.33 L 20.05 89.52"/><path d="M 20.27 82.84 L 20.11 83.60 L 20.15 84.14 L 20.23 84.48 L 20.40 84.90 L 20.60 85.27 L 20.69 85.80 L 20.65 86.18 L 20.52 86.53 L 20.28 87.05 L 19.93 87.37 L 19.45 87.62 L 19.10 87.77 L 18.97 87.82 L 18.50 87.93 L 18.03 88.00 L 17.63 88.06 L 17.22 88.12 L 16.77 88.29 L 16.41 88.48 L 16.06 88.79 L 15.79 89.07 L 15.63 89.26 L 15.38 89.83 L 15.23 90.31 L 15.19 90.59 L 15.06 90.89 L 14.65 91.19 L 14.55 91.27 L 13.65 92.02 L 13.53 92.35 L 13.30 92.74 L 13.04 93.88 L 12.99 94.64"/><path d="M 63.91 92.13 L 63.50 92.03 L 62.92 91.89"/><path d="M 63.20 90.76 L 63.78 90.90 L 63.96 90.94 L 64.96 91.18"/><path d="M 62.35 94.20 L 62.47 93.73 L 62.80 92.40"/><path d="M 62.80 92.40 L 62.92 91.89 L 63.20 90.76"/><path d="M 64.66 84.85 L 65.28 85.00 L 65.63 85.09"/><path d="M 65.42 85.84 L 65.09 85.76 L 64.47 85.60"/><path d="M 64.34 86.12 L 64.47 85.60"/><path d="M 64.47 85.60 L 64.66 84.85"/><path d="M 65.27 88.19 L 65.60 86.87 L 64.96 86.70"/><path d="M 63.89 87.96 L 64.48 88.11 L 65.24 88.31"/><path d="M 64.96 86.70 L 64.85 86.67 L 64.24 86.52"/><path d="M 65.01 89.20 L 65.13 88.75 L 65.24 88.31 L 65.27 88.19"/><path d="M 63.89 87.96 L 64.24 86.52"/><path d="M 64.24 86.52 L 64.34 86.12"/><path d="M 65.01 83.54 L 65.12 83.09 L 65.57 81.27 L 65.92 79.86"/><path d="M 31.09 102.57 L 32.19 98.23 L 32.23 98.07"/><path d="M 20.88 95.19 L 20.84 95.36 L 19.71 99.69 L 30.15 102.34"/><path d="M 14.97 93.94 L 15.15 93.98 L 19.46 95.01 L 19.62 95.05"/><path d="M 97.54 62.45 L 97.47 62.44 L 85.38 59.30 L 85.23 59.26"/><path d="M 95.93 68.43 L 83.85 65.34 L 83.71 65.30"/><path d="M 85.53 53.58 L 85.38 53.53 L 73.32 50.49 L 73.09 50.43"/><path d="M 57.34 46.40 L 59.93 42.45"/><path d="M 60.57 41.63 L 60.92 41.71 L 61.28 41.79"/><path d="M 68.38 31.16 L 68.30 31.28 L 61.44 41.84"/><path d="M 62.72 47.96 L 62.80 47.83 L 65.37 43.86 L 65.48 43.68"/><path d="M 60.57 41.63 L 60.40 41.60 L 57.36 40.77 L 56.69 40.60"/><path d="M 32.76 92.74 L 32.58 92.69 L 20.26 89.58 L 20.05 89.52"/><path d="M 31.66 97.10 L 31.94 97.17 L 32.28 97.24"/><path d="M 32.28 97.24 L 32.43 97.28 L 44.88 100.44 L 45.97 96.14"/><path d="M 32.38 97.44 L 32.32 97.69 L 32.23 98.07"/><path d="M 30.15 102.34 L 31.22 98.02 L 31.27 97.83"/><path d="M 31.27 97.83 L 31.36 97.45 L 31.42 97.23"/><path d="M 29.77 87.32 L 23.89 85.82 L 23.68 85.76"/><path d="M 21.02 88.68 L 20.26 88.50 L 19.35 88.27"/><path d="M 20.40 89.44 L 20.81 89.15 L 21.13 88.92"/><path d="M 26.26 79.82 L 26.05 79.77 L 23.66 79.18 L 22.13 78.79 L 22.03 78.28 L 22.46 77.81 L 26.75 78.90 L 26.90 78.94"/><path d="M 26.18 79.60 L 26.42 79.35 L 26.63 79.07"/><path d="M 36.78 76.86 L 36.61 76.82 L 31.17 75.46 L 30.93 75.40"/><path d="M 26.90 78.94 L 27.61 79.08 L 28.28 79.27"/><path d="M 27.60 80.14 L 27.84 80.19 L 30.36 80.84 L 35.24 82.12 L 35.42 82.17"/><path d="M 23.24 83.55 L 24.64 81.68 L 26.05 79.77 L 26.18 79.60"/><path d="M 27.60 80.14 L 26.98 79.99 L 26.26 79.82"/><path d="M 31.35 74.44 L 31.61 74.51 L 36.87 75.86 L 37.01 75.90"/><path d="M 31.35 74.44 L 30.71 74.31 L 30.10 74.15"/><path d="M 31.32 75.25 L 31.43 75.00 L 31.56 74.72"/><path d="M 31.32 75.25 L 31.17 75.46 L 28.44 79.32 L 28.35 79.44"/><path d="M 29.88 74.10 L 30.10 74.15"/><path d="M 29.43 74.99 L 29.68 75.06"/><path d="M 32.69 70.18 L 32.41 70.11"/><path d="M 31.05 69.75 L 31.17 69.77"/><path d="M 38.24 70.62 L 38.40 70.66"/><path d="M 51.77 74.04 L 51.59 73.99 L 39.15 70.83 L 38.99 70.79"/><path d="M 44.54 77.83 L 37.83 76.08 L 37.63 76.03"/><path d="M 37.63 76.03 L 37.34 75.97 L 37.01 75.90"/><path d="M 36.83 76.01 L 36.87 75.86 L 38.24 70.62"/><path d="M 48.88 84.73 L 48.92 84.58 L 50.00 80.24 L 50.04 80.05"/><path d="M 36.83 76.01 L 36.74 76.35 L 36.65 76.66"/><path d="M 37.77 76.30 L 37.83 76.08 L 38.91 71.76 L 38.95 71.59"/><path d="M 37.63 76.91 L 37.70 76.61 L 37.77 76.30"/><path d="M 67.92 67.95 L 67.71 67.89 L 55.29 64.72"/><path d="M 54.17 69.17 L 54.09 69.51 L 54.02 69.81"/><path d="M 52.92 68.84 L 52.95 68.74 L 55.19 59.95 L 55.37 59.32 L 55.82 57.63 L 55.84 56.43 L 55.84 56.35"/><path d="M 53.06 68.77 L 53.58 68.90 L 54.00 68.99"/><path d="M 52.64 74.26 L 52.84 74.31 L 65.32 77.52 L 65.45 77.55"/><path d="M 53.80 69.92 L 53.33 69.81 L 52.92 69.71"/><path d="M 55.84 56.43 L 53.03 55.72 L 51.71 55.39"/><path d="M 57.25 56.26 L 57.46 56.22 L 58.78 54.15"/><path d="M 56.70 59.20 L 56.65 59.38 L 55.53 63.70 L 55.50 63.88"/><path d="M 59.53 54.32 L 59.66 54.35 L 70.44 57.21 L 70.61 57.26"/><path d="M 59.84 52.76 L 59.67 52.69 L 57.05 52.03 L 56.79 51.99"/><path d="M 58.13 46.59 L 58.31 46.64 L 62.80 47.83 L 62.98 47.88"/><path d="M 56.74 42.54 L 56.83 46.32 L 56.84 46.43"/><path d="M 56.81 46.98 L 56.82 46.78 L 56.84 46.43"/><path d="M 56.67 46.29 L 56.83 46.32 L 57.34 46.40 L 57.44 46.42"/><path d="M 55.51 46.13 L 55.69 46.13"/><path d="M 58.22 46.78 L 58.06 47.08 L 57.90 47.37"/><path d="M 66.28 44.04 L 66.43 44.08 L 73.15 45.82 L 73.35 45.87"/><path d="M 63.72 48.04 L 63.31 47.95 L 62.98 47.88"/><path d="M 63.10 48.86 L 63.31 48.91 L 64.28 49.17 L 71.85 51.14 L 72.08 51.20"/><path d="M 63.41 48.76 L 63.57 48.53 L 63.76 48.19"/><path d="M 62.37 48.51 L 62.27 48.67 L 59.67 52.69 L 59.58 52.88"/><path d="M 62.42 48.71 L 62.75 48.79 L 63.10 48.86"/><path d="M 60.56 53.08 L 60.63 52.98 L 63.31 48.91 L 63.41 48.76"/><path d="M 56.98 58.63 L 57.05 58.53 L 59.66 54.35 L 59.72 54.26"/><path d="M 72.86 51.38 L 73.09 51.42 L 85.13 54.55 L 85.37 54.61"/><path d="M 72.25 57.42 L 72.13 56.75 L 72.02 56.29 L 71.97 56.06"/><path d="M 71.77 55.78 L 71.38 55.72 L 70.92 55.60"/><path d="M 82.64 65.02 L 82.50 64.98 L 71.06 62.06 L 70.85 62.01"/><path d="M 70.61 57.26 L 71.10 57.39 L 71.53 57.48 L 72.03 57.59"/><path d="M 70.48 56.95 L 70.44 57.21 L 69.29 61.61 L 69.26 61.75"/><path d="M 69.24 62.60 L 69.73 62.73 L 70.17 62.85"/><path d="M 70.89 62.82 L 70.96 62.52 L 71.02 62.22"/><path d="M 71.02 62.22 L 71.06 62.06 L 72.20 57.63 L 72.25 57.42"/><path d="M 74.91 68.69 L 69.76 67.33 L 69.58 67.28"/><path d="M 70.17 62.85 L 70.67 62.96"/><path d="M 67.92 67.06 L 67.96 66.90 L 69.07 62.55 L 69.12 62.37"/><path d="M 69.26 61.75 L 69.19 62.07 L 69.12 62.37"/><path d="M 61.28 41.79 L 61.44 41.84 L 65.99 42.99 L 66.13 43.02"/><path d="M 66.93 43.38 L 67.04 43.28 L 72.37 35.03 L 72.45 34.90"/><path d="M 63.76 48.19 L 63.84 48.07 L 64.39 47.22 L 65.24 45.91 L 66.43 44.08 L 66.52 43.94"/><path d="M 65.56 43.91 L 65.37 43.86 L 60.90 42.71"/><path d="M 66.87 43.20 L 66.56 43.12 L 66.13 43.02"/><path d="M 66.28 44.04 L 65.99 43.99 L 65.56 43.91"/><path d="M 69.33 68.28 L 68.84 68.16 L 68.36 68.05 L 67.92 67.95"/><path d="M 69.71 67.52 L 69.76 67.33 L 70.84 63.00 L 70.89 62.82"/><path d="M 67.75 67.74 L 67.83 67.36 L 67.92 67.06"/><path d="M 68.22 72.57 L 68.43 72.63 L 79.82 75.54 L 80.00 75.59"/><path d="M 69.71 67.52 L 69.64 67.82 L 69.55 68.16"/><path d="M 66.59 72.35 L 66.62 72.21 L 67.71 67.89 L 67.75 67.74"/><path d="M 66.56 73.16 L 67.02 73.30 L 67.52 73.44"/><path d="M 68.22 72.57 L 67.77 72.47 L 67.26 72.36 L 66.82 72.26"/><path d="M 69.55 68.16 L 69.51 68.32 L 68.43 72.63 L 68.37 72.85"/><path d="M 66.93 77.88 L 67.08 77.92 L 75.17 80.02"/><path d="M 67.52 73.44 L 67.99 73.57"/><path d="M 65.29 77.66 L 65.32 77.52 L 66.40 73.12 L 66.44 72.98"/><path d="M 66.59 72.35 L 66.51 72.68 L 66.44 72.98"/><path d="M 65.24 78.49 L 65.66 78.61 L 66.20 78.76"/><path d="M 66.88 78.73 L 66.97 78.42 L 67.03 78.14"/><path d="M 68.22 73.41 L 68.17 73.62 L 67.08 77.92 L 67.03 78.14"/><path d="M 72.22 84.93 L 68.89 84.07 L 65.73 83.25 L 65.54 83.20"/><path d="M 66.20 78.76 L 66.57 78.85"/><path d="M 64.12 82.82 L 63.96 82.78 L 57.06 81.05"/><path d="M 65.29 77.66 L 65.20 77.98 L 65.12 78.26"/><path d="M 51.55 74.16 L 51.48 74.49 L 51.42 74.78"/><path d="M 52.75 69.48 L 52.71 69.66 L 51.59 73.99 L 51.55 74.16"/><path d="M 52.64 74.26 L 52.25 74.16 L 51.77 74.04"/><path d="M 54.02 69.81 L 53.98 69.97 L 52.84 74.31 L 52.80 74.46"/><path d="M 51.42 74.78 L 51.38 74.93 L 50.23 79.30 L 50.19 79.45"/><path d="M 51.52 74.96 L 52.00 75.09 L 52.43 75.20"/><path d="M 57.06 81.05 L 51.50 79.63 L 51.32 79.57"/><path d="M 63.88 83.75 L 64.31 83.87 L 64.87 84.01 L 65.31 84.12"/><path d="M 65.12 78.26 L 65.07 78.45 L 63.96 82.78 L 63.92 82.93"/><path d="M 50.14 85.04 L 50.17 84.90 L 51.32 80.56 L 51.35 80.37"/><path d="M 63.92 82.93 L 63.84 83.25 L 63.78 83.56"/><path d="M 65.50 84.04 L 65.60 83.70 L 65.69 83.42"/><path d="M 65.69 83.42 L 65.73 83.25 L 66.19 81.44 L 66.56 80.02 L 66.84 78.92 L 66.88 78.73"/><path d="M 70.78 90.19 L 70.46 90.11 L 65.13 88.75 L 64.36 88.53 L 64.19 88.49"/><path d="M 63.78 83.56 L 63.74 83.72 L 62.60 88.14 L 62.56 88.26"/><path d="M 63.97 89.44 L 63.55 89.33 L 62.98 89.19 L 62.54 89.08"/><path d="M 64.32 88.65 L 64.25 89.00 L 64.18 89.32"/><path d="M 64.32 88.65 L 64.36 88.53 L 64.48 88.11 L 64.85 86.67 L 65.09 85.76 L 65.28 85.00 L 65.47 84.17 L 65.50 84.04"/><path d="M 64.18 89.32 L 64.14 89.48 L 63.78 90.90 L 63.50 92.03 L 63.02 93.87 L 62.99 94.00"/><path d="M 62.54 89.08 L 62.36 89.03 L 49.93 85.87 L 49.81 85.84"/><path d="M 62.41 88.83 L 62.48 88.55 L 62.56 88.26"/><path d="M 62.99 95.06 L 62.73 94.72"/><path d="M 47.51 95.51 L 51.98 96.68 L 54.79 97.41 L 56.77 97.93 L 58.51 98.38"/><path d="M 61.41 93.48 L 61.83 93.58 L 62.47 93.73 L 62.87 93.82"/><path d="M 61.21 93.57 L 61.25 93.44 L 62.36 89.03 L 62.41 88.83"/><path d="M 61.05 94.16 L 61.13 93.89 L 61.21 93.57"/><path d="M 62.87 93.82 L 63.02 93.87 L 64.54 94.26"/><path d="M 62.99 94.00 L 62.87 94.32 L 62.73 94.72"/><path d="M 63.57 96.61 L 63.21 96.19 L 62.68 95.59"/><path d="M 60.30 97.29 L 60.36 97.08 L 61.02 94.33 L 61.05 94.16"/><path d="M 60.30 97.29 L 60.29 97.68 L 60.28 98.00"/><path d="M 60.28 98.00 L 60.28 98.22"/><path d="M 60.20 99.12 L 60.19 99.00"/><path d="M 60.32 99.01 L 60.85 98.67 L 61.15 98.47"/><path d="M 61.15 98.47 L 61.38 98.33"/><path d="M 61.38 98.33 L 61.71 98.10 L 62.10 97.84"/><path d="M 62.10 97.84 L 62.49 97.57"/><path d="M 63.34 96.97 L 63.35 97.41 L 63.02 99.26 L 73.30 101.90 L 73.39 101.93"/><path d="M 63.68 96.74 L 63.57 96.61"/><path d="M 58.36 98.49 L 58.51 98.38 L 58.61 98.35 L 60.36 97.08 L 60.57 96.92"/><path d="M 15.57 92.21 L 15.82 92.49 L 16.13 92.83"/><path d="M 20.40 89.44 L 20.26 89.58 L 16.53 93.00 L 16.39 93.13 L 16.09 93.41"/><path d="M 15.21 91.85 L 15.57 92.21"/><path d="M 16.09 93.41 L 15.86 93.56 L 15.44 93.85"/><path d="M 13.17 98.12 L 13.22 97.95 L 13.71 96.76 L 15.15 93.98 L 15.44 93.85"/><path d="M 25.32 84.13 L 27.84 80.19 L 27.94 80.04"/><path d="M 23.68 85.76 L 22.94 85.59 L 21.96 85.32"/><path d="M 24.03 85.68 L 23.89 85.82 L 21.42 88.50 L 21.25 88.75 L 21.13 88.92"/><path d="M 24.51 85.08 L 24.27 85.39 L 24.03 85.68"/><path d="M 24.67 84.88 L 24.51 85.08"/><path d="M 40.41 65.79 L 40.35 65.99 L 40.28 66.30"/><path d="M 39.69 65.30 L 40.04 65.38 L 40.31 65.44"/><path d="M 39.11 70.99 L 39.15 70.83 L 40.23 66.50 L 40.28 66.30"/><path d="M 38.24 70.62 L 39.30 66.26 L 39.34 66.09"/><path d="M 40.05 66.45 L 39.79 66.38 L 39.43 66.29"/><path d="M 35.41 81.31 L 35.46 81.12 L 36.61 76.82 L 36.65 76.66"/><path d="M 36.23 82.21 L 36.33 81.88 L 36.41 81.56"/><path d="M 37.63 76.91 L 37.61 77.01 L 37.59 77.08 L 36.46 81.37 L 36.41 81.56"/><path d="M 36.31 81.33 L 36.02 81.26 L 35.69 81.18"/><path d="M 47.72 89.94 L 47.58 89.89 L 35.10 86.72 L 34.93 86.65"/><path d="M 35.42 82.17 L 35.77 82.24 L 36.05 82.30"/><path d="M 35.27 81.93 L 35.24 82.12 L 34.15 86.45 L 34.10 86.64"/><path d="M 35.08 86.84 L 34.99 87.21 L 34.78 88.01"/><path d="M 35.08 86.84 L 35.10 86.72 L 36.20 82.32 L 36.23 82.21"/><path d="M 34.30 86.49 L 34.66 86.59 L 34.93 86.65"/><path d="M 33.59 91.91 L 33.79 91.98 L 46.21 95.18"/><path d="M 34.78 88.01 L 34.70 88.34"/><path d="M 33.87 88.34 L 33.71 88.30 L 29.77 87.32"/><path d="M 34.46 88.45 L 34.20 88.40 L 33.87 88.34"/><path d="M 32.77 91.89 L 32.82 91.74 L 33.71 88.30 L 33.76 88.16"/><path d="M 32.77 91.89 L 32.69 92.22 L 32.62 92.54"/><path d="M 33.59 91.91 L 33.31 91.85 L 32.99 91.79"/><path d="M 34.70 88.34 L 34.67 88.48 L 33.79 91.98 L 33.75 92.15"/><path d="M 31.42 97.23 L 31.47 97.05 L 32.58 92.69 L 32.62 92.54"/><path d="M 32.76 92.74 L 33.07 92.82 L 33.36 92.90"/><path d="M 33.59 92.79 L 33.56 92.92 L 33.05 94.83 L 32.43 97.28 L 32.38 97.44"/><path d="M 19.49 94.88 L 19.46 95.01 L 18.37 99.35"/><path d="M 19.70 94.02 L 19.62 94.36"/><path d="M 19.62 94.36 L 19.59 94.49 L 19.49 94.88"/><path d="M 69.49 90.85 L 69.01 90.71 L 64.14 89.48 L 63.97 89.44"/><path d="M 70.30 90.23 L 69.94 90.50 L 69.49 90.85"/><path d="M 72.55 90.64 L 71.55 90.39 L 70.78 90.19"/><path d="M 72.55 90.64 L 75.81 91.48"/><path d="M 75.59 92.41 L 71.81 91.35 L 71.59 91.33 L 71.34 91.29"/><path d="M 71.77 91.20 L 72.08 90.98 L 72.55 90.64"/><path d="M 74.83 95.84 L 75.59 92.41 L 75.63 92.22"/><path d="M 76.41 86.04 L 72.22 84.93"/><path d="M 75.54 86.65 L 75.24 86.85 L 70.46 90.11 L 70.30 90.23"/><path d="M 77.56 85.31 L 77.31 85.46 L 76.41 86.04 L 76.28 86.13"/><path d="M 77.25 85.73 L 77.03 86.56 L 76.72 87.71"/><path d="M 79.64 81.99 L 79.59 82.19 L 78.99 84.55 L 78.95 84.71"/><path d="M 78.85 84.63 L 78.19 84.98 L 77.56 85.31"/><path d="M 79.55 86.07 L 78.41 86.78 L 78.11 86.96"/><path d="M 75.78 91.61 L 75.81 91.48 L 76.65 88.00 L 76.72 87.71"/><path d="M 76.87 87.86 L 77.59 87.34 L 78.11 86.96"/><path d="M 82.15 82.89 L 79.59 82.19 L 79.42 82.15"/><path d="M 80.98 76.72 L 80.93 76.91 L 79.82 81.19 L 79.77 81.39"/><path d="M 75.17 80.02 L 78.46 80.84 L 78.68 80.89"/><path d="M 78.68 80.89 L 79.18 81.02 L 79.67 81.15"/><path d="M 78.25 81.60 L 78.19 81.85 L 77.31 85.46 L 77.25 85.73"/><path d="M 78.25 81.60 L 78.33 81.33 L 78.41 81.03"/><path d="M 79.67 81.15 L 79.82 81.19 L 83.50 82.16"/><path d="M 79.77 81.39 L 79.71 81.68 L 79.64 81.99"/><path d="M 83.30 82.27 L 83.50 82.16 L 87.26 80.21 L 87.46 80.11"/><path d="M 90.74 78.40 L 88.72 77.87 L 87.76 77.61 L 81.17 75.87 L 81.02 75.83"/><path d="M 80.00 75.59 L 80.51 75.70 L 81.02 75.83"/><path d="M 81.12 76.08 L 81.17 75.87 L 82.26 71.57 L 82.31 71.38"/><path d="M 81.12 76.08 L 81.06 76.38 L 80.98 76.72"/><path d="M 78.41 81.03 L 78.46 80.84 L 79.54 76.59 L 79.60 76.35"/><path d="M 79.60 76.35 L 79.68 76.04 L 79.77 75.72"/><path d="M 81.35 70.34 L 81.17 70.30 L 74.91 68.69"/><path d="M 79.77 75.72 L 79.82 75.54 L 80.93 71.24 L 80.98 71.06"/><path d="M 83.46 66.22 L 83.66 66.27 L 95.70 69.39"/><path d="M 82.29 65.76 L 82.37 65.46 L 82.46 65.13"/><path d="M 82.64 65.02 L 83.18 65.16 L 83.71 65.30"/><path d="M 82.44 70.76 L 82.48 70.64 L 83.66 66.27 L 83.71 66.10"/><path d="M 83.46 66.22 L 82.95 66.11 L 82.44 66.00"/><path d="M 82.29 65.76 L 82.25 65.95 L 81.17 70.30 L 81.15 70.41"/><path d="M 83.65 60.35 L 83.83 59.75 L 83.98 59.14"/><path d="M 85.18 54.36 L 85.13 54.55 L 84.04 58.94 L 83.98 59.14"/><path d="M 84.21 58.99 L 84.72 59.12 L 85.23 59.26"/><path d="M 83.65 60.35 L 83.60 60.55 L 82.50 64.98 L 82.46 65.13"/><path d="M 83.82 65.49 L 83.85 65.34 L 84.99 60.91 L 85.04 60.71"/><path d="M 84.82 60.86 L 84.31 60.72 L 83.78 60.60"/><path d="M 87.61 49.38 L 87.52 49.52 L 85.72 52.32 L 85.38 53.53 L 85.32 53.71"/><path d="M 86.34 54.84 L 85.82 54.72 L 85.37 54.61"/><path d="M 85.34 59.47 L 85.38 59.30 L 86.50 54.84 L 86.54 54.69"/><path d="M 85.18 54.36 L 85.28 54.05 L 85.32 53.71"/><path d="M 73.19 45.66 L 73.15 45.82 L 72.08 50.21 L 72.06 50.32"/><path d="M 72.25 50.26 L 72.71 50.35 L 73.09 50.43"/><path d="M 71.90 50.95 L 71.95 50.71 L 72.06 50.32"/><path d="M 71.90 50.95 L 71.85 51.14 L 70.77 55.56 L 70.72 55.76"/><path d="M 71.97 56.06 L 71.94 55.82 L 73.09 51.42 L 73.13 51.24"/><path d="M 73.28 50.67 L 73.20 50.98 L 73.13 51.24"/><path d="M 82.76 47.21 L 77.76 45.90 L 74.62 45.16 L 74.47 45.13"/><path d="M 73.61 44.93 L 74.06 45.01 L 74.47 45.13"/><path d="M 73.61 44.93 L 73.43 44.88 L 67.04 43.28 L 66.87 43.20"/><path d="M 73.19 45.66 L 73.27 45.38 L 73.39 45.05"/><path d="M 73.28 50.67 L 73.30 50.58 L 73.32 50.49 L 74.41 46.14 L 74.46 45.94"/><path d="M 74.57 45.35 L 74.51 45.69 L 74.46 45.94"/><path d="M 76.25 29.05 L 76.15 29.22 L 72.88 34.21 L 72.81 34.32"/><path d="M 80.77 32.01 L 80.65 32.19 L 76.89 37.85 L 76.80 37.99"/><path d="M 76.16 38.47 L 76.35 38.59 L 79.71 41.60 L 79.83 41.46 L 80.00 41.25"/><path d="M 76.13 37.17 L 76.45 37.44 L 76.79 37.72"/><path d="M 75.44 37.77 L 75.85 38.17 L 76.16 38.47"/><path d="M 80.19 30.63 L 79.93 31.01 L 79.71 31.33"/><path d="M 80.45 30.57 L 80.31 30.47 L 76.82 28.17 L 76.69 28.09"/><path d="M 81.16 31.02 L 80.88 30.85 L 80.45 30.57"/><path d="M 88.26 21.75 L 81.37 31.15 L 81.22 31.36"/><path d="M 84.48 34.74 L 84.35 34.69 L 82.19 33.23 L 80.65 32.19 L 80.48 32.08"/><path d="M 79.73 31.59 L 79.60 31.51 L 76.15 29.22 L 76.00 29.11"/><path d="M 79.73 31.59 L 80.16 31.88 L 80.48 32.08"/><path d="M 82.87 18.65 L 83.00 18.73 L 87.22 21.16 L 87.37 21.24"/><path d="M 72.19 25.34 L 72.30 25.17 L 78.25 16.03"/><path d="M 77.54 15.65 L 77.43 15.60 L 76.01 14.91 L 74.53 14.51 L 74.17 14.42 L 72.91 14.25 L 72.76 14.22"/><path d="M 78.10 15.95 L 78.25 16.03 L 82.17 18.29 L 82.29 18.36"/><path d="M 71.87 13.67 L 71.93 13.71"/><path d="M 73.10 11.80 L 73.17 11.85"/><path d="M 73.98 12.39 L 73.59 12.13 L 73.17 11.85"/><path d="M 74.01 12.64 L 74.12 12.48 L 76.87 8.36 L 77.55 7.12 L 79.01 4.88 L 79.55 4.04 L 81.28 1.32 L 83.58 -1.40 L 83.80 -1.65 L 85.05 -3.08"/><path d="M 71.93 13.71 L 72.37 14.00 L 72.76 14.22"/><path d="M 73.00 14.10 L 72.91 14.25 L 70.90 17.36"/><path d="M 88.34 19.86 L 76.90 13.48 L 74.77 12.91 L 74.12 12.48 L 73.98 12.39"/><path d="M 70.90 17.36 L 67.79 22.16 L 67.64 22.40"/><path d="M 66.92 23.13 L 67.06 23.23 L 70.81 25.72 L 70.94 25.81"/><path d="M 71.70 26.04 L 71.57 26.25 L 68.78 30.50 L 68.70 30.64"/><path d="M 70.94 25.53 L 71.12 25.22 L 71.39 24.77"/><path d="M 71.70 26.04 L 71.91 25.75 L 72.19 25.34"/><path d="M 67.61 22.04 L 67.79 22.16 L 71.49 24.61 L 71.64 24.71"/><path d="M 66.70 21.40 L 66.82 21.51"/><path d="M 66.04 22.45 L 66.12 22.55"/><path d="M 64.61 26.97 L 64.73 26.79 L 67.06 23.23 L 67.18 23.08"/><path d="M 64.62 26.63 L 64.50 26.45 L 64.35 26.25 L 63.98 25.85"/><path d="M 64.31 27.43 L 64.46 27.22 L 64.61 26.97"/><path d="M 63.25 26.72 L 63.34 26.84"/><path d="M 63.88 25.72 L 63.98 25.85"/><path d="M 68.16 29.94 L 68.05 29.85 L 64.73 26.79 L 64.62 26.63"/><path d="M 68.20 31.17 L 67.99 30.97 L 67.68 30.69"/><path d="M 68.16 29.94 L 68.46 30.22 L 68.67 30.40"/><path d="M 68.67 30.40 L 68.78 30.50 L 72.17 33.57 L 72.26 33.65"/><path d="M 64.10 27.47 L 64.22 27.58 L 67.59 30.60 L 67.68 30.69"/><path d="M 67.66 30.48 L 67.79 30.25 L 67.99 29.94"/><path d="M 71.77 34.47 L 71.66 34.36 L 68.30 31.28 L 68.20 31.17"/><path d="M 72.76 34.09 L 72.88 34.21 L 75.98 37.05 L 76.13 37.17"/><path d="M 72.25 34.92 L 72.37 35.03 L 75.30 37.62 L 75.44 37.77"/><path d="M 71.77 34.47 L 72.04 34.72 L 72.25 34.92"/><path d="M 72.26 33.65 L 72.57 33.92 L 72.76 34.09"/><path d="M 56.48 56.35 L 56.48 56.83 L 56.47 57.09 L 56.45 57.35 L 56.41 57.63 L 56.34 57.97 L 56.25 58.36 L 56.16 58.75 L 56.07 59.05 L 55.96 59.47 L 54.81 64.05 L 54.37 65.77 L 54.12 66.81 L 53.89 67.73 L 53.81 68.03 L 53.64 68.67"/><path d="M 56.39 52.74 L 56.41 53.61 L 56.48 56.35"/><path d="M 56.29 49.06 L 56.37 51.87 L 56.39 52.74"/><path d="M 56.23 46.23 L 56.24 46.68 L 56.29 49.06"/><path d="M 62.85 28.51 L 60.36 32.35 L 59.16 34.20 L 58.73 34.84 L 57.55 36.65 L 56.34 38.47 L 56.24 38.65 L 56.16 38.82 L 56.11 38.99 L 56.08 39.20 L 56.07 39.43 L 56.07 39.65 L 56.08 40.96 L 56.12 42.54 L 56.23 46.23"/><path d="M 63.97 26.80 L 63.74 27.14 L 63.43 27.61 L 62.85 28.51"/><path d="M 70.38 17.01 L 69.87 16.65 L 69.70 16.53 L 69.24 16.23 L 66.33 14.31 L 66.09 14.16 L 64.16 12.90 L 62.61 15.24"/><path d="M 62.61 15.24 L 61.23 17.25 L 66.30 20.59"/><path d="M 66.30 20.59 L 67.34 19.08 L 69.24 16.23"/><path d="M 66.33 14.31 L 65.18 16.04"/><path d="M 67.49 21.45 L 66.95 21.06 L 66.83 20.97 L 66.30 20.59"/><path d="M 67.34 19.08 L 67.80 19.45"/><path d="M 65.13 80.67 L 64.55 82.93 L 64.43 83.40"/><path d="M 65.78 78.12 L 65.66 78.61 L 65.13 80.67"/><path d="M 62.14 92.38 L 61.83 93.58 L 61.70 94.03"/><path d="M 26.44 24.33 L 26.87 24.36 L 27.15 24.32 L 27.26 24.28 L 27.32 24.23"/><path d="M 34.57 3.99 L 35.41 4.58"/><path d="M 77.85 96.49 L 78.29 96.41 L 89.03 94.51"/><path d="M 47.25 91.75 L 47.10 91.71 L 34.67 88.48 L 34.46 88.45"/><path d="M 50.12 80.28 L 50.00 80.24 L 37.59 77.08 L 37.37 77.03"/><path d="M 55.67 51.66 L 56.37 51.87 L 56.79 51.99"/><path d="M 48.64 91.00 L 48.60 91.16 L 48.36 92.04 L 47.51 95.51"/><path d="M 50.43 79.36 L 50.89 79.47 L 51.32 79.57"/><path d="M 49.81 85.84 L 49.30 85.70 L 48.83 85.58"/><path d="M 55.91 53.51 L 55.71 53.42 L 52.93 52.71 L 52.67 52.76 L 43.90 50.48"/><path d="M 48.70 85.42 L 48.67 85.54 L 47.58 89.89 L 47.53 90.04"/><path d="M 56.86 53.70 L 56.41 53.61 L 55.91 53.51"/><path d="M 51.10 80.50 L 51.32 80.56 L 57.78 82.21 L 63.74 83.72 L 63.88 83.75"/><path d="M 51.10 80.50 L 50.66 80.40 L 50.12 80.28"/><path d="M 48.70 85.42 L 48.79 85.08 L 48.88 84.73"/><path d="M 57.02 52.24 L 57.05 52.03 L 56.88 49.21 L 56.84 48.70 L 57.85 47.44 L 57.90 47.37"/><path d="M 47.30 90.96 L 47.24 91.21 L 47.16 91.54"/><path d="M 55.35 64.51 L 55.29 64.72 L 54.98 65.93 L 54.72 66.97 L 54.49 67.89 L 54.20 69.05 L 54.17 69.17"/><path d="M 50.04 80.05 L 50.11 79.78 L 50.19 79.45"/><path d="M 57.02 52.24 L 57.03 52.89 L 57.03 53.55"/><path d="M 49.96 85.75 L 49.93 85.87 L 48.81 90.23 L 48.78 90.36"/><path d="M 48.66 90.18 L 48.19 90.06 L 47.72 89.94"/><path d="M 55.53 63.70 L 67.96 66.90 L 68.16 66.95"/><path d="M 51.48 79.79 L 51.50 79.63 L 52.61 75.24 L 52.65 75.10"/><path d="M 47.25 91.75 L 47.75 91.88 L 48.18 91.98"/><path d="M 50.14 85.04 L 50.05 85.41 L 49.96 85.75"/><path d="M 94.61 73.67 L 82.48 70.64 L 82.34 70.61"/><path d="M 55.67 51.66 L 49.95 50.19 L 49.81 50.73 L 48.67 50.47 L 48.09 50.55 L 46.62 50.17 L 46.08 50.42"/><path d="M 48.36 92.04 L 48.18 91.98"/><path d="M 50.43 79.36 L 50.23 79.30 L 45.59 78.12 L 44.54 77.83"/><path d="M 85.12 35.15 L 85.26 35.21 L 88.97 37.68 L 89.15 37.77"/><path d="M 89.77 36.74 L 89.64 36.65 L 85.89 34.21 L 85.73 34.06"/><path d="M 75.50 28.78 L 75.34 28.71 L 71.57 26.25 L 71.42 26.16"/><path d="M 89.10 37.49 L 88.97 37.68 L 86.62 41.35 L 82.76 47.21"/><path d="M 76.73 28.33 L 76.82 28.17 L 83.00 18.73"/><path d="M 85.15 33.58 L 92.12 23.96"/><path d="M 76.73 28.33 L 76.46 28.73 L 76.25 29.05"/><path d="M 76.00 29.11 L 75.80 29.00 L 75.50 28.78"/><path d="M 75.46 28.54 L 75.66 28.20 L 75.90 27.83"/><path d="M 76.17 27.76 L 76.01 27.65 L 72.30 25.17 L 72.15 25.06"/><path d="M 17.17 32.32 L 18.37 32.73 L 18.58 32.76 L 18.85 32.72 L 19.19 32.64 L 19.52 32.52 L 19.73 32.41 L 21.34 30.98 L 22.20 30.28 L 22.29 30.15 L 23.12 28.81 L 23.30 28.56 L 24.11 27.60 L 24.44 27.15 L 24.72 26.65 L 25.15 26.00 L 25.28 25.66 L 25.35 25.35 L 25.19 25.17"/><path d="M 12.17 32.07 L 11.72 31.31 L 12.16 30.70 L 12.62 29.43 L 12.93 28.56 L 12.91 28.34 L 13.03 28.03 L 13.18 27.67 L 13.33 27.27 L 13.48 26.91 L 13.58 26.92 L 13.89 26.01 L 14.35 24.64 L 14.73 24.89"/><path d="M 13.89 26.01 L 14.40 26.49"/><path d="M 47.53 90.04 L 47.44 90.40 L 47.37 90.68"/><path d="M 47.37 90.68 L 47.30 90.96"/><path d="M 47.32 95.46 L 46.87 95.35 L 46.39 95.23"/><path d="M 47.31 96.27 L 47.40 95.95 L 47.47 95.64"/><path d="M 46.18 95.33 L 46.10 95.62 L 46.02 95.93"/><path d="M 61.89 94.53 L 61.59 94.46 L 61.21 94.38"/><path d="M 61.97 94.55 L 61.89 94.53"/><path d="M 47.51 95.51 L 47.32 95.46"/><path d="M 47.47 95.64 L 47.51 95.51"/><path d="M 47.27 96.46 L 47.31 96.27"/><path d="M 47.05 96.41 L 47.27 96.46"/><path d="M 46.02 95.93 L 45.97 96.14"/><path d="M 45.97 96.14 L 46.13 96.18"/><path d="M 46.21 95.18 L 46.18 95.33"/><path d="M 46.39 95.23 L 46.21 95.18"/><path d="M 46.90 -0.98 L 46.65 -0.58 L 46.37 -0.17 L 45.68 0.79 L 45.51 0.99 L 45.36 1.14 L 45.23 1.21 L 45.03 1.27 L 44.66 1.31 L 44.43 1.34"/><path d="M 81.72 70.90 L 82.38 71.06 L 94.18 74.14"/><path d="M 91.37 79.07 L 90.09 78.74 L 88.62 78.31 L 88.20 78.19 L 87.65 78.05 L 81.06 76.38 L 80.38 76.21"/><path d="M 75.28 9.50 L 74.45 10.87"/><path d="M 75.97 7.93 L 75.53 8.69 L 75.28 9.50"/><path d="M 53.64 68.67 L 53.58 68.90 L 53.46 69.35"/></g></g></g></svg>