<?xml version="1.0" encoding="UTF-8" standalone="no"?>
<!-- Created with Inkscape (http://www.inkscape.org/) -->

<svg
   width="11in"
   height="8.5in"
   viewBox="0 0 279.4 215.9"
   version="1.1"
   id="svg1"
   xml:space="preserve"
   inkscape:version="1.4.2 (f4327f4, 2025-05-13)"
   sodipodi:docname="thomas-outside.svg"
   xmlns:inkscape="http://www.inkscape.org/namespaces/inkscape"
   xmlns:sodipodi="http://sodipodi.sourceforge.net/DTD/sodipodi-0.dtd"
   xmlns="http://www.w3.org/2000/svg"
   xmlns:svg="http://www.w3.org/2000/svg"><sodipodi:namedview
     id="namedview1"
     pagecolor="#ffffff"
     bordercolor="#000000"
     borderopacity="0.25"
     inkscape:showpageshadow="2"
     inkscape:pageopacity="0.0"
     inkscape:pagecheckerboard="0"
     inkscape:deskcolor="#d1d1d1"
     inkscape:document-units="in"
     inkscape:zoom="0.74564396"
     inkscape:cx="372.8321"
     inkscape:cy="361.43255"
     inkscape:window-width="1920"
     inkscape:window-height="1017"
     inkscape:window-x="1912"
     inkscape:window-y="-8"
     inkscape:window-maximized="1"
     inkscape:current-layer="svg1" /><defs
     id="defs1"><inkscape:path-effect
       effect="spiro"
       id="path-effect3634"
       is_visible="true"
       lpeversion="1" /><clipPath
       clipPathUnits="userSpaceOnUse"
       id="clipPath3629"><rect
         style="fill:none;fill-opacity:1;stroke:none;stroke-width:0.0932351;stroke-opacity:1"
         id="rect3629"
         width="41.181763"
         height="50.706757"
         x="11.231459"
         y="-21.877235"
         transform="scale(-1)" /></clipPath></defs><rect
     style="opacity:1;fill:none;fill-opacity:1;stroke:#000000;stroke-width:0.25004;stroke-opacity:1"
     id="rect1-1"
     width="107.69996"
     height="139.44997"
     x="-139.57518"
     y="-177.67499"
     transform="scale(-1)" /><rect
     style="fill:none;stroke:#000000;stroke-width:0.25004;stroke-opacity:1"
     id="rect1"
     width="107.69996"
     height="139.44997"
     x="-247.52477"
     y="-177.67499"
     transform="scale(-1)" /><g
     inkscape:label="Hershey Text"
     style="fill:none;stroke:#000000;stroke-linecap:round;stroke-linejoin:round"
     id="g4082"
     transform="translate(-10.160195)"><g
       transform="translate(85.1165,139.875)"
       id="g4068"><path
         d="m 252,441 -63,31 -31,64 v 31 l 31,63 63,32 h 32 l 62,-32 32,-63 V 504 L 346,378 284,189 220,63 158,0 H 94.5 L 63,31.5 v 63 M 788,567 v 63 l -32,32 h -32 l -62,-32 -64,-63 -62,-95 -64,-62 -62,-32 h -64 m 64,0 31,-63 V 94.5 L 472,31.5 504,0 h 32 l 62,31.5 32,31.5 63,95"
         style="stroke-width:0.4427in"
         transform="scale(0.00635,-0.00635)"
         id="path4066" /><path
         d="M 441,567 V 0 M 158,284 h 566"
         style="stroke-width:0.4427in"
         transform="matrix(0.00635,0,0,-0.00635,7.2009,0)"
         id="path4067" /><path
         d="m 189,441 -63,31 -31.5,64 v 31 l 31.5,63 63,32 h 31 l 64,-32 31,-63 V 504 L 284,346 252,220 189,0 m 63,220 94,252 64,126 31,32 63,32 h 32 l 62,-32 32,-63 V 504 L 598,346 567,220 504,0 m 63,220 95,252 62,126 32,32 63,32 h 31 l 64,-32 31,-63 V 504 L 914,346 850,126 V 31.5 L 882,0 h 32 l 62,31.5 32,31.5 63,95"
         style="stroke-width:0.4427in"
         transform="matrix(0.00635,0,0,-0.00635,14.8018,0)"
         id="path4068" /></g><g
       transform="translate(83.1179,146.049)"
       id="g4077"><path
         d="m 410,472 v -31 l 31,-31 h 63 l 63,31 31,63 v 63 l -31,63 -63,32 H 410 L 315,630 252,567 189,472 158,410 126,284 V 158 L 158,63 189,31.5 252,0 h 63 l 95,31.5 62,63 32,63.5"
         style="stroke-width:0.4427in"
         transform="scale(0.00635,-0.00635)"
         id="path4069" /><path
         d="m 31.5,158 63,94 94.5,158 31,62 32,95 v 63 L 220,662 158,630 126,567 94.5,441 63,252 31.5,0 m 0,0 31.5,94.5 31.5,63.5 63.5,94 62,32 h 64 l 31,-32 V 189 L 284,94.5 v -63 L 315,0 h 31 l 64,31.5 31,31.5 63,95"
         style="stroke-width:0.4427in"
         transform="matrix(0.00635,0,0,-0.00635,4.0005,0)"
         id="path4070" /><path
         d="m 31.5,158 63,94 31.5,63 v -63 h 94 l 32,-32 V 158 L 220,63 V 31.5 L 252,0 h 32 l 62,31.5 32,31.5 63,95"
         style="stroke-width:0.4427in"
         transform="matrix(0.00635,0,0,-0.00635,6.9977,0)"
         id="path4071" /><path
         d="m 126,441 v -31 h 32 v 31 H 126 M 31.5,158 94.5,284 31.5,94.5 v -63 L 63,0 h 31.5 l 63.5,31.5 31,31.5 63,95"
         style="stroke-width:0.4427in"
         transform="matrix(0.00635,0,0,-0.00635,9.6012,0)"
         id="path4072" /><path
         d="m 31.5,158 63,94 31.5,63 v -63 l 63,-94 31,-63.5 v -63 L 158,0 M 31.5,31.5 94.5,0 H 220 l 64,31.5 31,31.5 63,95"
         style="stroke-width:0.4427in"
         transform="matrix(0.00635,0,0,-0.00635,10.9982,0)"
         id="path4073" /><path
         d="m 31.5,158 63,94 63.5,126 M 252,662 63,94.5 v -63 L 94.5,0 H 158 l 62,31.5 32,31.5 63,95 M 63,410 h 221"
         style="stroke-width:0.4427in"
         transform="matrix(0.00635,0,0,-0.00635,13.1953,0)"
         id="path4074" /><path
         d="m 31.5,158 63,94 63.5,32 31,-32 V 220 L 158,94.5 126,0 m 32,94.5 31,63.5 63,94 63,32 h 63 l 32,-32 V 220 L 378,94.5 346,0 m 32,94.5 32,63.5 62,94 64,32 h 62 l 32,-32 V 189 L 598,94.5 v -63 L 630,0 h 32 l 62,31.5 32,31.5 63,95"
         style="stroke-width:0.4427in"
         transform="matrix(0.00635,0,0,-0.00635,14.9987,0)"
         id="path4075" /><path
         d="m 315,189 -31,63 -64,32 H 158 L 94.5,252 63,220 31.5,158 V 94.5 L 63,31.5 126,0 h 63 l 63,31.5 32,63 L 346,284 315,126 V 31.5 L 346,0 h 32 l 63,31.5 31,31.5 64,95"
         style="stroke-width:0.4427in"
         transform="matrix(0.00635,0,0,-0.00635,20.0025,0)"
         id="path4076" /><path
         d="m 31.5,158 63,94 31.5,63 v -63 l 63,-94 31,-63.5 v -63 L 158,0 M 31.5,31.5 94.5,0 H 220 l 64,31.5 31,31.5 63,95"
         style="stroke-width:0.4427in"
         transform="matrix(0.00635,0,0,-0.00635,23.2029,0)"
         id="path4077" /></g><g
       transform="translate(87.4105,152.222)"
       id="g4081"><path
         d="m 252,536 32,-32 -32,-32 -32,32 v 32 l 32,62 32,32 94,32 h 94 l 95,-32 31,-63 V 504 L 567,441 504,378 410,315 284,252 189,189 126,126 63,0 m 409,662 64,-32 31,-63 V 504 L 536,441 472,378 284,252 M 94.5,63 126,94.5 h 63 l 157,-63 h 95 l 63,31.5 32,63 M 189,94.5 346,0 h 95 l 63,31.5 32,94.5"
         style="stroke-width:0.4427in"
         transform="scale(0.00635,-0.00635)"
         id="path4078" /><path
         d="M 410,662 315,630 252,567 189,472 158,378 126,252 V 158 L 158,63 189,31.5 252,0 h 63 l 95,31.5 62,63 64,94.5 31,95 31,126 v 94 l -31,94 -31,32 -64,32 h -62 m 0,0 -64,-32 -62,-63 -64,-95 -31,-94 -31,-126 V 158 L 189,63 252,0 m 63,0 63,31.5 63,63 63,94.5 32,95 31,126 v 94 l -31,94 -64,64"
         style="stroke-width:0.4427in"
         transform="matrix(0.00635,0,0,-0.00635,4.2037,0)"
         id="path4079" /><path
         d="m 252,536 32,-32 -32,-32 -32,32 v 32 l 32,62 32,32 94,32 h 94 l 95,-32 31,-63 V 504 L 567,441 504,378 410,315 284,252 189,189 126,126 63,0 m 409,662 64,-32 31,-63 V 504 L 536,441 472,378 284,252 M 94.5,63 126,94.5 h 63 l 157,-63 h 95 l 63,31.5 32,63 M 189,94.5 346,0 h 95 l 63,31.5 32,94.5"
         style="stroke-width:0.4427in"
         transform="matrix(0.00635,0,0,-0.00635,8.4074,0)"
         id="path4080" /><path
         d="M 315,662 158,346 M 315,662 H 630 M 315,630 h 157 l 158,32 m -472,-316 31,32 95,32 h 94 l 94,-32 32,-32 32,-62 V 189 L 504,94.5 441,31.5 346,0 H 252 L 158,31.5 126,63 94.5,126 v 32 l 31.5,31 32,-31 -32,-32 m 252,284 63,-32 31,-32 32,-62 V 189 L 472,94.5 410,31.5 346,0"
         style="stroke-width:0.4427in"
         transform="matrix(0.00635,0,0,-0.00635,12.6111,0)"
         id="path4081" /></g></g><g
     id="g1"
     transform="matrix(0.26458333,0,0,0.26458333,140.98302,43.32325)"><path
       d="m 200,20 4.11,9.34 10.16,1.02 -7.61,6.8 2.16,9.98 L 200,42 l -8.82,5.14 2.16,-9.98 -7.61,-6.8 10.16,-1.02 z"
       fill="none"
       stroke="#daa520"
       stroke-width="2"
       id="path1" /><path
       d="m 200,50 0.63,0.62 0.63,0.61 0.61,0.62 0.6,0.62 0.57,0.61 0.53,0.62 0.49,0.62 0.43,0.61 0.38,0.62 0.3,0.62 0.23,0.61 0.15,0.62 0.07,0.62 -0.02,0.61 -0.11,0.62 -0.2,0.62 -0.29,0.61 -0.38,0.62 -0.46,0.62 -0.54,0.61 -0.61,0.62 -0.68,0.62 -0.74,0.61 -0.78,0.62 -0.81,0.62 -0.84,0.61 -0.85,0.62 -0.84,0.62 -0.83,0.61 -0.8,0.62 -0.75,0.62 -0.7,0.61 -0.62,0.62 -0.54,0.62 -0.45,0.61 -0.35,0.62 -0.23,0.62 -0.11,0.61 0.01,0.62 0.14,0.62 0.27,0.61 0.4,0.62 0.53,0.62 0.65,0.61 0.76,0.62 0.87,0.62 0.97,0.61 1.04,0.62 1.11,0.62 1.16,0.61 1.19,0.62 1.21,0.62 1.2,0.61 1.18,0.62 1.13,0.62 1.07,0.61 0.98,0.62 0.88,0.62 0.76,0.61 0.62,0.62 0.48,0.62 0.31,0.61 0.15,0.62 -0.04,0.62 -0.21,0.61 -0.4,0.62 -0.57,0.62 -0.76,0.61 -0.92,0.62 -1.08,0.62 -1.22,0.61 -1.35,0.62 -1.46,0.62 -1.54,0.61 -1.61,0.62 -1.65,0.62 -1.66,0.61 -1.65,0.62 -1.6,0.62 -1.54,0.61 -1.44,0.62 -1.33,0.62 -1.17,0.61 -1.01,0.62 -0.82,0.62 -0.62,0.61 -0.4,0.62 -0.16,0.62 0.07,0.61 0.32,0.62 0.56,0.62 0.81,0.61 1.03,0.62 1.25,0.62 1.46,0.61 1.64,0.62 1.8,0.62 1.94,0.61 2.05,0.62 2.12,0.62 2.16,0.61 2.18,0.62 2.14,0.62 2.09,0.61 1.98,0.62 1.86,0.62 1.69,0.61 1.49,0.62 1.27,0.62 1.03,0.61 0.76,0.62 0.47,0.62 0.17,0.61 -0.14,0.62 -0.44,0.62 -0.76,0.61 -1.05,0.62 -1.34,0.62 -1.62,0.61 -1.87,0.62 -2.1,0.62 -2.28,0.61 -2.46,0.62 -2.57,0.62 -2.66,0.61 -2.7,0.62 -2.71,0.62 -2.65,0.61 -2.58,0.62 -2.44,0.62 -2.27,0.61 -2.05,0.62 -1.81,0.62 -1.53,0.61 -1.22,0.62 -0.89,0.62 -0.53,0.61 -0.17,0.62 0.2,0.62 0.59,0.61 0.95,0.62 1.32,0.62 1.67,0.61 1.98,0.62 2.29,0.62 2.54,0.61 2.77,0.62 2.96,0.62 3.09,0.61 3.19,0.62 3.23,0.62 3.21,0.61 3.15,0.62 3.04,0.62 2.88,0.61 2.66,0.62 2.4,0.62 2.1,0.61 1.77,0.62 1.4,0.62 1,0.61 0.59,0.62 0.15,0.62 -0.28,0.61 -0.73,0.62 -1.15,0.62 -1.57,0.61 -1.97,0.62 -2.34,0.62 -2.67,0.61 -2.97,0.62 -3.23,0.62 -3.42,0.61 -3.58,0.62 -3.67,0.62 -3.71,0.61 -3.68,0.62 -3.61,0.62 -3.46,0.61 -3.27,0.62 -3.02,0.62 -2.71,0.61 -2.37,0.62 -1.97,0.62 -1.56,0.61 -1.1,0.62 -0.63,0.62 -0.14,0.61 0.36,0.62 0.85,0.62 1.34,0.61 1.8,0.62 2.25,0.62 2.65,0.61 3.03,0.62 3.35,0.62 3.63,0.61 3.85,0.62 4.01,0.62 4.11,0.61 4.14,0.62 4.11,0.62 4.01,0.61 3.84,0.62 3.63,0.62 3.33,0.61 3,0.62 2.6,0.62 2.17,0.61 1.7,0.62 1.19,0.62 0.67,0.61 0.13,0.62 -0.42,0.62 -0.97,0.61 -1.49,0.62 -2.01,0.62 -2.49,0.61 -2.95,0.62 -3.34,0.62 -3.7,0.61 -4,0.62 -4.24,0.62 -4.4,0.61 -4.51,0.62 -4.54,0.62 -4.5,0.61 -4.39,0.62 -4.2,0.62 -3.96,0.61 -3.64,0.62 -3.27,0.62 -2.83,0.61 -2.36,0.62 -1.85,0.62 -1.29,0.61 -0.72,0.62 -0.12,0.62 0.46,0.61 1.06,0.62 1.64,0.62 2.2,0.61 2.72,0.62 3.21,0.62 3.66,0.61 4.03,0.62 4.36,0.62 4.62,0.61 4.8,0.62 4.91,0.62 4.95,0.61 4.9,0.62 4.78,0.62 4.58,0.61 4.31,0.62 3.97,0.62 3.57,0.61 3.09,0.62 2.58,0.62 2.01,0.61 1.42,0.62 0.79,0.62 0.15,0.61 -0.5,0.62 -1.15,0.62 -1.78,0.61 -2.39,0.62 -2.97,0.62 -3.49,0.61 -3.98,0.62 -4.41,0.62 -4.76,0.61 -5.04,0.62 -5.25,0.62 -5.38,0.61 -5.42,0.62 -5.37,0.62 -5.25,0.61 -5.03,0.62 -4.74,0.62 -4.37,0.61 -3.93,0.62 -3.42,0.62 -2.85,0.61 -2.24,0.62 -1.58,0.62 -0.9,0.61 -0.19,0.62 0.53,0.62 1.24,0.61 1.93,0.62 2.62,0.62 3.25,0.61 3.85,0.62 4.38,0.62 4.86,0.61 5.26,0.62 5.58,0.62 5.82,0.61 5.97,0.62 6.02,0.62 5.98,0.61 5.85,0.62 5.62,0.62 5.3,0.61 4.89,0.62 4.41,0.62 3.85,0.61 3.22,0.62 2.54,0.62 1.8,0.61 1.04,0.62 0.25,0.62 -0.55,0.61 -1.35,0.62 -2.14,0.62 -2.91,0.61 -3.62,0.62 -4.31,0.62 -4.91,0.61 -5.46,0.62 -5.92,0.62 -6.29,0.61 -6.57,0.62 -6.74,0.62 -6.82,0.61 -6.78,0.62 -6.64,0.62 -6.39,0.61 -6.03,0.62 -5.59,0.62 -5.04,0.61 -4.41,0.62 -3.7,0.62 -2.92,0.61 -2.1,0.62 -1.22,0.62 -0.33,0.61 0.6,0.62 1.5,0.62 2.42,0.61 3.29,0.62 4.12,0.62 4.9,0.61 5.61,0.62 6.24,0.62 6.78,0.61 7.22,0.62 7.54,0.62 7.75,0.61 7.84,0.62 7.82,0.62 7.65,0.61 7.38,0.62 6.97,0.62 6.46,0.61 5.84,0.62 5.11,0.62 4.3,0.61 3.41,0.62 2.45,0.62 1.44,0.61 0.4,0.62 -0.66,0.62 -1.72,0.61 -2.78,0.62 -3.79,0.62 -4.76,0.61 -5.67,0.62 -6.49,0.62 -7.23,0.61 -7.85,0.62 -8.37,0.62 -8.75,0.61 -9,0.62 -9.11,0.62 -9.08,0.61 -8.89,0.62 -8.58,0.62 -8.11,0.61 -7.51,0.62 -6.79,0.62 -5.95,0.61 -5,0.62 -3.97,0.62 -2.85,0.61 -1.68,0.62 -0.47,0.62 0.77,0.61 2,0.62 3.23,0.62 4.41,0.61 5.54,0.62 6.59,0.62 7.56,0.61 8.4,0.62 9.14,0.62 9.72,0.61 10.17,0.62 10.46,0.62 10.58,0.61 10.54,0.62 10.32,0.62 9.95,0.61 9.41,0.62 8.7,0.62 7.86,0.61 6.88,0.62 5.78,0.62 4.57,0.61 3.28,0.62 1.92,0.62 0.51,0.61 -0.92,0.62 -2.35,0.62 -3.77,0.61 -5.13,0.62 -6.43,0.62 -7.65,0.61 -8.75,0.62 -9.72,0.62 -10.56,0.61 -11.23,0.62 -11.74,0.62 -12.05,0.61 -12.18,0.62 -12.13,0.62 -11.86,0.61 -11.42,0.62 -10.78,0.62 -9.97,0.61 -8.98,0.62 -7.85,0.62 -6.58,0.61 -5.18,0.62 -3.7,0.62 -2.13,0.61 -0.52,0.62 1.12,0.62 2.75,0.61 4.36,0.62 5.92,0.62 7.39,0.61 8.76,0.62 10.01,0.62 11.11,0.61 12.04,0.62 12.79,0.62 13.35,0.61 13.68,0.62 13.81,0.62 13.73,0.61 13.41,0.62 12.88,0.62 12.15,0.61 11.2,0.62 10.08,0.62 8.79,0.61 7.33,0.62 5.76,0.62 4.07,0.61 2.31,0.62 0.49,0.62 -1.35,0.61 -3.18,0.62 -4.98,0.62 -6.71,0.61 -8.35,0.62 -9.87,0.62 -11.25,0.61 -12.46,0.62 -13.47,0.62 -14.29,0.61 -14.87,0.62 -15.23,0.62 -15.35,0.61 -15.22,0.62 -14.84,0.62 -14.24,0.61 -13.39,0.62 -12.33,0.62 -11.07,0.61 -9.61,0.62 -8,0.62 -6.24,0.61 -4.37,0.62 -2.43,0.62 -0.42,0.61 1.59,0.62 3.61,0.62 5.57,0.61 7.45,0.62 9.24,0.62 10.89,0.61 12.37,0.62 13.66,0.62 14.74,0.61 15.6,0.62 16.22,0.62 16.57,0.61 16.67,0.62 16.49,0.62 16.07,0.61 15.37,0.62 14.43,0.62 13.26,0.61 11.86,0.62 10.27,0.62 8.51,0.61 6.61,0.62 4.59,0.62 2.48,0.61 0.33,0.62 -1.84,0.62 -3.99,0.61 -6.09,0.62 -8.1,0.62 -9.98,0.61 -11.72,0.62 -13.29,0.62 -14.64,0.61 -15.76,0.62 -16.65,0.62 -17.27,0.61 -17.61,0.62 -17.68,0.62 -17.47,0.61 -16.99,0.62 -16.21,0.62 -15.2,0.61 -13.92,0.62 -12.43,0.62 -10.73,0.61 -8.86,0.62 -6.84,0.62 -4.7,0.61 -2.48,0.62 -0.22,0.62 2.06,0.61 4.31,0.62 6.49,0.62 8.58,0.61 10.54,0.62 12.34,0.62 13.94,0.61 15.33,0.62 16.48,0.62 17.36,0.61 17.99,0.62 18.31,0.62 18.35,0.61 18.11,0.62 17.57,0.62 16.74,0.61 15.66,0.62 14.33,0.62 12.76,0.61 10.98,0.62 9.04,0.62 6.94,0.61 4.73,0.62 2.45,0.62 0.11,0.61 -2.22,0.62 -4.53,0.62 -6.76,0.61 -8.9,0.62 -10.89,0.62 -12.71,0.61 -14.33,0.62 -15.73,0.62 -16.88,0.61 -17.77,0.62 -18.37,0.62 -18.68,0.61 -18.7,0.62 -18.42,0.62 -17.85,0.61 -16.99,0.62 -15.87,0.62 -14.5,0.61 -12.89,0.62 -11.07,0.62 -9.09,0.61 -6.96,0.62 -4.71,0.62 -2.39,0.61 -0.03,0.62 2.33,0.62 4.65,0.61 6.9,0.62 9.05,0.62 11.04,0.61 12.87,0.62 14.5,0.62 15.89,0.61 17.03,0.62 17.91,0.62 18.5,0.61 18.8,0.62"
       fill="none"
       stroke="#228b22"
       stroke-width="2.5"
       stroke-linecap="round"
       stroke-linejoin="round"
       id="path2" /><path
       d="m 185,420 h 30 v 50 h -30 z"
       fill="none"
       stroke="#8b4513"
       stroke-width="2"
       id="path3" /></g></svg>
