<?xml version="1.0" encoding="UTF-8" standalone="no"?>
<!-- Created with Inkscape (http://www.inkscape.org/) -->

<svg
   width="11in"
   height="8.5in"
   viewBox="0 0 279.4 215.9"
   version="1.1"
   id="svg1"
   xml:space="preserve"
   inkscape:version="1.4.2 (f4327f4, 2025-05-13)"
   sodipodi:docname="thomas-outside-green.svg"
   xmlns:inkscape="http://www.inkscape.org/namespaces/inkscape"
   xmlns:sodipodi="http://sodipodi.sourceforge.net/DTD/sodipodi-0.dtd"
   xmlns="http://www.w3.org/2000/svg"
   xmlns:svg="http://www.w3.org/2000/svg"
   xmlns:ns0="https://bantam.tools/nd"><sodipodi:namedview
     id="namedview1"
     pagecolor="#ffffff"
     bordercolor="#000000"
     borderopacity="0.25"
     inkscape:showpageshadow="2"
     inkscape:pageopacity="0.0"
     inkscape:pagecheckerboard="0"
     inkscape:deskcolor="#d1d1d1"
     inkscape:document-units="in"
     inkscape:zoom="0.74564396"
     inkscape:cx="372.8321"
     inkscape:cy="361.43255"
     inkscape:window-width="1920"
     inkscape:window-height="1017"
     inkscape:window-x="1912"
     inkscape:window-y="-8"
     inkscape:window-maximized="1"
     inkscape:current-layer="svg1" /><defs
     id="defs1"><inkscape:path-effect
       effect="spiro"
       id="path-effect3634"
       is_visible="true"
       lpeversion="1" /><clipPath
       clipPathUnits="userSpaceOnUse"
       id="clipPath3629"><rect
         style="fill:none;fill-opacity:1;stroke:none;stroke-width:0.0932351;stroke-opacity:1"
         id="rect3629"
         width="41.181763"
         height="50.706757"
         x="11.231459"
         y="-21.877235"
         transform="scale(-1)" /></clipPath></defs><path
     d="m 193.89969,56.552416 0.16668,0.164042 0.16669,0.161396 0.1614,0.164042 0.15875,0.164041 0.15081,0.161396 0.14023,0.164042 0.12964,0.164041 0.11378,0.161396 0.10054,0.164042 0.0794,0.164042 0.0609,0.161395 0.0397,0.164042 0.0185,0.164042 -0.005,0.161396 -0.0291,0.164041 -0.0529,0.164042 -0.0767,0.161396 -0.10054,0.164041 -0.12171,0.164042 -0.14287,0.161396 -0.1614,0.164042 -0.17991,0.164041 -0.1958,0.161396 -0.20637,0.164042 -0.21431,0.164041 -0.22225,0.161396 -0.2249,0.164042 -0.22225,0.164042 -0.2196,0.161395 -0.21167,0.164042 -0.19844,0.164042 -0.18521,0.161396 -0.16404,0.164041 -0.14287,0.164042 -0.11907,0.161396 -0.0926,0.164041 -0.0609,0.164042 -0.0291,0.161396 0.003,0.164042 0.037,0.164041 0.0714,0.161396 0.10583,0.164042 0.14023,0.164041 0.17198,0.161396 0.20108,0.164042 0.23019,0.164042 0.25665,0.161395 0.27516,0.164042 0.29369,0.164042 0.30692,0.161396 0.31485,0.164041 0.32015,0.164042 0.3175,0.161396 0.3122,0.164041 0.29898,0.164042 0.28311,0.161396 0.25929,0.164042 0.23283,0.164041 0.20109,0.161396 0.16404,0.164042 0.127,0.164041 0.082,0.161396 0.0397,0.164042 -0.0106,0.164042 -0.0556,0.161395 -0.10583,0.164042 -0.15082,0.164042 -0.20108,0.161396 -0.24342,0.164041 -0.28575,0.164042 -0.32279,0.161396 -0.35718,0.164041 -0.3863,0.164042 -0.40745,0.161396 -0.42598,0.164042 -0.43657,0.164041 -0.4392,0.161396 -0.43657,0.164042 -0.42333,0.164041 -0.40746,0.161396 -0.381,0.164042 -0.35189,0.164041 -0.30957,0.161396 -0.26723,0.164042 -0.21695,0.164042 -0.16405,0.161395 -0.10583,0.164042 -0.0423,0.164042 0.0185,0.161396 0.0847,0.164041 0.14817,0.164042 0.21431,0.161396 0.27252,0.164041 0.33073,0.164042 0.3863,0.161396 0.43391,0.164042 0.47625,0.164041 0.51329,0.161396 0.5424,0.164042 0.56092,0.164041 0.5715,0.161396 0.57679,0.164042 0.56621,0.164042 0.55298,0.161395 0.52387,0.164042 0.49213,0.164042 0.44714,0.161396 0.39423,0.164041 0.33602,0.164042 0.27252,0.161396 0.20109,0.164041 0.12435,0.164042 0.045,0.161396 -0.037,0.164042 -0.11642,0.164041 -0.20108,0.161396 -0.27782,0.164042 -0.35454,0.164041 -0.42862,0.161396 -0.49477,0.164042 -0.55563,0.164042 -0.60325,0.161395 -0.65087,0.164042 -0.67998,0.164042 -0.70379,0.161396 -0.71438,0.164041 -0.71702,0.164042 -0.70115,0.161396 -0.68262,0.164041 -0.64558,0.164042 -0.60061,0.161396 -0.54239,0.164042 -0.4789,0.164041 -0.40481,0.161396 -0.32279,0.164042 -0.23548,0.164041 -0.14023,0.161396 -0.045,0.164042 0.0529,0.164042 0.1561,0.161395 0.25135,0.164042 0.34925,0.164042 0.44186,0.161396 0.52387,0.164041 0.6059,0.164042 0.67204,0.161396 0.7329,0.164041 0.78316,0.164042 0.81757,0.161396 0.84402,0.164042 0.8546,0.164041 0.84931,0.161396 0.83344,0.164042 0.80433,0.164041 0.762,0.161396 0.7038,0.164042 0.635,0.164042 0.55562,0.161395 0.46831,0.164042 0.37042,0.164042 0.26458,0.161396 0.15611,0.164041 0.0397,0.164042 -0.0741,0.161396 -0.19314,0.164041 -0.30428,0.164042 -0.41539,0.161396 -0.52123,0.164041 -0.61913,0.164042 -0.70643,0.161396 -0.78582,0.164042 -0.8546,0.164041 -0.90487,0.161396 -0.94721,0.164042 -0.97102,0.164041 -0.98161,0.161396 -0.97366,0.164042 -0.95515,0.164042 -0.91546,0.161395 -0.86519,0.164042 -0.79904,0.164042 -0.71702,0.161396 -0.62706,0.164041 -0.52123,0.164042 -0.41275,0.161396 -0.29104,0.164041 -0.16669,0.164042 -0.037,0.161396 0.0952,0.164042 0.22489,0.164041 0.35455,0.161396 0.47625,0.164042 0.59531,0.164041 0.70114,0.161396 0.80169,0.164042 0.88636,0.164042 0.96043,0.161395 1.01865,0.164042 1.06098,0.164042 1.08744,0.161396 1.09537,0.164041 1.08744,0.164042 1.06098,0.161396 1.016,0.164041 0.96044,0.164042 0.88106,0.161396 0.79375,0.164042 0.68791,0.164041 0.57415,0.161396 0.44979,0.164042 0.31486,0.164041 0.17727,0.161396 0.0344,0.164042 -0.11112,0.164042 -0.25665,0.161395 -0.39423,0.164042 -0.53181,0.164042 -0.65881,0.161396 -0.78052,0.164041 -0.88371,0.164042 -0.97896,0.161396 -1.05833,0.164041 -1.12184,0.164042 -1.16416,0.161396 -1.19327,0.164042 -1.20121,0.164041 -1.19063,0.161396 -1.16152,0.164042 -1.11125,0.164041 -1.04775,0.161396 -0.96308,0.164042 -0.86519,0.164042 -0.74877,0.161395 -0.62442,0.164042 -0.48948,0.164042 -0.34131,0.161396 -0.1905,0.164041 -0.0318,0.164042 0.12171,0.161396 0.28046,0.164041 0.43392,0.164042 0.58208,0.161396 0.71967,0.164042 0.84931,0.164041 0.96837,0.161396 1.06627,0.164042 1.15359,0.164041 1.22237,0.161396 1.27,0.164042 1.29911,0.164041 1.30968,0.161396 1.29646,0.164042 1.26471,0.164042 1.21179,0.161395 1.14036,0.164042 1.05039,0.164042 0.94456,0.161396 0.81757,0.164041 0.68262,0.164042 0.53181,0.161396 0.37571,0.164041 0.20902,0.164042 0.0397,0.161396 -0.13229,0.164042 -0.30427,0.164041 -0.47096,0.161396 -0.63235,0.16404 -0.78582,0.16404 -0.92339,0.1614 -1.05304,0.16404 -1.16682,0.16404 -1.25941,0.1614 -1.3335,0.16404 -1.38907,0.16404 -1.42345,0.1614 -1.43405,0.16404 -1.42081,0.16404 -1.38906,0.1614 -1.33085,0.16404 -1.25413,0.16404 -1.15623,0.1614 -1.03981,0.16404 -0.90488,0.16404 -0.75406,0.1614 -0.59267,0.16404 -0.41804,0.16404 -0.23812,0.16139 -0.0503,0.16405 0.14023,0.16404 0.32808,0.16139 0.51065,0.16405 0.6932,0.16404 0.8599,0.16139 1.01865,0.16404 1.15887,0.16405 1.28588,0.16139 1.3917,0.16404 1.47638,0.16405 1.53987,0.16139 1.57957,0.16404 1.59279,0.16404 1.58221,0.1614 1.54781,0.16404 1.48696,0.16404 1.40229,0.1614 1.29381,0.16404 1.16681,0.16404 1.01865,0.1614 0.85196,0.16404 0.67204,0.16404 0.47625,0.1614 0.27517,0.16404 0.0661,0.16404 -0.14552,0.1614 -0.35719,0.16404 -0.5662,0.16404 -0.76994,0.1614 -0.95779,0.16404 -1.14036,0.16404 -1.2991,0.1614 -1.44463,0.16404 -1.56633,0.16404 -1.66423,0.16139 -1.73831,0.16405 -1.78329,0.16404 -1.80446,0.16139 -1.79388,0.16404 -1.75683,0.16405 -1.69069,0.16139 -1.59544,0.16404 -1.47902,0.16405 -1.3335,0.16139 -1.16681,0.16404 -0.97896,0.16404 -0.77258,0.1614 -0.55563,0.16404 -0.32279,0.16404 -0.0873,0.1614 0.15875,0.16404 0.39688,0.16404 0.64029,0.1614 0.87048,0.16404 1.09008,0.16404 1.29646,0.1614 1.48431,0.16404 1.651,0.16404 1.79388,0.1614 1.91029,0.16404 1.99496,0.16404 2.05052,0.1614 2.07433,0.16404 2.06904,0.16404 2.02406,0.1614 1.95263,0.16404 1.84414,0.16404 1.70921,0.16139 1.54517,0.16405 1.35202,0.16404 1.13771,0.16139 0.90223,0.16405 0.64823,0.16404 0.381,0.16139 0.10583,0.16404 -0.17463,0.16405 -0.45508,0.16139 -0.73554,0.16404 -1.00277,0.16405 -1.25942,0.16139 -1.50018,0.16404 -1.71715,0.16404 -1.91294,0.1614 -2.07698,0.16404 -2.21456,0.16404 -2.3151,0.1614 -2.38125,0.16404 -2.41036,0.16404 -2.40241,0.1614 -2.35215,0.16404 -2.27013,0.16404 -2.14577,0.1614 -1.98702,0.16404 -1.79652,0.16404 -1.57427,0.1614 -1.32292,0.16404 -1.05039,0.16404 -0.75406,0.1614 -0.4445,0.16404 -0.12436,0.16404 0.20373,0.1614 0.52917,0.16404 0.8546,0.16404 1.16681,0.16139 1.4658,0.16405 1.7436,0.16404 2.00025,0.16139 2.2225,0.16405 2.41829,0.16404 2.57175,0.16139 2.69081,0.16404 2.76755,0.16405 2.79929,0.16139 2.78871,0.16404 2.7305,0.16405 2.6326,0.16139 2.48973,0.16404 2.30187,0.16404 2.07963,0.1614 1.82033,0.16404 1.52929,0.16404 1.20915,0.1614 0.86783,0.16404 0.508,0.16404 0.13494,0.1614 -0.24342,0.16404 -0.62177,0.16404 -0.99748,0.1614 -1.35731,0.16404 -1.70127,0.16404 -2.02406,0.1614 -2.31511,0.16404 -2.57175,0.16404 -2.794,0.1614 -2.97127,0.16404 -3.1062,0.16404 -3.18823,0.1614 -3.22263,0.16404 -3.20939,0.16404 -3.13796,0.16139 -3.02154,0.16405 -2.85221,0.16404 -2.6379,0.16139 -2.37596,0.16405 -2.07698,0.16404 -1.74095,0.16139 -1.37055,0.16404 -0.97895,0.16405 -0.56357,0.16139 -0.13758,0.16404 0.29633,0.16405 0.72761,0.16139 1.15358,0.16404 1.56633,0.16404 1.95527,0.1614 2.31775,0.16404 2.64848,0.16404 2.93952,0.1614 3.18559,0.16404 3.38402,0.16404 3.53219,0.1614 3.6195,0.16404 3.65389,0.16404 3.63273,0.1614 3.54806,0.16404 3.40784,0.16404 3.21468,0.1614 2.96334,0.16404 2.667,0.16404 2.32568,0.1614 1.9394,0.16404 1.524,0.16404 1.07685,0.1614 0.61119,0.16404 0.12965,0.16404 -0.35719,0.16139 -0.84137,0.16405 -1.31763,0.16404 -1.77535,0.16139 -2.20927,0.16405 -2.61144,0.16404 -2.97656,0.16139 -3.29671,0.16404 -3.56394,0.16405 -3.7809,0.16139 -3.93435,0.16404 -4.0296,0.16405 -4.06136,0.16139 -4.02696,0.16404 -3.92641,0.16404 -3.76767,0.1614 -3.54277,0.16404 -3.26231,0.16404 -2.92894,0.1614 -2.54265,0.16404 -2.11666,0.16404 -1.651,0.1614 -1.15623,0.16404 -0.64294,0.16404 -0.11112,0.1614 0.42068,0.16404 0.95515,0.16404 1.47373,0.1614 1.97114,0.16404 2.44475,0.16404 2.88132,0.1614 3.27289,0.16404 3.61421,0.16404 3.89996,0.1614 4.1275,0.16404 4.29154,0.16404 4.38415,0.16139 4.4106,0.16405 4.36298,0.16404 4.25185,0.16139 4.06665,0.16405 3.81794,0.16404 3.50837,0.16139 3.13796,0.16404 2.71727,0.16405 2.2516,0.16139 1.7489,0.16404 1.21444,0.16405 0.65616,0.16139 0.0873,0.16404 -0.48684,0.16404 -1.05568,0.1614 -1.61132,0.16404 -2.14312,0.16404 -2.64054,0.1614 -3.10092,0.16404 -3.51631,0.16404 -3.8735,0.1614 -4.16984,0.16404 -4.40531,0.16404 -4.56935,0.1614 -4.65931,0.16404 -4.67784,0.16404 -4.62227,0.1614 -4.49527,0.16404 -4.28889,0.16404 -4.02167,0.1614 -3.683,0.16404 -3.28877,0.16404 -2.83898,0.1614 -2.34421,0.16404 -1.80975,0.16404 -1.24354,0.16139 -0.65617,0.16405 -0.0582,0.16404 0.54505,0.16139 1.14035,0.16405 1.71715,0.16404 2.27012,0.16139 2.78871,0.16404 3.26496,0.16405 3.68829,0.16139 4.05606,0.16404 4.36033,0.16405 4.59317,0.16139 4.75986,0.16404 4.84452,0.16404 4.8551,0.1614 4.7916,0.16404 4.64873,0.16404 4.42913,0.1614 4.14337,0.16404 3.79148,0.16404 3.37609,0.1614 2.90512,0.16404 2.39183,0.16404 1.83621,0.1614 1.25148,0.16404 0.64823,0.16404 0.0291,0.1614 -0.58737,0.16404 -1.19856,0.16404 -1.78859,0.1614 -2.35479,0.16404 -2.88131,0.16404 -3.36285,0.1614 -3.79148,0.16404 -4.1619,0.16404 -4.46617,0.16139 -4.70164,0.16405 -4.8604,0.16404 -4.94241,0.16139 -4.94771,0.16405 -4.87363,0.16404 -4.72281,0.16139 -4.49527,0.16404 -4.19894,0.16405 -3.83646,0.16139 -3.41048,0.16404 -2.92893,0.16405 -2.40507,0.16139 -1.8415,0.16404 -1.24618,0.16404 -0.63236,0.1614 -0.008,0.16404 0.61647,0.16404 1.23032,0.1614 1.82562,0.16404 2.39448,0.16404 2.921,0.1614 3.40519,0.16404 3.83646,0.16404 4.20423,0.1614 4.50585,0.16404 4.73869,0.16404 4.89479,0.1614 4.97417,0.16404"
     fill="none"
     stroke="#228b22"
     stroke-width="0.661458"
     stroke-linecap="round"
     stroke-linejoin="round"
     id="path2" /><ns0:plotdata
     application="nextdraw"
     auto_rot="0"
     handling="0"
     hiding="0"
     layer="-2"
     model="8"
     optim="0"
     pause_dist="-25400"
     pause_ref="-25400"
     pause_warn="0"
     plob_version="n/a"
     rand_seed="1"
     rand_start="0" /></svg>
