<?xml version="1.0" encoding="UTF-8" standalone="no"?>
<!-- Created with Inkscape (http://www.inkscape.org/) -->

<svg
   width="210mm"
   height="297mm"
   viewBox="0 0 210 297"
   version="1.1"
   id="svg1"
   xml:space="preserve"
   inkscape:version="1.4.2 (f4327f4, 2025-05-13)"
   sodipodi:docname="outline.svg"
   xmlns:inkscape="http://www.inkscape.org/namespaces/inkscape"
   xmlns:sodipodi="http://sodipodi.sourceforge.net/DTD/sodipodi-0.dtd"
   xmlns="http://www.w3.org/2000/svg"
   xmlns:svg="http://www.w3.org/2000/svg"><sodipodi:namedview
     id="namedview1"
     pagecolor="#ffffff"
     bordercolor="#000000"
     borderopacity="0.25"
     inkscape:showpageshadow="2"
     inkscape:pageopacity="0.0"
     inkscape:pagecheckerboard="0"
     inkscape:deskcolor="#d1d1d1"
     inkscape:document-units="mm"
     inkscape:zoom="1.0544998"
     inkscape:cx="203.41398"
     inkscape:cy="261.26132"
     inkscape:window-width="1920"
     inkscape:window-height="1017"
     inkscape:window-x="-8"
     inkscape:window-y="-8"
     inkscape:window-maximized="1"
     inkscape:current-layer="layer1" /><defs
     id="defs1" /><g
     inkscape:label="Layer 1"
     inkscape:groupmode="layer"
     id="layer1"><path
       style="fill:none;stroke:#000000;stroke-width:0.264999;stroke-dasharray:none"
       d="m 1.2921261,111.28738 -1.15322597,-4.79033 1.06451697,-2.57258 6.564516,1.06452 2.5725809,1.50806 1.685483,0.70968 c 0,0 10.82258,1.86291 11.266128,1.68549 0.44355,-0.17742 6.120968,-9.580653 6.120968,-9.580653 l 3.725807,-5.94355 3.016128,-3.37096 4.346776,-2.12904 3.459676,-9.49193 2.75,-7.54033 5.056452,-10.55645 5.145162,-4.34677 5.588709,-2.83871 1.241935,0.0887 -0.975807,-3.72581 -1.596774,-2.12903 -3.548387,-6.03226 -0.620967,-3.99193 0.354838,-1.50806 1.685486,0.26613 0.798385,0.62096 -0.887097,-4.08064 -1.241933,-6.12097 0.177419,-6.91935 0.443547,-2.75001 2.129033,-5.5887 3.725805,-4.5241998 4.701614,-3.37097 6.209682,-2.39516 4.879031,-0.79838 7.540316,1.15322 4.96774,2.39517 4.87904,4.34677 3.370961,6.7419298 1.8629,10.55646 0.62097,6.03225 0.8871,1.50807 -0.0887,2.92742 -0.17742,2.12903 -1.15322,1.68548 -0.17743,1.77419 -0.44354,7.98387 -1.7742,3.19355 1.68549,-0.0887 2.39516,0.53226 5.05645,2.12903 5.67742,5.23387 3.10484,8.69355 3.99193,10.82258 1.68549,7.89516 1.77419,-0.44354 4.08065,1.41935 3.45967,4.43548 4.16936,6.830653 5.05645,6.20968 7.45161,-4.61291 4.70162,-5.056453 2.39516,-1.06451 2.04032,-1.06452 1.50806,0.35484 1.41936,1.68548 -0.17742,2.48387 1.15322,1.508073 0.79839,1.15322 -0.26613,2.83871 v 0.44355 l 1.50807,0.97581 -0.26613,1.06451 -1.15323,1.86291 -0.62097,1.41935 -1.33064,3.72581 -11.8871,11.53226 -3.28225,1.50806 -2.75,-0.44355 -3.01613,-0.9758 -1.95162,-0.70968 -3.37097,-0.35484 -1.8629,-0.62097 -1.15322,0.97581 -5.85484,0.35484 -1.59678,-0.0887 -1.77419,0.79838 -0.97581,0.17742 -1.8629,-0.70967 -1.24193,0.26613 -2.48388,0.79838 -1.50806,-1.06451 -1.77419,0.62096 -1.41936,0.0887 -1.41935,-1.33064 -3.5811,-1.00859 -2.94817,-0.75272 -4.140001,-0.12546 -1.94454,-1.50545 1.56818,-1.25454 2.634541,-1.00364 5.20636,-0.37637 4.20272,-1.6309 -0.0627,-1.63091 0.56454,-1.12909 -0.18818,-1.44273 -1.12909,0.56455 -4.26545,0.25091 -7.715451,0.75272 -4.64181,0.25091 h -3.76363 l -5.08091,1.00364 -11.479077,0.25091 -8.593629,-0.25091 -1.129088,-1.38 -4.767268,0.12545 -6.398178,-1.50545 -2.822723,-0.50182 -1.630908,5.39454 2.320907,-0.50181 2.571816,1.19182 0.940908,1.44272 -0.250909,1.69364 -1.066364,0.75272 -1.881814,0.25091 -5.331815,0.12545 -1.944544,1.00364 -1.254543,0.0627 -3.826359,-0.18819 -2.07,0.62728 -1.505453,-0.37637 -1.505452,0.81546 -2.195455,-0.31364 -0.752726,-0.43909 -2.007269,0.37636 -1.756363,-0.69 -1.944544,-0.43908 -7.464539,-0.4391 -4.077269,-0.50181 -6.5863569,-1.00364 -1.75636,-1.56818 -0.564547,-0.56454 -1.56818,-0.75273 -0.188182,-1.63091 0.125455,-1.12909 -0.940909,-1.44272 v -1.31728 z"
       id="path2" /><polyline points="1.2921261000000002,108.5403368355 2.4315941549488267,107.93614712215658 3.2030282111470485,107.96941099356195 3.3370086825964806,108.37070886371794 2.7349211565447016,108.77200673387392 1.5402611454126642,108.80878060562874 0.5490916956576788,108.25279791255147 -0.4420777540973069,106.96074722197301 -0.8906307473562767,105.34420169471768 -0.2715593608289022,104.13075184124952 1.0835800231996835,102.91730198778137 3.0761729919770566,102.07188613306383 5.43679995950504,101.86392386309508 7.797426927033019,102.39202959062753 9.790019895810394,103.55758890290876 11.065736139165697,105.31184823803962 11.560400793099499,107.19108815558755 11.41761186228451,108.70229407438487 10.945474587364517,109.49881446969314 10.493587803852096,109.51883883994898 10.462820985254908,108.71932625646758 11.080844960540853,107.51220482103469 12.435197596482277,106.30352936656719 14.42721375970416,105.46163078450351 16.787735784338413,105.25431251752433 19.148491191968034,105.78161152120941 21.14171524589363,106.94322938681319 22.49813897218107,108.4686545212101 23.119023117901364,109.99060324713493 23.104038328777886,111.13358342801139 22.72355841886585,111.61887687635947 22.20483494033218,110.94977975117222 21.770863995823156,109.12374913823272 21.951495153651976,106.91418536449017 22.858912127883784,104.69862167418175 24.399714252342854,102.84848835462815 26.303551338076794,101.63265398623587 28.20480176506908,101.15127882551118 29.73624909020289,101.30625694393693 30.627356735190368,101.82749143266537 30.781242363617785,102.34801935593939 30.296060802263213,102.49952743412277 29.441737919208876,102.01291469246834 28.59935147936325,100.79759357561485 28.124999038268232,98.94481887401258 28.288100181922005,96.7240101736597 29.187269323076986,94.50320147330682 30.72389204898076,92.65042677170455 32.62854877363513,91.43510565485107 34.53851404405709,90.95984572804915 36.210797210797054,91.22009264560842 37.24562679278823,91.84837356191831 37.544388377278196,92.4766544782282 37.20569637701937,92.73690139578747 36.618260868761595,92.51720986536608 36.142801434855414,91.709307275202 36.035375999699845,90.26395110028912 36.56540414929306,88.45056092662564 37.83150029638748,86.63717075296215 39.35965435400709,84.85421826929806 41.07562397493355,83.54664750127941 42.79159359586001,82.97514473076195 44.13952921803586,83.0410955449933 44.85001125546292,83.47508035797524 44.82442529538877,83.9090651709572 44.161385750565834,83.97501598518853 43.130312206992286,83.4035132146711 42.099238663418745,82.09594244665243 41.43619911859581,80.150918093885 41.410717424940565,77.83789775746317 42.1213814712365,75.52490576561044 43.46949910228121,73.57994777250835 45.18565073207654,72.27244336415504 46.901802361871866,71.70100695330292 48.24991999291659,71.7670241271996 48.96058403921252,72.20107529984689 48.93518008800724,72.63512647249419 48.321177984279586,72.72169624652437 47.379648249720255,72.1878527350061 46.43811851516092,70.91794122598661 45.86462277935219,69.01057613221833 45.92858062829225,66.73517703969944 46.728606474733525,64.45977794718056 48.16608590592359,62.55241285341228 49.97159933586425,61.282501344392784 51.777112765804915,60.7486578328745 53.21459219699498,60.85226790610501 54.01461804343625,61.32391197808612 54.07857589237631,61.79555605006724 53.784450069883206,62.115095594162085 53.1748144639884,61.83777835898819 52.56517885809359,60.82439312631308 52.323577250949384,59.17355430888919 52.71942922855397,57.15468149271469 53.851349203659765,55.13580867654019 55.63428803261485,53.505418304290664 57.89938844001506,52.684518764188354 60.164488847415264,52.59968722158725 62.06155525606487,53.15230926373494 63.32116807996568,54.072965304633236 63.84471290636529,54.99362134553153 63.7308041480161,55.54624338767922 63.337579132660366,55.9005619704053 62.220023364117644,54.988071555274225 60.961176481342164,53.015211724152266 60.339783183315475,50.6743178942797 60.454457882789995,48.33342406440714 60.94961019973424,46.484642767351936 61.72313142125677,45.31660903914706 62.504095087297685,44.87968586881365 63.00256267536691,45.0232391600181 62.86357667868735,45.53482644997315 61.98852268450658,46.046413739928205 60.47601510557701,46.18996703113265 58.59547352789684,45.69606673758831 56.71493195021667,44.46609844654276 55.23122936578843,42.588389156550754 54.70948833390257,40.226751109523065 54.923815299517926,37.865113062495375 55.775595849882066,35.8715090142183 57.01132864384732,34.51596988941646 58.6138897756871,33.9105867706251 60.22197144193181,34.49870316990603 61.57776834899126,36.02818768675663 62.04155288533183,37.91763017082184 61.049498159303674,38.304674370149066 59.46354662452848,37.69553207197565 57.87759508975329,36.35032177630102 56.6596775537287,34.367657895877606 56.087344607229426,32.01525141383928 56.256532272205014,29.661699150669428 57.06317352192939,27.676180886250176 58.23784877040438,26.328116206579715 59.41252401887937,25.716119524410463 60.21916526860375,25.741576426990004 60.467570815026896,26.128136170588892 60.12516938375042,26.501986321075094 59.14531436772515,26.50780247281069 57.797425352949276,25.876165039797495 56.4495363381734,24.50845960928309 55.46968132214813,22.503300594019898 55.127279890871655,20.130107580006097 55.57856396215916,17.762275344973514 56.74328293480346,15.769546471458863 58.27603590619837,14.414271182693005 59.93584420316373,13.829128209519311 61.297327760911394,13.900128304435244 62.02135773391027,14.33916239810178 62.00931970940794,14.77819649176832 61.35982810015681,14.849196586684254 60.342302492155085,14.2827430968514 59.510847408000345,13.088358410804362 59.141066406340016,11.310940039082027 59.40873898942848,9.165487668609083 60.41247957001814,7.020035298136141 62.053673735356604,5.242616926413804 64.06290189944566,4.1026521394402575 66.21448923215166,3.8509704202718873 68.03267280004393,4.273770062458183 69.2134027831874,5.064603703395085 69.65806476882968,5.855437344331986 69.46527316972316,6.278236986518284 68.9067491256398,6.067845710540693 68.46622935598069,5.339940043410746 68.39374358507217,3.9745807915320093 68.95871139891244,2.2411875409026654 70.25974721025393,0.5077942902733221 72.1982366063442,-0.8575649616054146 74.50476000118509,-1.5854706287353628 76.83086817206355,-1.5051883919260818 78.82323056059053,-0.6611880190711648 80.17813936436873,0.5508463525343577 80.79698017064574,1.7628807241398796 80.77836739217395,2.6068810969947975 80.39240502621085,2.9446288809317998 80.00738929416536,2.7277775005983584 79.99040756087047,1.8734725355161288 80.61087941232437,0.6511335716832921 81.96741926127947,-0.5712053921495445 83.96141269498337,-1.4255103572317744 86.32344012743788,-1.6423617375652162 88.68546755989239,-1.1231451203974463 90.61000579239114,0.25764746472740185 91.87880778850004,2.065469651323179 92.41154178710774,3.8732918379189556 92.30682220096666,5.313080025764128 91.83406861607496,6.11541462886051 91.31868635095026,6.245553309465135 91.05985945369264,5.90527082187297 91.43848614118383,5.196954335530198 92.55318082617622,4.488637849187426 94.30532909591739,4.148355361595261 96.42551136440918,4.445526458751884 98.54569363290098,5.478765553409719 100.07561114462389,7.319572343459572 100.89085832495532,9.587521323668941 100.97003750778552,11.855470303878308 100.41176310586695,13.755385285337072 99.48545470519775,15.017846682047045 98.55914630452858,15.544240081255808 98.00087190260999,15.433179895715783 98.02415386273131,14.97255732953249 98.56597276965024,14.583819381231045 99.74524526131798,14.563115431680206 101.29255175173633,15.179865066878156 102.83985824215468,16.532682699577315 104.01913073382241,18.522953917025266 104.56094964074134,20.88125913322382 104.36670055015908,23.239564349422373 103.53499787482804,25.229835566870324 102.33526120074637,26.582653199569485 101.13552452666471,27.199402834767433 100.26921056812557,27.183527884095906 100.00357711877184,26.804749548861544 100.47401166691932,26.425971213627186 101.58189979981559,26.41522687714343 103.05782193146247,27.041936125408466 104.53374406310935,28.404713371174708 105.81186797684855,30.349067396618562 106.68692210216255,32.58452319402633 106.46532448078689,34.912326510693966 105.42955107855259,36.91735537357284 104.02574367756766,38.284930651702915 102.58277078898098,38.91421423630575 101.49423733825545,38.90527237877013 100.75132275841793,38.42453971278709 100.55467389480265,37.87632611241432 101.25768683009997,37.7918189360531 102.53169858517329,38.41882151667798 103.84009033821242,39.78456487089767 104.79010894104685,41.7885128653218 105.10267395913249,44.160494858496534 104.67917097971693,46.53247685167127 103.61821441555257,48.5364248460954 102.18922385263761,49.90291925577074 100.76023328972266,50.53334566794487 99.69927672555829,50.526318495370205 98.93831940882589,50.05374622075029 98.82070931435533,49.554381269041635 99.34055280463355,49.42305031608358 100.42311415726145,49.807620709614305 102.79525387979635,50.12310178367045 104.7894148545043,51.19551041678835 106.1336357216425,52.78596331993882 106.74178859127949,54.376416223089294 106.65849533913492,55.76820746275038 106.20660923495147,56.52429821710385 105.75472313076804,56.5443209739561 105.6708710253352,55.926890146059556 106.22447250465116,54.94142531941241 107.42031852491277,54.10180912447347 109.16104994049527,53.774124246327 111.26981535482838,54.083892952929325 113.3785807691615,55.129729657032854 115.11931218474399,56.81301994588517 116.22259001557771,58.864344233488104 116.5897998489102,60.91566852109103 116.31955609749393,62.598958809943355 115.36951309242228,63.851076653957634 114.33232797579356,64.42478454229361 113.66317685791545,64.36103884588078 113.63147932478613,63.929259150717364 114.335849789158,63.497479455553936 115.67767383827868,63.43373375914112 117.38753188614997,64.0074416474771 119.09738993402125,65.31721753331428 120.43921398314193,67.26444700390023 121.14893502763661,69.57776828507888 121.12696234038901,71.88950176699804 120.46753606839265,73.83320125016658 119.44007579764565,75.13944714858634 118.41261552689866,75.70962504950491 117.7531892549023,75.64234936567468 117.7312165676547,75.20703968309383 118.44531187790832,74.77173000051299 119.79686077291072,74.70445431668276 121.51644366666375,75.27463221760131 123.23602656041676,76.58087811602107 124.58553393082526,78.52516873573845 125.162347291603,80.87665308721412 125.00309265487954,83.2281374386898 124.2063844334073,85.21158779141486 123.04164221318442,86.55758455939113 121.87689999296157,87.1675133298662 121.0801917714893,87.13998851559248 120.92093713476584,86.74442970256814 121.49775049554357,86.3488708895438 123.42907241491267,85.17188069735913 125.76983914423901,84.6258503237741 128.08785799157374,85.32240360087448 130.03784284015788,86.65641046272364 131.35037410399323,88.35845132332342 131.92683737032735,90.0604921839232 131.60472387093074,91.75906579218709 130.8462336010556,92.91560247628408 130.08774333118043,93.33607116287988 129.69728706005588,93.11908626472689 129.9442843736801,92.53406736782327 130.91161176715292,91.95993650768517 132.43810093473934,91.80800463377878 134.33262410107633,92.29352634462118 136.22714726741336,93.5151160529648 137.75363643499978,95.3741593460572 138.6426720178374,97.60123663790021 138.7956396031738,99.82831392974322 138.3111536037614,101.68735722283562 137.47682997978086,102.89607393528695 136.7347344618434,103.30347602372007 136.3606729426565,103.0734245274044 136.6240650082184,102.47533903233813 137.62352507128153,101.87725353727184 139.26043871909346,101.64720204095617 141.26538636565596,102.0546041293893 143.27033401221848,103.19807421532363 144.9415618670659,104.77487516357678 146.15986057479046,105.62204142413484 146.6420912850138,106.46920768469288 146.4868684104883,106.94833994650031 145.96361153721227,106.79001862355895 145.44035466393623,105.89562930311638 145.2851317894108,104.36378639792504 145.76736249963412,102.46390949398307 146.98566120735867,100.56403259004111 148.7748822773123,98.95125383126542 150.82934805594172,97.85088452583 152.88381383457119,97.48658321789578 154.57024561445004,97.75973549471036 155.6192238095801,98.40092177027554 155.93213400720893,99.04210804584075 155.60759062008898,99.3152603226553 155.0287392240209,99.11026487785422 154.569029977038,98.33609418301018 154.47735472880572,96.92446990341735 154.99951765528405,95.09586851903795 156.25413557044232,93.25977914806153 158.19535275161763,92.18316030181131 160.53678033265436,92.05313540457497 162.55443989669965,93.18607871847912 164.20406546199436,94.95647561713206 164.63446247858954,97.28402333701119 164.19518114446817,99.65500359870741 163.33768768326183,101.59234226417921 162.57161212232157,102.75473722067822 161.78930442959629,103.19287926705493 161.33849280287274,103.0133871733249 160.87711776948004,102.6354997865764 161.15181073358855,102.2576123998279 162.07989841775003,102.2485046204521 164.06398378416756,102.54830751937313 166.2770755235697,103.459592796281 167.11469815423436,105.4057639791971 167.00357037893824,107.64948373052292 166.10918176557132,109.87327045946078 164.65802559127286,111.77137442493003 162.88971233534753,113.05795705092973 161.17985579718513,113.63166547844621 159.8380332577733,113.56792032121389 159.1336643031103,113.13614116523095 159.11303217926368,112.67068740150208 159.4007815867113,112.36151290177882 160.05656499290947,112.68979198680435 160.71234839910767,113.75413906933109 161.00009780655526,115.4559397366066 160.65039362925407,117.52577440263273 159.56462145445167,119.59560906865887 157.84139569490043,121.2974097359344 155.75013593659864,122.36175681846113 153.65887617829682,122.69003590348665 151.93565041874564,122.38086140376339 150.84987824394318,121.70365290528952 150.500174066642,121.02644440681564 150.7879234740896,120.71726990709239 151.44370688028778,121.0455489921179 152.09949028648597,122.10989607464464 152.38723969393357,123.81169674192016 151.92768502682657,125.72112523141134 150.65097409895506,127.51214679986899 148.73680958633474,128.93513436957605 146.45461107496382,129.7206683545343 144.0967397744386,129.2146262462073 142.10401116125024,128.04990565953753 140.75509553789843,126.4907537828278 140.17168439312061,124.80941384690767 140.2257268330916,123.49610790973817 140.64789189524188,122.81999752467885 141.08162005400342,122.84628846034275 141.14731421401441,123.51003298075543 140.52462020802363,124.76250255757954 139.1620807886827,126.03133904816681 137.16208778459293,126.93214154000349 134.8188674951174,127.08096807723982 132.49666312406862,126.39670478472124 130.64953897236893,125.63083023961181 129.50238510982655,124.8640146638914 128.87225062442437,123.55098834793675 128.879569723771,122.60599603073274 129.25492282186823,122.2984572982775 129.63027591996544,122.72698656332346 129.63759501931207,123.79296941311823 129.0074016695896,125.20362728766732 127.64090697133507,126.52168508401945 125.68907194201078,127.75222930145875 123.40362779668057,128.53062562662984 121.07093936160152,128.42095444868548 119.1144125718374,127.23874240398663 117.8118898050995,125.50922820593462 117.21635680160412,124.1593761288192 117.25438277728517,123.4021271808673 117.67587468163906,123.34009888860763 118.09736658599294,124.01413859384917 118.25781798862536,124.62637884905884 117.8088833734401,125.4232182971624 116.50380848056861,127.07834754991403 114.5508550935554,128.39634972836012 112.17928049507516,128.82675500891355 109.98074199865914,128.04015585486826 108.2457170507305,126.35072731346268 106.98529866689277,124.58178959792362 106.3907802599933,122.93717233814029 106.43371543784261,121.66058907710756 106.84468461444254,121.02145940082363 107.24942534104781,121.14160039635937 107.28599487870832,121.89970604751976 106.68511083162005,123.02584569743078 105.31950463935706,124.35511870453541 103.31447591636166,125.33031585299355 100.94141319461562,125.66805941670292 98.56835047286961,125.26973498291107 96.72908146321672,123.77205714105925 95.57032369335636,121.7863624478333 95.67350848105562,119.79647816678214 97.45986584560008,118.16629675023279 99.66439245674995,117.26126204409512 101.97240114458798,117.27329906323814 103.91237583367538,117.92278966712993 105.24680037650073,119.08428497945188 105.87616362154763,120.38570428666749 105.86807328184575,121.3190895951325 105.49194894339325,121.6150213188487 105.11582460494077,121.1748850450637 105.08902982424902,120.01410714964719 105.65326185250434,118.27881208178692 106.95356187826087,116.54351701392666 108.89131548876617,115.17625594481702 111.1971030980221,114.44644846045614 112.74662091365235,113.95603452288475 113.78507759534541,113.9776703940979 114.60032202092184,114.45676320101794 114.16946212401305,114.84989412861884 112.70588837486115,115.48202247135953 110.42056480416008,116.23226881032589 108.04876886487563,115.92295710791531 106.04500692434176,114.97619182075593 104.67869856855671,113.66139253484594 104.04845821027286,112.34659324893595 104.05835461352478,111.43415601587462 104.43660147549643,111.16322109628969 104.81484833746808,111.62835417420598 104.82506120068909,112.73094083687104 104.19782047916134,114.20156149828674 102.83451176013237,115.67218215970242 100.83374945635461,116.77476882236749 98.46448779503184,117.23376029806178 96.0924239551722,116.91970184718083 94.08839411406315,115.9681898115511 92.7218178577029,114.64864377717075 92.09130959884386,113.3290977427904 92.09753504434917,112.35093083425058 92.47105662659918,111.98289683549997 92.84457820884919,112.35093083425058 92.85006579234857,113.35641841774996 92.23194178818956,114.87144377158424 90.88286417412712,116.43875241443394 88.89633297531589,117.63802705853301 86.54176777775403,118.1998481178833 84.1872025801922,118.02560117973239 82.19035582886814,117.11914500671612 80.82256063127106,115.76747623392131 80.19083343117521,114.4158074611265 80.19655981582814,113.43217268708233 80.57032019923167,113.08599149778692 80.94408058263522,113.47587830599272 80.94980696728815,114.50321869894731 80.31807976719229,115.89859309065251 78.95028456959523,117.29396748235773 76.94503578724937,118.32130787531231 74.5717530061529,118.71119468351812 72.19848319498709,118.36147675602429 70.19342157773009,117.32680439845446 68.82581354522188,115.92409804213402 68.19427351021487,114.52139168581358 68.20018705995666,113.48671932824375 68.57413460844906,113.08950055542272 68.94808215694145,113.42834978010289 68.95399570668323,114.40465258953185 68.32245567167622,115.74898939771141 67.12776085339108,116.74178903703255 65.48903645693889,116.9733185217169 63.22983009807735,117.11874686531692 60.856654572095614,116.77701862224046 58.85151304486448,115.79783679441522 57.48382510238214,114.45062096783934 56.85220515740101,113.10340514126348 56.882177697581795,111.8892948223567 57.28228198779127,111.2922220156357 57.682386278000756,111.43121720641591 57.71445656945963,112.2076659819449 57.10907327616971,113.35214875622452 55.76762198537858,114.49663153050413 53.78484819747691,115.29182754077704 51.42676426238886,115.48482733323067 49.06868032730081,114.94175912818311 47.412423826391816,114.30489522018327 46.75500023562213,113.88858503779801 46.833644642353654,113.47227485541275 47.549742633833965,113.42399867177811 48.63387462406489,114.01317607289225 49.7180066142958,115.3384214715076 51.50389052100016,116.31431557641322 52.849339357590814,117.47650747601048 53.425775256648535,118.93560328856003 53.32759789890463,120.36155270652188 52.86138654241011,121.15004853973494 52.165773402192954,121.46752787609681 51.706555086871184,121.29964991924021 51.25227241974829,120.90213782257194 51.33911070710619,120.43496852542816 51.5276277096327,120.00616028942167 51.928118545387704,119.81670985465958 52.31041232816316,120.31690833255963 52.31620118083891,121.34623240510832 51.68451186159829,122.74327605071612 50.31675454485645,124.14031969632391 48.31154364336583,125.16932934318109 45.938298743124605,125.56088540528948 43.63880602487779,125.50521437677175 41.74469860140863,124.95837129614154 40.435671743204395,123.84912712609845 39.804943698822214,122.50378922447089 39.81163855296247,121.44917849185295 40.18636740585333,121.0320213439838 40.56109625874419,121.35093219361585 40.584016298288574,122.43903241097745 39.99502682582549,124.10256446811775 38.66701135505749,125.6460108987281 36.6913822949093,126.4089587632417 34.408926093880424,127.01872938583702 32.15611421656025,127.12698162139873 30.16492856365724,126.00380170935856 28.806945296700967,124.48885719269175 28.278880269222274,122.70431014708008 28.31669121229566,121.7953037429364 28.70734034707807,121.6115568897198 29.141258075987956,121.7073419896662 29.215994211135072,122.34717708597299 28.611128117526793,123.49217254345237 27.267651976381842,124.64543830434656 25.2650404022386,125.58406442300468 22.893244521060694,125.89337513761687 20.52144863988279,125.46661785472786 18.51768675745549,124.40240698709006 17.151378459776982,122.97016212070164 16.52113815959968,121.53791725431323 16.52835144417117,120.47370638667543 16.90631990677038,120.01699894248301 17.287330250177302,120.26287959183139 17.30030659483362,121.14621382592856 16.67582935474115,122.39758205877634 15.316712638411493,123.63857608513334 13.322636783560244,124.49342094645354 10.96052692995839,124.71081222302497 8.598417076356535,124.1921355020952 6.604341221505283,123.03600519641664 5.247718951402824,121.51184089198746 4.627164678801574,119.98767658755828 4.814345914188013,118.46987951244084 5.441930136236175,117.43582940678657 6.082994390212734,117.12358258626291 6.274677221719433,117.57254294081963 5.7411889703832735,118.51333177344408 5.108488193027411,119.00035194730626 4.026094334254704,119.01235103532808 2.742282663793265,118.39143255966557 0.8224914060390889,117.1857891999211 -0.5603980657494083,115.29249260294283 -0.9284320645000141,112.91897102069282 -0.8663691624401397,110.59382288243253 -0.08139548225000137,108.9083708342506" fill="none" stroke="blue" stroke-width="0.3" stroke-linecap="round" stroke-linejoin="round" /></g></svg>
