<?xml version="1.0" encoding="UTF-8" standalone="no"?>
<!-- Created with Inkscape (http://www.inkscape.org/) -->

<svg
   width="11in"
   height="8.5in"
   viewBox="0 0 279.4 215.9"
   version="1.1"
   id="svg1"
   xml:space="preserve"
   inkscape:version="1.4.2 (f4327f4, 2025-05-13)"
   sodipodi:docname="janet-outside-draw-line.svg"
   xmlns:inkscape="http://www.inkscape.org/namespaces/inkscape"
   xmlns:sodipodi="http://sodipodi.sourceforge.net/DTD/sodipodi-0.dtd"
   xmlns="http://www.w3.org/2000/svg"
   xmlns:svg="http://www.w3.org/2000/svg"
   xmlns:nd="https://bantam.tools/nd"><sodipodi:namedview
     id="namedview1"
     pagecolor="#ffffff"
     bordercolor="#000000"
     borderopacity="0.25"
     inkscape:showpageshadow="2"
     inkscape:pageopacity="0.0"
     inkscape:pagecheckerboard="0"
     inkscape:deskcolor="#d1d1d1"
     inkscape:document-units="in"
     inkscape:zoom="1.0544998"
     inkscape:cx="516.35856"
     inkscape:cy="450.92469"
     inkscape:window-width="1920"
     inkscape:window-height="1017"
     inkscape:window-x="1912"
     inkscape:window-y="-8"
     inkscape:window-maximized="1"
     inkscape:current-layer="svg1" /><defs
     id="defs1"><inkscape:path-effect
       effect="spiro"
       id="path-effect33"
       is_visible="true"
       lpeversion="1" /><inkscape:path-effect
       effect="spiro"
       id="path-effect3634"
       is_visible="true"
       lpeversion="1" /><clipPath
       clipPathUnits="userSpaceOnUse"
       id="clipPath3629"><rect
         style="fill:none;fill-opacity:1;stroke:none;stroke-width:0.0932351;stroke-opacity:1"
         id="rect3629"
         width="41.181763"
         height="50.706757"
         x="11.231459"
         y="-21.877235"
         transform="scale(-1)" /></clipPath></defs><path
     style="baseline-shift:baseline;display:inline;overflow:visible;vector-effect:none;stroke-dasharray:1.06, 2.12;enable-background:accumulate;stop-color:#000000;stop-opacity:1;opacity:1"
     d="m 263.17578,146.4473 -0.0332,0.26171 c 0.35337,0.0443 0.70841,0.0777 1.06445,0.0977 l 0.0156,-0.26367 c -0.34953,-0.0196 -0.6991,-0.0521 -1.04688,-0.0957 z"
     id="path59" /><path
     style="baseline-shift:baseline;display:inline;overflow:visible;vector-effect:none;stroke-dasharray:1.06, 2.12;enable-background:accumulate;stop-color:#000000;stop-opacity:1;opacity:1"
     d="m 267.36914,146.4161 c -0.34725,0.0479 -0.69549,0.0843 -1.04492,0.10937 l 0.0195,0.26563 c 0.35542,-0.0255 0.70973,-0.0627 1.0625,-0.11133 z"
     id="path58" /><path
     style="baseline-shift:baseline;display:inline;overflow:visible;vector-effect:none;stroke-dasharray:1.06, 2.12;enable-background:accumulate;stop-color:#000000;stop-opacity:1;opacity:1"
     d="m 260.09961,145.76375 -0.0801,0.25195 0.1875,0.0605 0.38086,0.11133 0.38281,0.10156 0.0762,0.0195 0.0645,-0.25781 -0.0742,-0.0176 -0.37695,-0.10156 -0.375,-0.10937 z"
     id="path57" /><path
     style="baseline-shift:baseline;display:inline;overflow:visible;vector-effect:none;stroke-dasharray:1.06, 2.12;enable-background:accumulate;stop-color:#000000;stop-opacity:1;opacity:1"
     d="m 270.43555,145.69535 c -0.33232,0.112 -0.66742,0.21255 -1.00586,0.30274 l 0.0684,0.25781 c 0.34438,-0.0918 0.68613,-0.19687 1.02343,-0.31055 z"
     id="path56" /><path
     style="baseline-shift:baseline;display:inline;overflow:visible;vector-effect:none;stroke-dasharray:1.06, 2.12;enable-background:accumulate;stop-color:#000000;stop-opacity:1;opacity:1"
     d="m 257.16406,144.5977 -0.11523,0.24023 c 0.30621,0.14784 0.61652,0.28612 0.92773,0.41992 l 0.0449,0.0176 0.10157,-0.24414 -0.043,-0.0176 c -0.30881,-0.13277 -0.61442,-0.2704 -0.91602,-0.41601 z"
     id="path55" /><path
     style="baseline-shift:baseline;display:inline;overflow:visible;vector-effect:none;stroke-dasharray:1.06, 2.12;enable-background:accumulate;stop-color:#000000;stop-opacity:1;opacity:1"
     d="m 254.38281,143.08598 -0.13672,0.22656 c 0.30285,0.18517 0.60753,0.3642 0.91602,0.53906 l 0.13086,-0.23047 c -0.30626,-0.17359 -0.61012,-0.3517 -0.91016,-0.53515 z"
     id="path53" /><path
     style="baseline-shift:baseline;display:inline;overflow:visible;vector-effect:none;stroke-dasharray:1.06, 2.12;enable-background:accumulate;stop-color:#000000;stop-opacity:1;opacity:1"
     d="m 251.73437,141.34379 -0.15234,0.2168 c 0.28951,0.20425 0.58135,0.40545 0.875,0.60351 l 0.14844,-0.2207 c -0.2922,-0.19709 -0.58319,-0.39649 -0.8711,-0.59961 z"
     id="path51" /><path
     style="baseline-shift:baseline;display:inline;overflow:visible;vector-effect:none;stroke-dasharray:1.06, 2.12;enable-background:accumulate;stop-color:#000000;stop-opacity:1;opacity:1"
     d="m 249.16797,139.47074 -0.1582,0.21289 0.50195,0.375 0.34961,0.25782 0.1582,-0.21289 -0.34961,-0.25782 z"
     id="path50" /><path
     style="baseline-shift:baseline;display:inline;overflow:visible;vector-effect:none;stroke-dasharray:1.06, 2.12;enable-background:accumulate;stop-color:#000000;stop-opacity:1;opacity:1"
     d="m 246.61719,137.57231 -0.15821,0.21289 0.50977,0.375 0.34375,0.25586 0.1582,-0.2129 -0.34375,-0.25585 z"
     id="path49" /><path
     style="baseline-shift:baseline;display:inline;overflow:visible;vector-effect:none;stroke-dasharray:1.06, 2.12;enable-background:accumulate;stop-color:#000000;stop-opacity:1;opacity:1"
     d="m 199.77539,137.23441 -0.38672,0.25 -0.5,0.33204 0.14453,0.2207 0.5,-0.33008 0.38672,-0.25 z"
     id="path48" /><path
     style="baseline-shift:baseline;display:inline;overflow:visible;vector-effect:none;stroke-dasharray:1.06, 2.12;enable-background:accumulate;stop-color:#000000;stop-opacity:1;opacity:1"
     d="m 244.01172,135.73832 -0.14649,0.2207 c 0.29353,0.19434 0.58315,0.39278 0.87305,0.59375 l 0.15234,-0.21679 c -0.29085,-0.20164 -0.5832,-0.40188 -0.8789,-0.59766 z"
     id="path47" /><path
     style="baseline-shift:baseline;display:inline;overflow:visible;vector-effect:none;stroke-dasharray:1.06, 2.12;enable-background:accumulate;stop-color:#000000;stop-opacity:1;opacity:1"
     d="m 202.52148,135.61137 -0.0351,0.0195 -0.52735,0.29101 -0.36523,0.20899 0.13281,0.23047 0.36328,-0.20899 0.52344,-0.28906 0.0332,-0.0195 z"
     id="path46" /><path
     style="baseline-shift:baseline;display:inline;overflow:visible;vector-effect:none;stroke-dasharray:1.06, 2.12;enable-background:accumulate;stop-color:#000000;stop-opacity:1;opacity:1"
     d="m 205.36914,134.17973 -0.19922,0.0918 -0.54297,0.25782 -0.21679,0.10547 0.11523,0.23828 0.21484,-0.10547 0.54102,-0.25586 0.19922,-0.0918 z"
     id="path45" /><path
     style="baseline-shift:baseline;display:inline;overflow:visible;vector-effect:none;stroke-dasharray:1.06, 2.12;enable-background:accumulate;stop-color:#000000;stop-opacity:1;opacity:1"
     d="m 241.28906,134.07426 -0.12695,0.23242 c 0.30822,0.16858 0.6129,0.34581 0.91601,0.52539 l 0.13477,-0.22851 c -0.30484,-0.18061 -0.61204,-0.35877 -0.92383,-0.5293 z"
     id="path44" /><path
     style="baseline-shift:baseline;display:inline;overflow:visible;vector-effect:none;stroke-dasharray:1.06, 2.12;enable-background:accumulate;stop-color:#000000;stop-opacity:1;opacity:1"
     d="m 208.30859,132.9434 -0.37304,0.14453 -0.5586,0.22266 -0.0586,0.0234 0.10156,0.24414 0.0566,-0.0234 0.55469,-0.22071 0.37305,-0.14257 z"
     id="path43" /><path
     style="baseline-shift:baseline;display:inline;overflow:visible;vector-effect:none;stroke-dasharray:1.06, 2.12;enable-background:accumulate;stop-color:#000000;stop-opacity:1;opacity:1"
     d="m 238.41797,132.67973 -0.10352,0.24414 c 0.32396,0.13648 0.64571,0.28136 0.96485,0.42969 l 0.11132,-0.24219 c -0.32169,-0.14951 -0.64537,-0.29376 -0.97265,-0.43164 z"
     id="path42" /><path
     style="baseline-shift:baseline;display:inline;overflow:visible;vector-effect:none;stroke-dasharray:1.06, 2.12;enable-background:accumulate;stop-color:#000000;stop-opacity:1;opacity:1"
     d="m 211.32422,131.9102 -0.55469,0.17187 -0.45703,0.14844 0.082,0.25195 0.45703,-0.14844 0.55078,-0.17187 z"
     id="path41" /><path
     style="baseline-shift:baseline;display:inline;overflow:visible;vector-effect:none;stroke-dasharray:1.06, 2.12;enable-background:accumulate;stop-color:#000000;stop-opacity:1;opacity:1"
     d="m 235.42187,131.58012 -0.0801,0.2539 c 0.33592,0.10488 0.67002,0.21377 1.00195,0.33008 l 0.0879,-0.25 c -0.33498,-0.11738 -0.67113,-0.22826 -1.00977,-0.33398 z"
     id="path40" /><path
     style="baseline-shift:baseline;display:inline;overflow:visible;vector-effect:none;stroke-dasharray:1.06, 2.12;enable-background:accumulate;stop-color:#000000;stop-opacity:1;opacity:1"
     d="m 214.4043,131.08402 -0.1543,0.0352 -0.58594,0.14063 -0.29297,0.0762 0.0664,0.25586 0.29102,-0.0742 0.58203,-0.14063 0.15234,-0.0351 z"
     id="path39" /><path
     style="baseline-shift:baseline;display:inline;overflow:visible;vector-effect:none;stroke-dasharray:1.06, 2.12;enable-background:accumulate;stop-color:#000000;stop-opacity:1;opacity:1"
     d="m 232.33594,130.76957 -0.0566,0.25781 c 0.34436,0.0742 0.68816,0.15326 1.02929,0.23828 l 0.0645,-0.25781 c -0.34457,-0.0859 -0.69066,-0.16366 -1.03711,-0.23828 z"
     id="path38" /><path
     style="baseline-shift:baseline;display:inline;overflow:visible;vector-effect:none;stroke-dasharray:1.06, 2.12;enable-background:accumulate;stop-color:#000000;stop-opacity:1;opacity:1"
     d="m 217.5332,130.47074 c -0.35002,0.0553 -0.70008,0.11403 -1.04883,0.17969 l 0.0488,0.25977 c 0.34569,-0.0651 0.69307,-0.12281 1.04102,-0.17774 z"
     id="path37" /><path
     style="baseline-shift:baseline;display:inline;overflow:visible;vector-effect:none;stroke-dasharray:1.06, 2.12;enable-background:accumulate;stop-color:#000000;stop-opacity:1;opacity:1"
     d="m 229.18945,130.23637 -0.0332,0.26367 c 0.3495,0.0439 0.69951,0.0918 1.04687,0.14648 l 0.041,-0.26171 c -0.3507,-0.0552 -0.70305,-0.1043 -1.05469,-0.14844 z"
     id="path36" /><path
     style="baseline-shift:baseline;display:inline;overflow:visible;vector-effect:none;stroke-dasharray:1.06, 2.12;enable-background:accumulate;stop-color:#000000;stop-opacity:1;opacity:1"
     d="m 220.69922,130.08402 c -0.35347,0.0291 -0.70627,0.0623 -1.0586,0.10157 l 0.0293,0.26367 c 0.34997,-0.039 0.7,-0.0727 1.05078,-0.10156 z"
     id="path35" /><path
     style="baseline-shift:baseline;display:inline;overflow:visible;vector-effect:none;stroke-dasharray:1.06, 2.12;enable-background:accumulate;stop-color:#000000;stop-opacity:1;opacity:1"
     d="m 226.01172,129.96879 -0.0117,0.26562 c 0.35187,0.0149 0.70384,0.035 1.05469,0.0605 l 0.0176,-0.26562 c -0.35394,-0.0258 -0.70642,-0.0455 -1.06055,-0.0606 z"
     id="path34" /><path
     style="baseline-shift:baseline;display:inline;overflow:visible;vector-effect:none;stroke-dasharray:1.06, 2.12;enable-background:accumulate;stop-color:#000000;stop-opacity:1;opacity:1"
     d="m 223.88477,129.93359 c -0.35475,0.002 -0.70825,0.0108 -1.0625,0.0234 l 0.008,0.26367 c 0.35193,-0.0126 0.70476,-0.0192 1.05664,-0.0215 z"
     id="path33" /><nd:plotdata
     application="nextdraw"
     auto_rot="0"
     handling="0"
     hiding="0"
     layer="-2"
     model="8"
     optim="0"
     pause_dist="-25400"
     pause_ref="-25400"
     pause_warn="0"
     plob_version="n/a"
     rand_seed="1"
     rand_start="0" /></svg>
