<?xml version="1.0" encoding="UTF-8" standalone="no"?>
<!-- Created with Inkscape (http://www.inkscape.org/) -->

<svg
   width="11in"
   height="8.5in"
   viewBox="0 0 279.4 215.9"
   version="1.1"
   id="svg1"
   inkscape:version="1.3.2 (091e20e, 2023-11-25)"
   sodipodi:docname="multicolor_layers_party.svg"
   xmlns:inkscape="http://www.inkscape.org/namespaces/inkscape"
   xmlns:sodipodi="http://sodipodi.sourceforge.net/DTD/sodipodi-0.dtd"
   xmlns="http://www.w3.org/2000/svg"
   xmlns:svg="http://www.w3.org/2000/svg">
  <sodipodi:namedview
     id="namedview1"
     pagecolor="#ffffff"
     bordercolor="#000000"
     borderopacity="0.25"
     inkscape:showpageshadow="2"
     inkscape:pageopacity="0.0"
     inkscape:pagecheckerboard="0"
     inkscape:deskcolor="#d1d1d1"
     inkscape:document-units="mm"
     showguides="false"
     inkscape:zoom="0.6969697"
     inkscape:cx="528"
     inkscape:cy="407.47826"
     inkscape:window-width="1528"
     inkscape:window-height="999"
     inkscape:window-x="0"
     inkscape:window-y="38"
     inkscape:window-maximized="0"
     inkscape:current-layer="layer2" />
  <defs
     id="defs1">
    <rect
       x="330.49362"
       y="38.042431"
       width="441.05443"
       height="175.94624"
       id="rect5" />
    <rect
       x="736.30945"
       y="589.38532"
       width="97.949422"
       height="57.418627"
       id="rect4" />
    <rect
       x="265.13895"
       y="489.74711"
       width="614.71706"
       height="307.35853"
       id="rect3" />
    <rect
       x="148.61292"
       y="111.45969"
       width="503.25738"
       height="113.14847"
       id="rect2" />
    <rect
       x="227.98572"
       y="231.36329"
       width="645.11516"
       height="258.38382"
       id="rect1" />
  </defs>
  <g
     inkscape:groupmode="layer"
     id="layer2"
     inkscape:label="5 - (red) STARS"
     style="display:inline">
    <g
       id="g119">
      <path
         sodipodi:type="star"
         style="fill:none;stroke:#ff0000;stroke-width:1.88976;stroke-dasharray:none;stroke-opacity:1"
         id="path6"
         inkscape:flatsided="false"
         sodipodi:sides="5"
         sodipodi:cx="786.08624"
         sodipodi:cy="141.69266"
         sodipodi:r1="58.431122"
         sodipodi:r2="29.215557"
         sodipodi:arg1="0.83014439"
         sodipodi:arg2="1.4584629"
         inkscape:rounded="0"
         inkscape:randomized="0"
         d="m 825.51376,184.81651 -36.15253,-14.09243 -32.10443,21.79238 2.23095,-38.7379 -30.64661,-23.79892 37.53134,-9.8489 13.16379,-36.500927 20.96469,32.650947 38.78228,1.2401 -24.57445,30.0283 z"
         transform="matrix(0.26458333,0,0,0.26458333,12.38784,15.647798)"
         inkscape:transform-center-x="0.53553314"
         inkscape:transform-center-y="-0.95766518" />
      <path
         style="fill:none;stroke:#ff0000;stroke-width:1.88976"
         d="m 729.27019,129.86705 -0.25092,0.25092 m 50.3964,-46.153766 0.2042,-0.204193 m -44.59759,44.597589 -3.61489,3.61489 m 45.61514,-41.372498 4.25629,-4.256291 m -40.50445,40.504439 -6.97886,6.97887 m 40.83387,-36.59123 8.30839,-8.308389 m -36.4113,36.411299 -10.34284,10.34283 m 36.0526,-31.80995 12.36049,-12.360487 m -32.31816,32.318157 -13.70681,13.7068 m 31.27133,-27.02868 16.41259,-16.412587 m -28.22502,28.225017 -17.07077,17.07077 m 26.49005,-22.24741 20.46469,-20.464686 M 763.78275,120.81033 743.348,141.24508 m 2.38812,1.85452 43.83745,-43.837446 m 1.65895,2.583686 -43.10828,43.10828 m 2.38812,1.85452 42.3791,-42.3791 m 1.65895,2.58369 -41.64993,41.64993 m 2.38813,1.85451 40.92075,-40.92075 m 1.65895,2.58369 -40.19158,40.19158 m 1.74837,2.49427 40.10216,-40.10216 m 2.67188,1.57076 -43.03331,43.03331 m -0.25927,4.50191 47.40376,-47.40376 m 4.11118,0.13146 -51.77421,51.77421 m -0.25927,4.50191 56.14467,-56.14466 m 4.11118,0.13146 -60.51512,60.51511 m -0.25927,4.50191 64.88557,-64.88556 m 4.11118,0.13145 -69.25602,69.25602 m -0.25926,4.50191 73.62646,-73.62647 m 4.11118,0.13146 -69.41948,69.41948 m 13.20859,-8.96594 60.32207,-60.32208 m -18.64528,22.88792 -30.56346,30.56347 m 3.05268,1.18995 22.32708,-22.32708 m 0.95359,3.28905 -20.22798,20.22798 m 3.05269,1.18995 18.12889,-18.12889 m 0.9536,3.28905 -16.0298,16.0298 m 3.05268,1.18995 13.93071,-13.93071 m 0.9536,3.28904 -11.83162,11.83162 m 3.05269,1.18995 9.73253,-9.73252 m 0.9536,3.28904 -7.63344,7.63344 m 3.05269,1.18995 5.53434,-5.53435 m 0.9536,3.28905 -3.43525,3.43525 m 3.05268,1.18995 1.33616,-1.33616"
         transform="matrix(0.26458333,0,0,0.26458333,12.38784,15.647798)"
         id="path119" />
    </g>
    <g
       id="g120">
      <path
         sodipodi:type="star"
         style="fill:none;stroke:#ff0000;stroke-width:1.88976;stroke-dasharray:none;stroke-opacity:1"
         id="path7"
         inkscape:flatsided="false"
         sodipodi:sides="5"
         sodipodi:cx="242.72568"
         sodipodi:cy="496.54037"
         sodipodi:r1="26.597601"
         sodipodi:r2="13.298799"
         sodipodi:arg1="1.3370531"
         sodipodi:arg2="1.9653717"
         inkscape:rounded="0"
         inkscape:randomized="0"
         d="m 248.88623,522.41469 -11.27283,-13.5974 -17.59194,1.57772 9.4484,-14.92292 -6.93671,-16.24339 17.11225,4.37452 13.30483,-11.61668 1.12755,17.62652 15.15954,9.06388 -16.41538,6.51927 z"
         transform="matrix(0.26458333,0,0,0.26458333,0.97798737,1.998453)"
         inkscape:transform-center-x="-0.50369038"
         inkscape:transform-center-y="0.17468593" />
      <path
         style="fill:none;stroke:#ff0000;stroke-width:1.88976"
         d="m 224.89879,479.83344 -1.47675,1.47675 m 1.26963,2.97302 3.58599,-3.586 m 3.37888,0.86376 -5.69525,5.69525 m 1.26962,2.97302 7.80451,-7.8045 m 3.37887,0.86376 -9.91376,9.91376 m -0.76257,5.00522 25.27291,-25.27292 m 0.25508,3.98756 -32.85031,32.85031 m 4.01555,0.2271 29.08984,-29.08985 m 0.25508,3.98756 -24.6843,24.6843 m 4.66063,-0.41798 20.27875,-20.27876 m 2.21681,2.02583 -18.30465,18.30465 m 1.92305,2.3196 19.03674,-19.03674 m 2.65513,1.5875 -19.76883,19.76883 m 14.13176,-9.88911 8.29221,-8.29221 m -11.94508,11.94508 -8.55584,8.55584 m 19.24628,-15.00364 3.90978,-3.90978 m -15.85733,15.85732 -5.37569,5.37569 m 1.92305,2.3196 2.19554,-2.19555"
         transform="matrix(0.26458333,0,0,0.26458333,0.97798737,1.998453)"
         id="path120" />
    </g>
    <g
       id="g121">
      <path
         sodipodi:type="star"
         style="fill:none;stroke:#ff0000;stroke-width:1.88976;stroke-dasharray:none;stroke-opacity:1"
         id="path10"
         inkscape:flatsided="false"
         sodipodi:sides="5"
         sodipodi:cx="692.44586"
         sodipodi:cy="487.91559"
         sodipodi:r1="20.506397"
         sodipodi:r2="10.253198"
         sodipodi:arg1="0.57133748"
         sodipodi:arg2="1.199656"
         inkscape:rounded="0"
         inkscape:randomized="0"
         d="m 709.6954,499.00458 -13.53093,-1.53389 -8.93446,10.27687 -2.72248,-13.34267 -12.53478,-5.32146 11.84834,-6.71234 1.18755,-13.56571 10.04515,9.19422 13.26873,-3.06261 -5.6401,12.39468 z"
         transform="matrix(0.26458333,0,0,0.26458333,8.0270699,6.5199159)"
         inkscape:transform-center-x="0.42645454"
         inkscape:transform-center-y="0.095482164" />
      <path
         style="fill:none;stroke:#ff0000;stroke-width:1.88976"
         d="m 687.06046,470.68339 -2.42884,2.42884 m -0.40704,4.64967 5.05102,-5.05102 m -15.15672,15.15672 -1.49307,1.49307 m 2.97826,1.26438 15.88667,-15.88667 m 2.21514,2.0275 -15.12355,15.12355 m 2.97826,1.26438 15.65264,-15.65264 m 5.51576,-1.27311 -18.2139,18.21389 m 0.71898,3.52366 23.01067,-23.01067 m -3.41489,7.65753 -18.8768,18.8768 m 0.71898,3.52367 16.63748,-16.63749 m 1.5923,2.65034 -6.67831,6.67831 m 3.81066,0.43199 4.45996,-4.45996 m 1.59229,2.65034 -2.2416,2.2416 m 3.81066,0.43198 0.0232,-0.0232"
         transform="matrix(0.26458333,0,0,0.26458333,8.0270699,6.5199159)"
         id="path121" />
    </g>
  </g>
  <g
     inkscape:groupmode="layer"
     id="layer7"
     inkscape:label="4 - (yellow) STARS"
     style="display:inline"
     inkscape:highlight-color="#ebe348">
    <g
       id="g116">
      <path
         sodipodi:type="star"
         style="display:inline;fill:none;stroke:#fffa00;stroke-width:1.57687;stroke-dasharray:none;stroke-opacity:1"
         id="path4-7"
         inkscape:flatsided="false"
         sodipodi:sides="5"
         sodipodi:cx="165.84676"
         sodipodi:cy="142.15436"
         sodipodi:r1="41.947254"
         sodipodi:r2="20.973625"
         sodipodi:arg1="1.7668412"
         sodipodi:arg2="2.3951598"
         inkscape:rounded="0"
         inkscape:randomized="0"
         d="m 157.67579,183.2981 -7.2261,-26.90214 -26.25792,-9.29854 23.35246,-15.18565 0.72929,-27.84617 21.65872,17.51689 26.70865,-7.91134 -9.96664,26.01168 15.77756,22.9567 -27.81844,-1.44079 z"
         transform="matrix(0.31708318,0,0,0.31708318,13.924099,11.56368)"
         inkscape:transform-center-x="0.80062421"
         inkscape:transform-center-y="0.48434249"
         inkscape:label="path4-7" />
      <path
         style="fill:none;stroke:#fffa00;stroke-width:1.57687"
         d="m 148.65943,104.37771 -0.40468,0.40468 m -0.0952,3.63539 2.45712,-2.45712 m 1.95723,1.58295 -4.50956,4.50956 m -0.0952,3.63539 6.56202,-6.56201 m 1.95723,1.58295 -8.61446,8.61446 m -0.0952,3.63539 10.6669,-10.6669 m 1.95723,1.58295 -12.71934,12.71934 m -21.28435,21.28436 6.33959,-6.33959 m 29.62134,-26.08116 -14.77179,14.77178 m -18.57477,18.57478 13.84813,-13.84814 m 21.45566,-17.91547 -32.68942,32.68941 m 2.61437,0.92582 32.03228,-32.03229 m 1.95724,1.58295 -31.37515,31.37514 m 2.61437,0.92582 31.12111,-31.12111 m 5.03016,-1.48998 -33.5369,33.53689 m 2.61438,0.92581 35.95268,-35.95268 m 5.03016,-1.48998 -38.36847,38.36847 m 2.61437,0.92581 40.78426,-40.78426 m 5.03016,-1.48997 -44.69307,44.69306 m 0.74958,2.7906 43.03503,-43.03502 m -2.19904,5.73922 -40.08641,40.08641 m 0.74957,2.79061 37.1378,-37.1378 m -2.19905,5.73922 -34.18917,34.18918 m 0.74957,2.79061 32.2936,-32.2936 m 1.44201,2.09817 -32.98603,32.98603 m 0.74957,2.79061 33.67848,-33.67848 m 1.44201,2.09817 -14.72142,14.72142 m -19.64949,19.64949 10.43235,-10.43235 m 25.38058,-21.8404 -12.79759,12.79759 m 3.36586,0.17433 10.87375,-10.87375 m 1.44201,2.09816 -8.94991,8.94991 m 3.36586,0.17433 7.02607,-7.02607 m 1.44201,2.09816 -5.10223,5.10224 m 3.36586,0.17432 3.17839,-3.17839 m 1.44202,2.09816 -1.25456,1.25456"
         transform="matrix(0.31708318,0,0,0.31708318,13.924099,11.56368)"
         id="path116" />
    </g>
    <g
       id="g117">
      <path
         sodipodi:type="star"
         style="display:inline;fill:none;stroke:#fffa00;stroke-width:1.88976;stroke-dasharray:none;stroke-opacity:1"
         id="path9"
         inkscape:flatsided="false"
         sodipodi:sides="5"
         sodipodi:cx="305.56329"
         sodipodi:cy="526.11102"
         sodipodi:r1="50.89077"
         sodipodi:r2="25.445381"
         sodipodi:arg1="1.4494443"
         sodipodi:arg2="2.0777629"
         inkscape:rounded="0"
         inkscape:randomized="0"
         d="m 311.72385,576.62754 -18.51499,-28.27162 -33.78591,-0.7754 21.16646,-26.34521 -9.70297,-32.37192 31.59658,11.98938 27.78914,-19.23155 -1.6387,33.75506 26.87761,20.48617 -32.60935,8.87239 z"
         transform="matrix(0.26458333,0,0,0.26458333,3.7891246,-0.32599601)"
         inkscape:transform-center-x="-0.50369017"
         inkscape:transform-center-y="0.79728239" />
      <path
         style="fill:none;stroke:#fffa00;stroke-width:1.88976"
         d="m 272.70311,489.55273 -1.23875,1.23875 m 0.9784,3.26424 3.33595,-3.33595 m 3.0756,1.16704 -5.43315,5.43315 m 0.97841,3.26424 7.53034,-7.53035 m 3.0756,1.16704 -9.62754,9.62754 m 0.9784,3.26424 11.72473,-11.72473 m 3.0756,1.16704 -13.82193,13.82193 m 0.97841,3.26423 15.91912,-15.91912 m 3.0756,1.16704 -18.01632,18.01632 m 0.97841,3.26424 20.11351,-20.11352 m 6.47187,-2.22923 -37.94516,37.94516 m -7.60895,11.8516 59.33127,-59.33128 m 9.57462,-5.33198 -64.75844,64.75844 m 4.14745,0.0952 60.39451,-60.39451 m -0.21647,4.45912 -56.03058,56.03057 m 4.14745,0.0952 51.66665,-51.66665 m -0.21647,4.45912 -47.30272,47.30272 m 4.14745,0.0952 42.93879,-42.93878 m -0.21648,4.45911 -38.57485,38.57486 m 3.39036,0.85228 34.96802,-34.96802 m 1.70018,2.54245 -34.98925,34.98926 m 1.67895,2.56368 35.71788,-35.71788 m 2.40758,1.83507 -36.44651,36.4465 m 1.67895,2.56369 37.17514,-37.17513 m 2.40758,1.83506 -37.90377,37.90376 m 21.7246,-17.48196 18.58674,-18.58674 m -19.89796,19.89796 -18.73442,18.73443 m 25.87409,-21.63146 15.16587,-15.16587 m -24.59489,24.5949 -14.76612,14.76612 m 30.0236,-25.78096 11.74499,-11.745 m -29.29183,29.29184 -10.79781,10.79781 m 34.1731,-29.93046 8.32412,-8.32412 m -33.98877,33.98877 -6.8295,6.8295 m 38.3226,-34.07996 4.90325,-4.90325 m -38.68571,38.68571 -2.86119,2.86119 m 42.4721,-38.22947 1.48238,-1.48237"
         transform="matrix(0.26458333,0,0,0.26458333,3.7891246,-0.32599601)"
         id="path117" />
    </g>
    <g
       id="g118">
      <path
         sodipodi:type="star"
         style="display:inline;fill:none;stroke:#fffa00;stroke-width:1.88976;stroke-dasharray:none;stroke-opacity:1"
         id="path11"
         inkscape:flatsided="false"
         sodipodi:sides="5"
         sodipodi:cx="746.65869"
         sodipodi:cy="481.75504"
         sodipodi:r1="43.700844"
         sodipodi:r2="21.850422"
         sodipodi:arg1="1.1955255"
         sodipodi:arg2="1.823844"
         inkscape:rounded="0"
         inkscape:randomized="0"
         d="m 762.67612,522.41467 -21.48781,-19.50506 -28.24957,6.64342 11.91032,-26.46351 -15.04787,-24.81401 28.84879,3.14971 18.94947,-21.97933 5.91922,28.41015 26.75929,11.23003 -25.19052,14.40873 z"
         transform="matrix(0.26458333,0,0,0.26458333,10.715382,5.7451001)"
         inkscape:transform-center-x="-0.89452208"
         inkscape:transform-center-y="-0.21821815" />
      <path
         style="fill:none;stroke:#fffa00;stroke-width:1.88976"
         d="m 711.94159,458.5092 -1.24418,1.24418 m 1.60159,2.64104 3.46761,-3.4676 m 3.82502,0.41761 -5.69103,5.69103 m 1.6016,2.64104 7.91446,-7.91445 m 3.82502,0.41761 -10.13788,10.13789 m 1.6016,2.64104 12.36131,-12.36131 m 3.82502,0.41761 -14.58474,14.58474 m 1.6016,2.64104 36.22605,-36.22605 m 0.73154,3.51111 -35.35599,35.35599 m 0.76929,3.47334 35.31823,-35.31823 m 0.73154,3.51111 -39.52194,39.52194 m -3.47217,7.71481 43.72564,-43.72564 m 0.73154,3.5111 -47.92936,47.92935 m 3.1464,1.09625 45.51449,-45.51449 m 0.73153,3.5111 -40.69886,40.69887 m 5.54716,-1.30452 37.32788,-37.32789 m 2.98848,1.25417 -34.7692,34.7692 m 5.54716,-1.30452 32.21051,-32.21051 m 2.98847,1.25417 -31.78269,31.78268 m 2.22393,2.01872 32.54723,-32.54724 m 2.98848,1.25417 -33.31179,33.31178 m 20.27756,-16.03491 16.0227,-16.0227 m -18.36265,18.36265 -15.71368,15.71368 m 27.96611,-23.72347 9.09869,-9.09869 m -21.73704,21.73704 -13.10384,13.10384 m 35.65467,-31.41204 2.17469,-2.17468 m -25.11145,25.11145 -10.49398,10.49398 m 2.22392,2.01872 7.88413,-7.88413 m -0.38593,4.62856 -5.27427,5.27428 m 2.22392,2.01872 2.66443,-2.66443 m -0.38593,4.62857 -0.0546,0.0546"
         transform="matrix(0.26458333,0,0,0.26458333,10.715382,5.7451001)"
         id="path118" />
    </g>
  </g>
  <g
     inkscape:groupmode="layer"
     id="layer6"
     inkscape:label="3 - (pink) STARS"
     style="display:inline"
     inkscape:highlight-color="#eb48ca">
    <g
       id="g112"
       style="stroke-width:0.499001;stroke-dasharray:none">
      <path
         sodipodi:type="star"
         style="display:inline;fill:none;stroke:#ff00d0;stroke-width:2.85622;stroke-dasharray:none;stroke-opacity:1"
         id="path4"
         inkscape:flatsided="false"
         sodipodi:sides="5"
         sodipodi:cx="165.84676"
         sodipodi:cy="142.15436"
         sodipodi:r1="41.947254"
         sodipodi:r2="20.973625"
         sodipodi:arg1="1.7668412"
         sodipodi:arg2="2.3951598"
         inkscape:rounded="0"
         inkscape:randomized="0"
         d="m 157.67579,183.2981 -7.2261,-26.90214 -26.25792,-9.29854 23.35246,-15.18565 0.72929,-27.84617 21.65872,17.51689 26.70865,-7.91134 -9.96664,26.01168 15.77756,22.9567 -27.81844,-1.44079 z"
         transform="matrix(0.17470656,0,0,0.17470656,60.272618,29.540425)"
         inkscape:transform-center-x="0.44112823"
         inkscape:transform-center-y="0.26686272" />
      <path
         style="fill:none;stroke:#ff00d0;stroke-width:2.85622;stroke-dasharray:none"
         d="m 149.16789,104.78894 -0.93788,0.93788 m -0.1728,6.59805 4.66296,-4.66296 m 3.55227,2.87297 -8.38803,8.38803 m -0.17281,6.59805 12.11312,-12.11312 m -30.07601,30.07601 -4.12179,4.12179 m 4.74495,1.6803 33.00512,-33.00513 m 3.55228,2.87297 -31.81246,31.81245 m 4.74495,1.6803 31.4822,-31.48221 m 9.12947,-2.70423 -35.86673,35.86673 m 4.74495,1.6803 40.25126,-40.25126 m 6.12364,0.3016 -44.23124,44.23124 m 1.36044,5.0648 38.87966,-38.87965 m -3.99115,10.41638 -33.52807,33.52808 m 1.36044,5.0648 33.01314,-33.01315 m 2.61719,3.80806 -15.00211,15.00211 m -19.26778,19.26778 12.24514,-12.24514 m 24.64193,-18.21669 -11.51044,11.51045 m 6.10885,0.31639 8.01877,-8.01878 m 2.61719,3.80806 -4.52712,4.52711 m 6.10885,0.31639 1.03545,-1.03544"
         transform="matrix(0.17470656,0,0,0.17470656,60.272618,29.540425)"
         id="path112" />
    </g>
    <g
       id="g113"
       style="stroke-width:0.998001;stroke-dasharray:none">
      <path
         sodipodi:type="star"
         style="display:inline;fill:none;stroke:#ff00d0;stroke-width:1.88976;stroke-dasharray:none;stroke-opacity:1"
         id="path5"
         inkscape:flatsided="false"
         sodipodi:sides="5"
         sodipodi:cx="693.67798"
         sodipodi:cy="178.65596"
         sodipodi:r1="50.801201"
         sodipodi:r2="25.400597"
         sodipodi:arg1="1.3258177"
         sodipodi:arg2="1.9541362"
         inkscape:rounded="0"
         inkscape:randomized="0"
         d="m 705.99908,227.94036 -21.82143,-25.72736 -33.5645,3.39074 17.72499,-28.70361 -13.59679,-30.87393 32.77608,7.98756 25.16122,-22.47188 2.53174,33.64019 29.14727,16.98555 -31.21137,12.80322 z"
         transform="matrix(0.26458333,0,0,0.26458333,9.7798737,11.409853)"
         inkscape:transform-center-x="-1.0073801"
         inkscape:transform-center-y="0.28711493" />
      <path
         style="fill:none;stroke:#ff00d0;stroke-width:1.88976;stroke-dasharray:none"
         d="m 656.82499,146.53398 -1.29132,1.29132 m 1.29717,2.94547 3.40545,-3.40545 m 3.4113,0.83134 -5.51957,5.51957 m 1.29717,2.94547 7.6337,-7.6337 m 3.41131,0.83133 -9.74783,9.74783 m 1.29717,2.94547 11.86196,-11.86196 m 3.4113,0.83134 -13.97608,13.97608 m 1.29717,2.94547 16.09021,-16.09021 m 3.41131,0.83133 -18.20434,18.20435 m 1.29717,2.94546 20.41719,-20.41718 m 25.16275,-20.92011 -45.33334,45.33333 m -6.84974,11.09239 52.48003,-52.48003 m 0.29695,3.94569 -59.62673,59.62672 m -0.58774,4.83038 60.51142,-60.51141 m 0.29695,3.94569 -56.08897,56.08896 m 4.7194,-0.47676 51.66652,-51.66651 m 0.29695,3.94569 -47.24406,47.24406 m 4.7194,-0.47676 42.82161,-42.82161 m 0.29695,3.94569 -38.39916,38.39916 m 4.7194,-0.47677 35.98616,-35.98615 m 2.68055,1.56209 -35.13732,35.13731 m 1.94707,2.29558 35.8708,-35.8708 m 2.68055,1.56209 -36.60429,36.60429 m 1.94706,2.29557 37.33778,-37.33777 m 2.68055,1.56208 -38.07127,38.07127 m 22.56211,-18.31946 18.18971,-18.18972 m -20.76918,20.76919 -18.03557,18.03557 m 27.80852,-23.56588 13.67678,-13.67679 M 711.61,202.05761 696.69579,216.97183 m 33.05493,-28.8123 9.16387,-9.16386 m -28.47888,28.47888 -11.79286,11.79285 m 38.30135,-34.05871 4.65094,-4.65093 m -32.33373,32.33373 -8.67149,8.67149 m 43.54776,-39.30512 0.13801,-0.13801 m -36.18858,36.18857 -5.55013,5.55014 m 1.94706,2.29558 2.42878,-2.42878"
         transform="matrix(0.26458333,0,0,0.26458333,9.7798737,11.409853)"
         id="path113" />
    </g>
    <g
       id="g114"
       style="stroke-width:0.5;stroke-dasharray:none">
      <path
         sodipodi:type="star"
         style="display:inline;fill:none;stroke:#ff00d0;stroke-width:1.88976;stroke-dasharray:none;stroke-opacity:1"
         id="path8"
         inkscape:flatsided="false"
         sodipodi:sides="5"
         sodipodi:cx="208.22659"
         sodipodi:cy="431.23853"
         sodipodi:r1="29.390409"
         sodipodi:r2="14.695203"
         sodipodi:arg1="0.57637522"
         sodipodi:arg2="1.2046938"
         inkscape:rounded="0"
         inkscape:randomized="0"
         d="m 232.86879,447.25596 -19.38162,-2.29609 -12.8792,14.66444 -3.80555,-19.14255 -17.9266,-7.71729 17.02967,-9.53466 1.79995,-19.43398 14.33046,13.24981 19.03903,-4.29358 -8.17295,17.72349 z"
         transform="matrix(0.26458333,0,0,0.26458333,8.2727197,3.302436)"
         inkscape:transform-center-x="0.62290499"
         inkscape:transform-center-y="0.12476127" />
      <path
         style="fill:none;stroke:#ff00d0;stroke-width:1.88976;stroke-dasharray:none"
         d="m 198.93994,404.93724 -1.47701,1.47702 m -0.43306,4.67569 4.11451,-4.11451 m 2.20444,2.0382 -6.75201,6.75201 m -17.21615,17.21615 1.13603,-1.13603 m 25.03657,-20.79392 -9.38951,9.3895 m -13.81723,13.81723 7.81002,-7.81002 m 17.60115,-13.35851 -22.44531,22.44532 m 2.96585,1.27678 21.6839,-21.6839 m 2.39848,1.84416 -21.11652,21.11652 m 2.96586,1.27679 23.62867,-23.62868 m 5.47801,-1.23537 -26.42564,26.42564 m 0.70357,3.53907 31.20009,-31.20008 m 0.16091,4.08172 -30.65743,30.65743 m 0.70357,3.53907 26.32319,-26.32319 m -1.89701,6.13965 -23.72261,23.72261 m 14.30446,-10.06181 10.99909,-10.99909 m -15.73814,15.73814 -8.86184,8.86183 m 17.39415,-13.15151 8.78676,-8.78676 m 1.58094,2.66171 -6.57444,6.57443 m 3.79327,0.44938 4.3621,-4.3621 m 1.58094,2.6617 -2.14978,2.14978"
         transform="matrix(0.26458333,0,0,0.26458333,8.2727197,3.302436)"
         id="path114" />
    </g>
    <g
       id="g115"
       style="stroke-width:0.5;stroke-dasharray:none">
      <path
         sodipodi:type="star"
         style="display:inline;fill:none;stroke:#ff00d0;stroke-width:1.88976;stroke-dasharray:none;stroke-opacity:1"
         id="path12"
         inkscape:flatsided="false"
         sodipodi:sides="5"
         sodipodi:cx="818.12109"
         sodipodi:cy="416.45319"
         sodipodi:r1="57.435364"
         sodipodi:r2="28.717682"
         sodipodi:arg1="0.39644128"
         sodipodi:arg2="1.0247598"
         inkscape:rounded="0"
         inkscape:randomized="0"
         d="m 871.10183,438.63117 -38.06752,2.36384 -19.63378,32.69922 -14.01167,-35.47389 -37.16597,-8.56822 29.40784,-24.28792 -3.33606,-37.99467 32.18671,20.46313 35.10417,-14.91377 -9.51535,36.93483 z"
         transform="matrix(0.26458333,0,0,0.26458333,12.061844,7.823899)"
         inkscape:transform-center-x="0.38595978"
         inkscape:transform-center-y="1.079153"
         inkscape:label="path12" />
      <path
         style="fill:none;stroke:#ff00d0;stroke-width:1.88976;stroke-dasharray:none"
         d="m 790.50717,368.77616 -1.92038,1.92037 m 0.34245,3.90019 4.1716,-4.1716 m 2.59368,1.64896 -6.42283,6.42283 m 0.34245,3.90019 8.67406,-8.67405 m 2.59367,1.64896 -10.92528,10.92528 m 0.34245,3.90019 13.17651,-13.1765 m 2.59367,1.64896 -15.42773,15.42773 m 0.34245,3.90019 17.67896,-17.67896 m 2.59368,1.64897 -19.93019,19.93018 m -28.00688,28.00688 6.65428,-6.65427 m 43.87646,-39.63383 -47.08295,47.08296 m 3.44779,0.79485 46.22884,-46.22884 m 2.59367,1.64896 -45.37472,45.37473 m 3.44779,0.79485 46.64106,-46.64107 m 7.3765,-3.13385 -50.56977,50.56977 m 3.44779,0.79485 54.49847,-54.49848 m 7.3765,-3.13385 -58.42719,58.42718 m 3.44779,0.79485 62.35589,-62.35588 m 1.32015,2.92249 -60.22825,60.22825 m 3.44779,0.79485 55.30814,-55.30814 m -1.47232,5.71495 -51.59757,51.59758 m 1.20129,3.04135 48.92396,-48.92397 m -1.47232,5.71496 -46.25035,46.25036 m 1.20129,3.04135 43.57675,-43.57675 m -0.70873,4.95137 -41.66673,41.66673 m 1.20129,3.04135 42.43909,-42.43909 m 1.97365,2.26899 -43.21146,43.21146 m 1.20129,3.04135 43.98382,-43.98382 m 1.97365,2.26899 -44.75618,44.75618 m 27.70428,-23.46164 19.02554,-19.02554 m -29.4244,29.4244 -16.10413,16.10413 m 31.02653,-26.78388 16.47565,-16.47566 m -37.77358,37.77358 -8.52731,8.52731 m 34.34877,-30.10613 13.92577,-13.92577 m -46.12275,46.12276 -0.9505,0.95049 m 37.67101,-33.42837 11.37589,-11.37589 m 1.97365,2.26899 -8.826,8.82601 m 4.52353,-0.2809 6.27611,-6.27611 m 1.97365,2.26899 -3.72623,3.72623 m 4.52354,-0.28089 1.17634,-1.17635"
         transform="matrix(0.26458333,0,0,0.26458333,12.061844,7.823899)"
         id="path115" />
    </g>
    <g
       id="g122"
       style="stroke-width:0.5;stroke-dasharray:none">
      <path
         sodipodi:type="star"
         style="display:inline;fill:none;stroke:#ff00d0;stroke-width:1.88976;stroke-dasharray:none;stroke-opacity:1"
         id="path13"
         inkscape:flatsided="false"
         sodipodi:sides="5"
         sodipodi:cx="730.34741"
         sodipodi:cy="561.15497"
         sodipodi:r1="34.879917"
         sodipodi:r2="17.439959"
         sodipodi:arg1="1.3258177"
         sodipodi:arg2="1.9541362"
         inkscape:rounded="0"
         inkscape:randomized="0"
         d="m 738.80703,594.99346 -14.98251,-17.66431 -23.04526,2.32806 12.16991,-19.70779 -9.3355,-21.19792 22.50393,5.48422 17.2756,-15.42911 1.73829,23.09723 20.01241,11.66222 -21.42962,8.79064 z"
         transform="matrix(0.26458333,0,0,0.26458333,4.9421725,3.2966091)"
         inkscape:transform-center-x="-0.69166261"
         inkscape:transform-center-y="0.19713059" />
      <path
         style="fill:none;stroke:#ff00d0;stroke-width:1.88976;stroke-dasharray:none"
         d="m 706.97855,539.57152 -2.08536,2.08536 m 1.29718,2.94547 4.19948,-4.19949 m 3.41131,0.83134 -6.31362,6.31361 m 1.29717,2.94547 8.42775,-8.42775 m 3.4113,0.83134 -10.54187,10.54188 m 1.29717,2.94546 12.65601,-12.656 m 17.54406,-13.30142 -28.90289,28.90289 m -5.13559,9.37822 36.13593,-36.13593 m 0.29695,3.94569 -43.1334,43.1334 m 4.7194,-0.47676 38.71095,-38.71095 m 0.29695,3.94569 -34.2885,34.2885 m 4.7194,-0.47676 29.86605,-29.86605 m 0.53653,3.70611 -25.68318,25.68318 m 4.35953,-0.11689 24.0042,-24.0042 m 2.68055,1.56209 -24.73768,24.73769 m 1.94706,2.29558 25.47117,-25.47118 m 2.68055,1.56209 -26.20466,26.20467 m 18.21092,-13.96828 10.6743,-10.6743 m -15.81013,15.81013 -11.12803,11.12802 m 23.45733,-19.21469 6.16138,-6.16137 m -19.66498,19.66497 -8.00666,8.00667 m 28.70374,-24.4611 1.64845,-1.64845 m -23.51982,23.51982 -4.88531,4.88531 m 1.94706,2.29558 1.76395,-1.76395"
         transform="matrix(0.26458333,0,0,0.26458333,4.9421725,3.2966091)"
         id="path122" />
    </g>
  </g>
  <g
     inkscape:label="2 - (thicker pen) ANNA'S BIRTHDAY PARTY"
     inkscape:groupmode="layer"
     id="layer1"
     transform="translate(0,-18.305486)"
     style="display:inline">
    <g
       inkscape:label="ABP"
       style="fill:none;stroke:#000000;stroke-linecap:round;stroke-linejoin:round"
       transform="matrix(0.59156287,0,0,0.59156287,-48.45699,83.083504)"
       id="g1">
      <g
         id="a"
         transform="translate(154.78414,50)">
        <g
           id="aT">
          <path
             d="m 72,365 q -24,1 -47.5,3.5 -23.5,2.5 -43,11 -19.5,8.5 -32,26 Q -63,423 -65,454 q -4,63 20.5,103 24.5,40 67,64 42.5,24 98.5,35 56,11 115,15 59,4 117,3.5 58,-0.5 105,0.5 M 42,-124 q 9,46 -11,65.5 -20,19.5 -50,19.5 -20,0 -42,-7.5 -22,-7.5 -39,-21.5 -21,-17 -32,-43 -11,-26 -12.5,-53.5 -1.5,-27.5 5.5,-51.5 7,-24 22,-37 36,-30 78,-30 28,0 55.5,11.5 27.5,11.5 52,28.5 24.5,17 44.5,37.5 20,20.5 33,38.5 46,65 74.5,136 28.5,71 48,144.5 Q 288,187 303,262 q 15,75 34.5,147.5 19.5,72.5 47.5,141 28,68.5 74,129.5 8,10 21.5,21.5 13.5,11.5 30,21.5 16.5,10 33,16.5 16.5,6.5 28.5,6.5 16,0 20,-12 1,-3 -2.5,-26.5 Q 586,684 579.5,648 573,612 565.5,568.5 558,525 551.5,483 545,441 539.5,404 534,367 533,345 531,314 528,268 525,222 522,168 519,114 517.5,55.5 516,-3 518,-60 q 2,-57 9,-109.5 7,-52.5 20,-94.5 14,-44 34.5,-84 20.5,-40 47.5,-71.5 27,-31.5 59.5,-50 32.5,-18.5 71.5,-18.5 28,0 58.5,11 30.5,11 63.5,35 m -611,560 249,-1"
             transform="scale(0.039062,-0.039062)"
             style="stroke-width:0.272in"
             id="ai" />
          <path
             d="m 0,258 q 18,14 40,24.5 22,10.5 40,19.5 7,-17 11.5,-44 4.5,-27 7.5,-59 3,-32 5,-66.5 2,-34.5 2.5,-67 0.5,-32.5 0.5,-61 0,-28.5 -1,-47.5 8,3 11.5,8 3.5,5 14.5,7 -7,38 3,87 10,49 31,95.5 21,46.5 50,82 29,35.5 59,45.5 20,7 32.5,-11 12.5,-18 20,-49.5 Q 335,190 339,150 q 4,-40 6.5,-79 2.5,-39 5,-71.5 2.5,-32.5 7.5,-47.5 6,-19 19,-26.5 13,-7.5 30,-7.5 17,0 34.5,6 17.5,6 30.5,14"
             transform="matrix(0.039062,0,0,-0.039062,25.703125,0)"
             style="stroke-width:0.272in"
             id="aa" />
          <path
             d="m 0,258 q 18,14 40,24.5 22,10.5 40,19.5 7,-17 11.5,-44 4.5,-27 7.5,-59 3,-32 5,-66.5 2,-34.5 2.5,-67 0.5,-32.5 0.5,-61 0,-28.5 -1,-47.5 8,3 11.5,8 3.5,5 14.5,7 -7,38 3,87 10,49 31,95.5 21,46.5 50,82 29,35.5 59,45.5 20,7 32.5,-11 12.5,-18 20,-49.5 Q 335,190 339,150 q 4,-40 6.5,-79 2.5,-39 5,-71.5 2.5,-32.5 7.5,-47.5 6,-19 19,-26.5 13,-7.5 30,-7.5 17,0 34.5,6 17.5,6 30.5,14"
             transform="matrix(0.039062,0,0,-0.039062,42.851562,0)"
             style="stroke-width:0.272in"
             id="ax" />
          <path
             d="M 259,255 Q 247,267 231,279.5 215,292 196,292 171,292 145.5,276 120,260 98.5,236.5 77,213 61.5,185.5 46,158 41,134 39,124 39,110.5 39,97 42.5,85 46,73 54,65 q 8,-8 21,-8 21,-1 37.5,7.5 16.5,8.5 31,22 14.5,13.5 27.5,29.5 13,16 27,29 22,20 40.5,49.5 18.5,29.5 18.5,58.5 -3,-15 -5,-39 -2,-24 -1.5,-51.5 0.5,-27.5 4.5,-56 4,-28.5 12.5,-51 Q 276,33 290,18.5 304,4 324,4 q 24,0 56,23"
             transform="matrix(0.039062,0,0,-0.039062,60,0)"
             style="stroke-width:0.272in"
             id="aax" />
          <path
             d="M 84,617 Q 86,579 84,541.5 82,504 80.5,466.5 79,429 79.5,392 80,355 85,317"
             transform="matrix(0.039062,0,0,-0.039062,75.390625,0)"
             style="stroke-width:0.272in"
             id="ay" />
          <path
             d="m 218,390 q 12,8 21.5,23.5 9.5,15.5 10,32 0.5,16.5 -9,30 Q 231,489 206,493 181,497 148.5,487.5 116,478 91.5,459.5 67,441 56.5,414 46,387 65,357 76,340 97.5,313.5 119,287 143.5,255 168,223 191.5,188 215,153 228,119.5 241,86 240,56 239,26 216,5 187,-21 155,-38.5 123,-56 83,-56 49,-56 32,-38.5 15,-21 12.5,4.5 10,30 20.5,57.5 31,85 52,106"
             transform="matrix(0.039062,0,0,-0.039062,81.992188,0)"
             style="stroke-width:0.272in"
             id="ae" />
        </g>
        <g
           id="aTJ">
          <path
             d="M 371,543 Q 335,525 308.5,507 282,489 263.5,464 245,439 234.5,405 224,371 221,323 q -3,-56 7,-104.5 10,-48.5 26,-95 16,-46.5 35,-93.5 19,-47 34,-100 4,-14 3,-34 -1,-20 -6,-40.5 -5,-20.5 -12.5,-39.5 -7.5,-19 -17.5,-30 -9,-11 -24,-22.5 -15,-11.5 -34,-22 -19,-10.5 -40.5,-17 -21.5,-6.5 -43.5,-6.5 -15,0 -33,5 -28,9 -47,20 -19,11 -31,25 -12,14 -19,33 -7,19 -11,44 -3,24 3,45.5 6,21.5 19.5,38 Q 43,-55 62,-45 q 19,10 40,10 20,0 37,-8 M 111,282 Q 78,294 59.5,317.5 41,341 35,371.5 29,402 33.5,437 q 4.5,35 18,69.5 13.5,34.5 34.5,67 21,32.5 47,57.5 56,54 125,81.5 69,27.5 141,27.5 57,0 115.5,-16.5 58.5,-16.5 107,-49 48.5,-32.5 81,-80 Q 735,547 741,484 746,439 735.5,392.5 725,346 703.5,302 682,258 650,220 618,182 579,154 540,126 495.5,110.5 451,95 404,96 q 23,-1 49,1.5 26,2.5 52,2.5 26,0 52.5,-5 Q 584,90 607,73 634,55 648.5,27.5 663,0 665,-30.5 667,-61 656,-93.5 645,-126 621,-155 598,-181 568.5,-193.5 539,-206 511,-206 q -22,0 -40.5,7.5 -18.5,7.5 -27.5,22 -9,14.5 -5.5,35 3.5,20.5 23.5,46.5"
             transform="matrix(0.039062,0,0,-0.039062,106.32813,0)"
             style="stroke-width:0.272in"
             id="aaB" />
          <path
             d="m 74,467 21.5,-21.5 q 0,0 25.5,-19.5 M 10,268 q 23,11 42,17.5 19,6.5 47,11.5 m -18,-3 q 20,-30 24,-63 4,-33 2,-67.5 Q 105,129 102,94 99,59 104,24 106,11 113.5,6 121,1 131,1 q 15,0 32,8 17,8 26,16"
             transform="matrix(0.039062,0,0,-0.039062,136.71875,0)"
             style="stroke-width:0.272in"
             id="aB" />
          <path
             d="m -23,318 q 19,19 36,29.5 17,10.5 31,10.5 31,0 38,-56 14,-85 23,-167.5 9,-82.5 20,-163.5 7,1 9.5,8 2.5,7 9.5,9 -4,44 -5.5,83.5 -1.5,39.5 1.5,78.5 3,39 11.5,78 8.5,39 24.5,81 11,27 28.5,53 17.5,26 41,47 23.5,21 52,33.5 28.5,12.5 59.5,12.5 24,0 31.5,-9 7.5,-9 4,-23.5 Q 389,408 378,391 367,374 352.5,357 338,340 324,325.5 310,311 300,303"
             transform="matrix(0.039062,0,0,-0.039062,145.85937,0)"
             style="stroke-width:0.272in"
             id="aF" />
          <path
             d="m 0,565 q 21,9 35,18.5 14,9.5 34,14.5 7,2 13,-0.5 6,-2.5 10.5,-8.5 4.5,-6 7,-13.5 Q 102,568 102,560 102,433 96,302 90,171 92,42 92,7 110.5,-7 129,-21 155,-21 q 25,0 51,10.5 Q 232,0 250,17 M -15,464 q 35,8 67.5,11 32.5,3 64.5,7.5 32,4.5 64,12 32,7.5 64,23.5"
             transform="matrix(0.039062,0,0,-0.039062,159.14062,0)"
             style="stroke-width:0.272in"
             id="az" />
          <path
             d="m 429,834 q -36,16 -69,16 -33,0 -61.5,-14 Q 270,822 245.5,797 221,772 200.5,738.5 180,705 163,667 129,590 111,510.5 93,431 86,350.5 79,270 79.5,189 80,108 82,27 q 5,4 11.5,9.5 6.5,5.5 13.5,8.5 -2,60 13,115.5 15,55.5 39,98 24,42.5 52,68 28,25.5 52,25.5 29,0 42,-40 16,-50 24.5,-99.5 8.5,-49.5 17,-98.5 8.5,-49 21,-97 12.5,-48 36.5,-94 27,-52 54.5,-73.5 27.5,-21.5 62.5,-21.5 22,0 48.5,7.5 26.5,7.5 58.5,19.5"
             transform="matrix(0.039062,0,0,-0.039062,168.47656,0)"
             style="stroke-width:0.272in"
             id="aev" />
          <path
             d="m 328,270 q 1,-23 1,-48 0,-25 -3,-48.5 Q 323,150 316,128 309,106 295,89 284,75 266.5,62.5 249,50 228,40 207,30 184,24.5 161,19 139,19 118,19 100,25.5 82,32 70,46 55,64 52.5,90.5 50,117 59,146 q 9,29 27,57 18,28 42.5,48.5 24.5,20.5 54.5,31.5 30,11 62,5 20,-4 42,-8.5 22,-4.5 41,-9.5 M 499,-85 q -31,-25 -68,-25 -29,0 -53.5,18.5 Q 353,-73 347,-35 q -14,85 -17.5,170 -3.5,85 -4,170 -0.5,85 -3.5,171 -3,86 -17,172 -5,33 -24.5,48.5 Q 261,712 237,712 q -30,0 -59,-20"
             transform="matrix(0.039062,0,0,-0.039062,186.75781,0)"
             style="stroke-width:0.272in"
             id="aeo" />
          <path
             d="M 259,255 Q 247,267 231,279.5 215,292 196,292 171,292 145.5,276 120,260 98.5,236.5 77,213 61.5,185.5 46,158 41,134 39,124 39,110.5 39,97 42.5,85 46,73 54,65 q 8,-8 21,-8 21,-1 37.5,7.5 16.5,8.5 31,22 14.5,13.5 27.5,29.5 13,16 27,29 22,20 40.5,49.5 18.5,29.5 18.5,58.5 -3,-15 -5,-39 -2,-24 -1.5,-51.5 0.5,-27.5 4.5,-56 4,-28.5 12.5,-51 Q 276,33 290,18.5 304,4 324,4 q 24,0 56,23"
             transform="matrix(0.039062,0,0,-0.039062,204.80469,0)"
             style="stroke-width:0.272in"
             id="av" />
          <path
             d="m -15,339 q 20,7 36,7 24,0 37.5,-14.5 Q 72,317 79,295 86,273 88.5,245.5 91,218 91.5,192 92,166 93,145 q 1,-21 6,-32 8,-18 28,-18 11,0 23,4.5 12,4.5 23.5,11.5 11.5,7 20.5,15 9,8 14,15 18,26 35,55 17,29 32.5,57.5 15.5,28.5 28.5,55 13,26.5 22,47.5 l 32,9 Q 348,334 345.5,296.5 343,259 345,220 q 2,-39 6,-77.5 4,-38.5 6,-71.5 6,-90 -0.5,-167.5 Q 350,-174 323,-231.5 296,-289 245.5,-323.5 195,-358 112,-362 q -58,-3 -91,20.5 -33,23.5 -43,59 -10,35.5 3,74.5 13,39 48,68"
             transform="matrix(0.039062,0,0,-0.039062,220.19531,0)"
             style="stroke-width:0.272in"
             id="aW" />
        </g>
        <g
           id="ah">
          <path
             d="M 375,670 Q 312,627 284.5,583.5 257,540 252.5,487.5 248,435 259.5,369 271,303 286,216 292,183 306,144.5 320,106 335,65 350,24 364,-17.5 378,-59 383,-99 q 5,-40 -1.5,-76 -6.5,-36 -31.5,-66 -23,-27 -61.5,-42.5 Q 250,-299 206,-299 q -30,0 -59.5,8.5 -29.5,8.5 -54.5,26.5 -20,15 -34,40.5 -14,25.5 -19.5,54 -5.5,28.5 -2,57 Q 40,-84 55,-63 q 19,26 44,39.5 25,13.5 51,13.5 23,0 43.5,-11.5 Q 214,-33 226,-57 M 145,357 Q 111,373 92.5,399.5 74,426 68,458 62,490 66.5,525.5 71,561 84,595 q 13,34 32,63 19,29 41,48 57,49 127,74.5 70,25.5 145,25.5 66,0 131,-21.5 65,-21.5 123,-67.5 28,-22 49,-50 21,-28 35.5,-59.5 14.5,-31.5 23,-64 Q 799,511 802,479 808,419 781.5,369.5 755,320 711,283.5 667,247 613,224.5 559,202 509,196 q -20,-2 -42.5,1 -22.5,3 -42.5,12 -20,9 -34.5,23.5 Q 375,247 372,267 q -3,20 8,45.5 11,25.5 42,56.5"
             transform="matrix(0.039062,0,0,-0.039062,249.57031,0)"
             style="stroke-width:0.272in"
             id="aiF" />
          <path
             d="M 259,255 Q 247,267 231,279.5 215,292 196,292 171,292 145.5,276 120,260 98.5,236.5 77,213 61.5,185.5 46,158 41,134 39,124 39,110.5 39,97 42.5,85 46,73 54,65 q 8,-8 21,-8 21,-1 37.5,7.5 16.5,8.5 31,22 14.5,13.5 27.5,29.5 13,16 27,29 22,20 40.5,49.5 18.5,29.5 18.5,58.5 -3,-15 -5,-39 -2,-24 -1.5,-51.5 0.5,-27.5 4.5,-56 4,-28.5 12.5,-51 Q 276,33 290,18.5 304,4 324,4 q 24,0 56,23"
             transform="matrix(0.039062,0,0,-0.039062,280.15625,0)"
             style="stroke-width:0.272in"
             id="aWi" />
          <path
             d="m -23,318 q 19,19 36,29.5 17,10.5 31,10.5 31,0 38,-56 14,-85 23,-167.5 9,-82.5 20,-163.5 7,1 9.5,8 2.5,7 9.5,9 -4,44 -5.5,83.5 -1.5,39.5 1.5,78.5 3,39 11.5,78 8.5,39 24.5,81 11,27 28.5,53 17.5,26 41,47 23.5,21 52,33.5 28.5,12.5 59.5,12.5 24,0 31.5,-9 7.5,-9 4,-23.5 Q 389,408 378,391 367,374 352.5,357 338,340 324,325.5 310,311 300,303"
             transform="matrix(0.039062,0,0,-0.039062,295.54687,0)"
             style="stroke-width:0.272in"
             id="ayW" />
          <path
             d="m 0,565 q 21,9 35,18.5 14,9.5 34,14.5 7,2 13,-0.5 6,-2.5 10.5,-8.5 4.5,-6 7,-13.5 Q 102,568 102,560 102,433 96,302 90,171 92,42 92,7 110.5,-7 129,-21 155,-21 q 25,0 51,10.5 Q 232,0 250,17 M -15,464 q 35,8 67.5,11 32.5,3 64.5,7.5 32,4.5 64,12 32,7.5 64,23.5"
             transform="matrix(0.039062,0,0,-0.039062,308.82812,0)"
             style="stroke-width:0.272in"
             id="aJ" />
          <path
             d="m -15,339 q 20,7 36,7 24,0 37.5,-14.5 Q 72,317 79,295 86,273 88.5,245.5 91,218 91.5,192 92,166 93,145 q 1,-21 6,-32 8,-18 28,-18 11,0 23,4.5 12,4.5 23.5,11.5 11.5,7 20.5,15 9,8 14,15 18,26 35,55 17,29 32.5,57.5 15.5,28.5 28.5,55 13,26.5 22,47.5 l 32,9 Q 348,334 345.5,296.5 343,259 345,220 q 2,-39 6,-77.5 4,-38.5 6,-71.5 6,-90 -0.5,-167.5 Q 350,-174 323,-231.5 296,-289 245.5,-323.5 195,-358 112,-362 q -58,-3 -91,20.5 -33,23.5 -43,59 -10,35.5 3,74.5 13,39 48,68"
             transform="matrix(0.039062,0,0,-0.039062,318.16406,0)"
             style="stroke-width:0.272in"
             id="ad" />
        </g>
      </g>
    </g>
  </g>
  <g
     inkscape:groupmode="layer"
     id="layer4"
     inkscape:label="1 - DATE &amp; TIME"
     style="display:inline">
    <g
       inkscape:label="Date &amp; TIme"
       style="display:inline;fill:none;stroke:#000000;stroke-linecap:round;stroke-linejoin:round"
       transform="matrix(0.40453678,0,0,0.40453678,14.887099,101.76093)"
       id="g4">
      <g
         id="an"
         transform="translate(145.15853,50)">
        <g
           id="apo">
          <path
             d="M 140,318 Q 105,295 87.5,263 70,231 67,197 64,163 75.5,130 87,97 110.5,71 134,45 168,29.5 202,14 244,14 q 77,1 144,29 67,28 127,73.5 60,45.5 113,104.5 53,59 101,121 48,62 92,122.5 Q 865,525 907,575 891,549 873,506.5 855,464 837,413 819,362 802,306 785,250 772,197.5 759,145 750.5,99.5 742,54 740,24 805,138 866.5,226 928,314 991,385 1054,456 1119.5,514.5 1185,573 1258,628 1229,603 1200,561.5 1171,520 1146,470 1121,420 1101.5,364 1082,308 1071.5,253.5 1061,199 1061.5,148.5 1062,98 1076,59 q 8,-19 18.5,-27 10.5,-8 22.5,-8 12,0 25.5,7 13.5,7 25.5,17 12,10 22,21 10,11 17,19 M 933,580 q -8,-5 -15.5,-5.5 Q 910,574 907,575 834,598 759,615.5 684,633 607,633 511,633 458,582 405,531 392,445"
             transform="scale(0.04,-0.04)"
             style="stroke-width:0.2656in"
             id="aya" />
          <path
             d="m 249,212 q -3,21 -22.5,29.5 Q 207,250 187,250 163,250 140,237 117,224 99,203 81,182 68.5,156.5 56,131 53,106 52,96 52,82 52,68 55,54.5 58,41 65,31 72,21 84,20 101,18 118.5,31 136,44 150,62 182,101 213.5,150.5 245,200 271,239 260,222 250,207 240,192 227,166 211,133 201.5,100.5 192,68 202,30 q 4,-15 16,-15 14,0 30.5,15 16.5,15 23.5,28"
             transform="matrix(0.04,0,0,-0.04,48.76,0)"
             style="stroke-width:0.2656in"
             id="aQx" />
          <path
             d="m 35,205 q 3,3 9.5,10.5 6.5,7.5 15,15 8.5,7.5 17,13 8.5,5.5 14.5,5.5 10,0 10,-17 1,-25 -3,-53.5 Q 94,150 87,122 80,94 71.5,67.5 63,41 55,18 q 5,17 19,54 14,37 34,75 20,38 44,66.5 24,28.5 47,28.5 9,0 16,-6 5,-4 7.5,-12.5 Q 225,215 219,206"
             transform="matrix(0.04,0,0,-0.04,60.52,0)"
             style="stroke-width:0.2656in"
             id="aeQ" />
          <path
             d="m 178,181 q 3,4 7.5,10.5 4.5,6.5 7.5,13.5 3,7 3,14 0,7 -5,12 -13,13 -32,13 -20,0 -40,-12 Q 99,220 89,205 80,192 70,168.5 60,145 53,119 46,93 45.5,69 45,45 57,30 72,12 93,12 q 13,0 26.5,6.5 13.5,6.5 25.5,16 12,9.5 23,20.5 11,11 18,20"
             transform="matrix(0.04,0,0,-0.04,68.32,0)"
             style="stroke-width:0.2656in"
             id="ao" />
          <path
             d="m 536,671 q 7,13 9,26 2,13 -3.5,24 -5.5,11 -19.5,18 -14,7 -40,7 -55,0 -106.5,-42.5 Q 324,661 278,594 232,527 193,444 154,361 123.5,280 93,199 72,129 51,59 42,17 54,37 62.5,55.5 71,74 80,92 q 9,18 20.5,36 11.5,18 28.5,36 22,23 41.5,42.5 19.5,19.5 53.5,28.5 5,2 8.5,2 h 5.5 q 16,0 12,-16 -4,-16 -15,-43 Q 224,151 213,115.5 202,80 204,41 q 1,-15 6,-21 5,-6 13,-6 14,0 31,14 17,14 24,29"
             transform="matrix(0.04,0,0,-0.04,76.44,0)"
             style="stroke-width:0.2656in"
             id="ag" />
        </g>
        <g
           id="aue">
          <path
             d="m 74,255 q 16,-2 37.5,3 21.5,5 42,13.5 20.5,8.5 37.5,19.5 17,11 23,22 Q 180,270 159.5,234.5 139,199 124.5,164.5 110,130 97.5,94 85,58 66,13"
             transform="matrix(0.04,0,0,-0.04,98.12,0)"
             style="stroke-width:0.2656in"
             id="aiy" />
          <path
             d="M 271,146 Q 261,124 247,104 233,84 215.5,69 198,54 176.5,45 155,36 129,36 104,36 85,48 66,60 64,89 q -2,34 5.5,71 7.5,37 23.5,70 15,31 46,50.5 31,19.5 62,19.5 16,0 30,-5.5 14,-5.5 24.5,-18 Q 266,264 272,244.5 278,225 277,197 276,149 260,93.5 244,38 215.5,-10.5 187,-59 147.5,-93 108,-127 59,-133 q -9,-1 -17,-1.5 -8,-0.5 -16,-0.5 -24,0 -38.5,7 -14.5,7 -24.5,25"
             transform="matrix(0.04,0,0,-0.04,105.68,0)"
             style="stroke-width:0.2656in"
             id="amy" />
          <path
             d="M 171,369 Q 166,358 153,331 140,304 125,269 110,234 95,195 80,156 70.5,121.5 61,87 60,60.5 59,34 71,23 q 8,-8 21,-8 10,0 20.5,5 10.5,5 20.5,13 10,8 18,17.5 8,9.5 13,19.5 M 51,232 q 21,5 39,8 18,3 35.5,5 17.5,2 36,2 18.5,0 42.5,-1"
             transform="matrix(0.04,0,0,-0.04,117.84,0)"
             style="stroke-width:0.2656in"
             id="aiz" />
          <path
             d="m 536,671 q 7,13 9,26 2,13 -3.5,24 -5.5,11 -19.5,18 -14,7 -40,7 -55,0 -106.5,-42.5 Q 324,661 278,594 232,527 193,444 154,361 123.5,280 93,199 72,129 51,59 42,17 54,37 62.5,55.5 71,74 80,92 q 9,18 20.5,36 11.5,18 28.5,36 22,23 41.5,42.5 19.5,19.5 53.5,28.5 5,2 8.5,2 h 5.5 q 16,0 12,-16 -4,-16 -15,-43 Q 224,151 213,115.5 202,80 204,41 q 1,-15 6,-21 5,-6 13,-6 14,0 31,14 17,14 24,29"
             transform="matrix(0.04,0,0,-0.04,124.68,0)"
             style="stroke-width:0.2656in"
             id="ayh" />
          <path
             d="M 63,44 Q 68,26 66.5,6.5 65,-13 57.5,-30 50,-47 36.5,-61 23,-75 5,-83"
             transform="matrix(0.04,0,0,-0.04,136.36,0)"
             style="stroke-width:0.2656in"
             id="ahB" />
        </g>
        <g
           id="ael">
          <path
             d="M 431,431 Q 420,461 400.5,474 381,487 357,487 331,487 302.5,475.5 274,464 248,446.5 222,429 200.5,408 179,387 167,367 148,334 131,305 114,276 101,247.5 88,219 79,188 70,157 66,121 65,110 66.5,93 68,76 73.5,59.5 79,43 89.5,30 100,17 117,14 145,9 175,25.5 205,42 228,67 242,81 254.5,113.5 267,146 271,180 q 4,34 -4,62 -8,28 -36,33 -24,5 -47,-0.5 -23,-5.5 -43,-18 Q 121,244 105,225.5 89,207 78,185"
             transform="matrix(0.04,0,0,-0.04,150.84,0)"
             style="stroke-width:0.2656in"
             id="ak" />
          <path
             d="m 60,226 q 3,3 12,10.5 9,7.5 19.5,15 10.5,7.5 20,13.5 9.5,6 13.5,6 5,0 3,-6 -7,-27 -21,-63.5 Q 93,165 77,124 61,83 44.5,40.5 28,-2 16,-41 1,-89 -10,-135 q -11,-46 -8,-97 7,0 13.5,-1 6.5,-1 14.5,-0.5 8,0.5 18,4 10,3.5 25,11.5 M 31,39 Q 43,26 58.5,18 74,10 94,10 q 23,0 51,16.5 28,16.5 52,39.5 13,13 23,41.5 10,28.5 12.5,58 2.5,29.5 -6,51 Q 218,238 195,236 177,235 160,222 143,209 128,192 113,175 100,157.5 87,140 76,129"
             transform="matrix(0.04,0,0,-0.04,162.68,0)"
             style="stroke-width:0.2656in"
             id="aizT" />
          <path
             d="M 67,50 Q 62,42 57.5,35 53,28 48,21"
             transform="matrix(0.04,0,0,-0.04,173.12,0)"
             style="stroke-width:0.2656in"
             id="adp" />
          <path
             d="m 39,199 q 4,7 11.5,15.5 7.5,8.5 15.5,16 8,7.5 16.5,13 8.5,5.5 14.5,5.5 10,0 9,-21 Q 102,167 81.5,115 61,63 41,12 q 3,14 13,37 10,23 24,49 14,26 31,52.5 17,26.5 35.5,48 18.5,21.5 36.5,35 18,13.5 34,13.5 15,0 18,-16 3,-16 -1,-40.5 -4,-24.5 -13,-54 Q 210,107 200.5,81 191,55 183.5,36 176,17 174,12 q 12,23 29.5,60 17.5,37 39.5,73 22,36 48.5,64 26.5,28 55.5,33 21,3 24,-11.5 3,-14.5 -3,-38 -6,-23.5 -17.5,-52 Q 339,112 331,85.5 323,59 323.5,39.5 324,20 341,15 q 9,-3 18.5,1.5 9.5,4.5 18.5,11.5 9,7 16.5,15 7.5,8 11.5,14"
             transform="matrix(0.04,0,0,-0.04,177.6,0)"
             style="stroke-width:0.2656in"
             id="aQo" />
          <path
             d="M 67,50 Q 62,42 57.5,35 53,28 48,21"
             transform="matrix(0.04,0,0,-0.04,194.12,0)"
             style="stroke-width:0.2656in"
             id="aee" />
        </g>
        <g
           id="ac">
          <path
             d="m 249,212 q -3,21 -22.5,29.5 Q 207,250 187,250 163,250 140,237 117,224 99,203 81,182 68.5,156.5 56,131 53,106 52,96 52,82 52,68 55,54.5 58,41 65,31 72,21 84,20 101,18 118.5,31 136,44 150,62 182,101 213.5,150.5 245,200 271,239 260,222 250,207 240,192 227,166 211,133 201.5,100.5 192,68 202,30 q 4,-15 16,-15 14,0 30.5,15 16.5,15 23.5,28"
             transform="matrix(0.04,0,0,-0.04,208.6,0)"
             style="stroke-width:0.2656in"
             id="agg" />
          <path
             d="M 171,369 Q 166,358 153,331 140,304 125,269 110,234 95,195 80,156 70.5,121.5 61,87 60,60.5 59,34 71,23 q 8,-8 21,-8 10,0 20.5,5 10.5,5 20.5,13 10,8 18,17.5 8,9.5 13,19.5 M 51,232 q 21,5 39,8 18,3 35.5,5 17.5,2 36,2 18.5,0 42.5,-1"
             transform="matrix(0.04,0,0,-0.04,220.36,0)"
             style="stroke-width:0.2656in"
             id="aiax" />
        </g>
        <g
           id="adu">
          <path
             d="m 523,277 q 79,5 161.5,6.5 Q 767,285 855,286 M 98,245 Q 82,222 72.5,197.5 63,173 62.5,148 62,123 71,99 q 9,-24 30,-46 18,-20 44,-28 26,-8 58,-8 35,0 73,8.5 38,8.5 73.5,22 Q 385,61 415,77 q 30,16 48,31 67,55 132,122.5 65,67.5 128.5,133 Q 787,429 849,485.5 911,542 972,575 952,544 931.5,504 911,464 893,418 875,372 861.5,323.5 848,275 841,227 834,179 835.5,134.5 837,90 849,53 q 7,-21 17,-30 10,-9 22,-9 15,0 31,10.5 16,10.5 30.5,25 14.5,14.5 27,30 Q 989,95 996,105 M 468,441 q 14,87 66.5,140.5 Q 587,635 678,635 q 28,0 69,-5.5 41,-5.5 83,-14 42,-8.5 80,-19 38,-10.5 60,-21.5"
             transform="matrix(0.04,0,0,-0.04,237.2,0)"
             style="stroke-width:0.2656in"
             id="aep" />
          <path
             d="m 40,201 q 3,6 10,14.5 7,8.5 15,15.5 8,7 17,12 9,5 15,5 9,0 10,-11 1,-20 -6.5,-50 Q 93,157 82.5,125 72,93 60.5,63.5 49,34 42,14 59,59 83.5,98.5 108,138 131,173 q 9,14 24,26.5 15,12.5 31.5,22 16.5,9.5 32,15 15.5,5.5 25.5,5.5 18,0 11,-16 -3,-7 -10.5,-23.5 Q 237,186 229,164.5 221,143 213,119 205,95 201.5,74 198,53 199.5,37 201,21 212,16 q 6,-3 12,-3 9,0 18,5 9,5 17.5,12 8.5,7 15,14.5 Q 281,52 285,57"
             transform="matrix(0.04,0,0,-0.04,277.04,0)"
             style="stroke-width:0.2656in"
             id="azv" />
          <path
             d="m 40,201 q 3,6 10,14.5 7,8.5 15,15.5 8,7 17,12 9,5 15,5 9,0 10,-11 1,-20 -6.5,-50 Q 93,157 82.5,125 72,93 60.5,63.5 49,34 42,14 59,59 83.5,98.5 108,138 131,173 q 9,14 24,26.5 15,12.5 31.5,22 16.5,9.5 32,15 15.5,5.5 25.5,5.5 18,0 11,-16 -3,-7 -10.5,-23.5 Q 237,186 229,164.5 221,143 213,119 205,95 201.5,74 198,53 199.5,37 201,21 212,16 q 6,-3 12,-3 9,0 18,5 9,5 17.5,12 8.5,7 15,14.5 Q 281,52 285,57"
             transform="matrix(0.04,0,0,-0.04,288.68,0)"
             style="stroke-width:0.2656in"
             id="aiW" />
          <path
             d="m 249,212 q -3,21 -22.5,29.5 Q 207,250 187,250 163,250 140,237 117,224 99,203 81,182 68.5,156.5 56,131 53,106 52,96 52,82 52,68 55,54.5 58,41 65,31 72,21 84,20 101,18 118.5,31 136,44 150,62 182,101 213.5,150.5 245,200 271,239 260,222 250,207 240,192 227,166 211,133 201.5,100.5 192,68 202,30 q 4,-15 16,-15 14,0 30.5,15 16.5,15 23.5,28"
             transform="matrix(0.04,0,0,-0.04,300.32,0)"
             style="stroke-width:0.2656in"
             id="acm" />
          <path
             d="M 146,395 Q 94,334 58,279"
             transform="matrix(0.04,0,0,-0.04,312.08,0)"
             style="stroke-width:0.2656in"
             id="aBW" />
          <path
             d="m 168,192 q 5,12 7.5,18.5 2.5,6.5 4.5,16.5 2,5 -6,13 -10,13 -32,13 -12,0 -25,-5 -13,-5 -22,-14 -9,-9 -12,-22.5 -3,-13.5 3,-30.5 6,-17 19,-36.5 13,-19.5 22.5,-39 Q 137,86 139,66 141,46 124,27 115,17 100,12.5 85,8 68,8 45,8 26,17 7,26 7,44 6,55 11.5,64 17,73 33,86"
             transform="matrix(0.04,0,0,-0.04,316.88,0)"
             style="stroke-width:0.2656in"
             id="aud" />
        </g>
      </g>
      <g
         id="aioT"
         transform="translate(216.25853,100)">
        <g
           id="aun">
          <path
             d="m 74,255 q 16,-2 37.5,3 21.5,5 42,13.5 20.5,8.5 37.5,19.5 17,11 23,22 Q 180,270 159.5,234.5 139,199 124.5,164.5 110,130 97.5,94 85,58 66,13"
             transform="scale(0.04,-0.04)"
             style="stroke-width:0.2656in"
             id="adi" />
          <path
             d="m 82,255 q 11,22 38,36 27,14 54,14 24,0 42,-13 18,-13 20,-42 3,-33 -12.5,-57 Q 208,169 183,152.5 158,136 128,124 98,112 73,103 q 27,7 53,7 35,0 57,-18 22,-18 25,-63 3,-40 -11,-72 Q 183,-75 157.5,-98.5 132,-122 98,-135.5 64,-149 27,-152 h -9 q -24,0 -42,13.5 -18,13.5 -27,36.5"
             transform="matrix(0.04,0,0,-0.04,7.56,0)"
             style="stroke-width:0.2656in"
             id="acz" />
          <path
             d="m 82,255 q 11,22 38,36 27,14 54,14 24,0 42,-13 18,-13 20,-42 3,-33 -12.5,-57 Q 208,169 183,152.5 158,136 128,124 98,112 73,103 q 27,7 53,7 35,0 57,-18 22,-18 25,-63 3,-40 -11,-72 Q 183,-75 157.5,-98.5 132,-122 98,-135.5 64,-149 27,-152 h -9 q -24,0 -42,13.5 -18,13.5 -27,36.5"
             transform="matrix(0.04,0,0,-0.04,17.68,0)"
             style="stroke-width:0.2656in"
             id="air" />
          <path
             d="m 70,184 q 6,15 10.5,29 4.5,14 9,26 4.5,12 10.5,21.5 6,9.5 16,16.5 12,8 33.5,11 21.5,3 45.5,3 31,0 60,-3.5 29,-3.5 43,-6.5 11,-2 18.5,-4 7.5,-2 13.5,-2 10,0 16,6.5 6,6.5 14,21.5 Q 348,272 324,240 300,208 274,172 246,134 211,93.5 176,53 140.5,12 105,-29 73,-69 41,-109 20,-145"
             transform="matrix(0.04,0,0,-0.04,27.8,0)"
             style="stroke-width:0.2656in"
             id="ace" />
        </g>
        <g
           id="apT">
          <path
             d="m 488,502 q 21,35 20.5,59.5 Q 508,586 493.5,602 479,618 455,625.5 431,633 407,633 389,633 373,629.5 357,626 346,618 325,604 312.5,585.5 300,567 295,546 q -5,-21 -2,-42.5 3,-21.5 12,-41.5 14,-28 30,-54 16,-26 33,-50.5 17,-24.5 33,-48.5 16,-24 29,-48 12,-24 16,-50.5 Q 450,184 445.5,158 441,132 428.5,108.5 416,85 395,67 362,39 323,24.5 284,10 243,10 207,10 171.5,22 136,34 105,58 86,73 78,96.5 70,120 72.5,144.5 75,169 87,191 q 12,22 32,34"
             transform="matrix(0.04,0,0,-0.04,50.84,0)"
             style="stroke-width:0.2656in"
             id="ame" />
          <path
             d="m 60,226 q 3,3 12,10.5 9,7.5 19.5,15 10.5,7.5 20,13.5 9.5,6 13.5,6 5,0 3,-6 -7,-27 -21,-63.5 Q 93,165 77,124 61,83 44.5,40.5 28,-2 16,-41 1,-89 -10,-135 q -11,-46 -8,-97 7,0 13.5,-1 6.5,-1 14.5,-0.5 8,0.5 18,4 10,3.5 25,11.5 M 31,39 Q 43,26 58.5,18 74,10 94,10 q 23,0 51,16.5 28,16.5 52,39.5 13,13 23,41.5 10,28.5 12.5,58 2.5,29.5 -6,51 Q 218,238 195,236 177,235 160,222 143,209 128,192 113,175 100,157.5 87,140 76,129"
             transform="matrix(0.04,0,0,-0.04,70.04,0)"
             style="stroke-width:0.2656in"
             id="aTo" />
          <path
             d="m 35,205 q 3,3 9.5,10.5 6.5,7.5 15,15 8.5,7.5 17,13 8.5,5.5 14.5,5.5 10,0 10,-17 1,-25 -3,-53.5 Q 94,150 87,122 80,94 71.5,67.5 63,41 55,18 q 5,17 19,54 14,37 34,75 20,38 44,66.5 24,28.5 47,28.5 9,0 16,-6 5,-4 7.5,-12.5 Q 225,215 219,206"
             transform="matrix(0.04,0,0,-0.04,80.48,0)"
             style="stroke-width:0.2656in"
             id="aQQ" />
          <path
             d="M 207,398 Q 187,380 171.5,357.5 156,335 140,313 M 50,192 Q 68,209 88.5,224.5 109,240 131,249 126,243 116,223.5 106,204 94,178.5 82,153 71.5,125 61,97 55,73 49,49 51,32.5 53,16 66,14 76,12 86.5,16.5 97,21 106,29 115,37 122.5,46.5 130,56 135,63"
             transform="matrix(0.04,0,0,-0.04,88.28,0)"
             style="stroke-width:0.2656in"
             id="acx" />
          <path
             d="m 40,201 q 3,6 10,14.5 7,8.5 15,15.5 8,7 17,12 9,5 15,5 9,0 10,-11 1,-20 -6.5,-50 Q 93,157 82.5,125 72,93 60.5,63.5 49,34 42,14 59,59 83.5,98.5 108,138 131,173 q 9,14 24,26.5 15,12.5 31.5,22 16.5,9.5 32,15 15.5,5.5 25.5,5.5 18,0 11,-16 -3,-7 -10.5,-23.5 Q 237,186 229,164.5 221,143 213,119 205,95 201.5,74 198,53 199.5,37 201,21 212,16 q 6,-3 12,-3 9,0 18,5 9,5 17.5,12 8.5,7 15,14.5 Q 281,52 285,57"
             transform="matrix(0.04,0,0,-0.04,94.24,0)"
             style="stroke-width:0.2656in"
             id="acg" />
          <path
             d="M 228,267 Q 214,249 196,244.5 178,240 158.5,239 139,238 120,236.5 101,235 84,221 72,211 61.5,186 51,161 48.5,135 46,109 53.5,87.5 61,66 85,62 102,59 114.5,69.5 127,80 144,95 q 14,12 21.5,30.5 7.5,18.5 8.5,39 1,20.5 -4,40.5 -5,20 -17,33 M 144,95 Q 139,71 130,58.5 121,46 119,27 117,6 123.5,-12 130,-30 139,-47.5 148,-65 156,-83 q 8,-18 9,-39 2,-44 -20,-76.5 -22,-32.5 -69,-37.5 -5,-1 -9.5,-1 H 57 q -23,0 -49,5.5 -26,5.5 -48.5,17 -22.5,11.5 -37.5,30 -15,18.5 -17,44.5 -2,38 14,60 16,22 53,36"
             transform="matrix(0.04,0,0,-0.04,105.88,0)"
             style="stroke-width:0.2656in"
             id="anr" />
        </g>
        <g
           id="as">
          <path
             d="m 698,494 q 6,22 10,44 4,22 1,40 -3,18 -16,30.5 -13,12.5 -40,15.5 -35,5 -71.5,-7 Q 545,605 510,564 467,513 442,451 417,389 397,324 377,259 353.5,194.5 330,130 289,75 277,59 259,47 241,35 220,27.5 199,20 177.5,16 156,12 137,12 125,12 109.5,14.5 94,17 80,22.5 66,28 56.5,37 47,46 48,59 52,93 74.5,104.5 97,116 125,116 q 24,0 47,-5 23,-5 34,-8 33,-8 61,-20.5 28,-12.5 55,-25 27,-12.5 55,-22.5 28,-10 62,-13 14,-2 26,-2 h 23 q 36,0 59.5,6 23.5,6 40,17.5 Q 604,55 616,71.5 628,88 641,109"
             transform="matrix(0.04,0,0,-0.04,124.28,0)"
             style="stroke-width:0.2656in"
             id="alJ" />
          <path
             d="m 249,212 q -3,21 -22.5,29.5 Q 207,250 187,250 163,250 140,237 117,224 99,203 81,182 68.5,156.5 56,131 53,106 52,96 52,82 52,68 55,54.5 58,41 65,31 72,21 84,20 101,18 118.5,31 136,44 150,62 182,101 213.5,150.5 245,200 271,239 260,222 250,207 240,192 227,166 211,133 201.5,100.5 192,68 202,30 q 4,-15 16,-15 14,0 30.5,15 16.5,15 23.5,28"
             transform="matrix(0.04,0,0,-0.04,150.56,0)"
             style="stroke-width:0.2656in"
             id="acW" />
          <path
             d="m 40,201 q 3,6 10,14.5 7,8.5 15,15.5 8,7 17,12 9,5 15,5 9,0 10,-11 1,-20 -6.5,-50 Q 93,157 82.5,125 72,93 60.5,63.5 49,34 42,14 59,59 83.5,98.5 108,138 131,173 q 9,14 24,26.5 15,12.5 31.5,22 16.5,9.5 32,15 15.5,5.5 25.5,5.5 18,0 11,-16 -3,-7 -10.5,-23.5 Q 237,186 229,164.5 221,143 213,119 205,95 201.5,74 198,53 199.5,37 201,21 212,16 q 6,-3 12,-3 9,0 18,5 9,5 17.5,12 8.5,7 15,14.5 Q 281,52 285,57"
             transform="matrix(0.04,0,0,-0.04,162.32,0)"
             style="stroke-width:0.2656in"
             id="aki" />
          <path
             d="m 64,139 q 13,2 34,6.5 21,4.5 41,11.5 20,7 35,17.5 15,10.5 17,24.5 2,25 -8.5,35.5 Q 172,245 155,245 138,245 119.5,235 101,225 90,208 82,197 72.5,176 63,155 56,131.5 49,108 46,85.5 43,63 49,49 58,29 71.5,20.5 85,12 100,12 123,12 145,25.5 167,39 180,55"
             transform="matrix(0.04,0,0,-0.04,173.96,0)"
             style="stroke-width:0.2656in"
             id="avF" />
        </g>
      </g>
      <g
         id="auv"
         transform="translate(210.57853,150)">
        <g
           id="aQa">
          <path
             d="M 328,423 Q 364,526 436.5,579.5 509,633 618,633 q 49,0 93,-12.5 44,-12.5 77,-39 33,-26.5 51,-68 Q 857,472 855,415 854,375 834,342 814,309 783.5,285 753,261 715.5,248 678,235 641,235 q -38,0 -65,7.5 -27,7.5 -46.5,23.5 -19.5,16 -33.5,41 -14,25 -25,61 M 749,677 Q 729,671 714,664.5 699,658 687,649 675,640 663.5,628 652,616 640,599 598,540 577,475.5 556,411 536.5,345 517,279 490,214.5 463,150 409,92 379,60 328.5,38 278,16 224,16 195,16 166.5,24 138,32 112,49 82,71 70,103.5 58,136 61.5,169 65,202 82,230.5 99,259 127,272"
             transform="scale(0.04,-0.04)"
             style="stroke-width:0.2656in"
             id="alW" />
          <path
             d="m 466,674 q 4,16 0.5,30 -3.5,14 -25.5,16 -34,2 -64.5,-14 Q 346,690 319,663.5 292,637 269,604.5 246,572 226,540 213,520 193.5,482 174,444 153,396.5 132,349 111.5,297 91,245 76,196.5 61,148 53.5,107.5 46,67 51,44 57,15 73,15 q 8,0 17.5,7 9.5,7 18.5,15.5 9,8.5 15.5,16.5 6.5,8 9.5,10"
             transform="matrix(0.04,0,0,-0.04,31.32,0)"
             style="stroke-width:0.2656in"
             id="avx" />
          <path
             d="m 64,139 q 13,2 34,6.5 21,4.5 41,11.5 20,7 35,17.5 15,10.5 17,24.5 2,25 -8.5,35.5 Q 172,245 155,245 138,245 119.5,235 101,225 90,208 82,197 72.5,176 63,155 56,131.5 49,108 46,85.5 43,63 49,49 58,29 71.5,20.5 85,12 100,12 123,12 145,25.5 167,39 180,55"
             transform="matrix(0.04,0,0,-0.04,36.68,0)"
             style="stroke-width:0.2656in"
             id="ayu" />
          <path
             d="m 249,212 q -3,21 -22.5,29.5 Q 207,250 187,250 163,250 140,237 117,224 99,203 81,182 68.5,156.5 56,131 53,106 52,96 52,82 52,68 55,54.5 58,41 65,31 72,21 84,20 101,18 118.5,31 136,44 150,62 182,101 213.5,150.5 245,200 271,239 260,222 250,207 240,192 227,166 211,133 201.5,100.5 192,68 202,30 q 4,-15 16,-15 14,0 30.5,15 16.5,15 23.5,28"
             transform="matrix(0.04,0,0,-0.04,44.92,0)"
             style="stroke-width:0.2656in"
             id="ane" />
          <path
             d="m 168,192 q 5,12 7.5,18.5 2.5,6.5 4.5,16.5 2,5 -6,13 -10,13 -32,13 -12,0 -25,-5 -13,-5 -22,-14 -9,-9 -12,-22.5 -3,-13.5 3,-30.5 6,-17 19,-36.5 13,-19.5 22.5,-39 Q 137,86 139,66 141,46 124,27 115,17 100,12.5 85,8 68,8 45,8 26,17 7,26 7,44 6,55 11.5,64 17,73 33,86"
             transform="matrix(0.04,0,0,-0.04,56.68,0)"
             style="stroke-width:0.2656in"
             id="auz" />
          <path
             d="m 64,139 q 13,2 34,6.5 21,4.5 41,11.5 20,7 35,17.5 15,10.5 17,24.5 2,25 -8.5,35.5 Q 172,245 155,245 138,245 119.5,235 101,225 90,208 82,197 72.5,176 63,155 56,131.5 49,108 46,85.5 43,63 49,49 58,29 71.5,20.5 85,12 100,12 123,12 145,25.5 167,39 180,55"
             transform="matrix(0.04,0,0,-0.04,64.2,0)"
             style="stroke-width:0.2656in"
             id="azg" />
        </g>
        <g
           id="aay">
          <path
             d="M 127,239 Q 108,232 92.5,213 77,194 69,169.5 61,145 61,118 61,91 73,68.5 85,46 109.5,31.5 134,17 174,17 h 7 q 55,2 91.5,14 36.5,12 62.5,30.5 26,18.5 45,43 19,24.5 40,51.5 27,35 44,73 17,38 29,77.5 12,39.5 21.5,79.5 9.5,40 21.5,79 12,39 29,76 17,37 44,71 20,26 43.5,38 23.5,12 59.5,24 M 317,484 q 61,80 137,113 76,33 174,33 80,0 119.5,-35.5 Q 787,559 795,486 800,448 786.5,416.5 773,385 748.5,363 724,341 691.5,329 659,317 624,317 q -21,0 -38,4 5,-57 21.5,-118.5 Q 624,141 660,76 676,48 704.5,33 733,18 764,18 q 28,0 53,13 25,13 39,41"
             transform="matrix(0.04,0,0,-0.04,82.44,0)"
             style="stroke-width:0.2656in"
             id="ali" />
          <path
             d="m 488,502 q 21,35 20.5,59.5 Q 508,586 493.5,602 479,618 455,625.5 431,633 407,633 389,633 373,629.5 357,626 346,618 325,604 312.5,585.5 300,567 295,546 q -5,-21 -2,-42.5 3,-21.5 12,-41.5 14,-28 30,-54 16,-26 33,-50.5 17,-24.5 33,-48.5 16,-24 29,-48 12,-24 16,-50.5 Q 450,184 445.5,158 441,132 428.5,108.5 416,85 395,67 362,39 323,24.5 284,10 243,10 207,10 171.5,22 136,34 105,58 86,73 78,96.5 70,120 72.5,144.5 75,169 87,191 q 12,22 32,34"
             transform="matrix(0.04,0,0,-0.04,116.6,0)"
             style="stroke-width:0.2656in"
             id="ahQ" />
          <path
             d="m 75,391 q 12,39 25.5,80.5 13.5,41.5 34.5,76 21,34.5 50.5,57.5 29.5,23 72.5,24 50,2 83.5,-18.5 33.5,-20.5 54,-56 20.5,-35.5 30,-83 9.5,-47.5 11,-99 Q 438,321 432.5,268 427,215 418,167.5 409,120 398.5,82.5 388,45 378,23 q 30,34 69,67 39,33 79,68.5 40,35.5 78,75 38,39.5 67,85.5 25,39 43,81.5 18,42.5 18,88.5 0,19 -2.5,40.5 -2.5,21.5 -10,40 -7.5,18.5 -21.5,33 -14,14.5 -37,20.5 -3,1 -11,1 -18,0 -37.5,-14.5 Q 593,595 580,569"
             transform="matrix(0.04,0,0,-0.04,135.8,0)"
             style="stroke-width:0.2656in"
             id="aiu" />
          <path
             d="M 328,423 Q 364,526 436.5,579.5 509,633 618,633 q 49,0 93,-12.5 44,-12.5 77,-39 33,-26.5 51,-68 Q 857,472 855,415 854,375 834,342 814,309 783.5,285 753,261 715.5,248 678,235 641,235 q -38,0 -65,7.5 -27,7.5 -46.5,23.5 -19.5,16 -33.5,41 -14,25 -25,61 M 749,677 Q 729,671 714,664.5 699,658 687,649 675,640 663.5,628 652,616 640,599 598,540 577,475.5 556,411 536.5,345 517,279 490,214.5 463,150 409,92 379,60 328.5,38 278,16 224,16 195,16 166.5,24 138,32 112,49 82,71 70,103.5 58,136 61.5,169 65,202 82,230.5 99,259 127,272"
             transform="matrix(0.04,0,0,-0.04,162.24,0)"
             style="stroke-width:0.2656in"
             id="aFk" />
        </g>
      </g>
    </g>
  </g>
  <g
     inkscape:groupmode="layer"
     id="layer5"
     inkscape:label="1 - INVITED"
     style="display:inline">
    <g
       inkscape:label="INVITED"
       style="display:inline;fill:none;stroke:#000000;stroke-linecap:round;stroke-linejoin:round"
       transform="matrix(0.46591857,0,0,0.46591857,35.236204,43.477333)"
       id="g5">
      <g
         id="aQW"
         transform="translate(138.02721,50)">
        <g
           id="axe">
          <path
             d="m 306,557 q 9,10 20.5,21.5 11.5,11.5 25.5,22 14,10.5 29,17.5 15,7 30,7 14,0 25,-7 16,-9 17,-33.5 1,-24.5 -7.5,-59 -8.5,-34.5 -23,-75 Q 408,410 394.5,369 381,328 371.5,290 362,252 363,222 q 1,-30 16,-48 15,-18 50,-19 26,0 52,11 26,11 51.5,28.5 25.5,17.5 49,39 23.5,21.5 42.5,42.5 33,35 61.5,75 28.5,40 55,82 Q 767,475 791,517.5 815,560 838,600 806,530 768,455 730,380 686,305.5 642,231 593,159 544,87 489,22 468,-3 435.5,-27 403,-51 364,-70 325,-89 282.5,-101 240,-113 200,-113 q -33,0 -62.5,9.5 Q 108,-94 85,-73 54,-45 38.5,-11.5 23,22 23,57 q 0,35 14.5,70 14.5,35 42.5,67 23,26 60,38.5 37,12.5 75,22.5"
             transform="scale(0.04,-0.04)"
             style="stroke-width:0.2656in"
             id="axi" />
          <path
             d="m 169,238 q 10,-4 16,-13 6,-9 9,-20 3,-11 4,-22.5 1,-11.5 0,-21.5 -1,-19 -9.5,-44 Q 180,92 166.5,69.5 153,47 136,32 119,17 99,17 92,17 84,20 67,26 59,40 51,54 49.5,72.5 48,91 52.5,112 57,133 64,152 q 7,19 15,35 8,16 15,24 11,13 24,22.5 13,9.5 29,9.5 9,0 22,-5"
             transform="matrix(0.04,0,0,-0.04,26.48,0)"
             style="stroke-width:0.2656in"
             id="ahc" />
          <path
             d="m 47,192 q 17,20 40,34 23,14 43,25 Q 115,236 99.5,208 84,180 72,148.5 60,117 54.5,87 49,57 55,38 61,24 78,24 92,24 107.5,32.5 123,41 131,51 164,96 200.5,144.5 237,193 262,239 256,224 242,192 228,160 218,124.5 208,89 207.5,58 207,27 227,13 q 2,-2 7,-2 7,0 15,5.5 8,5.5 15.5,12.5 7.5,7 13.5,14 6,7 9,11"
             transform="matrix(0.04,0,0,-0.04,35.48,0)"
             style="stroke-width:0.2656in"
             id="amv" />
          <path
             d="M 146,395 Q 94,334 58,279"
             transform="matrix(0.04,0,0,-0.04,47.44,0)"
             style="stroke-width:0.2656in"
             id="ar" />
          <path
             d="m 35,205 q 3,3 9.5,10.5 6.5,7.5 15,15 8.5,7.5 17,13 8.5,5.5 14.5,5.5 10,0 10,-17 1,-25 -3,-53.5 Q 94,150 87,122 80,94 71.5,67.5 63,41 55,18 q 5,17 19,54 14,37 34,75 20,38 44,66.5 24,28.5 47,28.5 9,0 16,-6 5,-4 7.5,-12.5 Q 225,215 219,206"
             transform="matrix(0.04,0,0,-0.04,52.24,0)"
             style="stroke-width:0.2656in"
             id="aiJ" />
          <path
             d="m 64,139 q 13,2 34,6.5 21,4.5 41,11.5 20,7 35,17.5 15,10.5 17,24.5 2,25 -8.5,35.5 Q 172,245 155,245 138,245 119.5,235 101,225 90,208 82,197 72.5,176 63,155 56,131.5 49,108 46,85.5 43,63 49,49 58,29 71.5,20.5 85,12 100,12 123,12 145,25.5 167,39 180,55"
             transform="matrix(0.04,0,0,-0.04,60.04,0)"
             style="stroke-width:0.2656in"
             id="ahy" />
        </g>
        <g
           id="aWp">
          <path
             d="M 207,398 Q 187,380 171.5,357.5 156,335 140,313 M 50,192 Q 68,209 88.5,224.5 109,240 131,249 126,243 116,223.5 106,204 94,178.5 82,153 71.5,125 61,97 55,73 49,49 51,32.5 53,16 66,14 76,12 86.5,16.5 97,21 106,29 115,37 122.5,46.5 130,56 135,63"
             transform="matrix(0.04,0,0,-0.04,78.28,0)"
             style="stroke-width:0.2656in"
             id="acgn" />
          <path
             d="m 40,201 q 3,6 10,14.5 7,8.5 15,15.5 8,7 17,12 9,5 15,5 9,0 10,-11 1,-20 -6.5,-50 Q 93,157 82.5,125 72,93 60.5,63.5 49,34 42,14 59,59 83.5,98.5 108,138 131,173 q 9,14 24,26.5 15,12.5 31.5,22 16.5,9.5 32,15 15.5,5.5 25.5,5.5 18,0 11,-16 -3,-7 -10.5,-23.5 Q 237,186 229,164.5 221,143 213,119 205,95 201.5,74 198,53 199.5,37 201,21 212,16 q 6,-3 12,-3 9,0 18,5 9,5 17.5,12 8.5,7 15,14.5 Q 281,52 285,57"
             transform="matrix(0.04,0,0,-0.04,84.24,0)"
             style="stroke-width:0.2656in"
             id="axd" />
          <path
             d="m 35,210 q 3,4 10,9.5 7,5.5 15,10.5 8,5 17,8.5 9,3.5 16,3.5 8,0 13,-5 6,-5 5.5,-22 Q 111,198 107,175 103,152 96.5,126 90,100 83.5,77 77,54 71,36 65,18 62,11 V 9 Q 79,10 101.5,20.5 124,31 148,48 q 24,17 46,39 22,22 38,46 16,24 22,48 6,24 -2,45 -9,20 -22,20 -9,0 -18,-7 -9,-7 -17,-18"
             transform="matrix(0.04,0,0,-0.04,95.88,0)"
             style="stroke-width:0.2656in"
             id="aJz" />
          <path
             d="M 207,398 Q 187,380 171.5,357.5 156,335 140,313 M 50,192 Q 68,209 88.5,224.5 109,240 131,249 126,243 116,223.5 106,204 94,178.5 82,153 71.5,125 61,97 55,73 49,49 51,32.5 53,16 66,14 76,12 86.5,16.5 97,21 106,29 115,37 122.5,46.5 130,56 135,63"
             transform="matrix(0.04,0,0,-0.04,106.72,0)"
             style="stroke-width:0.2656in"
             id="alii" />
          <path
             d="M 171,369 Q 166,358 153,331 140,304 125,269 110,234 95,195 80,156 70.5,121.5 61,87 60,60.5 59,34 71,23 q 8,-8 21,-8 10,0 20.5,5 10.5,5 20.5,13 10,8 18,17.5 8,9.5 13,19.5 M 51,232 q 21,5 39,8 18,3 35.5,5 17.5,2 36,2 18.5,0 42.5,-1"
             transform="matrix(0.04,0,0,-0.04,112.68,0)"
             style="stroke-width:0.2656in"
             id="ayF" />
          <path
             d="m 64,139 q 13,2 34,6.5 21,4.5 41,11.5 20,7 35,17.5 15,10.5 17,24.5 2,25 -8.5,35.5 Q 172,245 155,245 138,245 119.5,235 101,225 90,208 82,197 72.5,176 63,155 56,131.5 49,108 46,85.5 43,63 49,49 58,29 71.5,20.5 85,12 100,12 123,12 145,25.5 167,39 180,55"
             transform="matrix(0.04,0,0,-0.04,119.52,0)"
             style="stroke-width:0.2656in"
             id="aBa" />
          <path
             d="m 225,234 q 9,-13 7.5,-29.5 Q 231,188 224,170.5 217,153 206,136.5 195,120 185,106 174,91 162,76 150,61 136.5,49 123,37 109,29 95,21 80,21 72,21 68,22 54,26 50.5,46.5 47,67 50.5,93 q 3.5,26 13,53 9.5,27 21.5,44 9,13 21.5,24 12.5,11 27,19.5 14.5,8.5 29,13 14.5,4.5 27.5,4.5 24,0 35,-17 M 278,65 Q 276,56 268.5,47 261,38 251,30.5 241,23 231,18 q -10,-5 -18,-5 -16,0 -15,19 2,27 9.5,64 7.5,37 18.5,78 11,41 25,84 14,43 28.5,82.5 14.5,39.5 28.5,72.5 14,33 25,55 18,34 45,80.5 27,46.5 60.5,89 33.5,42.5 73.5,72 40,29.5 84,29.5 h 10 q 17,-2 19,-15 2,-13 -3,-31"
             transform="matrix(0.04,0,0,-0.04,127.76,0)"
             style="stroke-width:0.2656in"
             id="aek" />
        </g>
        <g
           id="aJF">
          <path
             d="M 171,369 Q 166,358 153,331 140,304 125,269 110,234 95,195 80,156 70.5,121.5 61,87 60,60.5 59,34 71,23 q 8,-8 21,-8 10,0 20.5,5 10.5,5 20.5,13 10,8 18,17.5 8,9.5 13,19.5 M 51,232 q 21,5 39,8 18,3 35.5,5 17.5,2 36,2 18.5,0 42.5,-1"
             transform="matrix(0.04,0,0,-0.04,149.16,0)"
             style="stroke-width:0.2656in"
             id="auF" />
          <path
             d="m 169,238 q 10,-4 16,-13 6,-9 9,-20 3,-11 4,-22.5 1,-11.5 0,-21.5 -1,-19 -9.5,-44 Q 180,92 166.5,69.5 153,47 136,32 119,17 99,17 92,17 84,20 67,26 59,40 51,54 49.5,72.5 48,91 52.5,112 57,133 64,152 q 7,19 15,35 8,16 15,24 11,13 24,22.5 13,9.5 29,9.5 9,0 22,-5"
             transform="matrix(0.04,0,0,-0.04,156,0)"
             style="stroke-width:0.2656in"
             id="aie" />
        </g>
      </g>
    </g>
  </g>
  <plotdata
     application="nextdraw"
     auto_rot="0"
     handling="0"
     hiding="0"
     layer="-2"
     model="9"
     optim="0"
     pause_dist="-25400"
     pause_ref="-25400"
     pause_warn="0"
     plob_version="n/a"
     rand_seed="1"
     rand_start="0"
     row="0" />
</svg>
