<?xml version="1.0" encoding="UTF-8" standalone="no"?>
<!-- Created with Inkscape (http://www.inkscape.org/) -->

<svg
   width="11in"
   height="8.5in"
   viewBox="0 0 279.4 215.9"
   version="1.1"
   id="svg1"
   xml:space="preserve"
   inkscape:version="1.4.2 (f4327f4, 2025-05-13)"
   sodipodi:docname="thomas-outside-brown.svg"
   xmlns:inkscape="http://www.inkscape.org/namespaces/inkscape"
   xmlns:sodipodi="http://sodipodi.sourceforge.net/DTD/sodipodi-0.dtd"
   xmlns="http://www.w3.org/2000/svg"
   xmlns:svg="http://www.w3.org/2000/svg"
   xmlns:ns0="https://bantam.tools/nd"><sodipodi:namedview
     id="namedview1"
     pagecolor="#ffffff"
     bordercolor="#000000"
     borderopacity="0.25"
     inkscape:showpageshadow="2"
     inkscape:pageopacity="0.0"
     inkscape:pagecheckerboard="0"
     inkscape:deskcolor="#d1d1d1"
     inkscape:document-units="in"
     inkscape:zoom="0.74564396"
     inkscape:cx="373.50266"
     inkscape:cy="361.43255"
     inkscape:window-width="1920"
     inkscape:window-height="1017"
     inkscape:window-x="1912"
     inkscape:window-y="-8"
     inkscape:window-maximized="1"
     inkscape:current-layer="svg1" /><defs
     id="defs1"><inkscape:path-effect
       effect="spiro"
       id="path-effect3634"
       is_visible="true"
       lpeversion="1" /><clipPath
       clipPathUnits="userSpaceOnUse"
       id="clipPath3629"><rect
         style="fill:none;fill-opacity:1;stroke:none;stroke-width:0.0932351;stroke-opacity:1"
         id="rect3629"
         width="41.181763"
         height="50.706757"
         x="11.231459"
         y="-21.877235"
         transform="scale(-1)" /></clipPath></defs><g
     inkscape:label="Hershey Text"
     style="fill:none;stroke:#000000;stroke-linecap:round;stroke-linejoin:round"
     id="g4082"
     transform="translate(-10.160195)"><g
       transform="translate(85.1165,139.875)"
       id="g4068"><path
         d="m 252,441 -63,31 -31,64 v 31 l 31,63 63,32 h 32 l 62,-32 32,-63 V 504 L 346,378 284,189 220,63 158,0 H 94.5 L 63,31.5 v 63 M 788,567 v 63 l -32,32 h -32 l -62,-32 -64,-63 -62,-95 -64,-62 -62,-32 h -64 m 64,0 31,-63 V 94.5 L 472,31.5 504,0 h 32 l 62,31.5 32,31.5 63,95"
         style="stroke-width:0.4427in"
         transform="scale(0.00635,-0.00635)"
         id="path4066" /><path
         d="M 441,567 V 0 M 158,284 h 566"
         style="stroke-width:0.4427in"
         transform="matrix(0.00635,0,0,-0.00635,7.2009,0)"
         id="path4067" /><path
         d="m 189,441 -63,31 -31.5,64 v 31 l 31.5,63 63,32 h 31 l 64,-32 31,-63 V 504 L 284,346 252,220 189,0 m 63,220 94,252 64,126 31,32 63,32 h 32 l 62,-32 32,-63 V 504 L 598,346 567,220 504,0 m 63,220 95,252 62,126 32,32 63,32 h 31 l 64,-32 31,-63 V 504 L 914,346 850,126 V 31.5 L 882,0 h 32 l 62,31.5 32,31.5 63,95"
         style="stroke-width:0.4427in"
         transform="matrix(0.00635,0,0,-0.00635,14.8018,0)"
         id="path4068" /></g><g
       transform="translate(83.1179,146.049)"
       id="g4077"><path
         d="m 410,472 v -31 l 31,-31 h 63 l 63,31 31,63 v 63 l -31,63 -63,32 H 410 L 315,630 252,567 189,472 158,410 126,284 V 158 L 158,63 189,31.5 252,0 h 63 l 95,31.5 62,63 32,63.5"
         style="stroke-width:0.4427in"
         transform="scale(0.00635,-0.00635)"
         id="path4069" /><path
         d="m 31.5,158 63,94 94.5,158 31,62 32,95 v 63 L 220,662 158,630 126,567 94.5,441 63,252 31.5,0 m 0,0 31.5,94.5 31.5,63.5 63.5,94 62,32 h 64 l 31,-32 V 189 L 284,94.5 v -63 L 315,0 h 31 l 64,31.5 31,31.5 63,95"
         style="stroke-width:0.4427in"
         transform="matrix(0.00635,0,0,-0.00635,4.0005,0)"
         id="path4070" /><path
         d="m 31.5,158 63,94 31.5,63 v -63 h 94 l 32,-32 V 158 L 220,63 V 31.5 L 252,0 h 32 l 62,31.5 32,31.5 63,95"
         style="stroke-width:0.4427in"
         transform="matrix(0.00635,0,0,-0.00635,6.9977,0)"
         id="path4071" /><path
         d="m 126,441 v -31 h 32 v 31 H 126 M 31.5,158 94.5,284 31.5,94.5 v -63 L 63,0 h 31.5 l 63.5,31.5 31,31.5 63,95"
         style="stroke-width:0.4427in"
         transform="matrix(0.00635,0,0,-0.00635,9.6012,0)"
         id="path4072" /><path
         d="m 31.5,158 63,94 31.5,63 v -63 l 63,-94 31,-63.5 v -63 L 158,0 M 31.5,31.5 94.5,0 H 220 l 64,31.5 31,31.5 63,95"
         style="stroke-width:0.4427in"
         transform="matrix(0.00635,0,0,-0.00635,10.9982,0)"
         id="path4073" /><path
         d="m 31.5,158 63,94 63.5,126 M 252,662 63,94.5 v -63 L 94.5,0 H 158 l 62,31.5 32,31.5 63,95 M 63,410 h 221"
         style="stroke-width:0.4427in"
         transform="matrix(0.00635,0,0,-0.00635,13.1953,0)"
         id="path4074" /><path
         d="m 31.5,158 63,94 63.5,32 31,-32 V 220 L 158,94.5 126,0 m 32,94.5 31,63.5 63,94 63,32 h 63 l 32,-32 V 220 L 378,94.5 346,0 m 32,94.5 32,63.5 62,94 64,32 h 62 l 32,-32 V 189 L 598,94.5 v -63 L 630,0 h 32 l 62,31.5 32,31.5 63,95"
         style="stroke-width:0.4427in"
         transform="matrix(0.00635,0,0,-0.00635,14.9987,0)"
         id="path4075" /><path
         d="m 315,189 -31,63 -64,32 H 158 L 94.5,252 63,220 31.5,158 V 94.5 L 63,31.5 126,0 h 63 l 63,31.5 32,63 L 346,284 315,126 V 31.5 L 346,0 h 32 l 63,31.5 31,31.5 64,95"
         style="stroke-width:0.4427in"
         transform="matrix(0.00635,0,0,-0.00635,20.0025,0)"
         id="path4076" /><path
         d="m 31.5,158 63,94 31.5,63 v -63 l 63,-94 31,-63.5 v -63 L 158,0 M 31.5,31.5 94.5,0 H 220 l 64,31.5 31,31.5 63,95"
         style="stroke-width:0.4427in"
         transform="matrix(0.00635,0,0,-0.00635,23.2029,0)"
         id="path4077" /></g><g
       transform="translate(87.4105,152.222)"
       id="g4081"><path
         d="m 252,536 32,-32 -32,-32 -32,32 v 32 l 32,62 32,32 94,32 h 94 l 95,-32 31,-63 V 504 L 567,441 504,378 410,315 284,252 189,189 126,126 63,0 m 409,662 64,-32 31,-63 V 504 L 536,441 472,378 284,252 M 94.5,63 126,94.5 h 63 l 157,-63 h 95 l 63,31.5 32,63 M 189,94.5 346,0 h 95 l 63,31.5 32,94.5"
         style="stroke-width:0.4427in"
         transform="scale(0.00635,-0.00635)"
         id="path4078" /><path
         d="M 410,662 315,630 252,567 189,472 158,378 126,252 V 158 L 158,63 189,31.5 252,0 h 63 l 95,31.5 62,63 64,94.5 31,95 31,126 v 94 l -31,94 -31,32 -64,32 h -62 m 0,0 -64,-32 -62,-63 -64,-95 -31,-94 -31,-126 V 158 L 189,63 252,0 m 63,0 63,31.5 63,63 63,94.5 32,95 31,126 v 94 l -31,94 -64,64"
         style="stroke-width:0.4427in"
         transform="matrix(0.00635,0,0,-0.00635,4.2037,0)"
         id="path4079" /><path
         d="m 252,536 32,-32 -32,-32 -32,32 v 32 l 32,62 32,32 94,32 h 94 l 95,-32 31,-63 V 504 L 567,441 504,378 410,315 284,252 189,189 126,126 63,0 m 409,662 64,-32 31,-63 V 504 L 536,441 472,378 284,252 M 94.5,63 126,94.5 h 63 l 157,-63 h 95 l 63,31.5 32,63 M 189,94.5 346,0 h 95 l 63,31.5 32,94.5"
         style="stroke-width:0.4427in"
         transform="matrix(0.00635,0,0,-0.00635,8.4074,0)"
         id="path4080" /><path
         d="M 315,662 158,346 M 315,662 H 630 M 315,630 h 157 l 158,32 m -472,-316 31,32 95,32 h 94 l 94,-32 32,-32 32,-62 V 189 L 504,94.5 441,31.5 346,0 H 252 L 158,31.5 126,63 94.5,126 v 32 l 31.5,31 32,-31 -32,-32 m 252,284 63,-32 31,-32 32,-62 V 189 L 472,94.5 410,31.5 346,0"
         style="stroke-width:0.4427in"
         transform="matrix(0.00635,0,0,-0.00635,12.6111,0)"
         id="path4081" /></g></g><path
     d="m 189.93094,154.44825 h 7.9375 v 13.22917 h -7.9375 z"
     fill="none"
     stroke="#8b4513"
     stroke-width="0.529167"
     id="path3" /><ns0:plotdata
     application="nextdraw"
     auto_rot="0"
     handling="0"
     hiding="0"
     layer="-2"
     model="8"
     optim="0"
     pause_dist="-25400"
     pause_ref="-25400"
     pause_warn="0"
     plob_version="n/a"
     rand_seed="1"
     rand_start="0" /></svg>
