<?xml version="1.0" encoding="UTF-8" standalone="no"?>
<!-- Created with Inkscape (http://www.inkscape.org/) -->

<svg
   width="11in"
   height="8.5in"
   viewBox="0 0 1056 816"
   version="1.1"
   id="svg1"
   xml:space="preserve"
   inkscape:version="1.3.2 (091e20e, 2023-11-25)"
   sodipodi:docname="HelloWorld.svg"
   xmlns:inkscape="http://www.inkscape.org/namespaces/inkscape"
   xmlns:sodipodi="http://sodipodi.sourceforge.net/DTD/sodipodi-0.dtd"
   xmlns="http://www.w3.org/2000/svg"
   xmlns:svg="http://www.w3.org/2000/svg"><sodipodi:namedview
     id="namedview1"
     pagecolor="#ffffff"
     bordercolor="#000000"
     borderopacity="0.25"
     inkscape:showpageshadow="2"
     inkscape:pageopacity="0.0"
     inkscape:pagecheckerboard="0"
     inkscape:deskcolor="#d1d1d1"
     inkscape:document-units="in"
     inkscape:zoom="1.395452"
     inkscape:cx="318.53478"
     inkscape:cy="197.06876"
     inkscape:window-width="1800"
     inkscape:window-height="1097"
     inkscape:window-x="0"
     inkscape:window-y="0"
     inkscape:window-maximized="0"
     inkscape:current-layer="layer2" /><defs
     id="defs1"><rect
       x="40.354136"
       y="42.371843"
       width="635.57765"
       height="336.95704"
       id="rect5" /><rect
       x="76.672859"
       y="30.265602"
       width="520.56836"
       height="228.00087"
       id="rect4" /><rect
       x="89.783268"
       y="165.28284"
       width="599.91548"
       height="189.76918"
       id="rect3" /><rect
       x="59.175335"
       y="42.851105"
       width="714.18512"
       height="320.36304"
       id="rect2" /><rect
       x="17.898306"
       y="31.322035"
       width="769.62714"
       height="970.98303"
       id="rect1" /></defs><g
     inkscape:label="1-Text"
     inkscape:groupmode="layer"
     id="layer1"
     transform="translate(-2.0177068)"
     style="display:inline"><g
       id="a"
       transform="translate(77.653884,198.31448)"
       inkscape:label="Hello, World! (Hersey Text - EMS Readability)"
       style="fill:none;stroke:#000000;stroke-linecap:round;stroke-linejoin:round"><g
         id="au"
         inkscape:label="Hello,"><path
           d="M 116,651 121,7 m 396,645 1,-642 m -399,339 399,1"
           transform="scale(0.066667,-0.066667)"
           style="stroke-width:0.1594in"
           id="ay" /><path
           d="m 72,251 354,2 q 2,33 -4.5,71 -6.5,38 -24,70.5 -17.5,32.5 -47,55 Q 321,472 277,474 228,476 188.5,458 149,440 122,406.5 95,373 82,326.5 69,280 72,226 75,178 91.5,137.5 108,97 136,68 164,39 200.5,22.5 237,6 280,6 312,6 345.5,15.5 379,25 414,47"
           transform="matrix(0.066667,0,0,-0.066667,42.600021,0)"
           style="stroke-width:0.1594in"
           id="aQ" /><path
           d="M 113,709 114,56 Q 114,32 127,15.5 140,-1 172,6"
           transform="matrix(0.066667,0,0,-0.066667,74.800037,0)"
           style="stroke-width:0.1594in"
           id="aQa" /><path
           d="M 113,709 114,56 Q 114,32 127,15.5 140,-1 172,6"
           transform="matrix(0.066667,0,0,-0.066667,90.600045,0)"
           style="stroke-width:0.1594in"
           id="ag" /><path
           d="m 225,467 q 26,6 49,6 59,0 99,-34.5 40,-34.5 61,-86 21,-51.5 22.5,-112 1.5,-60.5 -18,-112 Q 419,77 378.5,42.5 338,8 276,8 h -15.5 q 0,0 -15.5,2 -53,8 -90,41 Q 118,84 97.5,130 77,176 74,229.5 71,283 86.5,331.5 102,380 136.5,417 171,454 225,467"
           transform="matrix(0.066667,0,0,-0.066667,106.40005,0)"
           style="stroke-width:0.1594in"
           id="aJ" /><path
           d="m 98,33 q 4,20 18,20 12,0 23.5,-17.5 Q 151,18 150,-10 149,-38 129.5,-72.5 110,-107 60,-141"
           transform="matrix(0.066667,0,0,-0.066667,142.06674,0)"
           style="stroke-width:0.1594in"
           id="ad" /></g><g
         id="ayi"
         inkscape:label="World!"><path
           d="M 51,649 188,17 h 14.5 q 0,0 12.5,-1 l 163,626 h 17 L 555,17 h 14.5 q 0,0 12.5,-1 l 134,631"
           transform="matrix(0.066667,0,0,-0.066667,176.66675,0)"
           style="stroke-width:0.1594in"
           id="ar" /><path
           d="m 225,467 q 26,6 49,6 59,0 99,-34.5 40,-34.5 61,-86 21,-51.5 22.5,-112 1.5,-60.5 -18,-112 Q 419,77 378.5,42.5 338,8 276,8 h -15.5 q 0,0 -15.5,2 -53,8 -90,41 Q 118,84 97.5,130 77,176 74,229.5 71,283 86.5,331.5 102,380 136.5,417 171,454 225,467"
           transform="matrix(0.066667,0,0,-0.066667,228.00011,0)"
           style="stroke-width:0.1594in"
           id="ax" /><path
           d="M 109,472 115,6 m -4,315 q 17,30 32.5,57.5 15.5,27.5 33.5,48.5 18,21 39.5,33 21.5,12 50.5,12 9,0 18.5,-1 9.5,-1 20.5,-4"
           transform="matrix(0.066667,0,0,-0.066667,263.6668,0)"
           style="stroke-width:0.1594in"
           id="av" /><path
           d="M 113,709 114,56 Q 114,32 127,15.5 140,-1 172,6"
           transform="matrix(0.066667,0,0,-0.066667,284.80014,0)"
           style="stroke-width:0.1594in"
           id="an" /><path
           d="m 430,6 -1,705 M 426,100 Q 372,49 326.5,27 281,5 243,5 201,5 169,27.5 137,50 115.5,85 94,120 83,163 q -11,43 -11,84 0,59 16.5,101.5 16.5,42.5 43.5,70 27,27.5 62,40.5 35,13 71,13 50,0 95,-22 45,-22 71,-63"
           transform="matrix(0.066667,0,0,-0.066667,300.60015,0)"
           style="stroke-width:0.1594in"
           id="aa" /><path
           d="M 131,660 129,188 M 116,49 Q 121,38 127.5,29 134,20 140,11"
           transform="matrix(0.066667,0,0,-0.066667,336.86683,0)"
           style="stroke-width:0.1594in"
           id="aru" /></g></g></g><g
     inkscape:groupmode="layer"
     id="layer2"
     inkscape:label="2-Globe"
     style="display:inline"><path
       d="m 65.309,14.678 c 0,0 0.9633,1.1537 2.691,1.822 1.7936,0.6938 2.6105,1.6422 4.5,2 1.5348,0.2906 2.9445,-1.1515 4,0 1.2517,1.3655 -1.1095,2.9379 -1.5,4.5 l -1,4 c -0.3905,1.5621 2.8676,1.861 2.5,3.5 -0.3822,1.7041 -2.7718,0.7584 -4,2 -1.3524,1.3672 -1.1783,2.7613 -2,4.5 -0.9557,2.0224 -2.3692,4.6507 -3.3561,6.4459 -0.7283,1.3247 -0.9515,2.8716 -0.6053,4.3432 l 1.105,4.6964 C 67.8524,53.3729 68.6443,54 69.5558,54 c 0.5968,0 1.1612,0.2713 1.534,0.7373 l 0.5664,0.7079 C 72.2024,56.128 72.5,56.9764 72.5,57.8508 v 5.0351 c 0,0.7365 0.1356,1.4666 0.3999,2.1539 l 1.6222,4.2178 c 0.313,0.8136 0.8366,1.5294 1.5174,2.074 l 2.8554,2.2843 c 0.6047,0.4838 1.4896,0.3714 1.9542,-0.2481 0.3815,-0.5086 0.3635,-1.2127 -0.0436,-1.7011 L 77.5083,67.71 c -0.6607,-0.7929 -1.1027,-1.7447 -1.282,-2.7611 L 75.3338,59.8916 C 75.1597,58.9048 75.9188,58 76.9208,58 c 0.653,0 1.2415,0.3941 1.4901,0.9979 l 2.8745,6.981 c 0.1428,0.3466 0.3177,0.6791 0.5224,0.9931 l 6.4076,9.825 c 0.4474,0.6859 0.3104,1.5982 -0.3188,2.1225 -0.8945,0.7454 -0.7299,2.1639 0.3116,2.6846 l 12.9698,6.4847 c 1.126,0.5635 2.469,0.4799 3.517,-0.219 1.567,-1.0448 3.68,-0.667 4.788,0.8562 l 0.934,1.285 c 0.7,0.963 1.712,1.6545 2.863,1.9576 l 3.622,0.953 c 2.684,0.7062 5.132,2.1124 7.094,4.0748 l 5.609,5.6086 c 1.461,1.461 3.636,1.944 5.579,1.237 l 0.139,-0.05 c 1.381,-0.502 2.912,-0.372 4.188,0.357 0.965,0.552 1.719,1.409 2.142,2.437 l 0.566,1.374 c 1.39,3.376 0.684,7.251 -1.807,9.92 l -0.98,1.05 c -1.269,1.36 -2.192,3.006 -2.69,4.798 l -0.258,0.928 c -0.959,3.455 -0.692,7.137 0.758,10.417 l 5.623,12.727 c 1.069,2.418 2.793,4.489 4.977,5.979 4.652,3.171 6.983,8.797 5.94,14.329 l -2.572,13.628 c -0.468,2.48 -1.463,4.831 -2.919,6.893 -2.445,3.464 -3.444,7.759 -4.392,11.892 -0.801,3.495 -2.569,7.909 -6.399,11.979 -1.5,1.594 7,7 7,7 L 145,214 c 0,0 4.063,-2.644 6,-5 0.742,-0.903 -1.085,-1.798 -0.5,-3 1.559,-3.202 5.5,1.149 5.5,-6.5 0,-2.5 2.5,3.5 6,-4 1.567,-3.357 8.025,0.574 9,-3 0.524,-1.921 -2.027,-3.294 -1,-5 1.442,-2.395 4.312,2.267 7,1.5 3.646,-1.04 2.601,-5.557 5.5,-8 1.741,-1.467 3.319,-1.464 5,-3 2.646,-2.418 1.814,-5.626 4.5,-8 2.963,-2.618 6.307,-1.169 9.5,-3.5 6.535,-4.771 3.938,-12.011 7,-19.5 2.348,-5.744 11.186,-12.157 6.5,-14.5 l -12,-6 c -4.686,-2.343 -11.531,2.728 -12,-2 -0.294,-2.966 3.865,-3.522 4,-6.5 0.177,-3.901 -2.453,-6.365 -6,-8 -2.666,-1.229 -4.758,0.548 -7.5,-0.5 -3.484,-1.332 -4.404,-3.821 -7,-6.5 -1.828,-1.886 -1.883,-5.2234 -4.5,-5 -1.674,0.1429 -1.915,1.9452 -3.5,2.5 -3.8,1.33 -5.881,-5.7634 -9.5,-4 -1.866,0.9093 -1.43,4.156 -3.5,4 -1.947,-0.147 -1.087,-3.6108 -3,-4 -2.304,-0.4686 -3.097,2.1129 -4.5,4 -0.679,0.914 -0.456,2.046 -1.5,2.5 -0.716,0.311 -1.227,0.11 -2,0 -1.729,-0.247 -2.261,-1.836 -4,-2 -1.603,-0.152 -2.397,0.852 -4,1 -0.972,0.09 -1.566,0.286 -2.5,0 -2.02,-0.618 -2.339,-2.494 -3,-4.5 -1.046,-3.1745 3.617,-6.4207 1,-8.5 -1.689,-1.3417 -3.353,-0.2946 -5.5,-0.5 -1.953,-0.1869 -3.315,0.5057 -5,-0.5 -3.823,-2.2821 6,-12 3,-11 -3,1 -3.814,0.3474 -6,2 -2.025,1.5307 -1.207,3.4106 -3.5,4.5 -1.772,0.8422 -3.158,0.1754 -5,-0.5 -3.111,-1.1405 -4.907,-2.8718 -6,-6 -1.103,-3.1552 0.391,-5.2135 1,-8.5 0.328,-1.7701 -0.116,-3.0878 1,-4.5 1.193,-1.5086 2.643,-1.4984 4.5,-2 2.082,-0.5626 3.456,-1.1895 5.5,-0.5 1.079,0.364 1.367,1.6172 2.5,1.5 0.971,-0.1005 2,-1.5 2,-1.5 0,0 0.557,-0.6701 1,-1 1.574,-1.1721 3.381,-1.6094 5,-0.5 0.805,0.5519 0.54,1.8201 1.5,2 0.858,0.1609 1.127,-1 2,-1 1.381,0 2.332,1.1296 2.5,2.5 0.098,0.7991 -0.49,1.195 -0.5,2 -0.033,2.6268 5,4.5 5,4.5 0,0 0.8,-2.1524 0.5,-3.5 -0.306,-1.3743 -1.417,-1.7182 -2,-3 -0.824,-1.8128 -1.441,-3.0582 -1,-5 0.521,-2.2929 2.218,-2.9656 4,-4.5 1.929,-1.6614 7.151,-1.5616 5.5,-3.5 -0.456,-0.536 -1.055,-0.4545 -1.5,-1 -0.751,-0.9203 -1.461,-2.3014 -0.5,-3 0.632,-0.4594 1.448,0.5523 2,0 0.552,-0.5523 -0.14,-1.2315 0,-2 l 0.012,-0.0678 c 0.103,-0.568 0.169,-0.9309 0.488,-1.4322 0.611,-0.9606 1.397,-1.2195 2.5,-1.5 0.946,-0.2406 1.729,0.5994 2.5,0 1.09,-0.8477 -1.015,-2.2187 -0.5,-3.5 0.717,-1.7846 2.69,-1.3493 4.5,-2 0.581,-0.2089 0.889,-0.5873 1.5,-0.5 0.432,0.0618 0.732,0.1554 1,0.5 0.599,0.7707 -1.987,1.1539 -1.5,2 0,0 0.273,0.3428 0.5,0.5 1.015,0.7029 1.88,-0.479 3,-1 1.032,-0.4804 2.524,-0.3617 2.5,-1.5 -0.015,-0.7039 -0.219,-1.6953 -1,-1.5 l -2,0.5 c -0.781,0.1953 -1.759,-0.6355 -2.5,-1.5 -0.568,-0.663 -1,-1.1268 -1,-2 0,-0.6175 0.16,-0.9848 0.5,-1.5 0.888,-1.3434 2.569,-0.2621 4,-1 1.355,-0.6989 3.136,-0.981 3,-2.5 -0.087,-0.9724 -0.821,-1.2986 -1.5,-2 -2.321,-2.3972 -5.852,-1.4379 -8,-3 -2.148,-1.5621 -3,-4 -5.5,-4 -2.5,0 -1.253,1.9136 -2.5,2 -1.653,0.1146 -1.608,-2.102 -3,-3 -1.402,-0.9043 -2.357,-1.2121 -4,-1.5 -1.539,-0.2695 -3.621,-1.5155 -4,0 -0.276,1.1046 1.93,1.4456 1.5,2.5 -0.208,0.5115 -0.753,0.506 -1,1 -0.741,1.4819 3.524,1.4282 3,3 -0.414,1.2426 -2.326,0.3768 -3,1.5 -0.953,1.5884 2.848,3.2292 1.5,4.5 -1.145,1.08 -2.69,0.3732 -4,-0.5 -1.453,-0.9688 -0.711,-2.8215 -2,-4 -1.643,-1.5023 -3.329,-1.0084 -5.5,-1.5 -2.129,-0.482 -3.721,0.2649 -5.5,-1 -1.369,-0.9732 -2.431,-1.8217 -2.5,-3.5 -0.112,-2.7104 3.806,-1.9051 6,-3.5 1.011,-0.7351 2.5,-0.7497 2.5,-2 0,-1.2503 -1.571,-1.163 -2.5,-2 -0.821,-0.73948 -0.952,-1.6507 -2,-2 -0.741,-0.24699 -1.422,-0.52539 -2,0 -0.737,0.66975 0.786,1.5462 0.5,2.5 -0.563,1.8799 -3.046,0.676 -5,0.5 -1.604,-0.1444 -2.502,-1.59017 -4,-1 -1.028,0.40485 -0.942,1.6843 -2,2 -1.425,0.425 -2.216,-0.7492 -3.5,-1.5 C 100.892,9.64455 100.623,9.32818 100,9 98.4073,8.16085 97.2996,7.95264 95.5,8 93.8904,8.04236 93.0729,8.65557 91.5,9 90.5274,9.21298 89.9956,9.50869 89,9.5 87.3317,9.48544 85.6538,7.03209 84,6.81256 M 36.147175,36.147175 C 57.8629,14.43145 87.8629,1 121,1 c 66.274,0 120,53.7258 120,120 0,66.274 -53.726,120 -120,120 -20.34877,0 -39.514568,-5.06491 -56.305488,-14.00282 M 132.378,73.874 l 0.818,-0.2727 c 0.198,-0.0659 0.411,-0.0683 0.61,-0.007 l 6.102,1.8775 c 0.061,0.0188 0.12,0.0433 0.177,0.0734 l 4.764,2.5409 c 0.848,0.4525 0.632,1.7246 -0.319,1.8708 l -2.629,0.4045 c -0.51,0.0785 -0.997,-0.2447 -1.122,-0.7459 l -0.167,-0.6693 c -0.071,-0.2832 -0.262,-0.5213 -0.523,-0.6519 l -4.407,-2.2033 c -0.12,-0.0601 -0.251,-0.0953 -0.385,-0.1037 l -2.665,-0.1665 c -1.097,-0.0686 -1.297,-1.5993 -0.254,-1.9468 z m 8.413,8.4945 1.447,0.1113 c 0.171,0.0132 0.335,0.075 0.473,0.1781 0.65,0.4876 0.376,1.5188 -0.431,1.6196 l -1.44,0.18 c -0.221,0.0276 -0.445,-0.0158 -0.64,-0.1241 -0.985,-0.5474 -0.533,-2.0513 0.591,-1.9649 z m 10.184,-2.1248 0.82,0.2051 c 0.135,0.0338 0.276,0.0394 0.413,0.0165 l 0.745,-0.1242 c 1.303,-0.2171 2.636,0.1302 3.667,0.9551 L 157.5,82 c 0.641,0.4805 0.301,1.5 -0.5,1.5 h -1.587 c -0.269,0 -0.532,0.0796 -0.756,0.2288 l -0.96,0.6397 c -0.123,0.0821 -0.197,0.2205 -0.197,0.3686 0,0.4188 -0.527,0.6037 -0.789,0.2767 l -0.922,-1.1531 C 151.606,83.6327 151.33,83.5 151.038,83.5 h -3.468 c -0.315,0 -0.57,-0.2552 -0.57,-0.57 0,-0.2545 0.169,-0.4782 0.413,-0.5481 l 2.533,-0.7236 c 0.302,-0.0863 0.471,-0.4069 0.372,-0.7049 -0.138,-0.413 0.235,-0.8152 0.657,-0.7097 z m 10.344,2.6539 2.007,-0.2508 c 0.623,-0.0779 1.174,0.4083 1.174,1.0368 0,0.2063 -0.061,0.408 -0.175,0.5796 l -0.109,0.1626 c -0.423,0.6342 -1.218,0.907 -1.941,0.666 l -1.135,-0.3786 c -0.382,-0.1273 -0.64,-0.4848 -0.64,-0.8874 0,-0.4718 0.351,-0.8697 0.819,-0.9282 z m -22.278,-10.857 0.296,0.2968 c 0.107,0.1069 0.238,0.1875 0.381,0.2353 0.631,0.2102 1.282,-0.2592 1.282,-0.9239 v -0.189 c 0,-0.2944 -0.117,-0.5768 -0.325,-0.7849 l -0.134,-0.1343 c -0.512,-0.5119 -1.375,-0.3719 -1.699,0.2756 -0.204,0.4084 -0.124,0.9016 0.199,1.2244 z"
       stroke="#000000"
       id="path1"
       inkscape:label="Globe (NA)"
       sodipodi:nodetypes="cssssssssscssssssccccsccccsccccsccccscscccccccscsccccccccsccccscsccsccccssccsccsssccccccccscscsccccsccsscscsssccscccccsscccsccssccscccccsccscsssccccsccccsscccscsccsccscsssccssscccccccccsccccccscccccssccsccssccsccssscccsscsccccsscccsscccc"
       style="fill:none"
       transform="matrix(0.82258746,0,0,0.82258746,347.9756,60.992659)" /></g><plotdata
     application="nextdraw"
     model="9"
     plob_version="n/a"
     layer="-2"
     pause_dist="-25400"
     pause_ref="-25400"
     last_x="0.018750000000361804"
     last_y="0.00624999999994447"
     rand_seed="1"
     row="0" /></svg>
